<?xml version="1.0" encoding="UTF-8"?>
<svg id="Layer_2" data-name="Layer 2" xmlns="http://www.w3.org/2000/svg" viewBox="0 0 58.26 58.26">
  <defs>
    <style>
      .cls-1 {
        fill: #272626;
      }
    </style>
  </defs>
  <g id="Layer_1-2" data-name="Layer 1">
    <g>
      <path class="cls-1" d="M6.72,0c.45.05,1.48.89,1.48,1.31v3.24h34.59V1.42c0-.52.89-1.27,1.37-1.42h.8c.45.05,1.48.89,1.48,1.31v3.24h3.13s.53.23.62.29c1.09.71,1.09,2.24.06,3.01-.08.06-.54.34-.57.34h-3.24v25.03l10.7,3.7c.63.25.85.75,1.14,1.31v.91c-.36.63-.62,1.08-1.37,1.31l-12.28,4.1-4.16,12.34c-.52,1.66-2.7,1.86-3.49.31l-3.73-10.77H8.2v3.24s-.28.48-.34.57c-.77,1.03-2.3,1.03-3.01-.06-.06-.09-.29-.57-.29-.62v-3.13H1.31s-.48-.28-.57-.34c-1-.75-1.01-2.32.06-3.01.09-.06.57-.29.62-.29h3.13V8.19H1.31s-.48-.28-.57-.34c-1-.75-1.01-2.32.06-3.01.09-.06.57-.29.62-.29h3.13V1.42c0-.52.89-1.27,1.37-1.42h.8ZM24.92,8.19H8.2v16.84L24.92,8.19ZM42.79,8.19h-16.84l16.84,16.84V8.19ZM25.45,12.64l-12.81,12.89,12.89,12.81,3.59-3.6-1.8-5.34c-.09-1.25.84-2.17,2.09-2.09l5.34,1.8,3.6-3.67-12.89-12.81ZM8.2,25.94v16.84h16.73L8.2,25.94ZM42.79,31.86v-5.92c-.19.11-.17.39-.34.63-.52.7-3.69,3.43-3.76,3.87-.04.25.05.14.16.18.39.16,3.79,1.39,3.94,1.24ZM50.64,38.68l-18.43-6.48,6.43,18.43,2.7-8.11c.28-.62.58-.92,1.19-1.19l8.11-2.64ZM25.95,42.78h5.92c-.34-1.26-.75-2.74-1.24-3.94-.04-.11.06-.2-.18-.16-.44.07-3.16,3.24-3.87,3.76-.24.17-.52.15-.63.34Z"/>
      <circle class="cls-1" cx="24.59" cy="24.58" r="1.83"/>
    </g>
  </g>
</svg>