<svg xmlns="http://www.w3.org/2000/svg" xmlns:xlink="http://www.w3.org/1999/xlink" preserveAspectRatio="xMidYMid meet" width="496" height="789" viewBox="0 0 496 789" style="width:100%;height:100%"><defs><animateMotion repeatCount="indefinite" dur="3s" begin="0s" xlink:href="#_R_G_L_6_G" fill="freeze" keyTimes="0;0.5;0.9944444;1" path="M263.74 687 C263.74,687 263.74,717 263.74,717 C263.74,717 263.74,687 263.74,687 C263.74,687 263.74,687 263.74,687 " keyPoints="0;0.5;1;1" keySplines="0.333 0 0.667 1;0.167 0.167 0.833 0.833;0 0 0 0" calcMode="spline"/><animateTransform repeatCount="indefinite" dur="3s" begin="0s" xlink:href="#_R_G_L_6_G" fill="freeze" attributeName="transform" from="-184.731 -583.015" to="-184.731 -583.015" type="translate" additive="sum" keyTimes="0;1" values="-184.731 -583.015;-184.731 -583.015" keySplines="0 0 1 1" calcMode="spline"/><animateMotion repeatCount="indefinite" dur="3s" begin="0s" xlink:href="#_R_G_L_5_G" fill="freeze" keyTimes="0;0.5;1" path="M322.17 710.29 C322.17,710.29 307.17,704.29 307.17,704.29 C307.17,704.29 322.17,710.29 322.17,710.29 " keyPoints="0;0.5;1" keySplines="0.333 0 0.667 1;0.167 0.167 0.833 0.833" calcMode="spline"/><animateTransform repeatCount="indefinite" dur="3s" begin="0s" xlink:href="#_R_G_L_5_G" fill="freeze" attributeName="transform" from="-102.012 -54.056" to="-102.012 -54.056" type="translate" additive="sum" keyTimes="0;1" values="-102.012 -54.056;-102.012 -54.056" keySplines="0 0 1 1" calcMode="spline"/><animateMotion repeatCount="indefinite" dur="3s" begin="0s" xlink:href="#_R_G_L_4_G" fill="freeze" keyTimes="0;0.5;1" path="M348.75 610.32 C348.75,610.32 375.75,576.32 375.75,576.32 C375.75,576.32 348.75,610.32 348.75,610.32 " keyPoints="0;0.5;1" keySplines="0.333 0 0.667 1;0.167 0.167 0.833 0.833" calcMode="spline"/><animateTransform repeatCount="indefinite" dur="3s" begin="0s" xlink:href="#_R_G_L_4_G" fill="freeze" attributeName="transform" from="-18.299 -20.783" to="-18.299 -20.783" type="translate" additive="sum" keyTimes="0;1" values="-18.299 -20.783;-18.299 -20.783" keySplines="0 0 1 1" calcMode="spline"/><animateTransform repeatCount="indefinite" dur="3s" begin="0s" xlink:href="#_R_G_L_3_G" fill="freeze" attributeName="transform" from="0" to="0" type="rotate" additive="sum" keyTimes="0;0.5;1" values="0;-20;0" keySplines="0.333 0 0.667 1;0.167 0.167 0.833 0.833" calcMode="spline"/><animateTransform repeatCount="indefinite" dur="3s" begin="0s" xlink:href="#_R_G_L_3_G" fill="freeze" attributeName="transform" from="-2.837 -48.862" to="-2.837 -48.862" type="translate" additive="sum" keyTimes="0;1" values="-2.837 -48.862;-2.837 -48.862" keySplines="0 0 1 1" calcMode="spline"/><animateMotion repeatCount="indefinite" dur="3s" begin="0s" xlink:href="#_R_G_L_2_G" fill="freeze" keyTimes="0;0.5;1" path="M51.13 631.85 C51.13,631.85 51.13,655.85 51.13,655.85 C51.13,655.85 51.13,631.85 51.13,631.85 " keyPoints="0;0.5;1" keySplines="0.333 0 0.667 1;0.167 0.167 0.833 0.833" calcMode="spline"/><animateTransform repeatCount="indefinite" dur="3s" begin="0s" xlink:href="#_R_G_L_2_G" fill="freeze" attributeName="transform" from="-30.275 -29.419" to="-30.275 -29.419" type="translate" additive="sum" keyTimes="0;1" values="-30.275 -29.419;-30.275 -29.419" keySplines="0 0 1 1" calcMode="spline"/><animateTransform repeatCount="indefinite" dur="3s" begin="0s" xlink:href="#_R_G_L_1_G" fill="freeze" attributeName="transform" from="0" to="0" type="rotate" additive="sum" keyTimes="0;0.5;1" values="0;20;0" keySplines="0.333 0 0.667 1;0.167 0.167 0.833 0.833" calcMode="spline"/><animateTransform repeatCount="indefinite" dur="3s" begin="0s" xlink:href="#_R_G_L_1_G" fill="freeze" attributeName="transform" from="-46.609 -67.204" to="-46.609 -67.204" type="translate" additive="sum" keyTimes="0;1" values="-46.609 -67.204;-46.609 -67.204" keySplines="0 0 1 1" calcMode="spline"/><animateMotion repeatCount="indefinite" dur="3s" begin="0s" xlink:href="#_R_G_L_0_G" fill="freeze" keyTimes="0;0.5;1" path="M147.8 140.68 C147.8,140.68 147.8,90.68 147.8,90.68 C147.8,90.68 147.8,140.68 147.8,140.68 " keyPoints="0;0.5;1" keySplines="0.333 0 0.667 1;0.167 0.167 0.833 0.833" calcMode="spline"/><animateTransform repeatCount="indefinite" dur="3s" begin="0s" xlink:href="#_R_G_L_0_G" fill="freeze" attributeName="transform" from="-68.668 -64.461" to="-68.668 -64.461" type="translate" additive="sum" keyTimes="0;1" values="-68.668 -64.461;-68.668 -64.461" keySplines="0 0 1 1" calcMode="spline"/><animate attributeType="XML" attributeName="opacity" dur="3s" from="0" to="1" xlink:href="#time_group"/></defs><g id="_R_G"><g id="_R_G_L_6_G"><path id="_R_G_L_6_G_D_0_P_0" fill="#6f7070" fill-opacity="1" fill-rule="nonzero" d=" M292.68 141.74 C292.68,141.74 292.68,210.31 292.68,210.31 C292.68,210.31 292.68,321.75 292.68,321.75 C292.68,321.75 292.68,336.99 292.68,336.99 C292.68,336.99 91.71,536.05 91.71,536.05 C91.71,536.05 91.71,202.69 91.71,202.69 C91.71,202.69 104.81,214.39 104.81,214.39 C114.16,222.73 119.5,234.67 119.5,247.19 C120.42,264.13 126.89,290.66 132.97,312.45 C137.74,329.54 158.93,335.5 171.88,323.37 C171.88,323.37 258.39,242.4 258.39,242.4 C258.39,242.4 258.39,158.88 258.39,158.88 C258.39,158.88 211.16,122.76 211.16,122.76 C200.11,114.31 193.63,101.19 193.63,87.29 C193.63,87.29 193.63,72.21 193.63,72.21 C193.63,72.21 292.68,141.74 292.68,141.74z "/><path id="_R_G_L_6_G_D_1_P_0" fill="#ee7877" fill-opacity="1" fill-rule="nonzero" d=" M292.21 185.31 C292.21,185.31 161.48,185.31 161.48,185.31 C161.48,203.06 175.87,217.46 193.63,217.46 C193.63,217.46 292.21,217.46 292.21,217.46 C292.21,217.46 292.21,185.31 292.21,185.31z "/><path id="_R_G_L_6_G_D_2_P_0" fill="#ef8381" fill-opacity="1" fill-rule="nonzero" d=" M292.21 217.46 C292.21,217.46 161.48,217.46 161.48,217.46 C161.48,235.21 175.87,249.6 193.63,249.6 C193.63,249.6 258.39,249.6 258.39,249.6 C258.39,249.6 258.39,283.18 258.39,283.18 C258.39,283.18 192.2,351.75 192.2,351.75 C192.2,351.75 292.21,330.32 292.21,330.32 C292.21,330.32 292.21,217.46 292.21,217.46z "/><path id="_R_G_L_6_G_D_3_P_0" fill="#6f7070" fill-opacity="1" fill-rule="nonzero" d=" M292.68 141.74 C292.68,141.74 292.68,210.31 292.68,210.31 C292.68,210.31 258.39,242.4 258.39,242.4 C258.39,242.4 258.39,158.88 258.39,158.88 C258.39,158.88 211.16,122.76 211.16,122.76 C200.11,114.31 193.63,101.19 193.63,87.29 C193.63,87.29 193.63,72.21 193.63,72.21 C193.63,72.21 292.68,141.74 292.68,141.74z "/><path id="_R_G_L_6_G_D_4_P_0" fill="#45484c" fill-opacity="1" fill-rule="nonzero" d=" M51.7 413.06 C51.7,413.06 12.71,382.74 12.71,382.74 C12.71,382.74 14.33,380.66 14.33,380.66 C14.33,380.66 53.32,410.98 53.32,410.98 C53.32,410.98 51.7,413.06 51.7,413.06z "/><path id="_R_G_L_6_G_D_5_P_0" fill="#36a9df" fill-opacity="1" fill-rule="nonzero" d=" M313.07 63.7 C313.07,63.7 44.2,422.71 44.2,422.71 C39.61,428.61 30.01,428.83 22.77,423.19 C22.77,423.19 9.65,412.99 9.65,412.99 C2.4,407.35 0.25,398 4.84,392.1 C4.84,392.1 273.71,33.09 273.71,33.09 C273.71,33.09 313.07,63.7 313.07,63.7z "/><path id="_R_G_L_6_G_D_6_P_0" fill="#ffffff" fill-opacity="1" fill-rule="nonzero" d=" M51.37 413.49 C51.37,413.49 12.01,382.88 12.01,382.88 C12.01,382.88 4.84,392.1 4.84,392.1 C0.25,398 2.4,407.35 9.65,412.99 C9.65,412.99 22.77,423.19 22.77,423.19 C30.01,428.83 39.61,428.61 44.2,422.71 C44.2,422.71 51.37,413.49 51.37,413.49z "/><path id="_R_G_L_6_G_D_7_P_0" fill="#ffffff" fill-opacity="1" fill-rule="nonzero" d=" M312.95 63.71 C312.95,63.71 330.83,0.25 330.83,0.25 C330.83,0.25 273.73,33.21 273.73,33.21 C273.73,33.21 312.95,63.71 312.95,63.71z "/><path id="_R_G_L_6_G_D_8_P_0" fill="#36a9df" fill-opacity="1" fill-rule="nonzero" d=" M302.88 16.39 C302.88,16.39 322.08,31.32 322.08,31.32 C322.08,31.32 330.83,0.25 330.83,0.25 C330.83,0.25 302.88,16.39 302.88,16.39z "/><path id="_R_G_L_6_G_D_9_P_0" fill="#ffffff" fill-opacity="1" fill-rule="nonzero" d=" M344.9 166.74 C344.9,166.74 367.21,286.75 367.21,286.75 C367.21,286.75 184.23,469.9 184.23,469.9 C184.23,469.9 184.23,489.31 184.23,489.31 C184.23,489.31 184.23,581.78 184.23,581.78 C184.23,581.78 91.14,581.78 91.14,581.78 C91.14,581.78 91.14,453.91 91.14,453.91 C91.14,453.91 101.93,425.06 101.93,425.06 C120.65,374.99 164.47,339.33 216.3,331.99 C216.3,331.99 229.05,330.18 229.05,330.18 C251.74,326.97 273.71,319.77 294.01,308.89 C294.01,308.89 331.66,272.46 331.66,272.46 C331.66,272.46 324.55,207.92 324.55,207.92 C322.91,193.06 329.19,178.45 340.99,169.66 C340.99,169.66 344.9,166.74 344.9,166.74z "/><path id="_R_G_L_6_G_D_10_P_0" fill="#ffffff" fill-opacity="1" fill-rule="nonzero" d=" M292.21 185.31 C292.21,185.31 161.48,185.31 161.48,185.31 C161.48,203.06 175.87,217.46 193.63,217.46 C193.63,217.46 292.21,217.46 292.21,217.46 C292.21,217.46 292.21,185.31 292.21,185.31z "/><path id="_R_G_L_6_G_D_11_P_0" fill="#ffffff" fill-opacity="1" fill-rule="nonzero" d=" M229.05 330.18 C229.05,330.18 216.29,331.99 216.29,331.99 C214.29,332.27 212.3,332.6 210.33,332.97 C210.33,332.97 258.39,283.18 258.39,283.18 C258.39,283.18 258.39,249.6 258.39,249.6 C258.39,249.6 193.63,249.6 193.63,249.6 C175.87,249.6 161.48,235.21 161.48,217.46 C161.48,217.46 292.21,217.46 292.21,217.46 C292.21,217.46 292.21,309.83 292.21,309.83 C272.41,320.18 251.07,327.06 229.05,330.18z "/><path id="_R_G_L_6_G_D_12_P_0" fill="#45484c" fill-opacity="1" fill-rule="nonzero" d=" M92.46 581.78 C92.46,581.78 89.82,581.78 89.82,581.78 C89.82,581.78 89.82,453.67 89.82,453.67 C89.82,453.67 100.69,424.59 100.69,424.59 C119.58,374.08 163.8,338.09 216.11,330.68 C216.11,330.68 228.87,328.87 228.87,328.87 C251.4,325.68 273.05,318.59 293.22,307.81 C293.22,307.81 330.27,271.96 330.27,271.96 C330.27,271.96 323.23,208.07 323.23,208.07 C321.55,192.77 328.05,177.65 340.2,168.59 C340.2,168.59 344.11,165.68 344.11,165.68 C344.11,165.68 345.69,167.8 345.69,167.8 C345.69,167.8 341.78,170.72 341.78,170.72 C330.38,179.21 324.28,193.41 325.86,207.78 C325.86,207.78 333.04,272.96 333.04,272.96 C333.04,272.96 294.8,309.97 294.8,309.97 C294.8,309.97 294.63,310.06 294.63,310.06 C274.14,321.03 252.14,328.25 229.24,331.49 C229.24,331.49 216.48,333.3 216.48,333.3 C165.13,340.58 121.71,375.91 103.17,425.52 C103.17,425.52 92.46,454.14 92.46,454.14 C92.46,454.14 92.46,581.78 92.46,581.78z "/><path id="_R_G_L_6_G_D_13_P_0" fill="#45484c" fill-opacity="1" fill-rule="nonzero" d=" M292.21 218.78 C292.21,218.78 161.48,218.78 161.48,218.78 C161.48,218.78 161.48,216.13 161.48,216.13 C161.48,216.13 292.21,216.13 292.21,216.13 C292.21,216.13 292.21,218.78 292.21,218.78z "/></g><g id="_R_G_L_5_G"><path id="_R_G_L_5_G_D_0_P_0" fill="#6f7070" fill-opacity="1" fill-rule="nonzero" d=" M0.25 107.86 C0.25,107.86 203.77,107.86 203.77,107.86 C203.77,107.86 203.77,0.92 203.77,0.92 C203.77,0.92 0.25,0.92 0.25,0.92 C0.25,0.92 0.25,107.86 0.25,107.86z "/><path id="_R_G_L_5_G_D_1_P_0" fill="#595959" fill-opacity="1" fill-rule="nonzero" d=" M0.25 9.55 C0.25,9.55 203.77,9.55 203.77,9.55 C203.77,9.55 203.77,0.25 203.77,0.25 C203.77,0.25 0.25,0.25 0.25,0.25 C0.25,0.25 0.25,9.55 0.25,9.55z "/><path id="_R_G_L_5_G_D_2_P_0" fill="#595959" fill-opacity="1" fill-rule="nonzero" d=" M66.13 7.54 C66.13,7.54 203.77,7.54 203.77,7.54 C203.77,7.54 203.77,19.74 203.77,19.74 C203.77,19.74 66.13,19.74 66.13,19.74 C66.13,19.74 66.13,7.54 66.13,7.54z "/><path id="_R_G_L_5_G_D_3_P_0" fill="#595959" fill-opacity="1" fill-rule="nonzero" d=" M42.53 16 C42.53,16 4.82,16 4.82,16 C4.82,16 4.82,14.22 4.82,14.22 C4.82,14.22 42.53,14.22 42.53,14.22 C42.53,14.22 42.53,16 42.53,16z "/><path id="_R_G_L_5_G_D_4_P_0" fill="#ffffff" fill-opacity="1" fill-rule="nonzero" d=" M95.51 16 C95.51,16 70.6,16 70.6,16 C70.6,16 70.6,14.22 70.6,14.22 C70.6,14.22 95.51,14.22 95.51,14.22 C95.51,14.22 95.51,16 95.51,16z "/><path id="_R_G_L_5_G_D_5_P_0" fill="#ffffff" fill-opacity="1" fill-rule="nonzero" d=" M134.08 16 C134.08,16 109.17,16 109.17,16 C109.17,16 109.17,14.22 109.17,14.22 C109.17,14.22 134.08,14.22 134.08,14.22 C134.08,14.22 134.08,16 134.08,16z "/><path id="_R_G_L_5_G_D_6_P_0" fill="#ffffff" fill-opacity="1" fill-rule="nonzero" d=" M5.72 6.61 C5.72,6.61 2.81,6.61 2.81,6.61 C2.81,6.61 2.81,3.44 2.81,3.44 C2.81,3.44 5.72,3.44 5.72,3.44 C5.72,3.44 5.72,6.61 5.72,6.61z "/><path id="_R_G_L_5_G_D_7_P_0" fill="#ffffff" fill-opacity="1" fill-rule="nonzero" d=" M191.15 95.7 C191.15,95.7 193.46,95.7 193.46,95.7 C193.46,95.7 193.46,98.88 193.46,98.88 C193.46,98.88 191.15,98.88 191.15,98.88 C191.15,98.88 191.15,95.7 191.15,95.7z "/><path id="_R_G_L_5_G_D_8_P_0" fill="#ffffff" fill-opacity="1" fill-rule="nonzero" d=" M186.72 95.7 C186.72,95.7 189.04,95.7 189.04,95.7 C189.04,95.7 189.04,98.88 189.04,98.88 C189.04,98.88 186.72,98.88 186.72,98.88 C186.72,98.88 186.72,95.7 186.72,95.7z "/><path id="_R_G_L_5_G_D_9_P_0" fill="#6a7180" fill-opacity="1" fill-rule="nonzero" d=" M11.2 99.96 C11.2,99.96 5.39,99.96 5.39,99.96 C5.39,99.96 5.39,93.61 5.39,93.61 C5.39,93.61 11.2,93.61 11.2,93.61 C11.2,93.61 11.2,99.96 11.2,99.96z "/><path id="_R_G_L_5_G_D_10_P_0" fill="#595959" fill-opacity="1" fill-rule="nonzero" d=" M11.2 99.96 C11.2,99.96 5.39,99.96 5.39,99.96 C5.39,99.96 5.39,93.61 5.39,93.61 C5.39,93.61 11.2,93.61 11.2,93.61 C11.2,93.61 11.2,99.96 11.2,99.96z "/><path id="_R_G_L_5_G_D_11_P_0" fill="#ffffff" fill-opacity="1" fill-rule="nonzero" d=" M9.55 98.17 C9.55,98.17 7.03,98.17 7.03,98.17 C7.03,98.17 7.03,95.4 7.03,95.4 C7.03,95.4 9.55,95.4 9.55,95.4 C9.55,95.4 9.55,98.17 9.55,98.17z "/><path id="_R_G_L_5_G_D_12_P_0" fill="#595959" fill-opacity="1" fill-rule="nonzero" d=" M5.08 40.02 C5.08,40.02 19.2,40.02 19.2,40.02 C19.2,40.02 19.2,25.91 19.2,25.91 C19.2,25.91 5.08,25.91 5.08,25.91 C5.08,25.91 5.08,40.02 5.08,40.02z "/><path id="_R_G_L_5_G_D_13_P_0" fill="#34637c" fill-opacity="1" fill-rule="nonzero" d=" M20.71 40.02 C20.71,40.02 34.83,40.02 34.83,40.02 C34.83,40.02 34.83,25.91 34.83,25.91 C34.83,25.91 20.71,25.91 20.71,25.91 C20.71,25.91 20.71,40.02 20.71,40.02z "/><path id="_R_G_L_5_G_D_14_P_0" fill="#3586ad" fill-opacity="1" fill-rule="nonzero" d=" M36.34 40.02 C36.34,40.02 50.45,40.02 50.45,40.02 C50.45,40.02 50.45,25.91 50.45,25.91 C50.45,25.91 36.34,25.91 36.34,25.91 C36.34,25.91 36.34,40.02 36.34,40.02z "/><path id="_R_G_L_5_G_D_15_P_0" fill="#36a9df" fill-opacity="1" fill-rule="nonzero" d=" M51.97 40.02 C51.97,40.02 66.08,40.02 66.08,40.02 C66.08,40.02 66.08,25.91 66.08,25.91 C66.08,25.91 51.97,25.91 51.97,25.91 C51.97,25.91 51.97,40.02 51.97,40.02z "/><path id="_R_G_L_5_G_D_16_P_0" fill="#4ebbe4" fill-opacity="1" fill-rule="nonzero" d=" M67.59 40.02 C67.59,40.02 81.72,40.02 81.72,40.02 C81.72,40.02 81.72,25.91 81.72,25.91 C81.72,25.91 67.59,25.91 67.59,25.91 C67.59,25.91 67.59,40.02 67.59,40.02z "/><path id="_R_G_L_5_G_D_17_P_0" fill="#76cceb" fill-opacity="1" fill-rule="nonzero" d=" M83.23 40.02 C83.23,40.02 97.34,40.02 97.34,40.02 C97.34,40.02 97.34,25.91 97.34,25.91 C97.34,25.91 83.23,25.91 83.23,25.91 C83.23,25.91 83.23,40.02 83.23,40.02z "/><path id="_R_G_L_5_G_D_18_P_0" fill="#76cceb" fill-opacity="1" fill-rule="nonzero" d=" M98.86 40.02 C98.86,40.02 112.97,40.02 112.97,40.02 C112.97,40.02 112.97,25.91 112.97,25.91 C112.97,25.91 98.86,25.91 98.86,25.91 C98.86,25.91 98.86,40.02 98.86,40.02z "/><path id="_R_G_L_5_G_D_19_P_0" fill="#a4def2" fill-opacity="1" fill-rule="nonzero" d=" M114.48 40.02 C114.48,40.02 128.6,40.02 128.6,40.02 C128.6,40.02 128.6,25.91 128.6,25.91 C128.6,25.91 114.48,25.91 114.48,25.91 C114.48,25.91 114.48,40.02 114.48,40.02z "/><path id="_R_G_L_5_G_D_20_P_0" fill="#d0edf7" fill-opacity="1" fill-rule="nonzero" d=" M130.11 40.02 C130.11,40.02 144.23,40.02 144.23,40.02 C144.23,40.02 144.23,25.91 144.23,25.91 C144.23,25.91 130.11,25.91 130.11,25.91 C130.11,25.91 130.11,40.02 130.11,40.02z "/><path id="_R_G_L_5_G_D_21_P_0" fill="#ffffff" fill-opacity="1" fill-rule="nonzero" d=" M15.05 36.13 C15.05,36.13 9.24,36.13 9.24,36.13 C9.24,36.13 9.24,29.79 9.24,29.79 C9.24,29.79 15.05,29.79 15.05,29.79 C15.05,29.79 15.05,36.13 15.05,36.13z "/><path id="_R_G_L_5_G_D_22_P_0" fill="#595959" fill-opacity="1" fill-rule="nonzero" d=" M5.08 56.45 C5.08,56.45 19.2,56.45 19.2,56.45 C19.2,56.45 19.2,42.33 19.2,42.33 C19.2,42.33 5.08,42.33 5.08,42.33 C5.08,42.33 5.08,56.45 5.08,56.45z "/><path id="_R_G_L_5_G_D_23_P_0" fill="#34637c" fill-opacity="1" fill-rule="nonzero" d=" M20.71 56.45 C20.71,56.45 34.83,56.45 34.83,56.45 C34.83,56.45 34.83,42.33 34.83,42.33 C34.83,42.33 20.71,42.33 20.71,42.33 C20.71,42.33 20.71,56.45 20.71,56.45z "/><path id="_R_G_L_5_G_D_24_P_0" fill="#3586ad" fill-opacity="1" fill-rule="nonzero" d=" M36.34 56.45 C36.34,56.45 50.45,56.45 50.45,56.45 C50.45,56.45 50.45,42.33 50.45,42.33 C50.45,42.33 36.34,42.33 36.34,42.33 C36.34,42.33 36.34,56.45 36.34,56.45z "/><path id="_R_G_L_5_G_D_25_P_0" fill="#36a9df" fill-opacity="1" fill-rule="nonzero" d=" M51.97 56.45 C51.97,56.45 66.08,56.45 66.08,56.45 C66.08,56.45 66.08,42.33 66.08,42.33 C66.08,42.33 51.97,42.33 51.97,42.33 C51.97,42.33 51.97,56.45 51.97,56.45z "/><path id="_R_G_L_5_G_D_26_P_0" fill="#4ebbe4" fill-opacity="1" fill-rule="nonzero" d=" M67.59 56.45 C67.59,56.45 81.72,56.45 81.72,56.45 C81.72,56.45 81.72,42.33 81.72,42.33 C81.72,42.33 67.59,42.33 67.59,42.33 C67.59,42.33 67.59,56.45 67.59,56.45z "/><path id="_R_G_L_5_G_D_27_P_0" fill="#76cceb" fill-opacity="1" fill-rule="nonzero" d=" M83.23 56.45 C83.23,56.45 97.34,56.45 97.34,56.45 C97.34,56.45 97.34,42.33 97.34,42.33 C97.34,42.33 83.23,42.33 83.23,42.33 C83.23,42.33 83.23,56.45 83.23,56.45z "/><path id="_R_G_L_5_G_D_28_P_0" fill="#ffffff" fill-opacity="1" fill-rule="nonzero" d=" M15.05 52.57 C15.05,52.57 9.24,52.57 9.24,52.57 C9.24,52.57 9.24,46.22 9.24,46.22 C9.24,46.22 15.05,46.22 15.05,46.22 C15.05,46.22 15.05,52.57 15.05,52.57z "/><path id="_R_G_L_5_G_D_29_P_0" fill="#595959" fill-opacity="1" fill-rule="nonzero" d=" M5.08 72.88 C5.08,72.88 19.2,72.88 19.2,72.88 C19.2,72.88 19.2,58.76 19.2,58.76 C19.2,58.76 5.08,58.76 5.08,58.76 C5.08,58.76 5.08,72.88 5.08,72.88z "/><path id="_R_G_L_5_G_D_30_P_0" fill="#d1eade" fill-opacity="1" fill-rule="nonzero" d=" M144.23 58.76 C144.23,58.76 130.11,58.76 130.11,58.76 C130.11,58.76 130.11,72.88 130.11,72.88 C130.11,72.88 144.23,72.88 144.23,72.88 C144.23,72.88 144.23,58.76 144.23,58.76z "/><path id="_R_G_L_5_G_D_31_P_0" fill="#a4d8bf" fill-opacity="1" fill-rule="nonzero" d=" M128.6 58.76 C128.6,58.76 114.49,58.76 114.49,58.76 C114.49,58.76 114.49,72.88 114.49,72.88 C114.49,72.88 128.6,72.88 128.6,72.88 C128.6,72.88 128.6,58.76 128.6,58.76z "/><path id="_R_G_L_5_G_D_32_P_0" fill="#7ac8a1" fill-opacity="1" fill-rule="nonzero" d=" M112.97 58.76 C112.97,58.76 98.86,58.76 98.86,58.76 C98.86,58.76 98.86,72.88 98.86,72.88 C98.86,72.88 112.97,72.88 112.97,72.88 C112.97,72.88 112.97,58.76 112.97,58.76z "/><path id="_R_G_L_5_G_D_33_P_0" fill="#7ac8a1" fill-opacity="1" fill-rule="nonzero" d=" M97.34 58.76 C97.34,58.76 83.23,58.76 83.23,58.76 C83.23,58.76 83.23,72.88 83.23,72.88 C83.23,72.88 97.34,72.88 97.34,72.88 C97.34,72.88 97.34,58.76 97.34,58.76z "/><path id="_R_G_L_5_G_D_34_P_0" fill="#4ebd85" fill-opacity="1" fill-rule="nonzero" d=" M81.72 58.76 C81.72,58.76 67.59,58.76 67.59,58.76 C67.59,58.76 67.59,72.88 67.59,72.88 C67.59,72.88 81.72,72.88 81.72,72.88 C81.72,72.88 81.72,58.76 81.72,58.76z "/><path id="_R_G_L_5_G_D_35_P_0" fill="#34ad67" fill-opacity="1" fill-rule="nonzero" d=" M66.08 58.76 C66.08,58.76 51.97,58.76 51.97,58.76 C51.97,58.76 51.97,72.88 51.97,72.88 C51.97,72.88 66.08,72.88 66.08,72.88 C66.08,72.88 66.08,58.76 66.08,58.76z "/><path id="_R_G_L_5_G_D_36_P_0" fill="#368956" fill-opacity="1" fill-rule="nonzero" d=" M50.45 58.76 C50.45,58.76 36.34,58.76 36.34,58.76 C36.34,58.76 36.34,72.88 36.34,72.88 C36.34,72.88 50.45,72.88 50.45,72.88 C50.45,72.88 50.45,58.76 50.45,58.76z "/><path id="_R_G_L_5_G_D_37_P_0" fill="#356547" fill-opacity="1" fill-rule="nonzero" d=" M34.83 58.76 C34.83,58.76 20.71,58.76 20.71,58.76 C20.71,58.76 20.71,72.88 20.71,72.88 C20.71,72.88 34.83,72.88 34.83,72.88 C34.83,72.88 34.83,58.76 34.83,58.76z "/><path id="_R_G_L_5_G_D_38_P_0" fill="#ffffff" fill-opacity="1" fill-rule="nonzero" d=" M15.05 68.98 C15.05,68.98 9.24,68.98 9.24,68.98 C9.24,68.98 9.24,62.64 9.24,62.64 C9.24,62.64 15.05,62.64 15.05,62.64 C15.05,62.64 15.05,68.98 15.05,68.98z "/><path id="_R_G_L_5_G_D_39_P_0" fill="#595959" fill-opacity="1" fill-rule="nonzero" d=" M5.08 89.3 C5.08,89.3 19.2,89.3 19.2,89.3 C19.2,89.3 19.2,75.19 19.2,75.19 C19.2,75.19 5.08,75.19 5.08,75.19 C5.08,75.19 5.08,89.3 5.08,89.3z "/><path id="_R_G_L_5_G_D_40_P_0" fill="#356547" fill-opacity="1" fill-rule="nonzero" d=" M20.71 89.3 C20.71,89.3 34.83,89.3 34.83,89.3 C34.83,89.3 34.83,75.19 34.83,75.19 C34.83,75.19 20.71,75.19 20.71,75.19 C20.71,75.19 20.71,89.3 20.71,89.3z "/><path id="_R_G_L_5_G_D_41_P_0" fill="#368956" fill-opacity="1" fill-rule="nonzero" d=" M36.34 89.3 C36.34,89.3 50.45,89.3 50.45,89.3 C50.45,89.3 50.45,75.19 50.45,75.19 C50.45,75.19 36.34,75.19 36.34,75.19 C36.34,75.19 36.34,89.3 36.34,89.3z "/><path id="_R_G_L_5_G_D_42_P_0" fill="#34ad67" fill-opacity="1" fill-rule="nonzero" d=" M51.97 89.3 C51.97,89.3 66.08,89.3 66.08,89.3 C66.08,89.3 66.08,75.19 66.08,75.19 C66.08,75.19 51.97,75.19 51.97,75.19 C51.97,75.19 51.97,89.3 51.97,89.3z "/><path id="_R_G_L_5_G_D_43_P_0" fill="#4ebd85" fill-opacity="1" fill-rule="nonzero" d=" M67.59 89.3 C67.59,89.3 81.72,89.3 81.72,89.3 C81.72,89.3 81.72,75.19 81.72,75.19 C81.72,75.19 67.59,75.19 67.59,75.19 C67.59,75.19 67.59,89.3 67.59,89.3z "/><path id="_R_G_L_5_G_D_44_P_0" fill="#7ac8a1" fill-opacity="1" fill-rule="nonzero" d=" M83.23 89.3 C83.23,89.3 97.34,89.3 97.34,89.3 C97.34,89.3 97.34,75.19 97.34,75.19 C97.34,75.19 83.23,75.19 83.23,75.19 C83.23,75.19 83.23,89.3 83.23,89.3z "/><path id="_R_G_L_5_G_D_45_P_0" fill="#a4d8bf" fill-opacity="1" fill-rule="nonzero" d=" M114.48 89.3 C114.48,89.3 128.6,89.3 128.6,89.3 C128.6,89.3 128.6,75.19 128.6,75.19 C128.6,75.19 114.48,75.19 114.48,75.19 C114.48,75.19 114.48,89.3 114.48,89.3z "/><path id="_R_G_L_5_G_D_46_P_0" fill="#7ac8a1" fill-opacity="1" fill-rule="nonzero" d=" M98.86 89.3 C98.86,89.3 112.97,89.3 112.97,89.3 C112.97,89.3 112.97,75.19 112.97,75.19 C112.97,75.19 98.86,75.19 98.86,75.19 C98.86,75.19 98.86,89.3 98.86,89.3z "/><path id="_R_G_L_5_G_D_47_P_0" fill="#ffffff" fill-opacity="1" fill-rule="nonzero" d=" M15.05 85.42 C15.05,85.42 9.24,85.42 9.24,85.42 C9.24,85.42 9.24,79.07 9.24,79.07 C9.24,79.07 15.05,79.07 15.05,79.07 C15.05,79.07 15.05,85.42 15.05,85.42z "/><path id="_R_G_L_5_G_D_48_P_0" fill="#ffffff" fill-opacity="1" fill-rule="nonzero" d=" M182.1 100.97 C182.1,100.97 176.29,100.97 176.29,100.97 C176.29,100.97 176.29,94.62 176.29,94.62 C176.29,94.62 182.1,94.62 182.1,94.62 C182.1,94.62 182.1,100.97 182.1,100.97z "/><path id="_R_G_L_5_G_D_49_P_0" fill="#ffffff" fill-opacity="1" fill-rule="nonzero" d=" M172.02 100.97 C172.02,100.97 166.21,100.97 166.21,100.97 C166.21,100.97 166.21,94.62 166.21,94.62 C166.21,94.62 172.02,94.62 172.02,94.62 C172.02,94.62 172.02,100.97 172.02,100.97z "/><path id="_R_G_L_5_G_D_50_P_0" fill="#ffffff" fill-opacity="1" fill-rule="nonzero" d=" M161.94 100.97 C161.94,100.97 156.13,100.97 156.13,100.97 C156.13,100.97 156.13,94.62 156.13,94.62 C156.13,94.62 161.94,94.62 161.94,94.62 C161.94,94.62 161.94,100.97 161.94,100.97z "/><path id="_R_G_L_5_G_D_51_P_0" fill="#ffffff" fill-opacity="1" fill-rule="nonzero" d=" M151.86 100.97 C151.86,100.97 146.04,100.97 146.04,100.97 C146.04,100.97 146.04,94.62 146.04,94.62 C146.04,94.62 151.86,94.62 151.86,94.62 C151.86,94.62 151.86,100.97 151.86,100.97z "/></g><g id="_R_G_L_4_G"><path id="_R_G_L_4_G_D_0_P_0" fill="#ffffff" fill-opacity="1" fill-rule="nonzero" d=" M34.02 4.08 C34.02,4.08 32.61,2.98 32.61,2.98 C32.61,2.98 21.43,17.26 21.43,17.26 C21.43,17.26 22.84,18.36 22.84,18.36 C22.84,18.36 34.02,4.08 34.02,4.08z "/><path id="_R_G_L_4_G_D_1_P_0" fill="#ffffff" fill-opacity="1" fill-rule="nonzero" d=" M21.58 18.54 C20.72,17.86 20.6,16.62 21.28,15.76 C21.93,14.92 23.15,14.76 24.01,15.44 C24.87,16.11 25.02,17.33 24.36,18.17 C23.68,19.03 22.44,19.21 21.58,18.54z "/><path id="_R_G_L_4_G_D_2_P_0" fill="#ffffff" fill-opacity="1" fill-rule="nonzero" d=" M20.58 38.46 C20.58,38.46 2.48,24.3 2.48,24.3 C2.48,24.3 0.25,27.15 0.25,27.15 C0.25,27.15 18.35,41.32 18.35,41.32 C18.35,41.32 20.58,38.46 20.58,38.46z "/><path id="_R_G_L_4_G_D_3_P_0" fill="#ffffff" fill-opacity="1" fill-rule="nonzero" d=" M36.32 2.04 C36.32,2.04 34.04,0.25 34.04,0.25 C34.04,0.25 11.62,5.82 11.62,5.82 C11.62,5.82 8.66,19.68 8.66,19.68 C8.66,19.68 4.64,24.83 4.64,24.83 C4.64,24.83 19.57,36.52 19.57,36.52 C19.57,36.52 23.6,31.37 23.6,31.37 C23.6,31.37 36.35,25.17 36.35,25.17 C36.35,25.17 36.32,2.04 36.32,2.04z  M14.7 8.78 C14.7,8.78 32.72,4.31 32.72,4.31 C32.72,4.31 32.7,22.87 32.7,22.87 C32.7,22.87 21.26,28.45 21.26,28.45 C21.26,28.45 18.94,31.41 18.94,31.41 C18.94,31.41 9.71,24.18 9.71,24.18 C9.71,24.18 12.01,21.25 12.01,21.25 C12.01,21.25 14.7,8.78 14.7,8.78z "/></g><g id="_R_G_L_3_G" transform=" translate(411.453, 544.759)"><path id="_R_G_L_3_G_D_0_P_0" stroke="#ffffff" stroke-linecap="round" stroke-linejoin="round" fill="none" stroke-width="2" stroke-opacity="1" d=" M6.71 35.35 C6.71,35.35 5,41.98 5,41.98 C5,41.98 18.02,38.26 18.02,38.26 C18.02,38.26 50.85,46.72 50.85,46.72 C50.85,46.72 58.67,16.38 58.67,16.38 C58.67,16.38 14.53,5 14.53,5 C14.53,5 6.71,35.35 6.71,35.35z "/><path id="_R_G_L_3_G_D_1_P_0" fill="#ffffff" fill-opacity="1" fill-rule="nonzero" d=" M43.73 25.29 C43.73,25.29 23.91,20.19 23.91,20.19 C23.91,20.19 24.41,18.25 24.41,18.25 C24.41,18.25 44.23,23.36 44.23,23.36 C44.23,23.36 43.73,25.29 43.73,25.29z "/><path id="_R_G_L_3_G_D_2_P_0" fill="#ffffff" fill-opacity="1" fill-rule="nonzero" d=" M41.75 32.98 C41.75,32.98 21.93,27.87 21.93,27.87 C21.93,27.87 22.43,25.94 22.43,25.94 C22.43,25.94 42.25,31.04 42.25,31.04 C42.25,31.04 41.75,32.98 41.75,32.98z "/></g><g id="_R_G_L_2_G"><path id="_R_G_L_2_G_D_0_P_0" fill="#ffffff" fill-opacity="1" fill-rule="nonzero" d=" M20.39 30.43 C19.8,30.43 19.21,30.35 18.63,30.18 C17.05,29.71 15.74,28.66 14.96,27.21 C14.17,25.76 13.99,24.09 14.46,22.51 C14.92,20.93 15.98,19.63 17.43,18.84 C20.41,17.21 24.17,18.32 25.8,21.31 C26.59,22.76 26.76,24.43 26.3,26.01 C25.83,27.59 24.78,28.89 23.33,29.68 C22.41,30.18 21.4,30.43 20.39,30.43z  M20.37 20.09 C19.7,20.09 19.01,20.25 18.38,20.6 C17.4,21.13 16.69,22.01 16.38,23.08 C16.06,24.15 16.18,25.28 16.71,26.25 C17.25,27.23 18.13,27.95 19.2,28.26 C20.26,28.58 21.39,28.46 22.37,27.92 C23.35,27.39 24.06,26.51 24.38,25.44 C24.69,24.37 24.57,23.24 24.04,22.27 C23.29,20.88 21.85,20.09 20.37,20.09z "/><path id="_R_G_L_2_G_D_1_P_0" fill="#ffffff" fill-opacity="1" fill-rule="nonzero" d=" M15 52.53 C15,52.53 13.07,48.99 13.07,48.99 C13.07,48.99 13.19,48.59 13.19,48.59 C15.01,42.42 21.51,38.88 27.68,40.7 C27.68,40.7 27.89,40.76 27.89,40.76 C27.89,40.76 33.3,22.43 33.3,22.43 C35.21,15.94 42.05,12.22 48.54,14.14 C48.54,14.14 47.98,16.06 47.98,16.06 C42.54,14.45 36.82,17.57 35.22,23 C35.22,23 29.24,43.25 29.24,43.25 C29.24,43.25 27.11,42.62 27.11,42.62 C22.13,41.15 16.89,43.9 15.23,48.77 C15.23,48.77 16.76,51.58 16.76,51.58 C16.76,51.58 15,52.53 15,52.53z "/><path id="_R_G_L_2_G_D_2_P_0" fill="#ffffff" fill-opacity="1" fill-rule="nonzero" d=" M25.52 58.59 C24.36,58.59 23.21,58.42 22.07,58.08 C18.96,57.17 16.4,55.1 14.85,52.25 C14.85,52.25 3.45,31.3 3.45,31.3 C0.25,25.43 2.43,18.05 8.3,14.85 C8.3,14.85 29.25,3.45 29.25,3.45 C35.13,0.25 42.51,2.43 45.7,8.3 C45.7,8.3 57.1,29.25 57.1,29.25 C60.3,35.13 58.12,42.51 52.25,45.7 C52.25,45.7 31.3,57.11 31.3,57.11 C29.49,58.09 27.52,58.59 25.52,58.59z  M35.03 3.97 C33.4,3.97 31.74,4.37 30.21,5.2 C30.21,5.2 9.26,16.61 9.26,16.61 C4.35,19.28 2.53,25.44 5.2,30.35 C5.2,30.35 16.6,51.29 16.6,51.29 C17.9,53.67 20.04,55.4 22.64,56.17 C25.23,56.93 27.97,56.64 30.34,55.35 C30.34,55.35 51.29,43.95 51.29,43.95 C56.2,41.28 58.02,35.12 55.35,30.21 C55.35,30.21 43.95,9.26 43.95,9.26 C42.11,5.89 38.62,3.97 35.03,3.97z "/></g><g id="_R_G_L_1_G" transform=" translate(67.432, 389.918)"><path id="_R_G_L_1_G_D_0_P_0" stroke="#ffffff" stroke-linecap="round" stroke-linejoin="round" fill="none" stroke-width="2" stroke-opacity="1" d=" M61.18 16.24 C61.18,16.24 21.95,6.13 21.95,6.13 C17.57,5 13.07,7.66 11.94,12.03 C11.94,12.03 6.13,34.58 6.13,34.58 C5,38.96 7.66,43.46 12.03,44.59 C12.03,44.59 37.63,51.19 37.63,51.19 C37.63,51.19 46.02,65.41 46.02,65.41 C46.02,65.41 48.94,54.1 48.94,54.1 C48.94,54.1 51.27,54.7 51.27,54.7 C55.65,55.83 60.15,53.17 61.28,48.8 C61.28,48.8 67.09,26.25 67.09,26.25 C68.22,21.87 65.56,17.37 61.18,16.24z  M35.49 34.77 C35.49,34.77 26.83,37.18 26.83,37.18 C26.83,37.18 29.07,28.47 29.07,28.47 C29.07,28.47 31.31,19.77 31.31,19.77 C31.31,19.77 37.73,26.06 37.73,26.06 C37.73,26.06 44.15,32.36 44.15,32.36 C44.15,32.36 35.49,34.77 35.49,34.77z "/></g><g id="_R_G_L_0_G"><path id="_R_G_L_0_G_D_0_P_0" fill="#ffffff" fill-opacity="1" fill-rule="nonzero" d=" M88.07 94.77 C88.01,94.81 87.95,94.84 87.89,94.86 C87.4,95.04 86.86,94.79 86.68,94.3 C86.6,94.09 78.88,73.24 75.7,59.6 C75.38,58.21 75.2,56.84 75.13,55.51 C73.52,55.96 71.77,56.16 69.91,56.1 C69.05,56.07 68.25,55.88 67.5,55.56 C65.95,57.67 63.89,58.92 61.6,59.52 C67.78,73.19 74.89,96.06 75.26,97.25 C75.41,97.75 75.13,98.28 74.63,98.43 C74.14,98.58 73.61,98.31 73.46,97.81 C73.36,97.51 65.9,73.49 59.69,59.88 C56.42,60.25 52.89,59.55 49.84,58.33 C43.9,55.94 38.66,51.18 40.18,47.32 C40.91,45.5 42.25,44.42 44.07,44.2 C48.9,43.63 55.73,49.32 57.45,51.77 C58.48,53.24 59.62,55.32 60.8,57.81 C62.77,57.34 64.53,56.33 65.86,54.6 C61.99,51.67 59.96,45.23 59.17,42.04 C57.62,35.86 56.86,26.36 59.96,24.38 C59.99,24.37 60.02,24.35 60.05,24.33 C61.74,23.35 63.49,23.54 64.99,24.84 C70,29.2 71.78,45.98 68.99,52.87 C68.84,53.24 68.68,53.59 68.51,53.92 C68.99,54.1 69.48,54.2 69.98,54.22 C71.85,54.28 73.56,54.06 75.11,53.56 C75.35,46.35 78.85,40.41 81.61,37.9 C82.91,36.71 84.03,36.27 84.94,36.57 C85.3,36.69 85.92,37.04 86.11,38.04 C86.63,40.78 85.69,46.84 82.02,51.12 C80.62,52.76 78.92,54.01 76.99,54.85 C77.02,56.24 77.19,57.69 77.54,59.17 C80.69,72.69 88.37,93.44 88.44,93.65 C88.6,94.07 88.43,94.54 88.07,94.77z  M77.04 52.75 C78.38,52.05 79.56,51.09 80.59,49.89 C83.98,45.94 84.65,40.45 84.26,38.39 C84.26,38.39 84.26,38.38 84.26,38.38 C83.95,38.46 83.13,38.88 81.94,40.27 C80.04,42.48 77.46,47.06 77.04,52.75z  M43.1 46.47 C42.6,46.79 42.22,47.3 41.94,48.01 C41,50.37 45.03,54.37 50.54,56.58 C53.21,57.65 56.14,58.28 58.85,58.1 C57.81,55.94 56.82,54.14 55.91,52.85 C54.14,50.34 47.88,45.64 44.29,46.07 C43.83,46.12 43.44,46.26 43.1,46.47z  M60.97 25.98 C59.62,26.83 58.95,33.43 60.99,41.58 C62.38,47.1 64.46,51.08 66.87,52.98 C67,52.72 67.13,52.45 67.24,52.16 C70,45.37 67.91,29.88 63.76,26.26 C62.85,25.47 62,25.38 60.99,25.96 C60.98,25.97 60.97,25.97 60.97,25.98z "/><path id="_R_G_L_0_G_D_1_P_0" fill="#6f7070" fill-opacity="1" fill-rule="nonzero" d=" M102.15 119.85 C102.15,119.85 78.47,127.36 78.47,127.36 C74.33,128.67 69.91,126.38 68.6,122.24 C68.6,122.24 62.04,101.57 62.04,101.57 C62.04,101.57 100.71,89.31 100.71,89.31 C100.71,89.31 107.26,109.98 107.26,109.98 C108.58,114.12 106.29,118.54 102.15,119.85z "/><path id="_R_G_L_0_G_D_2_P_0" fill="#6f7070" fill-opacity="1" fill-rule="nonzero" d=" M64.6 113.4 C64.6,113.4 106.57,100.09 106.57,100.09 C106.57,100.09 105.38,96.34 105.38,96.34 C105.38,96.34 63.41,109.65 63.41,109.65 C63.41,109.65 64.6,113.4 64.6,113.4z "/><path id="_R_G_L_0_G_D_3_P_0" fill="#6f7070" fill-opacity="1" fill-rule="nonzero" d=" M61.74 105.42 C61.74,105.42 103.71,92.11 103.71,92.11 C103.71,92.11 102.52,88.36 102.52,88.36 C102.52,88.36 60.55,101.67 60.55,101.67 C60.55,101.67 61.74,105.42 61.74,105.42z "/><path id="_R_G_L_0_G_D_4_P_0" fill="#ffffff" fill-opacity="1" fill-rule="nonzero" d=" M101.95 89.8 C101.95,89.8 61.49,102.63 61.49,102.63 C61.49,102.63 56.64,87.33 56.64,87.33 C42.38,84 30.82,73.34 26.41,59.42 C23.05,48.83 24.01,37.56 29.13,27.69 C34.24,17.83 42.89,10.55 53.48,7.19 C75.35,0.25 98.78,12.4 105.72,34.26 C110.13,48.19 106.83,63.56 97.09,74.5 C97.09,74.5 101.95,89.8 101.95,89.8z  M62.58 100.53 C62.58,100.53 99.85,88.71 99.85,88.71 C99.85,88.71 95.22,74.09 95.22,74.09 C95.22,74.09 95.54,73.74 95.54,73.74 C105.12,63.21 108.41,48.28 104.13,34.77 C97.47,13.78 74.98,2.12 53.99,8.77 C43.82,12 35.52,18.99 30.61,28.46 C25.7,37.93 24.77,48.75 27.99,58.92 C32.28,72.43 43.58,82.73 57.47,85.81 C57.47,85.81 57.94,85.92 57.94,85.92 C57.94,85.92 62.58,100.53 62.58,100.53z "/><path id="_R_G_L_0_G_D_5_P_0" fill="#ffffff" fill-opacity="1" fill-rule="nonzero" d=" M21.6 66.8 C21.57,66.82 21.54,66.84 21.5,66.85 C21.5,66.85 2.57,75.71 2.57,75.71 C2.15,75.91 1.65,75.73 1.46,75.31 C1.26,74.89 1.45,74.4 1.86,74.2 C1.86,74.2 20.8,65.34 20.8,65.34 C21.21,65.15 21.71,65.33 21.91,65.75 C22.09,66.13 21.95,66.58 21.6,66.8z "/><path id="_R_G_L_0_G_D_6_P_0" fill="#ffffff" fill-opacity="1" fill-rule="nonzero" d=" M12.98 47.2 C12.88,47.27 12.77,47.31 12.64,47.33 C12.64,47.33 1.25,48.81 1.25,48.81 C0.79,48.87 0.37,48.55 0.31,48.09 C0.25,47.63 0.57,47.22 1.03,47.16 C1.03,47.16 12.43,45.67 12.43,45.67 C12.88,45.61 13.3,45.94 13.36,46.39 C13.4,46.72 13.25,47.04 12.98,47.2z "/><path id="_R_G_L_0_G_D_7_P_0" fill="#ffffff" fill-opacity="1" fill-rule="nonzero" d=" M23.5 93.79 C23.18,93.99 22.74,93.95 22.46,93.67 C22.14,93.34 22.14,92.81 22.47,92.49 C22.47,92.49 30.68,84.44 30.68,84.44 C31.01,84.12 31.54,84.13 31.86,84.46 C32.18,84.79 32.17,85.31 31.85,85.64 C31.85,85.64 23.64,93.68 23.64,93.68 C23.6,93.72 23.55,93.76 23.5,93.79z "/><path id="_R_G_L_0_G_D_8_P_0" fill="#ffffff" fill-opacity="1" fill-rule="nonzero" d=" M115.69 36.36 C115.73,36.36 115.76,36.35 115.8,36.35 C115.8,36.35 136.34,32.43 136.34,32.43 C136.79,32.35 137.09,31.91 137,31.46 C136.91,31.01 136.47,30.71 136.02,30.8 C136.02,30.8 115.49,34.71 115.49,34.71 C115.04,34.79 114.74,35.23 114.82,35.68 C114.9,36.1 115.28,36.38 115.69,36.36z "/><path id="_R_G_L_0_G_D_9_P_0" fill="#ffffff" fill-opacity="1" fill-rule="nonzero" d=" M111.2 15.43 C111.32,15.42 111.43,15.39 111.55,15.33 C111.55,15.33 121.65,9.86 121.65,9.86 C122.06,9.64 122.21,9.13 121.99,8.72 C121.77,8.32 121.26,8.17 120.86,8.39 C120.86,8.39 110.75,13.86 110.75,13.86 C110.35,14.08 110.2,14.59 110.41,14.99 C110.57,15.29 110.88,15.45 111.2,15.43z "/><path id="_R_G_L_0_G_D_10_P_0" fill="#ffffff" fill-opacity="1" fill-rule="nonzero" d=" M129.96 59.35 C130.34,59.32 130.67,59.03 130.73,58.64 C130.8,58.18 130.49,57.76 130.03,57.69 C130.03,57.69 118.67,55.98 118.67,55.98 C118.21,55.91 117.79,56.22 117.72,56.68 C117.65,57.13 117.96,57.56 118.42,57.63 C118.42,57.63 129.78,59.34 129.78,59.34 C129.84,59.35 129.9,59.35 129.96,59.35z "/></g></g><g id="time_group"/></svg>