<?xml version="1.0" encoding="UTF-8"?>
<svg id="Layer_2" data-name="Layer 2" xmlns="http://www.w3.org/2000/svg" viewBox="0 0 58.26 44.65">
  <defs>
    <style>
      .cls-1 {
        fill: #272626;
      }
    </style>
  </defs>
  <g id="Layer_1-2" data-name="Layer 1">
    <g>
      <path class="cls-1" d="M37.19.05c2.35-.4,4.06,1.46,3.5,3.73l-17.64,39.23c-1.66,3.17-6.39,1.36-5.45-2.15L35.26,1.54c.39-.66,1.15-1.35,1.93-1.49Z"/>
      <g>
        <path class="cls-1" d="M58.26,22.66v1.37c-.24.49-.44.88-.79,1.31-3.09,3.75-7.64,7.13-10.87,10.86-2.99,2.32-6.49-1.48-4.04-4.27l8.65-8.64-8.7-8.7c-2.41-3.01,1.38-6.52,4.21-4.1,3.19,3.7,7.69,7.03,10.75,10.75.38.46.59.86.79,1.42Z"/>
        <path class="cls-1" d="M13.42,8.7c2.52-.18,4.11,2.91,2.41,4.81l-8.65,8.64-.1.22,8.75,8.77c2.24,2.76-1.31,6.39-4.16,4.04-3.82-3.15-7.24-7.76-11.03-11.03-.86-1.12-.86-2.53,0-3.65l11.09-11.09c.45-.39,1.09-.67,1.69-.71Z"/>
      </g>
    </g>
  </g>
</svg>