<?xml version="1.0" encoding="UTF-8"?> <svg xmlns="http://www.w3.org/2000/svg" width="70" height="70" viewBox="0 0 70 70"><g><path d="M67.6527 16.0958C68.7855 14.6144 67.827 11.5646 65.5614 12.436C60.246 14.5273 54.7564 19.1456 51.1838 23.6767C47.4368 28.4693 46.7397 34.5689 48.4825 40.3199C51.0095 48.6851 58.4161 54.1748 65.5614 58.6188C68.8726 60.7101 71.8353 55.4818 68.6112 53.3905C63.383 50.1665 57.5448 46.071 54.9307 40.3199C52.9265 35.7888 52.9265 30.6477 56.2377 26.6394C59.5489 22.7182 64.4286 20.1041 67.6527 16.0958ZM1.42836 53.3905C-1.88286 55.3947 1.16694 60.6229 4.47816 58.6188C11.6234 54.1748 18.943 48.6851 21.5571 40.3199C23.2998 34.7432 22.6899 28.6435 19.1172 24.0253C15.6317 19.407 9.96781 14.6144 4.5653 12.5231C2.29973 11.6518 1.25408 14.7016 2.474 16.1829C5.61095 20.1041 10.3164 22.7182 13.6276 26.4651C17.1131 30.4734 17.2873 35.7017 15.196 40.4942C12.4948 46.071 6.56946 50.1665 1.42836 53.3905ZM53.3622 1.36957C50.1381 6.59781 46.0426 12.436 40.2916 15.0501C35.7604 17.0543 30.6193 17.0543 26.611 13.7431C22.6027 10.4319 19.9886 5.55216 15.9803 2.32808C14.5861 1.1953 11.5363 2.24094 12.4077 4.50651C14.499 9.82189 19.1172 15.3115 23.6484 18.8842C28.4409 22.6311 34.5405 23.3282 40.2916 21.5854C48.6568 19.0584 54.1464 11.6518 58.5904 4.50651C60.5946 1.1953 55.4535 -1.85451 53.3622 1.36957ZM58.5904 65.5898C54.1464 58.4445 48.6568 51.125 40.2916 48.5108C34.7148 46.7681 28.6152 47.3781 23.9969 50.9507C19.3786 54.4362 14.5861 60.1001 12.4948 65.5026C11.6234 67.7682 14.6732 68.8138 16.1546 67.5939C20.0757 64.457 22.6899 59.7516 26.4368 56.4403C30.4451 52.9548 35.6733 52.7806 40.4659 54.8719C46.2169 57.486 50.2252 63.3242 53.5365 68.5524C55.4535 71.8636 60.5946 68.901 58.5904 65.5898Z"></path></g></svg> 