<?xml version="1.0" encoding="UTF-8"?> <svg xmlns="http://www.w3.org/2000/svg" width="70" height="70" viewBox="0 0 70 70"><path d="M60.9 25.69H44.31V9.1C44.31 7.91 45.22 7 46.41 7H60.9C62.09 7 63 7.91 63 9.1V23.59C63 24.71 62.09 25.69 60.9 25.69ZM44.31 44.31H25.69V27.79C25.69 26.6 26.6 25.69 27.79 25.69H44.38V44.31H44.31ZM23.59 63H9.1C7.91 63 7 62.09 7 60.9V46.41C7 45.22 7.91 44.31 9.1 44.31H25.69V60.9C25.69 62.09 24.71 63 23.59 63ZM9.1 7H22.54C23.73 7 24.29 8.4 23.45 9.24L9.24 23.45C8.4 24.29 7 23.66 7 22.54V9.1C7 7.91 7.91 7 9.1 7Z"></path><path d="M60.9001 63.0001H46.4101C45.2201 63.0001 44.3101 62.0901 44.3101 60.9001V44.3101H60.9001C62.0901 44.3101 63.0001 45.2201 63.0001 46.4101V60.9001C63.0001 62.0901 62.0901 63.0001 60.9001 63.0001Z"></path></svg> 