<?xml version="1.0" encoding="UTF-8"?> <svg xmlns="http://www.w3.org/2000/svg" width="70" height="52" viewBox="0 0 70 52" fill="#000000"><path d="M8.87109 17.9175H15.6444V51.0733H8.87109V17.9175ZM20.5935 17.9175H27.3668V51.0733H20.5935V17.9175ZM31.8339 17.9175H38.6072V51.0733H31.8339V17.9175Z"></path><path d="M60.0751 26.3969C60.0751 34.3723 53.7819 40.9057 45.8989 41.2947V45.5129C56.1078 45.1203 64.2926 36.6968 64.2926 26.3967C64.2926 15.8472 55.7071 7.26465 45.1542 7.26465H16.0967V11.4804H45.1544C53.3817 11.4804 60.0752 18.1718 60.0752 26.3968L60.0751 26.3969Z" fill="#476747"></path><path d="M45.1548 1.55981H16.0971V5.77558H45.1548C56.5291 5.77558 65.7826 15.0263 65.7826 26.3969C65.7826 37.5183 56.9301 46.6101 45.8995 47.0034V51.2229C59.2561 50.8279 70 39.843 70 26.3969C70 12.7017 58.8545 1.55981 45.1548 1.55981ZM11.0506 5.52314C11.0506 2.4777 8.572 0 5.52537 0C2.47874 0 0 2.4777 0 5.52314C0 8.56858 2.47874 11.0463 5.52537 11.0463C8.572 11.0463 11.0506 8.56858 11.0506 5.52314Z" fill="#476747"></path></svg> 