<svg xmlns="http://www.w3.org/2000/svg" xmlns:xlink="http://www.w3.org/1999/xlink" preserveAspectRatio="xMidYMid meet" width="807" height="683" viewBox="0 0 807 683" style="width:100%;height:100%"><defs><animateMotion repeatCount="indefinite" dur="3s" begin="0s" xlink:href="#_R_G_L_5_G" fill="freeze" keyTimes="0;0.5;1" path="M61.78 352.8 C61.78,352.8 61.78,381.8 61.78,381.8 C61.78,381.8 61.78,352.8 61.78,352.8 " keyPoints="0;0.5;1" keySplines="0.333 0 0.667 1;0.167 0.167 0.833 0.833" calcMode="spline"/><animateTransform repeatCount="indefinite" dur="3s" begin="0s" xlink:href="#_R_G_L_5_G" fill="freeze" attributeName="transform" from="-45.473 -51.941" to="-45.473 -51.941" type="translate" additive="sum" keyTimes="0;1" values="-45.473 -51.941;-45.473 -51.941" keySplines="0 0 1 1" calcMode="spline"/><animateMotion repeatCount="indefinite" dur="3s" begin="0s" xlink:href="#_R_G_L_4_G" fill="freeze" keyTimes="0;0.5;1" path="M486.3 136.68 C486.3,136.68 486.3,114.68 486.3,114.68 C486.3,114.68 486.3,136.68 486.3,136.68 " keyPoints="0;0.5;1" keySplines="0.167 0.167 0.833 0.833;0.167 0.167 0.833 0.833" calcMode="spline"/><animateTransform repeatCount="indefinite" dur="3s" begin="0s" xlink:href="#_R_G_L_4_G" fill="freeze" attributeName="transform" from="-62.452 -67.536" to="-62.452 -67.536" type="translate" additive="sum" keyTimes="0;1" values="-62.452 -67.536;-62.452 -67.536" keySplines="0 0 1 1" calcMode="spline"/><animateTransform repeatCount="indefinite" dur="3s" begin="0s" xlink:href="#_R_G_L_3_G" fill="freeze" attributeName="transform" from="0" to="0" type="rotate" additive="sum" keyTimes="0;0.5;1" values="0;16;0" keySplines="0.167 0.167 0.833 0.833;0.167 0.167 0.833 0.833" calcMode="spline"/><animateTransform repeatCount="indefinite" dur="3s" begin="0s" xlink:href="#_R_G_L_3_G" fill="freeze" attributeName="transform" from="-78.662 -122.218" to="-78.662 -122.218" type="translate" additive="sum" keyTimes="0;1" values="-78.662 -122.218;-78.662 -122.218" keySplines="0 0 1 1" calcMode="spline"/><animateMotion repeatCount="indefinite" dur="3s" begin="0s" xlink:href="#_R_G_L_1_G" fill="freeze" keyTimes="0;0.5;1" path="M501.75 430.97 C501.75,430.97 471.75,430.97 471.75,430.97 C471.75,430.97 501.75,430.97 501.75,430.97 " keyPoints="0;0.5;1" keySplines="0.167 0.167 0.833 0.833;0.167 0.167 0.833 0.833" calcMode="spline"/><animateTransform repeatCount="indefinite" dur="3s" begin="0s" xlink:href="#_R_G_L_1_G" fill="freeze" attributeName="transform" from="-290.737 -172.284" to="-290.737 -172.284" type="translate" additive="sum" keyTimes="0;1" values="-290.737 -172.284;-290.737 -172.284" keySplines="0 0 1 1" calcMode="spline"/><animate attributeType="XML" attributeName="opacity" dur="3s" from="0" to="1" xlink:href="#time_group"/></defs><g id="_R_G"><g id="_R_G_L_5_G"><path id="_R_G_L_5_G_D_0_P_0" fill="#ffffff" fill-opacity="1" fill-rule="nonzero" d=" M44.1 0.6 C23.63,0.6 6.98,17.26 6.98,37.73 C6.98,44.33 8.74,50.82 12.07,56.5 C12.07,56.5 12.07,56.5 12.07,56.5 C12.8,57.75 13.61,58.95 14.41,60.01 C14.41,60.01 43.17,103.14 43.17,103.14 C43.38,103.45 43.73,103.63 44.1,103.63 C44.48,103.63 44.83,103.45 45.04,103.14 C45.04,103.14 73.76,60.06 73.76,60.06 C74.59,58.97 75.37,57.79 76.11,56.55 C76.14,56.51 76.16,56.46 76.19,56.41 C90.7,32.24 72.32,0.25 44.1,0.6z  M74.2 55.37 C74.19,55.39 74.18,55.41 74.17,55.43 C74.17,55.43 74.17,55.43 74.17,55.43 C73.49,56.58 72.75,57.69 71.94,58.77 C71.94,58.77 44.1,100.5 44.1,100.5 C44.1,100.5 16.23,58.72 16.23,58.72 C15.49,57.73 14.78,56.67 14.05,55.46 C0.25,32.74 17.49,2.51 44.1,2.84 C63.34,2.84 78.99,18.49 78.99,37.73 C78.99,43.94 77.34,50.03 74.2,55.37z  M44.1 16.99 C32.67,16.99 23.36,26.3 23.36,37.73 C23.36,49.17 32.67,58.47 44.1,58.47 C71.62,57.33 71.61,18.13 44.1,16.99z  M44.1 56.24 C19.55,55.22 19.56,20.24 44.1,19.23 C54.31,19.23 62.61,27.53 62.61,37.73 C62.61,47.94 54.31,56.24 44.1,56.24z "/></g><g id="_R_G_L_4_G"><path id="_R_G_L_4_G_D_0_P_0" fill="#ffffff" fill-opacity="1" fill-rule="nonzero" d=" M4.76 51.62 C0.25,68.12 3.81,87.19 13.4,100.63 C13.47,100.79 13.57,100.93 13.7,101.05 C37.08,134.66 87.73,134.82 111.26,101.05 C111.39,100.93 111.49,100.79 111.56,100.62 C121.03,87.34 124.65,68.55 120.34,52.18 C120.34,52.18 120.34,52.17 120.34,52.17 C118.08,43.23 113.81,35.1 108.03,28.27 C107.95,28.13 107.85,28.02 107.73,27.93 C84.43,0.25 40.52,0.26 17.23,27.93 C17.11,28.02 17.01,28.13 16.94,28.26 C11.28,34.95 7.06,42.88 4.77,51.6 C4.77,51.61 4.77,51.62 4.76,51.62z  M63.6 9.37 C72.29,9.92 80.1,16.86 85.64,27.68 C85.64,27.68 63.6,27.68 63.6,27.68 C63.6,27.68 63.6,9.37 63.6,9.37z  M119.91 66.75 C119.91,69.46 119.71,72.13 119.34,74.75 C119.34,74.75 96.04,74.75 96.04,74.75 C96.6,67.84 96.4,60.35 95.52,53.6 C95.52,53.6 118.4,53.71 118.4,53.71 C119.38,57.9 119.91,62.26 119.91,66.75z  M94.12 66.75 C94.12,69.46 94.01,72.13 93.81,74.75 C93.81,74.75 63.6,74.75 63.6,74.75 C63.6,74.75 63.6,53.44 63.6,53.44 C63.6,53.44 93.27,53.59 93.27,53.59 C93.82,57.82 94.12,62.22 94.12,66.75z  M61.36 124.13 C51.52,123.5 42.81,114.7 37.24,101.34 C37.24,101.34 61.36,101.34 61.36,101.34 C61.36,101.34 61.36,124.13 61.36,124.13z  M61.36 99.1 C61.36,99.1 36.35,99.1 36.35,99.1 C33.89,92.57 32.16,85.07 31.35,76.98 C31.35,76.98 61.36,76.98 61.36,76.98 C61.36,76.98 61.36,99.1 61.36,99.1z  M63.6 101.34 C63.6,101.34 87.72,101.34 87.72,101.34 C82.15,114.7 73.44,123.5 63.6,124.13 C63.6,124.13 63.6,101.34 63.6,101.34z  M63.6 99.1 C63.6,99.1 63.6,76.98 63.6,76.98 C63.6,76.98 93.61,76.98 93.61,76.98 C92.8,85.07 91.07,92.57 88.6,99.1 C88.6,99.1 63.6,99.1 63.6,99.1z  M63.6 51.21 C63.6,51.21 63.6,29.92 63.6,29.92 C63.6,29.92 86.73,29.92 86.73,29.92 C89.58,36.1 91.73,43.38 92.95,51.35 C92.95,51.35 63.6,51.21 63.6,51.21z  M61.36 27.68 C61.36,27.68 39.32,27.68 39.32,27.68 C44.86,16.86 52.67,9.92 61.36,9.37 C61.36,9.37 61.36,27.68 61.36,27.68z  M61.36 29.92 C61.36,29.92 61.36,51.2 61.36,51.2 C61.36,51.2 32.05,51.05 32.05,51.05 C33.28,43.2 35.41,36.02 38.23,29.92 C38.23,29.92 61.36,29.92 61.36,29.92z  M61.36 53.43 C61.36,53.43 61.36,74.75 61.36,74.75 C61.36,74.75 31.15,74.75 31.15,74.75 C30.59,67.75 30.8,60.11 31.73,53.29 C31.73,53.29 61.36,53.43 61.36,53.43z  M28.92 74.75 C28.92,74.75 5.62,74.75 5.62,74.75 C4.59,67.67 4.99,60.01 6.69,53.17 C6.69,53.17 29.49,53.28 29.49,53.28 C28.57,60.12 28.35,67.73 28.92,74.75z  M29.11 76.98 C29.91,85.02 31.61,92.51 34.04,99.1 C34.04,99.1 15.06,99.1 15.06,99.1 C10.59,92.57 7.44,85.07 5.98,76.98 C5.98,76.98 29.11,76.98 29.11,76.98z  M16.67 101.34 C16.67,101.34 34.9,101.34 34.9,101.34 C38.94,111.29 44.67,118.98 51.34,123.08 C37.27,120.31 25.03,112.37 16.67,101.34z  M73.62 123.08 C80.29,118.98 86.02,111.29 90.06,101.34 C90.06,101.34 108.29,101.34 108.29,101.34 C99.93,112.37 87.69,120.31 73.62,123.08z  M109.9 99.1 C109.9,99.1 90.92,99.1 90.92,99.1 C93.35,92.51 95.05,85.02 95.85,76.98 C95.85,76.98 118.98,76.98 118.98,76.98 C117.52,85.07 114.37,92.57 109.9,99.1z  M95.21 51.36 C94.01,43.45 91.9,36.18 89.1,29.92 C89.1,29.92 106.5,29.92 106.5,29.92 C111.7,36.13 115.61,43.45 117.83,51.47 C117.83,51.47 95.21,51.36 95.21,51.36z  M104.52 27.68 C104.52,27.68 88.05,27.68 88.05,27.68 C84.21,19.9 79.25,13.88 73.62,10.41 C85.71,12.8 96.44,18.99 104.52,27.68z  M51.34 10.41 C45.71,13.88 40.75,19.9 36.91,27.68 C36.91,27.68 20.44,27.68 20.44,27.68 C28.52,18.99 39.25,12.8 51.34,10.41z  M18.46 29.92 C18.46,29.92 35.86,29.92 35.86,29.92 C33.1,36.1 31.01,43.25 29.8,51.04 C29.8,51.04 7.28,50.93 7.28,50.93 C9.52,43.12 13.37,35.99 18.46,29.92z "/></g><g id="_R_G_L_3_G" transform=" translate(96.919, 657.604)"><path id="_R_G_L_3_G_D_0_P_0" fill="#36a9df" fill-opacity="1" fill-rule="nonzero" d=" M68.72 45.29 C68.72,45.29 85.76,103.02 85.76,103.02 C85.76,103.02 143.49,85.98 143.49,85.98 C143.49,85.98 126.45,28.25 126.45,28.25 C126.45,28.25 68.72,45.29 68.72,45.29z "/><path id="_R_G_L_3_G_D_1_P_0" fill="#34ad67" fill-opacity="1" fill-rule="nonzero" d=" M34.44 2.74 C34.44,2.74 2.74,12.09 2.74,12.09 C2.74,12.09 5.18,20.38 5.18,20.38 C5.18,20.38 36.89,11.03 36.89,11.03 C36.89,11.03 34.44,2.74 34.44,2.74z "/><path id="_R_G_L_3_G_D_2_P_0" fill="#34ad67" fill-opacity="1" fill-rule="nonzero" d=" M87.26 120.62 C88.39,118.54 88.65,116.15 87.98,113.88 C86.84,110.04 83.31,107.54 79.48,107.54 C78.65,107.54 77.81,107.66 76.98,107.9 C72.3,109.28 69.61,114.21 70.99,118.9 C71.66,121.16 73.18,123.04 75.25,124.16 C77.33,125.29 79.72,125.55 81.99,124.88 C84.26,124.21 86.13,122.7 87.26,120.62z "/><path id="_R_G_L_3_G_D_3_P_0" fill="#ffffff" fill-opacity="1" fill-rule="nonzero" d=" M84.04 104.63 C84.19,105.17 84.81,105.51 85.35,105.34 C85.35,105.34 145.1,87.7 145.1,87.7 C145.65,87.54 145.97,86.95 145.81,86.39 C145.81,86.39 128.17,26.64 128.17,26.64 C128.02,26.1 127.41,25.76 126.86,25.93 C126.86,25.93 70.34,42.61 70.34,42.61 C70.34,42.61 68.27,43.22 68.27,43.22 C67.44,43.46 66.07,43.67 66.4,44.88 C66.4,44.88 84.04,104.63 84.04,104.63z  M126.45 28.25 C126.45,28.25 143.49,85.98 143.49,85.98 C143.49,85.98 85.76,103.02 85.76,103.02 C85.76,103.02 68.72,45.29 68.72,45.29 C68.72,45.29 126.45,28.25 126.45,28.25z "/><path id="_R_G_L_3_G_D_4_P_0" fill="#ffffff" fill-opacity="1" fill-rule="nonzero" d=" M153.8 93.66 C153.57,93.54 153.3,93.5 153.03,93.58 C153.03,93.58 89.65,112.29 89.65,112.29 C87.84,107.79 83.26,105.05 78.51,105.47 C77.54,105.55 77.21,104.85 76.94,104.06 C76.94,104.06 48.22,6.73 48.22,6.73 C48.22,6.73 47.6,4.62 47.6,4.62 C47.35,3.79 47.16,2.43 45.94,2.75 C45.94,2.75 39.58,4.62 39.58,4.62 C39.58,4.62 37.51,5.12 37.51,5.12 C37.51,5.12 36.16,1.13 36.16,1.13 C36,0.57 35.42,0.25 34.85,0.41 C34.85,0.41 1.13,10.37 1.13,10.37 C0.57,10.53 0.25,11.12 0.42,11.68 C0.42,11.68 3.46,21.99 3.46,21.99 C3.58,22.43 4.02,22.76 4.47,22.75 C4.57,22.75 4.67,22.73 4.77,22.71 C4.77,22.71 38.49,12.75 38.49,12.75 C38.76,12.67 38.99,12.49 39.12,12.24 C39.26,12 39.29,11.71 39.21,11.44 C39.21,11.44 37.98,7.3 37.98,7.3 C37.98,7.3 39.88,6.73 39.88,6.73 C39.88,6.73 45.5,4.99 45.5,4.99 C45.5,4.99 75.19,105.57 75.19,105.57 C71.62,108.61 70.68,109.67 69.19,112.68 C67.93,115.95 68.51,120.13 70.72,122.96 C70.72,122.96 72.81,125.07 72.81,125.07 C76.62,128.12 82.38,128.08 86.17,125.07 C86.17,125.07 88.24,122.96 88.24,122.96 C90.12,120.52 90.84,117.31 90.25,114.31 C90.25,114.31 153.63,95.6 153.63,95.6 C153.9,95.52 154.11,95.34 154.24,95.11 C154.24,95.11 153.8,93.66 153.8,93.66z  M5.18 20.38 C5.18,20.38 2.74,12.09 2.74,12.09 C2.74,12.09 34.44,2.74 34.44,2.74 C34.44,2.74 36.89,11.03 36.89,11.03 C36.89,11.03 5.18,20.38 5.18,20.38z  M81.99 124.88 C70.68,127.86 65.86,111.57 76.98,107.9 C88.25,104.93 93.15,121.2 81.99,124.88z "/></g><g id="_R_G_L_2_G" transform=" translate(204.103, 165.939) translate(-108.411, -139.41)"><path id="_R_G_L_2_G_D_0_P_0" fill="#444343" fill-opacity="1" fill-rule="nonzero" d=" M149.62 17.23 C139.61,14.29 127.84,12.44 115.7,11.55 C114.55,10.22 113.23,8.9 111.74,7.64 C115.75,4.66 119.94,2.95 124.15,2.83 C124.15,2.83 126.03,2.83 126.03,2.83 C138.59,3.37 145.96,11.5 149.62,17.23z "/><path id="_R_G_L_2_G_D_1_P_0" fill="#36a9df" fill-opacity="1" fill-rule="nonzero" d=" M49.88 84.25 C50.25,42.97 71.02,2.8 92.18,2.8 C92.18,2.8 115.32,2.8 115.32,2.8 C96.4,11.85 80.43,47.07 80.11,84.25 C80.11,84.25 76.97,84.25 76.97,84.25 C76.97,84.25 52.14,84.25 52.14,84.25 C52.14,84.25 49.88,84.25 49.88,84.25z "/><path id="_R_G_L_2_G_D_2_P_0" fill="#36a9df" fill-opacity="1" fill-rule="nonzero" d=" M84.26 144.9 C84.26,144.9 84.26,116.46 84.26,116.46 C84.26,107.66 77.1,100.51 68.3,100.51 C68.3,100.51 52.37,100.51 52.37,100.51 C43.58,100.51 36.42,107.66 36.42,116.46 C36.42,116.46 36.42,144.9 36.42,144.9 C36.42,153.7 43.58,160.86 52.37,160.86 C52.37,160.86 68.3,160.86 68.3,160.86 C73.31,160.86 77.79,158.53 80.71,154.91 C84.65,157.59 89.73,161.03 95.42,164.83 C91.49,170.87 84.7,174.87 76.97,174.87 C76.97,174.87 52.14,174.87 52.14,174.87 C40,174.87 30.12,165 30.12,152.86 C30.12,152.86 30.12,108.51 30.12,108.51 C30.12,96.37 40,86.49 52.14,86.49 C52.14,86.49 76.97,86.49 76.97,86.49 C89.11,86.49 98.99,96.37 98.99,108.51 C98.99,108.51 98.99,152.86 98.99,152.86 C98.99,156.47 98.09,159.88 96.54,162.89 C90.92,159.13 85.89,155.72 81.99,153.06 C83.42,150.67 84.26,147.89 84.26,144.9z "/><path id="_R_G_L_2_G_D_3_P_0" fill="#36a9df" fill-opacity="1" fill-rule="nonzero" d=" M186.98 204.92 C187.6,204.89 188.07,204.36 188.03,203.74 C188,203.12 187.47,202.64 186.85,202.68 C186.8,202.68 185.58,202.75 183.52,202.73 C183.52,202.73 183.52,199.35 183.52,199.35 C183.52,196.06 186.19,193.39 189.47,193.39 C189.47,193.39 204.92,193.39 204.92,193.39 C208.21,193.39 210.88,196.06 210.88,199.35 C210.88,199.35 210.88,205.57 210.88,205.57 C210.88,208.85 208.21,211.52 204.92,211.52 C204.92,211.52 189.47,211.52 189.47,211.52 C186.19,211.52 183.52,208.85 183.52,205.57 C183.52,205.57 183.52,204.98 183.52,204.98 C183.66,204.98 183.82,204.99 183.96,204.99 C185.71,204.99 186.8,204.93 186.98,204.92z "/><path id="_R_G_L_2_G_D_4_P_0" fill="#ffffff" fill-opacity="1" fill-rule="nonzero" d=" M14.92 51.17 C14.92,51.17 15.96,48.93 15.96,48.93 C19.11,42.17 23.23,35.99 28.35,30.71 C28.35,30.71 30.19,28.89 30.19,28.89 C40.88,18.34 55.66,13.92 70.82,12.46 C77.33,4.99 84.69,0.55 92.18,0.55 C92.37,0.59 124.65,0.49 124.81,0.58 C139.53,0.25 149.19,11.44 152.52,17.68 C152.52,17.68 154.63,18.83 154.63,18.83 C159.14,20.39 163.94,22.6 167.6,25.05 C167.6,25.05 169.8,26.63 169.8,26.63 C170.04,26.81 170.27,27 170.5,27.19 C170.5,27.19 172.96,29.43 172.96,29.43 C185.3,44.4 192.91,61.88 195.38,78.09 C195.38,78.09 195.76,81.1 195.76,81.1 C196.18,84.85 196.34,88.61 196.25,92.37 C196.25,93.85 194.43,107.13 193.71,109.98 C192.05,116.64 191.05,120.66 196.18,131.01 C199.27,137.22 202.24,141.87 205.1,146.4 C205.1,146.4 207.34,150.01 207.34,150.01 C211.82,157.26 213.35,162.8 207.34,167.53 C207.34,167.53 205.1,169.09 205.1,169.09 C199.95,172.21 192.98,173.98 190.4,174.57 C190.5,176.09 190.63,179.42 190.4,185.46 C190.57,185.35 190.16,190.26 190.16,190.26 C190.15,190.55 190.13,190.85 190.11,191.15 C190.11,191.15 204.92,191.15 204.92,191.15 C209.44,191.15 213.12,194.83 213.12,199.35 C213.12,199.35 213.12,202.83 213.12,202.83 C214.27,202.95 216.52,202.29 216.57,203.95 C216.52,205.6 214.27,204.94 213.12,205.07 C213.37,209.76 209.63,213.78 204.92,213.77 C203.45,213.65 188.25,214.08 187.25,213.42 C184.6,222.71 179.35,228.67 168.74,229.62 C168.74,229.62 166.11,229.81 166.12,229.76 C157.66,229.56 149.1,229.31 140.18,228.9 C140.18,228.9 142.26,276.33 142.26,276.33 C142.26,276.33 175.32,276.33 175.32,276.33 C175.33,277.07 175.36,277.82 175.41,278.57 C123.64,278.57 71.76,278.57 21.82,278.57 C22.1,277.82 22.4,277.09 22.65,276.33 C22.65,276.33 25.05,276.33 25.05,276.33 C27.32,276.33 29.46,275.78 31.37,274.85 C32.03,259.91 33.01,236.26 33.06,216.49 C33.22,200.61 27.33,182.76 20.98,162.58 C20.98,162.58 18.74,155.36 18.74,155.36 C14.1,139.89 7.49,119.94 6.82,102.64 C6.66,100.65 6.64,99.65 6.62,98.38 C6.14,81.33 8.99,64.77 14.92,51.17z  M92.18 2.79 C71.02,2.79 50.25,42.97 49.88,84.25 C49.88,84.25 80.12,84.25 80.12,84.25 C80.43,47.06 96.4,11.85 115.32,2.79 C115.32,2.79 92.18,2.79 92.18,2.79z  M72.22 147.72 C72.57,147.21 73.27,147.08 73.78,147.43 C73.89,147.51 76.28,149.16 80.14,151.8 C81.32,149.77 82.02,147.42 82.02,144.91 C82.02,144.91 82.02,116.46 82.02,116.46 C82.02,108.9 75.86,102.75 68.3,102.75 C68.3,102.75 52.37,102.75 52.37,102.75 C44.81,102.75 38.66,108.9 38.66,116.46 C38.66,116.46 38.66,144.91 38.66,144.91 C38.66,152.47 44.81,158.62 52.37,158.62 C52.37,158.62 68.3,158.62 68.3,158.62 C72.55,158.62 76.34,156.68 78.86,153.64 C75,151.01 72.62,149.35 72.5,149.28 C72,148.92 71.87,148.22 72.22,147.72z  M68.3 160.86 C68.3,160.86 52.37,160.86 52.37,160.86 C43.58,160.86 36.42,153.7 36.42,144.91 C36.42,144.91 36.42,116.46 36.42,116.46 C36.42,107.67 43.58,100.51 52.37,100.51 C52.37,100.51 68.3,100.51 68.3,100.51 C77.1,100.51 84.26,107.67 84.26,116.46 C84.26,116.46 84.26,144.91 84.26,144.91 C84.26,147.89 83.42,150.67 81.99,153.06 C85.89,155.72 90.92,159.13 96.54,162.89 C98.09,159.88 98.99,156.47 98.99,152.86 C98.99,152.86 98.99,108.51 98.99,108.51 C98.99,96.37 89.11,86.5 76.97,86.5 C76.97,86.5 52.14,86.5 52.14,86.5 C40,86.5 30.12,96.37 30.12,108.51 C30.12,108.51 30.12,152.86 30.12,152.86 C30.12,165 40,174.87 52.14,174.87 C52.14,174.87 76.97,174.87 76.97,174.87 C84.7,174.87 91.49,170.87 95.42,164.83 C89.73,161.03 84.65,157.59 80.71,154.91 C77.79,158.53 73.31,160.86 68.3,160.86z  M107.72 11.11 C109.3,11.17 110.89,11.25 112.47,11.34 C111.7,10.56 110.86,9.8 109.95,9.07 C109.2,9.7 108.45,10.38 107.72,11.11z  M126.03 2.82 C126.03,2.82 124.15,2.82 124.15,2.82 C119.94,2.95 115.75,4.66 111.74,7.64 C113.23,8.9 114.55,10.22 115.7,11.55 C127.84,12.44 139.61,14.29 149.62,17.22 C145.96,11.5 138.59,3.37 126.03,2.82z  M208.45 162.9 C210.37,158.95 207.36,154.19 202.81,146.98 C200.29,142.97 197.14,137.99 194.17,132 C188.67,120.91 189.81,116.35 191.54,109.44 C192.49,105.62 193.68,100.86 193.98,93.63 C194.84,73.24 187.81,52.85 173.09,33.01 C163.45,20.01 134.56,14.05 105.71,13.21 C92.5,27.91 82.48,56.16 82.36,84.88 C93.15,87.34 101.23,96.99 101.23,108.51 C101.23,108.51 101.23,152.86 101.23,152.86 C101.23,156.93 100.21,160.77 98.42,164.15 C116.04,175.88 138.56,190.41 150.02,195.87 C161.22,201.21 174.1,202.44 181.28,202.68 C181.28,202.68 181.28,199.35 181.28,199.35 C181.28,195.38 184.11,192.07 187.85,191.31 C188.64,178.3 188.09,173.88 188.08,173.83 C188,173.24 188.4,172.69 188.98,172.58 C193.52,171.68 205.88,168.19 208.45,162.9z  M189.48 211.52 C189.48,211.52 204.92,211.52 204.92,211.52 C208.2,211.52 210.88,208.85 210.88,205.57 C210.88,205.57 210.88,199.35 210.88,199.35 C210.88,196.06 208.2,193.39 204.92,193.39 C204.92,193.39 189.48,193.39 189.48,193.39 C186.19,193.39 183.52,196.06 183.52,199.35 C183.52,199.35 183.52,202.73 183.52,202.73 C185.58,202.75 186.8,202.68 186.85,202.68 C187.47,202.64 188,203.12 188.04,203.74 C188.07,204.36 187.6,204.89 186.98,204.92 C186.92,204.93 184.95,205 183.52,204.98 C183.25,208.46 185.95,211.54 189.48,211.52z  M163.68 227.5 C175.44,228.09 181.94,223.84 185.14,212.5 C182.83,211.05 181.28,208.49 181.28,205.57 C181.28,205.57 181.28,204.94 181.28,204.94 C173.94,204.73 160.78,203.48 149.06,197.89 C137.52,192.39 114.94,177.84 97.28,166.08 C93.34,172.11 86.8,176.29 79.25,177 C81.79,191.85 85.89,206.97 91.17,212.07 C101.97,222.5 120.85,225.47 138.34,226.54 C138.74,226.24 139.41,226.27 139.75,226.63 C147.93,227.1 156.02,227.14 163.68,227.5z  M13.17 128.07 C17.17,142.95 20.97,155.04 24.31,165.71 C30.69,186.04 35.3,200.73 35.3,216.49 C35.3,237.5 33.85,269.79 33.55,276.33 C33.55,276.33 140.01,276.33 140.01,276.33 C140.01,276.33 137.93,228.76 137.93,228.76 C120.13,227.65 100.87,224.56 89.61,213.68 C83.83,208.11 79.58,192.33 77,177.11 C77,177.14 52.15,177.1 52.14,177.11 C38.76,177.11 27.88,166.23 27.88,152.86 C27.88,152.86 27.88,108.51 27.88,108.51 C27.88,96.67 36.41,86.8 47.65,84.69 C47.79,57.14 56.54,30.64 68.75,14.97 C14.64,19.12 0.25,79.23 13.17,128.07z "/></g><g id="_R_G_L_1_G"><path id="_R_G_L_1_G_D_0_P_0" fill="#ffffff" fill-opacity="1" fill-rule="nonzero" d=" M138.79 41.56 C137.51,30.14 244.76,0.32 244.76,0.32 C244.76,0.32 286.14,5.81 301.94,14.06 C317.75,22.3 332.44,30.37 343.84,44.76 C355.24,59.15 385.29,92.52 385.29,92.52 C385.29,92.52 239.93,58.93 239.93,58.93 C239.93,58.93 192.45,55.88 192.45,55.88 C192.45,55.88 141.14,62.5 138.79,41.56z "/><path id="_R_G_L_1_G_D_1_P_0" fill="#38393d" fill-opacity="1" fill-rule="nonzero" d=" M315.51 21.41 C315.93,21.41 316.34,21.19 316.56,20.79 C316.86,20.21 316.65,19.49 316.07,19.18 C293.29,7 258.27,0.44 257.91,0.37 C257.27,0.25 256.65,0.68 256.53,1.32 C256.42,1.96 256.84,2.58 257.48,2.7 C257.83,2.76 292.51,9.27 314.95,21.27 C315.13,21.37 315.32,21.41 315.51,21.41z "/><path id="_R_G_L_1_G_D_2_P_0" fill="#ffffff" fill-opacity="1" fill-rule="nonzero" d=" M514.31 126.07 C514.31,126.07 408.44,119.07 408.44,119.07 C408.44,119.07 395.57,95.17 365.76,72.72 C355.83,65.24 344.01,57.92 330.16,51.7 C300.83,38.53 276.56,29.69 260.22,24.29 C246.32,19.7 231.04,22.32 219.4,31.21 C219.4,31.21 141.13,91.04 141.13,91.04 C141.13,91.04 144.13,118.65 166.33,111.93 C175.98,109.01 238.58,81.55 238.58,81.55 C238.58,81.55 284.27,95.73 290.19,122.95 C296.1,150.16 275.21,143.19 263.28,141.28 C255.17,139.99 251.45,214.95 301.81,235.59 C330.46,247.33 449.58,263.99 514.31,277.08 C514.31,277.08 514.31,126.07 514.31,126.07z "/><path id="_R_G_L_1_G_D_3_P_0" fill="#38393d" fill-opacity="1" fill-rule="nonzero" d=" M185.59 57.1 C185.85,57.1 186.1,57.02 186.32,56.86 C205,42.5 236.44,20.42 241.26,22.34 C248.46,25.19 307.24,43.69 309.74,44.47 C310.36,44.67 311.03,44.32 311.22,43.7 C311.42,43.07 311.07,42.41 310.45,42.21 C309.84,42.02 249.25,22.96 242.13,20.14 C234.63,17.18 193.12,48.64 184.87,54.98 C184.35,55.38 184.26,56.12 184.65,56.64 C184.89,56.95 185.24,57.1 185.59,57.1z "/><path id="_R_G_L_1_G_D_4_P_0" fill="#36a9df" fill-opacity="1" fill-rule="nonzero" d=" M456 114.56 C456,114.56 451.25,333.26 451.25,333.26 C451.25,333.26 581.22,344.32 581.22,344.32 C581.22,344.32 581.22,118.33 581.22,118.33 C581.22,118.33 456,114.56 456,114.56z "/><path id="_R_G_L_1_G_D_5_P_0" fill="#444343" fill-opacity="1" fill-rule="nonzero" d=" M90.32 169.69 C90.32,169.69 261.39,169.69 261.39,169.69 C261.39,169.69 261.39,194.55 261.39,194.55 C261.39,194.55 243.16,194.55 243.16,194.55 C243.16,194.55 223.37,194.55 223.37,194.55 C219.24,187.89 211.89,183.43 203.49,183.43 C195.1,183.43 187.74,187.89 183.62,194.55 C183.62,194.55 90.32,194.55 90.32,194.55 C90.32,194.55 90.32,169.69 90.32,169.69z "/><path id="_R_G_L_1_G_D_6_P_0" fill="#444343" fill-opacity="1" fill-rule="nonzero" d=" M90.32 93.25 C90.32,93.25 261.39,93.25 261.39,93.25 C261.39,93.25 261.39,118.11 261.39,118.11 C261.39,118.11 90.32,118.11 90.32,118.11 C90.32,118.11 90.32,109.06 90.32,109.06 C90.32,109.06 90.32,93.25 90.32,93.25z  M114.18 101.08 C114.18,101.08 143.89,101.08 143.89,101.08 C144.5,101.08 145,100.58 145,99.96 C145,99.35 144.5,98.84 143.89,98.84 C143.89,98.84 114.18,98.84 114.18,98.84 C113.56,98.84 113.06,99.35 113.06,99.96 C113.06,100.58 113.56,101.08 114.18,101.08z  M99.53 101.08 C99.53,101.08 104.62,101.08 104.62,101.08 C105.24,101.08 105.74,100.58 105.74,99.96 C105.74,99.35 105.24,98.84 104.62,98.84 C104.62,98.84 99.53,98.84 99.53,98.84 C98.91,98.84 98.41,99.35 98.41,99.96 C98.41,100.58 98.91,101.08 99.53,101.08z "/><path id="_R_G_L_1_G_D_7_P_0" fill="#34ad67" fill-opacity="1" fill-rule="nonzero" d=" M261.39 167.46 C261.39,167.46 90.32,167.46 90.32,167.46 C90.32,167.46 90.32,120.34 90.32,120.34 C90.32,120.34 261.39,120.34 261.39,120.34 C261.39,120.34 261.39,167.46 261.39,167.46z "/><path id="_R_G_L_1_G_D_8_P_0" fill="#34ad67" fill-opacity="1" fill-rule="nonzero" d=" M9.52 185.39 C9.52,185.39 20.03,185.39 20.03,185.39 C20.65,185.39 21.15,184.89 21.15,184.27 C21.15,184.27 21.15,170.46 21.15,170.46 C21.15,169.85 20.65,169.35 20.03,169.35 C20.03,169.35 9.52,169.35 9.52,169.35 C9.52,169.35 9.52,155.09 9.52,155.09 C9.52,155.09 37.33,110.18 37.33,110.18 C37.33,110.18 88.09,110.18 88.09,110.18 C88.09,110.18 88.09,119.23 88.09,119.23 C88.09,119.23 88.09,168.57 88.09,168.57 C88.09,168.57 88.09,194.55 88.09,194.55 C88.09,194.55 68.32,194.55 68.32,194.55 C64.2,187.89 56.84,183.43 48.45,183.43 C40.05,183.43 32.7,187.89 28.57,194.55 C28.57,194.55 9.52,194.55 9.52,194.55 C9.52,194.55 9.52,185.39 9.52,185.39z  M63.91 170.46 C63.91,171.08 64.41,171.58 65.03,171.58 C65.03,171.58 79.95,171.58 79.95,171.58 C80.57,171.58 81.07,171.08 81.07,170.46 C81.07,170.46 81.07,165.05 81.07,165.05 C81.07,164.43 80.57,163.93 79.95,163.93 C79.95,163.93 65.03,163.93 65.03,163.93 C64.41,163.93 63.91,164.43 63.91,165.05 C63.91,165.05 63.91,170.46 63.91,170.46z  M79.95 156.99 C80.57,156.99 81.07,156.49 81.07,155.87 C81.07,155.87 81.07,120.63 81.07,120.63 C81.07,120.01 80.57,119.51 79.95,119.51 C79.95,119.51 39.47,119.51 39.47,119.51 C39.09,119.51 38.73,119.71 38.52,120.04 C38.52,120.04 16.7,155.28 16.7,155.28 C16.49,155.63 16.48,156.06 16.67,156.42 C16.87,156.77 17.25,156.99 17.65,156.99 C17.65,156.99 79.95,156.99 79.95,156.99z "/><path id="_R_G_L_1_G_D_9_P_0" fill="#ffffff" fill-opacity="1" fill-rule="nonzero" d=" M78.83 169.35 C78.83,169.35 66.15,169.35 66.15,169.35 C66.15,169.35 66.15,166.17 66.15,166.17 C66.15,166.17 78.83,166.17 78.83,166.17 C78.83,166.17 78.83,169.35 78.83,169.35z "/><path id="_R_G_L_1_G_D_10_P_0" fill="#ffffff" fill-opacity="1" fill-rule="nonzero" d=" M0.47 227.96 C0.47,227.96 38.54,227.96 38.54,227.96 C31.87,224.83 26.92,218.66 25.49,211.23 C25.49,211.23 17.61,211.23 17.61,211.23 C18.07,211.36 5.73,211.16 5.73,211.16 C2.83,210.85 0.55,208.41 0.55,205.42 C0.55,205.42 0.55,200.35 0.55,200.35 C0.53,196.74 3.78,194.17 7.28,194.55 C7.27,188.78 7.29,176.32 7.28,170.46 C7.28,170.46 7.28,160.97 7.28,160.97 C7.36,160.73 7.11,154.09 7.45,154.18 C7.75,153.83 34.5,110.39 35.75,108.47 C35.96,108.14 36.32,107.94 36.7,107.94 C36.7,107.94 88.09,107.94 88.09,107.94 C88.09,107.94 88.09,92.13 88.09,92.13 C88.09,91.51 88.59,91.01 89.21,91.01 C89.21,91.01 262.51,91.01 262.51,91.01 C263.13,91.01 263.63,91.51 263.63,92.13 C263.63,92.13 263.63,195.67 263.63,195.67 C263.63,196.29 263.13,196.79 262.51,196.79 C262.51,196.79 244.27,196.79 244.27,196.79 C244.27,196.79 244.27,205.42 244.27,205.42 C244.27,208.62 241.67,211.23 238.47,211.23 C238.47,211.23 226.45,211.23 226.45,211.23 C225.45,216.43 222.72,221.01 218.88,224.38 C218.88,224.38 216.65,226.13 216.65,226.13 C215.62,226.83 214.53,227.43 213.4,227.96 C213.4,227.96 216.65,227.96 216.65,227.96 C216.65,227.96 218.88,227.96 218.88,227.96 C218.88,227.96 262.42,227.96 262.42,227.96 C262.42,227.96 262.42,230.2 262.42,230.2 C262.42,230.2 0.47,230.2 0.47,230.2 C0.7,229.46 0.25,228.71 0.47,227.96z  M6.35 196.79 C4.39,196.79 2.79,198.39 2.79,200.35 C2.79,200.35 2.79,205.42 2.79,205.42 C2.79,207.39 4.39,208.99 6.35,208.99 C6.35,208.99 25.17,208.99 25.17,208.99 C24.74,204.79 25.6,200.42 27.35,196.79 C27.35,196.79 6.35,196.79 6.35,196.79z  M9.52 183.16 C9.52,183.16 18.91,183.16 18.91,183.16 C18.91,183.16 18.91,171.58 18.91,171.58 C18.91,171.58 9.52,171.58 9.52,171.58 C9.52,171.58 9.52,183.16 9.52,183.16z  M88.09 110.18 C88.09,110.18 37.33,110.18 37.33,110.18 C37.33,110.18 9.52,155.09 9.52,155.09 C9.52,155.09 9.52,169.34 9.52,169.34 C9.52,169.34 20.03,169.34 20.03,169.34 C20.65,169.34 21.15,169.84 21.15,170.46 C21.15,170.46 21.15,184.27 21.15,184.27 C21.15,184.89 20.65,185.39 20.03,185.39 C20.03,185.39 9.52,185.39 9.52,185.39 C9.52,185.39 9.52,194.55 9.52,194.55 C9.52,194.55 28.57,194.55 28.57,194.55 C37.45,179.82 59.46,179.82 68.32,194.55 C68.32,194.55 88.09,194.55 88.09,194.55 C88.09,194.55 88.09,110.18 88.09,110.18z  M69.54 196.79 C71.3,200.42 72.16,204.79 71.73,208.99 C71.73,208.99 180.22,208.99 180.22,208.99 C179.78,204.79 180.64,200.42 182.4,196.79 C182.4,196.79 69.54,196.79 69.54,196.79z  M261.39 93.25 C261.39,93.25 90.32,93.25 90.32,93.25 C90.32,93.25 90.32,118.11 90.32,118.11 C90.32,118.11 261.39,118.11 261.39,118.11 C261.39,118.11 261.39,93.25 261.39,93.25z  M261.39 120.34 C261.39,120.34 90.32,120.34 90.32,120.34 C90.32,120.34 90.32,167.46 90.32,167.46 C90.32,167.46 261.39,167.46 261.39,167.46 C261.39,167.46 261.39,120.34 261.39,120.34z  M261.39 194.55 C261.39,194.55 261.39,169.69 261.39,169.69 C261.39,169.69 90.32,169.69 90.32,169.69 C90.32,169.69 90.32,194.55 90.32,194.55 C90.32,194.55 183.62,194.55 183.62,194.55 C192.49,179.82 214.5,179.82 223.37,194.55 C223.37,194.55 261.39,194.55 261.39,194.55z  M226.77 208.99 C226.77,208.99 238.47,208.99 238.47,208.99 C240.44,208.99 242.04,207.39 242.04,205.42 C242.04,205.42 242.04,196.79 242.04,196.79 C242.04,196.79 224.59,196.79 224.59,196.79 C226.34,200.42 227.2,204.79 226.77,208.99z  M224.64 206.81 C224.64,195.15 215.15,185.66 203.49,185.66 C175.43,186.83 175.44,226.81 203.49,227.96 C215.15,227.96 224.64,218.48 224.64,206.81z  M193.58 227.96 C186.92,224.83 181.96,218.66 180.54,211.23 C180.54,211.23 71.4,211.23 71.4,211.23 C69.98,218.66 65.03,224.83 58.36,227.96 C58.36,227.96 193.58,227.96 193.58,227.96z  M69.6 206.81 C69.6,195.15 60.11,185.66 48.45,185.66 C20.39,186.83 20.4,226.81 48.45,227.96 C60.11,227.96 69.6,218.48 69.6,206.81z "/><path id="_R_G_L_1_G_D_11_P_0" fill="#ffffff" fill-opacity="1" fill-rule="nonzero" d=" M79.95 156.99 C79.95,156.99 17.65,156.99 17.65,156.99 C16.81,157.01 16.23,155.99 16.7,155.28 C16.7,155.28 38.53,120.04 38.53,120.04 C38.73,119.71 39.09,119.51 39.48,119.51 C39.48,119.51 79.95,119.51 79.95,119.51 C80.57,119.51 81.07,120.01 81.07,120.63 C81.07,120.63 81.07,155.87 81.07,155.87 C81.07,156.49 80.57,156.99 79.95,156.99z  M78.84 121.75 C78.84,121.75 40.1,121.75 40.1,121.75 C40.1,121.75 19.66,154.75 19.66,154.75 C19.66,154.75 78.84,154.75 78.84,154.75 C78.84,154.75 78.84,121.75 78.84,121.75z "/><path id="_R_G_L_1_G_D_12_P_0" fill="#ffffff" fill-opacity="1" fill-rule="nonzero" d=" M191.23 206.81 C191.23,200.05 196.73,194.55 203.49,194.55 C219.72,195.13 219.72,218.51 203.49,219.08 C196.73,219.08 191.23,213.58 191.23,206.81z  M213.52 206.81 C213.1,193.56 193.88,193.56 193.46,206.81 C193.88,220.07 213.1,220.06 213.52,206.81z "/><path id="_R_G_L_1_G_D_13_P_0" fill="#ffffff" fill-opacity="1" fill-rule="nonzero" d=" M36.18 206.81 C36.18,200.05 41.69,194.55 48.45,194.55 C64.68,195.13 64.68,218.51 48.45,219.08 C41.69,219.08 36.18,213.58 36.18,206.81z  M58.48 206.81 C58.06,193.56 38.84,193.56 38.42,206.81 C38.84,220.07 58.06,220.06 58.48,206.81z "/><path id="_R_G_L_1_G_D_14_P_0" fill="#ffffff" fill-opacity="1" fill-rule="nonzero" d=" M143.89 101.08 C143.89,101.08 114.18,101.08 114.18,101.08 C112.73,101.08 112.71,98.85 114.18,98.84 C114.18,98.84 143.89,98.84 143.89,98.84 C145.34,98.85 145.35,101.07 143.89,101.08z "/><path id="_R_G_L_1_G_D_15_P_0" fill="#ffffff" fill-opacity="1" fill-rule="nonzero" d=" M104.63 101.08 C104.63,101.08 99.53,101.08 99.53,101.08 C98.07,101.07 98.07,98.85 99.53,98.84 C99.53,98.84 104.63,98.84 104.63,98.84 C106.09,98.85 106.09,101.07 104.63,101.08z "/><path id="_R_G_L_1_G_D_16_P_0" fill="#444343" fill-opacity="1" fill-rule="nonzero" d=" M79.95 171.58 C79.95,171.58 65.03,171.58 65.03,171.58 C64.41,171.58 63.91,171.08 63.91,170.46 C63.91,170.46 63.91,165.05 63.91,165.05 C63.91,164.43 64.41,163.93 65.03,163.93 C65.03,163.93 79.95,163.93 79.95,163.93 C80.57,163.93 81.07,164.43 81.07,165.05 C81.07,165.05 81.07,170.46 81.07,170.46 C81.07,171.08 80.57,171.58 79.95,171.58z  M78.84 166.16 C78.84,166.16 66.15,166.16 66.15,166.16 C66.15,166.16 66.15,169.34 66.15,169.34 C66.15,169.34 78.84,169.34 78.84,169.34 C78.84,169.34 78.84,166.16 78.84,166.16z "/><path id="_R_G_L_1_G_D_17_P_0" fill="#ffffff" fill-opacity="1" fill-rule="nonzero" d=" M42.7 206.81 C42.89,199.22 54.01,199.23 54.21,206.81 C54.01,214.4 42.89,214.4 42.7,206.81z  M51.97 206.81 C51.89,202.19 45.01,202.19 44.93,206.81 C45.01,211.44 51.89,211.44 51.97,206.81z "/><path id="_R_G_L_1_G_D_18_P_0" fill="#ffffff" fill-opacity="1" fill-rule="nonzero" d=" M197.74 206.81 C197.93,199.23 209.05,199.23 209.25,206.81 C209.05,214.4 197.93,214.4 197.74,206.81z  M207.01 206.81 C206.93,202.19 200.05,202.19 199.97,206.81 C200.06,211.44 206.93,211.44 207.01,206.81z "/><path id="_R_G_L_1_G_D_19_P_0" fill="#ffffff" fill-opacity="1" fill-rule="nonzero" d=" M56.93 126.41 C57.76,125.22 59.6,126.47 58.76,127.69 C58.77,127.69 44.29,148.46 44.29,148.46 C43.45,149.65 41.62,148.39 42.45,147.18 C42.45,147.18 56.93,126.41 56.93,126.41z "/><path id="_R_G_L_1_G_D_20_P_0" fill="#ffffff" fill-opacity="1" fill-rule="nonzero" d=" M38.13 140.52 C38.13,140.52 45.44,130.03 45.44,130.03 C46.28,128.84 48.11,130.1 47.28,131.31 C47.28,131.31 39.97,141.8 39.97,141.8 C39.13,142.99 37.3,141.72 38.13,140.52z "/><path id="_R_G_L_1_G_D_21_P_0" fill="#ffffff" fill-opacity="1" fill-rule="nonzero" d=" M67.77 135.27 C68.61,134.08 70.44,135.34 69.6,136.55 C69.61,136.55 62.29,147.04 62.29,147.04 C61.94,147.55 61.24,147.67 60.74,147.32 C60.23,146.97 60.1,146.27 60.46,145.76 C60.46,145.76 67.77,135.27 67.77,135.27z "/><path id="_R_G_L_1_G_D_22_P_0" fill="#ffffff" fill-opacity="1" fill-rule="nonzero" d=" M263.8 141.6 C255.91,139.35 207.42,129.2 192.76,129.2 C185.62,129.2 174.47,131.35 165.69,135.11 C168.8,133.44 154.23,139.84 162.63,136.54 C155.07,140.4 150.23,145.61 153.3,151.75 C160.06,165.28 193.89,167.54 214.19,182.2 C234.49,196.86 263.73,227.67 316.73,240.07 C331.39,243.5 358.9,242.49 389.65,244.71 C403.41,232.97 411.22,219.52 411.22,205.23 C411.22,168.56 271.7,143.86 263.8,141.6z "/></g><g id="_R_G_L_0_G" transform=" translate(133.845, 463.353) translate(-80.65, -25.735)"><path id="_R_G_L_0_G_D_0_P_0" fill="#ffffff" fill-opacity="1" fill-rule="nonzero" d=" M78.62 26.39 C78.62,26.39 69.35,26.39 69.35,26.39 C68.35,26.49 67.01,26.57 66.86,25.26 C66.7,23.83 68.26,23.61 69.35,23.68 C69.35,23.68 78.62,23.68 78.62,23.68 C79.36,23.68 79.97,24.28 79.97,25.03 C79.97,25.78 79.36,26.39 78.62,26.39z  M61.42 31.69 C61.75,31.02 61.47,30.21 60.8,29.88 C57.22,28.65 57.19,39.51 57.97,41.61 C58.15,42.34 58.91,42.78 59.61,42.6 C61.57,41.94 60,39.62 60.26,38.15 C60.18,35.96 60.42,33.62 61.42,31.69z  M74.96 0.25 C74.96,0.25 64.54,0.25 64.54,0.25 C62.77,0.26 62.76,2.95 64.54,2.96 C64.54,2.96 74.96,2.96 74.96,2.96 C76.72,2.95 76.73,0.26 74.96,0.25z  M95.79 0.25 C95.79,0.25 85.37,0.25 85.37,0.25 C83.6,0.26 83.6,2.95 85.37,2.96 C85.37,2.96 95.79,2.96 95.79,2.96 C97.56,2.95 97.57,0.26 95.79,0.25z  M100.62 23.84 C99.67,21.93 97.41,24.02 95.83,23.68 C95.83,23.68 89.03,23.68 89.03,23.68 C87.27,23.68 87.26,26.38 89.03,26.39 C90.96,26.13 101.76,27.48 100.62,23.84z  M54.12 2.96 C55.89,2.95 55.89,0.26 54.12,0.25 C54.12,0.25 43.7,0.25 43.7,0.25 C41.93,0.26 41.92,2.95 43.7,2.96 C43.7,2.96 54.12,2.96 54.12,2.96z  M12.44 0.25 C12.44,0.25 2.03,0.25 2.03,0.25 C0.26,0.26 0.25,2.95 2.03,2.96 C2.03,2.96 12.44,2.96 12.44,2.96 C14.21,2.95 14.22,0.26 12.44,0.25z  M33.28 2.96 C35.05,2.95 35.06,0.26 33.28,0.25 C33.28,0.25 22.86,0.25 22.86,0.25 C21.09,0.26 21.09,2.95 22.86,2.96 C22.86,2.96 33.28,2.96 33.28,2.96z  M86.35 48.51 C84.58,48.52 84.57,51.21 86.35,51.22 C86.35,51.22 96.76,51.22 96.76,51.22 C98.53,51.21 98.54,48.52 96.76,48.51 C96.76,48.51 86.35,48.51 86.35,48.51z  M69.35 48.51 C68.25,48.51 67.17,48.29 66.15,47.85 C65.47,47.56 64.67,47.87 64.37,48.56 C63.68,51 67.76,51.08 69.35,51.22 C69.35,51.22 75.93,51.22 75.93,51.22 C76.68,51.22 77.28,50.61 77.28,49.86 C77.28,49.12 76.68,48.51 75.93,48.51 C75.93,48.51 69.35,48.51 69.35,48.51z  M138.44 51.22 C140.21,51.21 140.21,48.52 138.44,48.51 C138.44,48.51 128.02,48.51 128.02,48.51 C126.25,48.52 126.25,51.21 128.02,51.22 C128.02,51.22 138.44,51.22 138.44,51.22z  M159.28 51.22 C161.05,51.21 161.05,48.52 159.28,48.51 C159.28,48.51 148.86,48.51 148.86,48.51 C147.09,48.52 147.08,51.21 148.86,51.22 C148.86,51.22 159.28,51.22 159.28,51.22z  M105.83 49.86 C105.83,50.61 106.43,51.22 107.18,51.22 C107.18,51.22 117.6,51.22 117.6,51.22 C118.35,51.22 118.96,50.61 118.96,49.86 C118.96,49.12 118.35,48.51 117.6,48.51 C117.6,48.51 107.18,48.51 107.18,48.51 C106.43,48.51 105.83,49.12 105.83,49.86z  M103.69 5.48 C103.05,5.87 102.86,6.71 103.25,7.34 C104.88,9.91 105.33,13.34 104.53,16.31 C104.29,17.16 104.97,18.02 105.84,18.02 C109.34,17.97 107.25,3.53 103.69,5.48z "/></g></g><g id="time_group"/></svg>