<svg xmlns="http://www.w3.org/2000/svg" xmlns:xlink="http://www.w3.org/1999/xlink" preserveAspectRatio="xMidYMid meet" width="540" height="676" viewBox="0 0 540 676" style="width:100%;height:100%"><defs><animateMotion repeatCount="indefinite" dur="3s" begin="0s" xlink:href="#_R_G_L_9_G" fill="freeze" keyTimes="0;0.5;0.9944444;1" path="M303.96 280.7 C303.96,280.7 303.96,260.7 303.96,260.7 C303.96,260.7 303.96,280.7 303.96,280.7 C303.96,280.7 303.96,280.7 303.96,280.7 " keyPoints="0;0.5;1;1" keySplines="0.333 0 0.667 1;0.167 0.167 0.833 0.833;0 0 0 0" calcMode="spline"/><animateTransform repeatCount="indefinite" dur="3s" begin="0s" xlink:href="#_R_G_L_9_G" fill="freeze" attributeName="transform" from="-48.575 -74.493" to="-48.575 -74.493" type="translate" additive="sum" keyTimes="0;1" values="-48.575 -74.493;-48.575 -74.493" keySplines="0 0 1 1" calcMode="spline"/><animate repeatCount="indefinite" dur="3s" begin="0s" xlink:href="#_R_G_L_6_G_D_0_P_0" fill="freeze" attributeName="opacity" from="0" to="0" keyTimes="0;0.0555556;0.4444444;0.5;1" values="0;1;0.99;0;0" keySplines="0.167 0.167 0.833 0.833;0.167 0.167 0.833 0.833;0.167 0.167 0.833 0.833;0 0 0 0" calcMode="spline"/><animate repeatCount="indefinite" dur="3s" begin="0s" xlink:href="#_R_G_L_6_G_D_1_P_0" fill="freeze" attributeName="opacity" from="0" to="0" keyTimes="0;0.0555556;0.1111111;0.3888889;0.4444444;1" values="0;0;1;0.99;0;0" keySplines="0.167 0.167 0.833 0.833;0.167 0.167 0.833 0.833;0.167 0.167 0.833 0.833;0.167 0.167 0.833 0.833;0 0 0 0" calcMode="spline"/><animate repeatCount="indefinite" dur="3s" begin="0s" xlink:href="#_R_G_L_6_G_D_2_P_0" fill="freeze" attributeName="opacity" from="0" to="0" keyTimes="0;0.1111111;0.1666667;0.3333333;0.3888889;1" values="0;0;1;0.99;0;0" keySplines="0.167 0.167 0.833 0.833;0.167 0.167 0.833 0.833;0.167 0.167 0.833 0.833;0.167 0.167 0.833 0.833;0 0 0 0" calcMode="spline"/><animate repeatCount="indefinite" dur="3s" begin="0s" xlink:href="#_R_G_L_6_G_M" fill="freeze" attributeName="opacity" from="1" to="0" keyTimes="0;0.5;0.5;1" values="1;1;0;0" keySplines="0 0 0 0;0 0 0 0;0 0 0 0" calcMode="spline"/><animate repeatCount="indefinite" dur="3s" begin="0s" xlink:href="#_R_G_L_5_G_D_0_P_0" fill="freeze" attributeName="opacity" from="0" to="0" keyTimes="0;0.5;0.5555556;0.9444444;1" values="0;0;1;0.99;0" keySplines="0.167 0.167 0.833 0.833;0.167 0.167 0.833 0.833;0.167 0.167 0.833 0.833;0.167 0.167 0.833 0.833" calcMode="spline"/><animate repeatCount="indefinite" dur="3s" begin="0s" xlink:href="#_R_G_L_5_G_D_1_P_0" fill="freeze" attributeName="opacity" from="0" to="0" keyTimes="0;0.5555556;0.6111111;0.8888889;0.9444444;1" values="0;0;1;0.99;0;0" keySplines="0.167 0.167 0.833 0.833;0.167 0.167 0.833 0.833;0.167 0.167 0.833 0.833;0.167 0.167 0.833 0.833;0 0 0 0" calcMode="spline"/><animate repeatCount="indefinite" dur="3s" begin="0s" xlink:href="#_R_G_L_5_G_D_2_P_0" fill="freeze" attributeName="opacity" from="0" to="0" keyTimes="0;0.6111111;0.6666667;0.8333333;0.8888889;1" values="0;0;1;0.99;0;0" keySplines="0.167 0.167 0.833 0.833;0.167 0.167 0.833 0.833;0.167 0.167 0.833 0.833;0.167 0.167 0.833 0.833;0 0 0 0" calcMode="spline"/><animate repeatCount="indefinite" dur="3s" begin="0s" xlink:href="#_R_G_L_5_G_M" fill="freeze" attributeName="opacity" from="0" to="1" keyTimes="0;0.5;0.5000006;1" values="0;0;1;1" keySplines="0 0 0 0;0 0 0 0;0 0 0 0" calcMode="spline"/><animateTransform repeatCount="indefinite" dur="3s" begin="0s" xlink:href="#_R_G_L_4_G" fill="freeze" attributeName="transform" from="0" to="0" type="rotate" additive="sum" keyTimes="0;0.5;1" values="0;15;0" keySplines="0.167 0.167 0.833 0.833;0.167 0.167 0.833 0.833" calcMode="spline"/><animateTransform repeatCount="indefinite" dur="3s" begin="0s" xlink:href="#_R_G_L_4_G" fill="freeze" attributeName="transform" from="-8.227 -56.482" to="-8.227 -56.482" type="translate" additive="sum" keyTimes="0;1" values="-8.227 -56.482;-8.227 -56.482" keySplines="0 0 1 1" calcMode="spline"/><animateTransform repeatCount="indefinite" dur="3s" begin="0s" xlink:href="#_R_G_L_2_G" fill="freeze" attributeName="transform" from="0" to="180" type="rotate" additive="sum" keyTimes="0;0.9944444;1" values="0;180;180" keySplines="0.167 0.167 0.833 0.833;0 0 0 0" calcMode="spline"/><animateTransform repeatCount="indefinite" dur="3s" begin="0s" xlink:href="#_R_G_L_2_G" fill="freeze" attributeName="transform" from="-24.063 -24.063" to="-24.063 -24.063" type="translate" additive="sum" keyTimes="0;1" values="-24.063 -24.063;-24.063 -24.063" keySplines="0 0 1 1" calcMode="spline"/><animateMotion repeatCount="indefinite" dur="3s" begin="0s" xlink:href="#_R_G_L_1_G" fill="freeze" keyTimes="0;0.5;1" path="M71.88 338.42 C71.88,338.42 71.88,319.42 71.88,319.42 C71.88,319.42 71.88,338.42 71.88,338.42 " keyPoints="0;0.5;1" keySplines="0.167 0.167 0.833 0.833;0.167 0.167 0.833 0.833" calcMode="spline"/><animateTransform repeatCount="indefinite" dur="3s" begin="0s" xlink:href="#_R_G_L_1_G" fill="freeze" attributeName="transform" from="-33.567 -29.629" to="-33.567 -29.629" type="translate" additive="sum" keyTimes="0;1" values="-33.567 -29.629;-33.567 -29.629" keySplines="0 0 1 1" calcMode="spline"/><animateMotion repeatCount="indefinite" dur="3s" begin="0s" xlink:href="#_R_G_L_0_G" fill="freeze" keyTimes="0;0.2222222;0.4444444;0.5555556;0.7777778;1" path="M100.2 537.81 C100.2,537.81 100.2,507 100.2,507 C100.2,507 71,507 71,507 C71,507 71,507 71,507 C71,507 100.2,507 100.2,507 C100.2,507 100.2,537.81 100.2,537.81 " keyPoints="0;0.26;0.5;0.5;0.74;1" keySplines="0.167 0.167 0.833 0.833;0.167 0.167 0.833 0.833;0.167 0.167 0.833 0.833;0.167 0.167 0.833 0.833;0.167 0.167 0.833 0.833" calcMode="spline"/><animateTransform repeatCount="indefinite" dur="3s" begin="0s" xlink:href="#_R_G_L_0_G" fill="freeze" attributeName="transform" from="-48.962 -68.236" to="-48.962 -68.236" type="translate" additive="sum" keyTimes="0;1" values="-48.962 -68.236;-48.962 -68.236" keySplines="0 0 1 1" calcMode="spline"/><animate attributeType="XML" attributeName="opacity" dur="3s" from="0" to="1" xlink:href="#time_group"/></defs><g id="_R_G"><g id="_R_G_L_10_G" transform=" translate(291.507, 380.645) translate(-200.211, -282.675)"><path id="_R_G_L_10_G_D_0_P_0" fill="#ffffff" fill-opacity="1" fill-rule="nonzero" d=" M232.7 101.13 C232.7,101.13 130.43,34.68 130.43,34.68 C130.43,34.68 16.1,13.6 16.1,13.6 C7.67,12.04 0.25,19.32 1.64,27.78 C1.64,27.78 3.29,37.77 3.29,37.77 C5.86,53.39 16.94,66.28 32,71.16 C32,71.16 87.28,89.07 87.28,89.07 C87.28,89.07 70.45,92.31 70.45,92.31 C59.13,94.5 50.97,104.43 51.02,115.96 C51.02,115.96 51.09,132.02 51.09,132.02 C51.11,137.74 53.18,143.27 56.93,147.59 C56.93,147.59 67.02,159.27 67.02,159.27 C67.02,159.27 59.38,162.19 59.38,162.19 C48.14,166.49 41.31,177.94 42.88,189.88 C42.88,189.88 44.14,199.53 44.14,199.53 C44.59,202.98 45.73,206.31 47.49,209.31 C47.49,209.31 59.76,230.25 59.76,230.25 C59.76,230.25 55.51,232.29 55.51,232.29 C45.7,237.02 40.32,247.79 42.44,258.48 C42.44,258.48 65.32,373.87 65.32,373.87 C67.6,385.39 82.12,389.28 89.86,380.44 C97.44,371.78 101.37,360.52 100.83,349.03 C100.83,349.03 98.37,297.47 98.37,297.47 C98.37,297.47 137.97,319.84 137.97,319.84 C137.97,319.84 153.63,383.72 153.63,383.72 C163.26,422.99 191.18,455.23 228.67,470.37 C228.67,470.37 232.7,101.13 232.7,101.13z "/><path id="_R_G_L_10_G_D_1_P_0" fill="#ffffff" fill-opacity="1" fill-rule="nonzero" d=" M307.92 208.5 C307.92,208.5 288.89,117.1 288.89,117.1 C285.19,99.33 289.79,80.84 301.38,66.87 C308.7,58.03 322.73,59.85 327.56,70.26 C327.56,70.26 365.14,151.32 365.14,151.32 C365.14,151.32 400.17,294.13 400.17,294.13 C400.17,294.13 391.42,565.1 391.42,565.1 C391.42,565.1 297.02,564.98 297.02,564.98 C297.02,564.98 227.26,564.89 227.26,564.89 C227.26,564.89 228.67,470.37 228.67,470.37 C191.18,455.23 163.26,422.99 153.64,383.72 C153.64,383.72 137.97,319.84 137.97,319.84 C137.97,319.84 98.37,297.47 98.37,297.47 C98.37,297.47 100.83,349.02 100.83,349.02 C101.37,360.52 97.44,371.78 89.86,380.44 C82.12,389.28 67.6,385.39 65.32,373.87 C65.32,373.87 42.44,258.48 42.44,258.48 C40.32,247.79 45.7,237.02 55.51,232.29 C55.51,232.29 59.76,230.25 59.76,230.25 C59.76,230.25 47.49,209.31 47.49,209.31 C45.73,206.31 44.59,202.98 44.14,199.53 C44.14,199.53 42.88,189.88 42.88,189.88 C41.31,177.94 48.14,166.49 59.38,162.19 C59.38,162.19 67.02,159.27 67.02,159.27 C67.02,159.27 56.93,147.59 56.93,147.59 C53.18,143.26 51.11,137.74 51.09,132.02 C51.09,132.02 51.02,115.96 51.02,115.96 C50.97,104.43 59.13,94.5 70.46,92.31 C70.46,92.31 87.28,89.07 87.28,89.07 C87.28,89.07 32,71.16 32,71.16 C16.94,66.27 5.86,53.39 3.29,37.77 C3.29,37.77 1.64,27.78 1.64,27.78 C0.25,19.32 7.67,12.04 16.1,13.6 C16.1,13.6 130.43,34.68 130.43,34.68 C130.43,34.68 232.7,101.13 232.7,101.13 C232.7,101.13 285.9,259.89 285.9,259.89 C285.9,259.89 307.92,208.5 307.92,208.5z "/><path id="_R_G_L_10_G_D_2_P_0" fill="#444343" fill-opacity="1" fill-rule="nonzero" d=" M264.96 427.4 C264.96,427.4 125.98,427.4 125.98,427.4 C113.58,427.4 103.52,417.35 103.52,404.94 C103.52,404.94 103.52,27.65 103.52,27.65 C103.52,15.25 113.58,5.19 125.98,5.19 C125.98,5.19 264.96,5.19 264.96,5.19 C277.36,5.19 287.41,15.25 287.41,27.65 C287.41,27.65 287.41,404.94 287.41,404.94 C287.41,417.35 277.36,427.4 264.96,427.4z "/><path id="_R_G_L_10_G_D_3_P_0" fill="#6f7070" fill-opacity="1" fill-rule="nonzero" d=" M264.95 432.35 C264.95,432.35 125.98,432.35 125.98,432.35 C110.87,432.35 98.58,420.05 98.58,404.94 C98.58,404.94 98.58,27.66 98.58,27.66 C98.58,12.54 110.87,0.25 125.98,0.25 C125.98,0.25 264.95,0.25 264.95,0.25 C280.07,0.25 292.36,12.54 292.36,27.66 C292.36,27.66 292.36,404.94 292.36,404.94 C292.36,420.05 280.07,432.35 264.95,432.35z  M125.98 10.14 C116.32,10.14 108.47,18 108.47,27.66 C108.47,27.66 108.47,404.94 108.47,404.94 C108.47,414.6 116.32,422.46 125.98,422.46 C125.98,422.46 264.95,422.46 264.95,422.46 C274.61,422.46 282.47,414.6 282.47,404.94 C282.47,404.94 282.47,27.66 282.47,27.66 C282.47,18 274.61,10.14 264.95,10.14 C264.95,10.14 125.98,10.14 125.98,10.14z "/><path id="_R_G_L_10_G_D_4_P_0" fill="#ffffff" fill-opacity="1" fill-rule="nonzero" d=" M94.31 184.38 C94.31,184.38 127.88,251.34 127.88,251.34 C133.82,263.34 135.38,277.04 132.29,290.07 C128.43,306.32 106.69,309.46 98.39,294.98 C98.39,294.98 60.61,229.04 60.61,229.04 C60.61,229.04 94.31,184.38 94.31,184.38z "/><path id="_R_G_L_10_G_D_5_P_0" fill="#38393d" fill-opacity="1" fill-rule="nonzero" d=" M114.19 306.72 C106.76,306.73 100.06,302.87 96.24,296.21 C96.24,296.21 58.47,230.27 58.47,230.27 C57.79,229.09 58.2,227.58 59.39,226.9 C60.57,226.22 62.08,226.63 62.76,227.82 C62.76,227.82 100.53,293.75 100.53,293.75 C104.51,300.68 111.47,302.36 116.65,301.6 C121.84,300.85 128.04,297.28 129.88,289.5 C132.83,277.06 131.34,263.9 125.67,252.44 C125.67,252.44 92.1,185.49 92.1,185.49 C91.49,184.27 91.99,182.78 93.21,182.17 C94.43,181.56 95.92,182.05 96.53,183.27 C96.53,183.27 130.1,250.24 130.1,250.24 C136.28,262.74 137.91,277.08 134.69,290.64 C132.67,299.17 126.03,305.24 117.36,306.5 C116.29,306.65 115.24,306.72 114.19,306.72z "/><path id="_R_G_L_10_G_D_6_P_0" fill="#fcb63b" fill-opacity="1" fill-rule="nonzero" d=" M80.57 101.07 C80.57,101.07 137.89,159.55 137.89,159.55 C147.26,169.11 153,181.65 154.11,194.99 C155.5,211.63 135.81,221.38 123.42,210.19 C123.42,210.19 67.02,159.27 67.02,159.27 C67.02,159.27 80.57,101.07 80.57,101.07z "/><path id="_R_G_L_10_G_D_7_P_0" fill="#ffffff" fill-opacity="1" fill-rule="nonzero" d=" M80.57 101.07 C80.57,101.07 137.89,159.55 137.89,159.55 C147.26,169.11 153,181.65 154.11,194.99 C155.5,211.63 135.81,221.38 123.42,210.19 C123.42,210.19 67.02,159.27 67.02,159.27 C67.02,159.27 80.57,101.07 80.57,101.07z "/><path id="_R_G_L_10_G_D_8_P_0" fill="#38393d" fill-opacity="1" fill-rule="nonzero" d=" M135.65 217.48 C130.65,217.48 125.75,215.63 121.76,212.02 C121.76,212.02 65.36,161.1 65.36,161.1 C64.35,160.19 64.27,158.62 65.19,157.61 C66.1,156.6 67.66,156.52 68.68,157.43 C68.68,157.43 125.08,208.36 125.08,208.36 C131.01,213.71 138.14,213.14 142.84,210.81 C147.53,208.48 152.31,203.16 151.65,195.2 C150.59,182.46 145.07,170.41 136.12,161.28 C136.12,161.28 78.8,102.8 78.8,102.8 C77.85,101.82 77.87,100.26 78.84,99.3 C79.81,98.35 81.38,98.36 82.34,99.34 C82.34,99.34 139.66,157.82 139.66,157.82 C149.41,167.77 155.42,180.9 156.58,194.79 C157.3,203.52 152.88,211.35 145.03,215.24 C141.99,216.74 138.8,217.48 135.65,217.48z "/><path id="_R_G_L_10_G_D_9_P_0" fill="#ffffff" fill-opacity="1" fill-rule="nonzero" d=" M301.38 66.87 C301.38,66.87 301.38,66.87 301.38,66.87 C289.79,80.84 285.2,99.33 288.9,117.1 C288.9,117.1 307.92,208.5 307.92,208.5 C307.92,208.5 300.23,224.91 300.23,224.91 C278.36,271.57 277.41,325.34 297.62,372.74 C297.62,372.74 297.62,372.74 297.62,372.74 C297.62,372.74 301.38,66.87 301.38,66.87z "/><path id="_R_G_L_10_G_D_10_P_0" fill="#38393d" fill-opacity="1" fill-rule="nonzero" d=" M297.62 375.22 C296.66,375.22 295.75,374.65 295.34,373.71 C274.88,325.72 275.85,271.1 298,223.86 C298,223.86 305.34,208.2 305.34,208.2 C305.34,208.2 286.47,117.6 286.47,117.6 C282.6,98.99 287.34,79.92 299.47,65.29 C300.35,64.23 301.91,64.09 302.96,64.96 C304.01,65.84 304.15,67.39 303.28,68.44 C292.11,81.91 287.75,99.46 291.32,116.6 C291.32,116.6 310.35,208 310.35,208 C310.45,208.52 310.39,209.07 310.16,209.55 C310.16,209.55 302.47,225.96 302.47,225.96 C280.93,271.92 279.98,325.07 299.89,371.77 C300.43,373.03 299.85,374.48 298.59,375.02 C298.27,375.15 297.94,375.22 297.62,375.22z "/></g><g id="_R_G_L_9_G"><path id="_R_G_L_9_G_D_0_P_0" fill="#ffffff" fill-opacity="1" fill-rule="nonzero" d=" M83.19 29.33 C73.47,9.35 49.32,1.01 29.32,10.74 C9.36,20.46 1.02,44.61 10.74,64.58 C20.46,84.56 44.62,92.91 64.59,83.19 C84.57,73.46 92.91,49.3 83.19,29.33z  M61.79 77.43 C45,85.6 24.67,78.58 16.49,61.78 C8.32,44.98 15.34,24.67 32.13,16.49 C48.94,8.32 69.25,15.33 77.43,32.13 C85.61,48.93 78.59,69.25 61.79,77.43z "/><path id="_R_G_L_9_G_D_1_P_0" fill="#6f7070" fill-opacity="1" fill-rule="nonzero" d=" M47.04 87.93 C42.53,87.93 38,87.18 33.6,85.66 C23.25,82.08 14.91,74.7 10.13,64.88 C0.25,44.58 8.73,20.01 29.03,10.13 C49.34,0.25 73.92,8.73 83.8,29.03 C93.68,49.34 85.2,73.9 64.89,83.8 C59.23,86.55 53.16,87.93 47.04,87.93z  M46.89 7.35 C41.08,7.35 35.18,8.64 29.62,11.34 C9.99,20.9 1.79,44.65 11.34,64.28 C15.97,73.79 24.03,80.93 34.04,84.39 C44.05,87.84 54.8,87.2 64.3,82.58 C83.94,73.01 92.14,49.26 82.59,29.62 C75.74,15.55 61.59,7.35 46.89,7.35z  M47.02 81.52 C34.2,81.52 21.87,74.36 15.89,62.07 C7.55,44.95 14.71,24.23 31.83,15.89 C48.97,7.56 69.7,14.71 78.04,31.84 C86.38,48.96 79.22,69.69 62.08,78.04 C57.23,80.4 52.09,81.52 47.02,81.52z  M46.9 13.76 C42.03,13.76 37.09,14.83 32.42,17.1 C15.97,25.12 9.09,45.03 17.1,61.48 C25.12,77.95 45.03,84.83 61.49,76.82 C77.96,68.8 84.84,48.89 76.83,32.43 C71.08,20.63 59.22,13.76 46.9,13.76z  M61.79 77.43 C61.79,77.43 61.8,77.43 61.8,77.43 C61.8,77.43 61.79,77.43 61.79,77.43z "/><path id="_R_G_L_9_G_D_2_P_0" fill="#6f7070" fill-opacity="1" fill-rule="nonzero" d=" M30.69 105.94 C30.62,105.94 30.55,105.93 30.47,105.9 C30.12,105.78 29.93,105.4 30.06,105.04 C30.06,105.04 36.38,86.72 36.38,86.72 C36.5,86.37 36.88,86.18 37.24,86.3 C37.59,86.42 37.77,86.81 37.65,87.16 C37.65,87.16 31.33,105.49 31.33,105.49 C31.24,105.77 30.97,105.94 30.69,105.94z "/><path id="_R_G_L_9_G_D_3_P_0" fill="#6f7070" fill-opacity="1" fill-rule="nonzero" d=" M24.71 103.85 C24.63,103.85 24.56,103.83 24.49,103.81 C24.13,103.69 23.95,103.3 24.07,102.95 C24.07,102.95 30.39,84.62 30.39,84.62 C30.51,84.27 30.9,84.08 31.25,84.2 C31.6,84.33 31.79,84.71 31.67,85.06 C31.67,85.06 25.34,103.39 25.34,103.39 C25.25,103.67 24.99,103.85 24.71,103.85z "/><path id="_R_G_L_9_G_D_4_P_0" fill="#36a9df" fill-opacity="1" fill-rule="nonzero" d=" M12.43 146.97 C12.43,146.97 12.43,146.97 12.43,146.97 C7.31,145.2 4.6,139.63 6.36,134.52 C6.36,134.52 22.39,88.1 22.39,88.1 C22.39,88.1 40.91,94.49 40.91,94.49 C40.91,94.49 24.88,140.91 24.88,140.91 C23.12,146.02 17.54,148.74 12.43,146.97z "/><path id="_R_G_L_9_G_D_5_P_0" fill="#ffffff" fill-opacity="1" fill-rule="nonzero" d=" M17.18 62.65 C17.01,62.65 16.83,62.59 16.7,62.46 C16.44,62.19 16.44,61.76 16.7,61.5 C16.7,61.5 34.89,43.31 34.89,43.31 C35.16,43.05 35.58,43.05 35.85,43.31 C35.85,43.31 51.31,58.78 51.31,58.78 C51.31,58.78 91.26,18.83 91.26,18.83 C91.52,18.57 91.95,18.57 92.21,18.83 C92.48,19.1 92.48,19.52 92.21,19.79 C92.21,19.79 51.79,60.21 51.79,60.21 C51.53,60.47 51.1,60.47 50.84,60.21 C50.84,60.21 35.37,44.74 35.37,44.74 C35.37,44.74 17.66,62.46 17.66,62.46 C17.53,62.59 17.35,62.65 17.18,62.65z "/><path id="_R_G_L_9_G_D_6_P_0" fill="#ffffff" fill-opacity="1" fill-rule="nonzero" d=" M38.44 44.61 C38.44,46.35 37.03,47.76 35.29,47.76 C33.56,47.76 32.15,46.35 32.15,44.61 C32.15,42.88 33.56,41.47 35.29,41.47 C37.03,41.47 38.44,42.88 38.44,44.61z "/><path id="_R_G_L_9_G_D_7_P_0" fill="#6f7070" fill-opacity="1" fill-rule="nonzero" d=" M35.29 48.43 C33.19,48.43 31.48,46.72 31.48,44.61 C31.48,42.51 33.19,40.79 35.29,40.79 C37.4,40.79 39.11,42.51 39.11,44.61 C39.11,46.72 37.4,48.43 35.29,48.43z  M35.29 42.14 C33.93,42.14 32.83,43.25 32.83,44.61 C32.83,45.97 33.93,47.08 35.29,47.08 C36.65,47.08 37.76,45.97 37.76,44.61 C37.76,43.25 36.65,42.14 35.29,42.14z "/><path id="_R_G_L_9_G_D_8_P_0" fill="#ffffff" fill-opacity="1" fill-rule="nonzero" d=" M54.46 58.38 C54.46,60.12 53.05,61.53 51.31,61.53 C49.58,61.53 48.17,60.12 48.17,58.38 C48.17,56.65 49.58,55.24 51.31,55.24 C53.05,55.24 54.46,56.65 54.46,58.38z "/><path id="_R_G_L_9_G_D_9_P_0" fill="#6f7070" fill-opacity="1" fill-rule="nonzero" d=" M51.31 62.2 C49.21,62.2 47.49,60.49 47.49,58.38 C47.49,56.28 49.21,54.56 51.31,54.56 C53.42,54.56 55.13,56.28 55.13,58.38 C55.13,60.49 53.42,62.2 51.31,62.2z  M51.31 55.92 C49.95,55.92 48.85,57.02 48.85,58.38 C48.85,59.75 49.95,60.85 51.31,60.85 C52.67,60.85 53.78,59.75 53.78,58.38 C53.78,57.02 52.67,55.92 51.31,55.92z "/><path id="_R_G_L_9_G_D_10_P_0" fill="#36a9df" fill-opacity="1" fill-rule="nonzero" d=" M96.23 19.31 C96.23,21.05 94.82,22.45 93.08,22.45 C91.35,22.45 89.94,21.05 89.94,19.31 C89.94,17.57 91.35,16.17 93.08,16.17 C94.82,16.17 96.23,17.57 96.23,19.31z "/><path id="_R_G_L_9_G_D_11_P_0" fill="#36a9df" fill-opacity="1" fill-rule="nonzero" d=" M93.08 23.13 C90.98,23.13 89.26,21.42 89.26,19.31 C89.26,17.2 90.98,15.49 93.08,15.49 C95.19,15.49 96.9,17.2 96.9,19.31 C96.9,21.42 95.19,23.13 93.08,23.13z  M93.08 16.84 C91.72,16.84 90.61,17.95 90.61,19.31 C90.61,20.67 91.72,21.78 93.08,21.78 C94.44,21.78 95.55,20.67 95.55,19.31 C95.55,17.95 94.44,16.84 93.08,16.84z "/></g><g id="_R_G_L_8_G" transform=" translate(288.991, 423.864) translate(-52.806, -50.569)"><path id="_R_G_L_8_G_D_0_P_0" stroke="#ffffff" stroke-linecap="round" stroke-linejoin="round" fill="none" stroke-width="1.489" stroke-opacity="1" d=" M50.57 50.56 C50.57,50.56 23.03,12.67 23.03,12.67 C31.41,6.59 40.23,3.72 50.57,3.72 C50.57,3.72 50.57,50.56 50.57,50.56z "/><path id="_R_G_L_8_G_D_1_P_0" stroke="#ffffff" stroke-linecap="round" stroke-linejoin="round" fill="none" stroke-width="1.489" stroke-opacity="1" d=" M50.57 50.56 C50.57,50.56 50.57,3.72 50.57,3.72 C76.44,3.72 97.42,24.69 97.42,50.56 C97.42,76.43 76.44,97.42 50.57,97.42 C24.7,97.42 3.72,76.43 3.72,50.56 C3.72,35.04 10.48,21.79 23.03,12.67 C23.03,12.67 50.57,50.56 50.57,50.56z "/><path id="_R_G_L_8_G_D_2_P_0" fill="#36a9df" fill-opacity="1" fill-rule="nonzero" d=" M50.57 50.57 C50.57,50.57 95.12,65.04 95.12,65.04 C103.11,40.44 89.64,14.01 65.04,6.01 C60.12,4.41 55.74,3.72 50.57,3.72 C50.57,3.72 50.57,50.57 50.57,50.57z "/><path id="_R_G_L_8_G_D_3_P_0" stroke="#ffffff" stroke-linecap="round" stroke-linejoin="round" fill="none" stroke-width="1" stroke-opacity="1" d=" M50.57 50.57 C50.57,50.57 95.12,65.04 95.12,65.04 C103.11,40.44 89.64,14.01 65.04,6.01 C60.12,4.41 55.74,3.72 50.57,3.72 C50.57,3.72 50.57,50.57 50.57,50.57z "/></g><g id="_R_G_L_7_G" transform=" translate(220.91, 99.503) translate(-102.977, -79.097)"><path id="_R_G_L_7_G_D_0_P_0" fill="#34ad67" fill-opacity="1" fill-rule="nonzero" d=" M205.7 157.94 C205.7,157.94 205.7,34.69 205.7,34.69 C205.7,15.67 190.28,0.25 171.26,0.25 C171.26,0.25 34.69,0.25 34.69,0.25 C15.67,0.25 0.25,15.67 0.25,34.69 C0.25,34.69 0.25,93.2 0.25,93.2 C0.25,112.23 15.67,127.65 34.69,127.65 C34.69,127.65 158.3,127.65 158.3,127.65 C166.68,127.65 174.77,130.7 181.06,136.24 C181.06,136.24 205.7,157.94 205.7,157.94z "/></g><g id="_R_G_L_6_G_M"><g id="_R_G_L_6_G" transform=" translate(220.909, 86.453) translate(-54.618, -12.185)"><g id="_R_G_L_6_G_D_0_P_0_G_0_T_0" transform=" translate(12.185, 12.185) translate(0, 0)"><path id="_R_G_L_6_G_D_0_P_0" fill="#ffffff" fill-opacity="1" fill-rule="nonzero" d=" M11.94 0 C11.94,6.59 6.59,11.94 0,11.94 C-6.59,11.94 -11.93,6.59 -11.93,0 C-11.93,-6.59 -6.59,-11.93 0,-11.93 C6.59,-11.93 11.94,-6.59 11.94,0z "/></g><g id="_R_G_L_6_G_D_1_P_0_G_0_T_0" transform=" translate(54.618, 12.185) translate(0, 0)"><path id="_R_G_L_6_G_D_1_P_0" fill="#ffffff" fill-opacity="1" fill-rule="nonzero" d=" M11.94 0 C11.94,6.59 6.59,11.94 0,11.94 C-6.59,11.94 -11.93,6.59 -11.93,0 C-11.93,-6.59 -6.59,-11.93 0,-11.93 C6.59,-11.93 11.94,-6.59 11.94,0z "/></g><g id="_R_G_L_6_G_D_2_P_0_G_0_T_0" transform=" translate(97.051, 12.185) translate(0, 0)"><path id="_R_G_L_6_G_D_2_P_0" fill="#ffffff" fill-opacity="1" fill-rule="nonzero" d=" M11.94 0 C11.94,6.59 6.59,11.94 0,11.94 C-6.59,11.94 -11.93,6.59 -11.93,0 C-11.93,-6.59 -6.59,-11.93 0,-11.93 C6.59,-11.93 11.94,-6.59 11.94,0z "/></g></g></g><g id="_R_G_L_5_G_M"><g id="_R_G_L_5_G" transform=" translate(220.909, 86.453) translate(-54.618, -12.185)"><g id="_R_G_L_5_G_D_0_P_0_G_0_T_0" transform=" translate(12.185, 12.185) translate(0, 0)"><path id="_R_G_L_5_G_D_0_P_0" fill="#ffffff" fill-opacity="1" fill-rule="nonzero" d=" M11.94 0 C11.94,6.59 6.59,11.94 0,11.94 C-6.59,11.94 -11.93,6.59 -11.93,0 C-11.93,-6.59 -6.59,-11.93 0,-11.93 C6.59,-11.93 11.94,-6.59 11.94,0z "/></g><g id="_R_G_L_5_G_D_1_P_0_G_0_T_0" transform=" translate(54.618, 12.185) translate(0, 0)"><path id="_R_G_L_5_G_D_1_P_0" fill="#ffffff" fill-opacity="1" fill-rule="nonzero" d=" M11.94 0 C11.94,6.59 6.59,11.94 0,11.94 C-6.59,11.94 -11.93,6.59 -11.93,0 C-11.93,-6.59 -6.59,-11.93 0,-11.93 C6.59,-11.93 11.94,-6.59 11.94,0z "/></g><g id="_R_G_L_5_G_D_2_P_0_G_0_T_0" transform=" translate(97.051, 12.185) translate(0, 0)"><path id="_R_G_L_5_G_D_2_P_0" fill="#ffffff" fill-opacity="1" fill-rule="nonzero" d=" M11.94 0 C11.94,6.59 6.59,11.94 0,11.94 C-6.59,11.94 -11.93,6.59 -11.93,0 C-11.93,-6.59 -6.59,-11.93 0,-11.93 C6.59,-11.93 11.94,-6.59 11.94,0z "/></g></g></g><g id="_R_G_L_4_G" transform=" translate(412.227, 146.209)"><path id="_R_G_L_4_G_D_0_P_0" stroke="#ffffff" stroke-linecap="round" stroke-linejoin="round" fill="none" stroke-width="1.028" stroke-opacity="1" d=" M54.03 2.57 C54.03,2.57 7.72,2.57 7.72,2.57 C4.87,2.57 2.57,4.87 2.57,7.72 C2.57,7.72 2.57,41.17 2.57,41.17 C2.57,44.01 4.87,46.31 7.72,46.31 C7.72,46.31 12.86,46.31 12.86,46.31 C12.86,46.31 12.86,56.61 12.86,56.61 C12.86,56.61 24.44,46.31 24.44,46.31 C24.44,46.31 54.03,46.31 54.03,46.31 C56.88,46.31 59.18,44.01 59.18,41.17 C59.18,41.17 59.18,7.72 59.18,7.72 C59.18,4.87 56.88,2.57 54.03,2.57z "/><path id="_R_G_L_4_G_D_1_P_0" fill="#ffffff" fill-opacity="1" fill-rule="nonzero" d=" M16.89 38.6 C16.89,38.6 13.98,38.6 13.98,38.6 C13.98,38.6 13.98,23.16 13.98,23.16 C13.98,23.16 16.89,23.16 16.89,23.16 C16.89,23.16 16.89,38.6 16.89,38.6z "/><path id="_R_G_L_4_G_D_2_P_0" fill="#ffffff" fill-opacity="1" fill-rule="nonzero" d=" M27.18 38.6 C27.18,38.6 24.28,38.6 24.28,38.6 C24.28,38.6 24.28,30.88 24.28,30.88 C24.28,30.88 27.18,30.88 27.18,30.88 C27.18,30.88 27.18,38.6 27.18,38.6z "/><path id="_R_G_L_4_G_D_3_P_0" fill="#ffffff" fill-opacity="1" fill-rule="nonzero" d=" M37.47 38.59 C37.47,38.59 34.57,38.59 34.57,38.59 C34.57,38.59 34.57,10.29 34.57,10.29 C34.57,10.29 37.47,10.29 37.47,10.29 C37.47,10.29 37.47,38.59 37.47,38.59z "/><path id="_R_G_L_4_G_D_4_P_0" fill="#ffffff" fill-opacity="1" fill-rule="nonzero" d=" M47.77 38.6 C47.77,38.6 44.86,38.6 44.86,38.6 C44.86,38.6 44.86,18.01 44.86,18.01 C44.86,18.01 47.77,18.01 47.77,18.01 C47.77,18.01 47.77,38.6 47.77,38.6z "/></g><g id="_R_G_L_3_G" transform=" translate(346.472, 134.06) translate(-14.883, -12.412)"><path id="_R_G_L_3_G_D_0_P_0" fill="#ffffff" fill-opacity="1" fill-rule="nonzero" d=" M26.07 17.32 C26.07,17.32 8.8,17.32 8.8,17.32 C8.8,17.32 5.36,4.84 5.36,4.84 C5.36,4.84 29.52,4.84 29.52,4.84 C29.52,4.84 29.31,5.58 29.31,5.58 C28.27,9.35 27.23,13.12 26.19,16.89 C26.19,16.89 26.07,17.32 26.07,17.32z  M9.69 16.15 C9.69,16.15 25.18,16.15 25.18,16.15 C26.11,12.77 27.05,9.39 27.98,6.01 C27.98,6.01 6.9,6.01 6.9,6.01 C6.9,6.01 9.69,16.15 9.69,16.15z "/><path id="_R_G_L_3_G_D_1_P_0" fill="#ffffff" fill-opacity="1" fill-rule="nonzero" d=" M8.68 16.89 C8.68,16.89 4.5,1.6 4.5,1.6 C4.5,1.6 0.25,1.42 0.25,1.42 C0.25,1.42 0.3,0.25 0.3,0.25 C0.3,0.25 5.4,0.47 5.4,0.47 C5.4,0.47 9.81,16.58 9.81,16.58 C9.81,16.58 8.68,16.89 8.68,16.89z "/><path id="_R_G_L_3_G_D_2_P_0" fill="#ffffff" fill-opacity="1" fill-rule="nonzero" d=" M12.16 24.57 C10.66,24.57 9.44,23.36 9.44,21.86 C9.44,20.36 10.66,19.14 12.16,19.14 C13.66,19.14 14.88,20.36 14.88,21.86 C14.88,23.36 13.66,24.57 12.16,24.57z  M12.16 20.31 C11.3,20.31 10.61,21 10.61,21.86 C10.61,22.71 11.3,23.41 12.16,23.41 C13.01,23.41 13.71,22.71 13.71,21.86 C13.71,21 13.01,20.31 12.16,20.31z "/><path id="_R_G_L_3_G_D_3_P_0" fill="#ffffff" fill-opacity="1" fill-rule="nonzero" d=" M22.32 24.57 C20.82,24.57 19.6,23.36 19.6,21.86 C19.6,20.36 20.82,19.14 22.32,19.14 C23.81,19.14 25.03,20.36 25.03,21.86 C25.03,23.36 23.81,24.57 22.32,24.57z  M22.32 20.31 C21.46,20.31 20.77,21 20.77,21.86 C20.77,22.71 21.46,23.41 22.32,23.41 C23.17,23.41 23.86,22.71 23.86,21.86 C23.86,21 23.17,20.31 22.32,20.31z "/></g><g id="_R_G_L_2_G" transform=" translate(491.467, 219.443)"><path id="_R_G_L_2_G_D_0_P_0" fill="#ffffff" fill-opacity="1" fill-rule="nonzero" d=" M24.06 47.88 C10.93,47.88 0.25,37.19 0.25,24.06 C0.25,10.93 10.93,0.25 24.06,0.25 C37.19,0.25 47.88,10.93 47.88,24.06 C47.88,37.19 37.19,47.88 24.06,47.88z  M24.06 2.25 C12.03,2.25 2.25,12.03 2.25,24.06 C2.25,36.09 12.03,45.88 24.06,45.88 C36.09,45.88 45.88,36.09 45.88,24.06 C45.88,12.03 36.09,2.25 24.06,2.25z "/><path id="_R_G_L_2_G_D_1_P_0" fill="#ffffff" fill-opacity="1" fill-rule="nonzero" d=" M15.14 33.73 C14.89,33.73 14.63,33.64 14.43,33.44 C14.04,33.05 14.04,32.42 14.43,32.03 C14.43,32.03 32.06,14.4 32.06,14.4 C32.45,14.01 33.09,14.01 33.48,14.4 C33.87,14.79 33.87,15.42 33.48,15.81 C33.48,15.81 15.85,33.44 15.85,33.44 C15.65,33.64 15.4,33.73 15.14,33.73z "/><path id="_R_G_L_2_G_D_2_P_0" fill="#ffffff" fill-opacity="1" fill-rule="nonzero" d=" M16.68 21.46 C13.84,21.46 11.53,19.15 11.53,16.31 C11.53,13.47 13.84,11.16 16.68,11.16 C19.52,11.16 21.83,13.47 21.83,16.31 C21.83,19.15 19.52,21.46 16.68,21.46z  M16.68 13.16 C14.94,13.16 13.53,14.58 13.53,16.31 C13.53,18.05 14.94,19.46 16.68,19.46 C18.41,19.46 19.83,18.05 19.83,16.31 C19.83,14.58 18.41,13.16 16.68,13.16z "/><path id="_R_G_L_2_G_D_3_P_0" fill="#ffffff" fill-opacity="1" fill-rule="nonzero" d=" M31.2 35.98 C28.36,35.98 26.05,33.67 26.05,30.83 C26.05,27.99 28.36,25.68 31.2,25.68 C34.03,25.68 36.34,27.99 36.34,30.83 C36.34,33.67 34.03,35.98 31.2,35.98z  M31.2 27.68 C29.46,27.68 28.05,29.09 28.05,30.83 C28.05,32.56 29.46,33.98 31.2,33.98 C32.93,33.98 34.34,32.56 34.34,30.83 C34.34,29.09 32.93,27.68 31.2,27.68z "/></g><g id="_R_G_L_1_G"><path id="_R_G_L_1_G_D_0_P_0" stroke="#ffffff" stroke-linecap="round" stroke-linejoin="round" fill="none" stroke-width="1.489" stroke-opacity="1" d=" M63.41 9.07 C63.41,9.07 63.41,42.29 63.41,42.29 C62.53,45.66 59.72,47.33 56.36,47.54 C51.77,47.82 46.9,47.3 42.28,47.56 C42.28,47.56 33.98,55.23 33.98,55.23 C33.66,55.54 33.39,55.47 33.1,55.17 C33.1,55.17 24.94,47.6 24.94,47.6 C20.29,47.27 15.4,47.82 10.77,47.54 C7.33,47.33 4.13,45.43 3.72,41.77 C3.72,41.77 3.73,9.36 3.73,9.36 C4.15,6.47 6.63,4.46 9.41,3.97 C25.49,3.72 41.65,3.72 57.73,3.97 C60.48,4.47 62.72,6.31 63.41,9.07z  M26.67 15.39 C20.3,15.61 16.94,23.32 21.09,28.13 C21.09,28.13 33.05,39.26 33.05,39.26 C37.34,35.42 41.97,31.95 46.16,28.01 C51.83,20.53 42.47,11.41 35.15,17.23 C34.8,17.37 33.66,19.01 33.51,18.97 C33.42,18.95 33.11,18.37 32.98,18.22 C31.38,16.37 29.14,15.31 26.67,15.39z "/></g><g id="_R_G_L_0_G"><path id="_R_G_L_0_G_D_0_P_0" stroke="#ffffff" stroke-linecap="round" stroke-linejoin="round" fill="none" stroke-width="1.427" stroke-opacity="1" d=" M71.63 93.17 C81.28,100.01 87.8,110.98 88.59,123.52 "/><path id="_R_G_L_0_G_D_1_P_0" stroke="#ffffff" stroke-linecap="round" stroke-linejoin="round" fill="none" stroke-width="1.427" stroke-opacity="1" d=" M7.9 123.52 C8.7,110.98 15.22,100.01 24.86,93.17 "/><path id="_R_G_L_0_G_D_2_P_0" stroke="#ffffff" stroke-linecap="round" stroke-linejoin="round" fill="none" stroke-width="1.427" stroke-opacity="1" d=" M72.54 83.79 C76.83,75.86 79.43,66.41 79.62,56.19 C80.17,27.58 61.86,4.04 38.73,3.62 C36.2,3.57 33.73,3.87 31.31,4.36 C31.87,6.82 32.46,11.87 33.1,14.36 C33.1,14.36 8.07,39.82 8.07,39.82 C8.07,39.82 8.45,48.22 8.45,48.22 C8.45,48.22 18.11,56.6 18.11,56.6 C18.11,56.6 24.99,46.31 40.58,44.35 C31.97,60.54 27.55,72.98 25.92,83.79 "/><path id="_R_G_L_0_G_D_3_P_0" stroke="#ffffff" stroke-linecap="round" stroke-linejoin="round" fill="none" stroke-width="1.427" stroke-opacity="1" d=" M76.19 93.17 C76.19,93.17 21.73,93.17 21.73,93.17 C21.05,93.17 20.5,92.62 20.5,91.94 C20.5,91.94 20.5,85.03 20.5,85.03 C20.5,84.34 21.05,83.79 21.73,83.79 C21.73,83.79 76.19,83.79 76.19,83.79 C76.87,83.79 77.43,84.34 77.43,85.03 C77.43,85.03 77.43,91.94 77.43,91.94 C77.43,92.62 76.87,93.17 76.19,93.17z "/><path id="_R_G_L_0_G_D_4_P_0" stroke="#ffffff" stroke-linecap="round" stroke-linejoin="round" fill="none" stroke-width="1.427" stroke-opacity="1" d=" M93.12 132.91 C93.12,132.91 4.8,132.91 4.8,132.91 C4.12,132.91 3.57,132.35 3.57,131.67 C3.57,131.67 3.57,124.76 3.57,124.76 C3.57,124.07 4.12,123.52 4.8,123.52 C4.8,123.52 93.12,123.52 93.12,123.52 C93.8,123.52 94.36,124.07 94.36,124.76 C94.36,124.76 94.36,131.67 94.36,131.67 C94.36,132.35 93.8,132.91 93.12,132.91z "/><path id="_R_G_L_0_G_D_5_P_0" stroke="#ffffff" stroke-linecap="round" stroke-linejoin="round" fill="none" stroke-width="1.427" stroke-opacity="1" d=" M72.27 83.79 C89.09,17.87 32.97,13.86 33.1,14.36 C33.1,14.36 8.07,39.82 8.07,39.82 C8.07,39.82 8.45,48.22 8.45,48.22 C8.45,48.22 18.11,56.6 18.11,56.6 C18.11,56.6 24.99,46.31 40.58,44.35 C31.97,60.54 27.55,72.98 25.92,83.79 "/></g></g><g id="time_group"/></svg>