<svg xmlns="http://www.w3.org/2000/svg" xmlns:xlink="http://www.w3.org/1999/xlink" preserveAspectRatio="xMidYMid meet" width="867" height="811" viewBox="0 0 867 811" style="width:100%;height:100%"><defs><animate repeatCount="indefinite" dur="3s" begin="0s" xlink:href="#_R_G_L_13_G" fill="freeze" attributeName="opacity" from="0" to="0" keyTimes="0;0.0555556;0.8944444;0.95;1" values="0;1;0.99;0;0" keySplines="0.333 0 0.667 1;0.333 0 0.667 1;0.333 0 0.667 1;0 0 0 0" calcMode="spline"/><animate repeatCount="indefinite" dur="3s" begin="0s" xlink:href="#_R_G_L_12_G" fill="freeze" attributeName="opacity" from="0" to="0" keyTimes="0;0.1111111;0.1666667;0.7833333;0.8388889;1" values="0;0;1;0.99;0;0" keySplines="0.333 0 0.667 1;0.333 0 0.667 1;0.333 0 0.667 1;0.333 0 0.667 1;0 0 0 0" calcMode="spline"/><animate repeatCount="indefinite" dur="3s" begin="0s" xlink:href="#_R_G_L_11_G" fill="freeze" attributeName="opacity" from="0" to="0" keyTimes="0;0.2222222;0.2777778;0.6722222;0.7277778;1" values="0;0;1;0.99;0;0" keySplines="0.333 0 0.667 1;0.333 0 0.667 1;0.333 0 0.667 1;0.333 0 0.667 1;0 0 0 0" calcMode="spline"/><animate repeatCount="indefinite" dur="3s" begin="0s" xlink:href="#_R_G_L_10_G" fill="freeze" attributeName="opacity" from="0" to="0" keyTimes="0;0.0555556;0.8944444;0.95;1" values="0;1;0.99;0;0" keySplines="0.333 0 0.667 1;0.333 0 0.667 1;0.333 0 0.667 1;0 0 0 0" calcMode="spline"/><animate repeatCount="indefinite" dur="3s" begin="0s" xlink:href="#_R_G_L_9_G" fill="freeze" attributeName="opacity" from="0" to="0" keyTimes="0;0.1111111;0.1666667;0.7833333;0.8388889;1" values="0;0;1;0.99;0;0" keySplines="0.333 0 0.667 1;0.333 0 0.667 1;0.333 0 0.667 1;0.333 0 0.667 1;0 0 0 0" calcMode="spline"/><animate repeatCount="indefinite" dur="3s" begin="0s" xlink:href="#_R_G_L_8_G" fill="freeze" attributeName="opacity" from="0" to="0" keyTimes="0;0.2222222;0.2777778;0.6722222;0.7277778;1" values="0;0;1;0.99;0;0" keySplines="0.333 0 0.667 1;0.333 0 0.667 1;0.333 0 0.667 1;0.333 0 0.667 1;0 0 0 0" calcMode="spline"/><clipPath id="_R_G_L_6_C_0"><path id="_R_G_L_6_C_0_P_0" fill-rule="nonzero" d="M69.83 16.33 C69.83,16.33 58.26,16.33 58.26,16.33 C58.26,16.33 58.26,72.48 58.26,72.48 C58.26,72.48 69.83,72.48 69.83,72.48 C69.83,72.48 69.83,16.33 69.83,16.33z "/></clipPath><animateTransform repeatCount="indefinite" dur="3s" begin="0s" xlink:href="#_R_G_L_6_G" fill="freeze" attributeName="transform" from="-90" to="-90" type="rotate" additive="sum" keyTimes="0;0.5;1" values="-90;0;-90" keySplines="0.333 0 0.667 1;0.333 0 0.667 1" calcMode="spline"/><animateTransform repeatCount="indefinite" dur="3s" begin="0s" xlink:href="#_R_G_L_6_G" fill="freeze" attributeName="transform" from="-68.285 -69.16" to="-68.285 -69.16" type="translate" additive="sum" keyTimes="0;1" values="-68.285 -69.16;-68.285 -69.16" keySplines="0 0 1 1" calcMode="spline"/><animateMotion repeatCount="indefinite" dur="3s" begin="0s" xlink:href="#_R_G_L_5_G" fill="freeze" keyTimes="0;0.5;1" path="M275.3 391.47 C275.3,391.47 312.3,417.47 312.3,417.47 C312.3,417.47 275.3,391.47 275.3,391.47 " keyPoints="0;0.5;1" keySplines="0.333 0 0.667 1;0.333 0 0.667 1" calcMode="spline"/><animateTransform repeatCount="indefinite" dur="3s" begin="0s" xlink:href="#_R_G_L_5_G" fill="freeze" attributeName="transform" from="-215.056 -376.615" to="-215.056 -376.615" type="translate" additive="sum" keyTimes="0;1" values="-215.056 -376.615;-215.056 -376.615" keySplines="0 0 1 1" calcMode="spline"/><animateMotion repeatCount="indefinite" dur="3s" begin="0s" xlink:href="#_R_G_L_3_G" fill="freeze" keyTimes="0;0.5;1" path="M415.78 559.76 C415.78,559.76 415.78,594.76 415.78,594.76 C415.78,594.76 415.78,559.76 415.78,559.76 " keyPoints="0;0.5;1" keySplines="0.333 0 0.667 1;0.333 0 0.667 1" calcMode="spline"/><animateTransform repeatCount="indefinite" dur="3s" begin="0s" xlink:href="#_R_G_L_3_G" fill="freeze" attributeName="transform" from="-48.284 -31.787" to="-48.284 -31.787" type="translate" additive="sum" keyTimes="0;1" values="-48.284 -31.787;-48.284 -31.787" keySplines="0 0 1 1" calcMode="spline"/><animateTransform repeatCount="indefinite" dur="3s" begin="0s" xlink:href="#_R_G_L_2_G" fill="freeze" attributeName="transform" from="0" to="0" type="rotate" additive="sum" keyTimes="0;0.5;1" values="0;10;0" keySplines="0.333 0 0.667 1;0.333 0 0.667 1" calcMode="spline"/><animateTransform repeatCount="indefinite" dur="3s" begin="0s" xlink:href="#_R_G_L_2_G" fill="freeze" attributeName="transform" from="-27.624 -56.812" to="-27.624 -56.812" type="translate" additive="sum" keyTimes="0;1" values="-27.624 -56.812;-27.624 -56.812" keySplines="0 0 1 1" calcMode="spline"/><animateTransform repeatCount="indefinite" dur="3s" begin="0s" xlink:href="#_R_G_L_1_G_N_3_T_0" fill="freeze" attributeName="transform" from="0" to="0" type="rotate" additive="sum" keyTimes="0;0.5;1" values="0;10;0" keySplines="0.333 0 0.667 1;0.333 0 0.667 1" calcMode="spline"/><animateTransform repeatCount="indefinite" dur="3s" begin="0s" xlink:href="#_R_G_L_1_G_N_3_T_0" fill="freeze" attributeName="transform" from="-27.624 -56.812" to="-27.624 -56.812" type="translate" additive="sum" keyTimes="0;1" values="-27.624 -56.812;-27.624 -56.812" keySplines="0 0 1 1" calcMode="spline"/><animate attributeType="XML" attributeName="opacity" dur="3s" from="0" to="1" xlink:href="#time_group"/></defs><g id="_R_G"><g id="_R_G_L_13_G" transform=" translate(592.912, 266.853) translate(-161.651, -101.71)"><path id="_R_G_L_13_G_D_0_P_0" fill="#676767" fill-opacity="1" fill-rule="nonzero" d=" M33.14 1.92 C15.92,1.92 1.92,15.92 1.92,33.14 C1.92,33.14 1.92,170.28 1.92,170.28 C1.92,187.5 15.92,201.5 33.14,201.5 C33.14,201.5 290.16,201.5 290.16,201.5 C307.38,201.5 321.39,187.5 321.39,170.28 C321.39,170.28 321.39,33.14 321.39,33.14 C321.39,15.92 307.38,1.92 290.16,1.92 C290.16,1.92 33.14,1.92 33.14,1.92z "/><path id="_R_G_L_13_G_D_1_P_0" fill="#ffffff" fill-opacity="1" fill-rule="nonzero" d=" M290.16 203.17 C290.16,203.17 33.14,203.17 33.14,203.17 C15.01,203.17 0.25,188.41 0.25,170.28 C0.25,170.28 0.25,33.14 0.25,33.14 C0.25,15.01 15.01,0.25 33.14,0.25 C33.14,0.25 290.16,0.25 290.16,0.25 C308.3,0.25 323.05,15.01 323.05,33.14 C323.05,33.14 323.05,170.28 323.05,170.28 C323.05,188.41 308.3,203.17 290.16,203.17z  M33.14 1.92 C15.92,1.92 1.92,15.92 1.92,33.14 C1.92,33.14 1.92,170.28 1.92,170.28 C1.92,187.5 15.92,201.5 33.14,201.5 C33.14,201.5 290.16,201.5 290.16,201.5 C307.38,201.5 321.39,187.5 321.39,170.28 C321.39,170.28 321.39,33.14 321.39,33.14 C321.39,15.92 307.38,1.92 290.16,1.92 C290.16,1.92 33.14,1.92 33.14,1.92z "/><path id="_R_G_L_13_G_D_2_P_0" fill="#ffffff" fill-opacity="1" fill-rule="nonzero" d=" M289.12 31.3 C289.12,31.3 277.53,19.71 277.53,19.71 C277.53,19.71 278.71,18.53 278.71,18.53 C278.71,18.53 290.3,30.12 290.3,30.12 C290.3,30.12 289.12,31.3 289.12,31.3z "/><path id="_R_G_L_13_G_D_3_P_0" fill="#ffffff" fill-opacity="1" fill-rule="nonzero" d=" M278.71 31.3 C278.71,31.3 277.53,30.12 277.53,30.12 C277.53,30.12 289.12,18.53 289.12,18.53 C289.12,18.53 290.3,19.71 290.3,19.71 C290.3,19.71 278.71,31.3 278.71,31.3z "/><path id="_R_G_L_13_G_D_4_P_0" fill="#ffffff" fill-opacity="1" fill-rule="nonzero" d=" M106.88 62.34 C106.88,82.6 90.45,99.03 70.19,99.03 C49.92,99.03 33.49,82.6 33.49,62.34 C33.49,42.07 49.92,25.64 70.19,25.64 C90.45,25.64 106.88,42.07 106.88,62.34z "/><path id="_R_G_L_13_G_D_5_P_0" fill="#36a9df" fill-opacity="1" fill-rule="nonzero" d=" M86.28 49 C86.28,57.89 79.07,65.09 70.19,65.09 C61.3,65.09 54.1,57.89 54.1,49 C54.1,40.12 61.3,32.91 70.19,32.91 C79.07,32.91 86.28,40.12 86.28,49z "/><path id="_R_G_L_13_G_D_6_P_0" fill="#36a9df" fill-opacity="1" fill-rule="nonzero" d=" M70.19 68.98 C58.03,68.98 47.25,74.89 40.57,84 C47.25,93.11 58.03,99.03 70.19,99.03 C82.35,99.03 93.12,93.11 99.8,84 C93.12,74.89 82.35,68.98 70.19,68.98z "/><path id="_R_G_L_13_G_D_7_P_0" fill="#ffffff" fill-opacity="1" fill-rule="nonzero" d=" M43.01 125.07 C43.01,125.07 32.66,125.07 32.66,125.07 C32.66,125.07 32.66,114.72 32.66,114.72 C32.66,114.72 43.01,114.72 43.01,114.72 C43.01,114.72 43.01,125.07 43.01,125.07z  M34.33 123.4 C34.33,123.4 41.34,123.4 41.34,123.4 C41.34,123.4 41.34,116.39 41.34,116.39 C41.34,116.39 34.33,116.39 34.33,116.39 C34.33,116.39 34.33,123.4 34.33,123.4z "/><path id="_R_G_L_13_G_D_8_P_0" fill="#ffffff" fill-opacity="1" fill-rule="nonzero" d=" M43.01 149.19 C43.01,149.19 32.66,149.19 32.66,149.19 C32.66,149.19 32.66,138.84 32.66,138.84 C32.66,138.84 43.01,138.84 43.01,138.84 C43.01,138.84 43.01,149.19 43.01,149.19z  M34.33 147.52 C34.33,147.52 41.34,147.52 41.34,147.52 C41.34,147.52 41.34,140.51 41.34,140.51 C41.34,140.51 34.33,140.51 34.33,140.51 C34.33,140.51 34.33,147.52 34.33,147.52z "/><path id="_R_G_L_13_G_D_9_P_0" fill="#ffffff" fill-opacity="1" fill-rule="nonzero" d=" M43.01 173.32 C43.01,173.32 32.66,173.32 32.66,173.32 C32.66,173.32 32.66,162.97 32.66,162.97 C32.66,162.97 43.01,162.97 43.01,162.97 C43.01,162.97 43.01,173.32 43.01,173.32z  M34.33 171.65 C34.33,171.65 41.34,171.65 41.34,171.65 C41.34,171.65 41.34,164.64 41.34,164.64 C41.34,164.64 34.33,164.64 34.33,164.64 C34.33,164.64 34.33,171.65 34.33,171.65z "/><path id="_R_G_L_13_G_D_10_P_0" fill="#34ad67" fill-opacity="1" fill-rule="nonzero" d=" M151.1 124.23 C151.1,124.23 53.39,124.23 53.39,124.23 C53.39,124.23 53.39,115.55 53.39,115.55 C53.39,115.55 151.1,115.55 151.1,115.55 C151.1,115.55 151.1,124.23 151.1,124.23z "/><path id="_R_G_L_13_G_D_11_P_0" fill="#34ad67" fill-opacity="1" fill-rule="nonzero" d=" M151.1 148.36 C151.1,148.36 53.39,148.36 53.39,148.36 C53.39,148.36 53.39,139.68 53.39,139.68 C53.39,139.68 151.1,139.68 151.1,139.68 C151.1,139.68 151.1,148.36 151.1,148.36z "/><path id="_R_G_L_13_G_D_12_P_0" fill="#34ad67" fill-opacity="1" fill-rule="nonzero" d=" M103.13 172.48 C103.13,172.48 53.39,172.48 53.39,172.48 C53.39,172.48 53.39,163.8 53.39,163.8 C53.39,163.8 103.13,163.8 103.13,163.8 C103.13,163.8 103.13,172.48 103.13,172.48z "/></g><g id="_R_G_L_12_G" transform=" translate(581.054, 276.938) translate(-161.652, -101.71)"><path id="_R_G_L_12_G_D_0_P_0" fill="#676767" fill-opacity="1" fill-rule="nonzero" d=" M33.14 1.92 C15.92,1.92 1.92,15.92 1.92,33.14 C1.92,33.14 1.92,170.28 1.92,170.28 C1.92,187.5 15.92,201.5 33.14,201.5 C33.14,201.5 290.16,201.5 290.16,201.5 C307.38,201.5 321.39,187.5 321.39,170.28 C321.39,170.28 321.39,33.14 321.39,33.14 C321.39,15.92 307.38,1.92 290.16,1.92 C290.16,1.92 33.14,1.92 33.14,1.92z "/><path id="_R_G_L_12_G_D_1_P_0" fill="#ffffff" fill-opacity="1" fill-rule="nonzero" d=" M290.16 203.17 C290.16,203.17 33.14,203.17 33.14,203.17 C15.01,203.17 0.25,188.41 0.25,170.28 C0.25,170.28 0.25,33.14 0.25,33.14 C0.25,15.01 15.01,0.25 33.14,0.25 C33.14,0.25 290.16,0.25 290.16,0.25 C308.3,0.25 323.05,15.01 323.05,33.14 C323.05,33.14 323.05,170.28 323.05,170.28 C323.05,188.41 308.3,203.17 290.16,203.17z  M33.14 1.92 C15.92,1.92 1.92,15.92 1.92,33.14 C1.92,33.14 1.92,170.28 1.92,170.28 C1.92,187.5 15.92,201.5 33.14,201.5 C33.14,201.5 290.16,201.5 290.16,201.5 C307.38,201.5 321.39,187.5 321.39,170.28 C321.39,170.28 321.39,33.14 321.39,33.14 C321.39,15.92 307.38,1.92 290.16,1.92 C290.16,1.92 33.14,1.92 33.14,1.92z "/><path id="_R_G_L_12_G_D_2_P_0" fill="#ffffff" fill-opacity="1" fill-rule="nonzero" d=" M289.12 31.3 C289.12,31.3 277.53,19.71 277.53,19.71 C277.53,19.71 278.71,18.53 278.71,18.53 C278.71,18.53 290.3,30.12 290.3,30.12 C290.3,30.12 289.12,31.3 289.12,31.3z "/><path id="_R_G_L_12_G_D_3_P_0" fill="#ffffff" fill-opacity="1" fill-rule="nonzero" d=" M278.71 31.3 C278.71,31.3 277.53,30.12 277.53,30.12 C277.53,30.12 289.12,18.53 289.12,18.53 C289.12,18.53 290.3,19.71 290.3,19.71 C290.3,19.71 278.71,31.3 278.71,31.3z "/><path id="_R_G_L_12_G_D_4_P_0" fill="#ffffff" fill-opacity="1" fill-rule="nonzero" d=" M106.88 62.34 C106.88,82.6 90.45,99.03 70.19,99.03 C49.92,99.03 33.49,82.6 33.49,62.34 C33.49,42.07 49.92,25.64 70.19,25.64 C90.45,25.64 106.88,42.07 106.88,62.34z "/><path id="_R_G_L_12_G_D_5_P_0" fill="#36a9df" fill-opacity="1" fill-rule="nonzero" d=" M86.28 49 C86.28,57.89 79.07,65.09 70.19,65.09 C61.3,65.09 54.1,57.89 54.1,49 C54.1,40.12 61.3,32.91 70.19,32.91 C79.07,32.91 86.28,40.12 86.28,49z "/><path id="_R_G_L_12_G_D_6_P_0" fill="#36a9df" fill-opacity="1" fill-rule="nonzero" d=" M70.19 68.98 C58.03,68.98 47.25,74.89 40.57,84 C47.25,93.11 58.03,99.03 70.19,99.03 C82.35,99.03 93.12,93.11 99.8,84 C93.12,74.89 82.35,68.98 70.19,68.98z "/><path id="_R_G_L_12_G_D_7_P_0" fill="#ffffff" fill-opacity="1" fill-rule="nonzero" d=" M43.01 125.07 C43.01,125.07 32.66,125.07 32.66,125.07 C32.66,125.07 32.66,114.72 32.66,114.72 C32.66,114.72 43.01,114.72 43.01,114.72 C43.01,114.72 43.01,125.07 43.01,125.07z  M34.33 123.4 C34.33,123.4 41.34,123.4 41.34,123.4 C41.34,123.4 41.34,116.39 41.34,116.39 C41.34,116.39 34.33,116.39 34.33,116.39 C34.33,116.39 34.33,123.4 34.33,123.4z "/><path id="_R_G_L_12_G_D_8_P_0" fill="#ffffff" fill-opacity="1" fill-rule="nonzero" d=" M43.01 149.19 C43.01,149.19 32.66,149.19 32.66,149.19 C32.66,149.19 32.66,138.84 32.66,138.84 C32.66,138.84 43.01,138.84 43.01,138.84 C43.01,138.84 43.01,149.19 43.01,149.19z  M34.33 147.53 C34.33,147.53 41.34,147.53 41.34,147.53 C41.34,147.53 41.34,140.51 41.34,140.51 C41.34,140.51 34.33,140.51 34.33,140.51 C34.33,140.51 34.33,147.53 34.33,147.53z "/><path id="_R_G_L_12_G_D_9_P_0" fill="#ffffff" fill-opacity="1" fill-rule="nonzero" d=" M43.01 173.32 C43.01,173.32 32.66,173.32 32.66,173.32 C32.66,173.32 32.66,162.97 32.66,162.97 C32.66,162.97 43.01,162.97 43.01,162.97 C43.01,162.97 43.01,173.32 43.01,173.32z  M34.33 171.65 C34.33,171.65 41.34,171.65 41.34,171.65 C41.34,171.65 41.34,164.64 41.34,164.64 C41.34,164.64 34.33,164.64 34.33,164.64 C34.33,164.64 34.33,171.65 34.33,171.65z "/><path id="_R_G_L_12_G_D_10_P_0" fill="#34ad67" fill-opacity="1" fill-rule="nonzero" d=" M151.1 124.23 C151.1,124.23 53.39,124.23 53.39,124.23 C53.39,124.23 53.39,115.55 53.39,115.55 C53.39,115.55 151.1,115.55 151.1,115.55 C151.1,115.55 151.1,124.23 151.1,124.23z "/><path id="_R_G_L_12_G_D_11_P_0" fill="#34ad67" fill-opacity="1" fill-rule="nonzero" d=" M151.1 148.36 C151.1,148.36 53.39,148.36 53.39,148.36 C53.39,148.36 53.39,139.68 53.39,139.68 C53.39,139.68 151.1,139.68 151.1,139.68 C151.1,139.68 151.1,148.36 151.1,148.36z "/><path id="_R_G_L_12_G_D_12_P_0" fill="#34ad67" fill-opacity="1" fill-rule="nonzero" d=" M103.13 172.48 C103.13,172.48 53.39,172.48 53.39,172.48 C53.39,172.48 53.39,163.8 53.39,163.8 C53.39,163.8 103.13,163.8 103.13,163.8 C103.13,163.8 103.13,172.48 103.13,172.48z "/></g><g id="_R_G_L_11_G" transform=" translate(569.195, 287.023) translate(-161.652, -101.71)"><path id="_R_G_L_11_G_D_0_P_0" fill="#676767" fill-opacity="1" fill-rule="nonzero" d=" M33.14 1.92 C15.92,1.92 1.92,15.92 1.92,33.14 C1.92,33.14 1.92,170.28 1.92,170.28 C1.92,187.5 15.92,201.5 33.14,201.5 C33.14,201.5 290.16,201.5 290.16,201.5 C307.38,201.5 321.39,187.5 321.39,170.28 C321.39,170.28 321.39,33.14 321.39,33.14 C321.39,15.92 307.38,1.92 290.16,1.92 C290.16,1.92 33.14,1.92 33.14,1.92z "/><path id="_R_G_L_11_G_D_1_P_0" fill="#ffffff" fill-opacity="1" fill-rule="nonzero" d=" M290.16 203.17 C290.16,203.17 33.14,203.17 33.14,203.17 C15.01,203.17 0.25,188.41 0.25,170.28 C0.25,170.28 0.25,33.14 0.25,33.14 C0.25,15.01 15.01,0.25 33.14,0.25 C33.14,0.25 290.16,0.25 290.16,0.25 C308.3,0.25 323.05,15.01 323.05,33.14 C323.05,33.14 323.05,170.28 323.05,170.28 C323.05,188.41 308.3,203.17 290.16,203.17z  M33.14 1.92 C15.92,1.92 1.92,15.92 1.92,33.14 C1.92,33.14 1.92,170.28 1.92,170.28 C1.92,187.5 15.92,201.5 33.14,201.5 C33.14,201.5 290.16,201.5 290.16,201.5 C307.38,201.5 321.39,187.5 321.39,170.28 C321.39,170.28 321.39,33.14 321.39,33.14 C321.39,15.92 307.38,1.92 290.16,1.92 C290.16,1.92 33.14,1.92 33.14,1.92z "/><path id="_R_G_L_11_G_D_2_P_0" fill="#ffffff" fill-opacity="1" fill-rule="nonzero" d=" M289.12 31.3 C289.12,31.3 277.53,19.71 277.53,19.71 C277.53,19.71 278.71,18.53 278.71,18.53 C278.71,18.53 290.3,30.12 290.3,30.12 C290.3,30.12 289.12,31.3 289.12,31.3z "/><path id="_R_G_L_11_G_D_3_P_0" fill="#ffffff" fill-opacity="1" fill-rule="nonzero" d=" M278.71 31.3 C278.71,31.3 277.53,30.12 277.53,30.12 C277.53,30.12 289.12,18.53 289.12,18.53 C289.12,18.53 290.3,19.71 290.3,19.71 C290.3,19.71 278.71,31.3 278.71,31.3z "/><path id="_R_G_L_11_G_D_4_P_0" fill="#ffffff" fill-opacity="1" fill-rule="nonzero" d=" M106.88 62.34 C106.88,82.6 90.45,99.03 70.19,99.03 C49.92,99.03 33.49,82.6 33.49,62.34 C33.49,42.07 49.92,25.64 70.19,25.64 C90.45,25.64 106.88,42.07 106.88,62.34z "/><path id="_R_G_L_11_G_D_5_P_0" fill="#36a9df" fill-opacity="1" fill-rule="nonzero" d=" M86.28 49 C86.28,57.89 79.07,65.09 70.19,65.09 C61.3,65.09 54.1,57.89 54.1,49 C54.1,40.12 61.3,32.91 70.19,32.91 C79.07,32.91 86.28,40.12 86.28,49z "/><path id="_R_G_L_11_G_D_6_P_0" fill="#36a9df" fill-opacity="1" fill-rule="nonzero" d=" M70.19 68.98 C58.03,68.98 47.25,74.89 40.57,84 C47.25,93.11 58.03,99.03 70.19,99.03 C82.35,99.03 93.12,93.11 99.8,84 C93.12,74.89 82.35,68.98 70.19,68.98z "/><path id="_R_G_L_11_G_D_7_P_0" fill="#ffffff" fill-opacity="1" fill-rule="nonzero" d=" M43.01 125.07 C43.01,125.07 32.66,125.07 32.66,125.07 C32.66,125.07 32.66,114.72 32.66,114.72 C32.66,114.72 43.01,114.72 43.01,114.72 C43.01,114.72 43.01,125.07 43.01,125.07z  M34.33 123.4 C34.33,123.4 41.34,123.4 41.34,123.4 C41.34,123.4 41.34,116.39 41.34,116.39 C41.34,116.39 34.33,116.39 34.33,116.39 C34.33,116.39 34.33,123.4 34.33,123.4z "/><path id="_R_G_L_11_G_D_8_P_0" fill="#ffffff" fill-opacity="1" fill-rule="nonzero" d=" M43.01 149.19 C43.01,149.19 32.66,149.19 32.66,149.19 C32.66,149.19 32.66,138.84 32.66,138.84 C32.66,138.84 43.01,138.84 43.01,138.84 C43.01,138.84 43.01,149.19 43.01,149.19z  M34.33 147.53 C34.33,147.53 41.34,147.53 41.34,147.53 C41.34,147.53 41.34,140.51 41.34,140.51 C41.34,140.51 34.33,140.51 34.33,140.51 C34.33,140.51 34.33,147.53 34.33,147.53z "/><path id="_R_G_L_11_G_D_9_P_0" fill="#ffffff" fill-opacity="1" fill-rule="nonzero" d=" M43.01 173.32 C43.01,173.32 32.66,173.32 32.66,173.32 C32.66,173.32 32.66,162.97 32.66,162.97 C32.66,162.97 43.01,162.97 43.01,162.97 C43.01,162.97 43.01,173.32 43.01,173.32z  M34.33 171.65 C34.33,171.65 41.34,171.65 41.34,171.65 C41.34,171.65 41.34,164.64 41.34,164.64 C41.34,164.64 34.33,164.64 34.33,164.64 C34.33,164.64 34.33,171.65 34.33,171.65z "/><path id="_R_G_L_11_G_D_10_P_0" fill="#34ad67" fill-opacity="1" fill-rule="nonzero" d=" M151.1 124.23 C151.1,124.23 53.39,124.23 53.39,124.23 C53.39,124.23 53.39,115.55 53.39,115.55 C53.39,115.55 151.1,115.55 151.1,115.55 C151.1,115.55 151.1,124.23 151.1,124.23z "/><path id="_R_G_L_11_G_D_11_P_0" fill="#34ad67" fill-opacity="1" fill-rule="nonzero" d=" M151.1 148.36 C151.1,148.36 53.39,148.36 53.39,148.36 C53.39,148.36 53.39,139.68 53.39,139.68 C53.39,139.68 151.1,139.68 151.1,139.68 C151.1,139.68 151.1,148.36 151.1,148.36z "/><path id="_R_G_L_11_G_D_12_P_0" fill="#34ad67" fill-opacity="1" fill-rule="nonzero" d=" M103.13 172.48 C103.13,172.48 53.39,172.48 53.39,172.48 C53.39,172.48 53.39,163.8 53.39,163.8 C53.39,163.8 103.13,163.8 103.13,163.8 C103.13,163.8 103.13,172.48 103.13,172.48z "/></g><g id="_R_G_L_10_G" transform=" translate(682.561, 521.795) translate(-161.651, -101.71)"><path id="_R_G_L_10_G_D_0_P_0" fill="#676767" fill-opacity="1" fill-rule="nonzero" d=" M33.14 1.92 C15.92,1.92 1.92,15.92 1.92,33.14 C1.92,33.14 1.92,170.28 1.92,170.28 C1.92,187.5 15.92,201.5 33.14,201.5 C33.14,201.5 290.16,201.5 290.16,201.5 C307.38,201.5 321.39,187.5 321.39,170.28 C321.39,170.28 321.39,33.14 321.39,33.14 C321.39,15.92 307.38,1.92 290.16,1.92 C290.16,1.92 33.14,1.92 33.14,1.92z "/><path id="_R_G_L_10_G_D_1_P_0" fill="#ffffff" fill-opacity="1" fill-rule="nonzero" d=" M290.16 203.17 C290.16,203.17 33.14,203.17 33.14,203.17 C15.01,203.17 0.25,188.41 0.25,170.28 C0.25,170.28 0.25,33.14 0.25,33.14 C0.25,15.01 15.01,0.25 33.14,0.25 C33.14,0.25 290.16,0.25 290.16,0.25 C308.3,0.25 323.05,15.01 323.05,33.14 C323.05,33.14 323.05,170.28 323.05,170.28 C323.05,188.41 308.3,203.17 290.16,203.17z  M33.14 1.92 C15.92,1.92 1.92,15.92 1.92,33.14 C1.92,33.14 1.92,170.28 1.92,170.28 C1.92,187.5 15.92,201.5 33.14,201.5 C33.14,201.5 290.16,201.5 290.16,201.5 C307.38,201.5 321.39,187.5 321.39,170.28 C321.39,170.28 321.39,33.14 321.39,33.14 C321.39,15.92 307.38,1.92 290.16,1.92 C290.16,1.92 33.14,1.92 33.14,1.92z "/><path id="_R_G_L_10_G_D_2_P_0" fill="#ffffff" fill-opacity="1" fill-rule="nonzero" d=" M289.12 31.3 C289.12,31.3 277.53,19.71 277.53,19.71 C277.53,19.71 278.71,18.53 278.71,18.53 C278.71,18.53 290.3,30.12 290.3,30.12 C290.3,30.12 289.12,31.3 289.12,31.3z "/><path id="_R_G_L_10_G_D_3_P_0" fill="#ffffff" fill-opacity="1" fill-rule="nonzero" d=" M278.71 31.3 C278.71,31.3 277.53,30.12 277.53,30.12 C277.53,30.12 289.12,18.53 289.12,18.53 C289.12,18.53 290.3,19.71 290.3,19.71 C290.3,19.71 278.71,31.3 278.71,31.3z "/><path id="_R_G_L_10_G_D_4_P_0" fill="#ffffff" fill-opacity="1" fill-rule="nonzero" d=" M106.88 62.34 C106.88,82.6 90.45,99.03 70.19,99.03 C49.92,99.03 33.49,82.6 33.49,62.34 C33.49,42.07 49.92,25.64 70.19,25.64 C90.45,25.64 106.88,42.07 106.88,62.34z "/><path id="_R_G_L_10_G_D_5_P_0" fill="#36a9df" fill-opacity="1" fill-rule="nonzero" d=" M86.28 49 C86.28,57.89 79.07,65.09 70.19,65.09 C61.3,65.09 54.1,57.89 54.1,49 C54.1,40.12 61.3,32.91 70.19,32.91 C79.07,32.91 86.28,40.12 86.28,49z "/><path id="_R_G_L_10_G_D_6_P_0" fill="#36a9df" fill-opacity="1" fill-rule="nonzero" d=" M70.19 68.98 C58.03,68.98 47.25,74.89 40.57,84 C47.25,93.11 58.03,99.03 70.19,99.03 C82.35,99.03 93.12,93.11 99.8,84 C93.12,74.89 82.35,68.98 70.19,68.98z "/><path id="_R_G_L_10_G_D_7_P_0" fill="#ffffff" fill-opacity="1" fill-rule="nonzero" d=" M43.01 125.07 C43.01,125.07 32.66,125.07 32.66,125.07 C32.66,125.07 32.66,114.72 32.66,114.72 C32.66,114.72 43.01,114.72 43.01,114.72 C43.01,114.72 43.01,125.07 43.01,125.07z  M34.33 123.4 C34.33,123.4 41.34,123.4 41.34,123.4 C41.34,123.4 41.34,116.39 41.34,116.39 C41.34,116.39 34.33,116.39 34.33,116.39 C34.33,116.39 34.33,123.4 34.33,123.4z "/><path id="_R_G_L_10_G_D_8_P_0" fill="#ffffff" fill-opacity="1" fill-rule="nonzero" d=" M43.01 149.19 C43.01,149.19 32.66,149.19 32.66,149.19 C32.66,149.19 32.66,138.84 32.66,138.84 C32.66,138.84 43.01,138.84 43.01,138.84 C43.01,138.84 43.01,149.19 43.01,149.19z  M34.33 147.52 C34.33,147.52 41.34,147.52 41.34,147.52 C41.34,147.52 41.34,140.51 41.34,140.51 C41.34,140.51 34.33,140.51 34.33,140.51 C34.33,140.51 34.33,147.52 34.33,147.52z "/><path id="_R_G_L_10_G_D_9_P_0" fill="#ffffff" fill-opacity="1" fill-rule="nonzero" d=" M43.01 173.32 C43.01,173.32 32.66,173.32 32.66,173.32 C32.66,173.32 32.66,162.97 32.66,162.97 C32.66,162.97 43.01,162.97 43.01,162.97 C43.01,162.97 43.01,173.32 43.01,173.32z  M34.33 171.65 C34.33,171.65 41.34,171.65 41.34,171.65 C41.34,171.65 41.34,164.64 41.34,164.64 C41.34,164.64 34.33,164.64 34.33,164.64 C34.33,164.64 34.33,171.65 34.33,171.65z "/><path id="_R_G_L_10_G_D_10_P_0" fill="#34ad67" fill-opacity="1" fill-rule="nonzero" d=" M151.1 124.23 C151.1,124.23 53.39,124.23 53.39,124.23 C53.39,124.23 53.39,115.55 53.39,115.55 C53.39,115.55 151.1,115.55 151.1,115.55 C151.1,115.55 151.1,124.23 151.1,124.23z "/><path id="_R_G_L_10_G_D_11_P_0" fill="#34ad67" fill-opacity="1" fill-rule="nonzero" d=" M151.1 148.36 C151.1,148.36 53.39,148.36 53.39,148.36 C53.39,148.36 53.39,139.68 53.39,139.68 C53.39,139.68 151.1,139.68 151.1,139.68 C151.1,139.68 151.1,148.36 151.1,148.36z "/><path id="_R_G_L_10_G_D_12_P_0" fill="#34ad67" fill-opacity="1" fill-rule="nonzero" d=" M103.13 172.48 C103.13,172.48 53.39,172.48 53.39,172.48 C53.39,172.48 53.39,163.8 53.39,163.8 C53.39,163.8 103.13,163.8 103.13,163.8 C103.13,163.8 103.13,172.48 103.13,172.48z "/></g><g id="_R_G_L_9_G" transform=" translate(670.703, 531.88) translate(-161.652, -101.71)"><path id="_R_G_L_9_G_D_0_P_0" fill="#676767" fill-opacity="1" fill-rule="nonzero" d=" M33.14 1.92 C15.92,1.92 1.92,15.92 1.92,33.14 C1.92,33.14 1.92,170.28 1.92,170.28 C1.92,187.5 15.92,201.5 33.14,201.5 C33.14,201.5 290.16,201.5 290.16,201.5 C307.38,201.5 321.39,187.5 321.39,170.28 C321.39,170.28 321.39,33.14 321.39,33.14 C321.39,15.92 307.38,1.92 290.16,1.92 C290.16,1.92 33.14,1.92 33.14,1.92z "/><path id="_R_G_L_9_G_D_1_P_0" fill="#ffffff" fill-opacity="1" fill-rule="nonzero" d=" M290.16 203.17 C290.16,203.17 33.14,203.17 33.14,203.17 C15.01,203.17 0.25,188.41 0.25,170.28 C0.25,170.28 0.25,33.14 0.25,33.14 C0.25,15.01 15.01,0.25 33.14,0.25 C33.14,0.25 290.16,0.25 290.16,0.25 C308.3,0.25 323.05,15.01 323.05,33.14 C323.05,33.14 323.05,170.28 323.05,170.28 C323.05,188.41 308.3,203.17 290.16,203.17z  M33.14 1.92 C15.92,1.92 1.92,15.92 1.92,33.14 C1.92,33.14 1.92,170.28 1.92,170.28 C1.92,187.5 15.92,201.5 33.14,201.5 C33.14,201.5 290.16,201.5 290.16,201.5 C307.38,201.5 321.39,187.5 321.39,170.28 C321.39,170.28 321.39,33.14 321.39,33.14 C321.39,15.92 307.38,1.92 290.16,1.92 C290.16,1.92 33.14,1.92 33.14,1.92z "/><path id="_R_G_L_9_G_D_2_P_0" fill="#ffffff" fill-opacity="1" fill-rule="nonzero" d=" M289.12 31.3 C289.12,31.3 277.53,19.71 277.53,19.71 C277.53,19.71 278.71,18.53 278.71,18.53 C278.71,18.53 290.3,30.12 290.3,30.12 C290.3,30.12 289.12,31.3 289.12,31.3z "/><path id="_R_G_L_9_G_D_3_P_0" fill="#ffffff" fill-opacity="1" fill-rule="nonzero" d=" M278.71 31.3 C278.71,31.3 277.53,30.12 277.53,30.12 C277.53,30.12 289.12,18.53 289.12,18.53 C289.12,18.53 290.3,19.71 290.3,19.71 C290.3,19.71 278.71,31.3 278.71,31.3z "/><path id="_R_G_L_9_G_D_4_P_0" fill="#ffffff" fill-opacity="1" fill-rule="nonzero" d=" M106.88 62.34 C106.88,82.6 90.45,99.03 70.19,99.03 C49.92,99.03 33.49,82.6 33.49,62.34 C33.49,42.07 49.92,25.64 70.19,25.64 C90.45,25.64 106.88,42.07 106.88,62.34z "/><path id="_R_G_L_9_G_D_5_P_0" fill="#36a9df" fill-opacity="1" fill-rule="nonzero" d=" M86.28 49 C86.28,57.89 79.07,65.09 70.19,65.09 C61.3,65.09 54.1,57.89 54.1,49 C54.1,40.12 61.3,32.91 70.19,32.91 C79.07,32.91 86.28,40.12 86.28,49z "/><path id="_R_G_L_9_G_D_6_P_0" fill="#36a9df" fill-opacity="1" fill-rule="nonzero" d=" M70.19 68.98 C58.03,68.98 47.25,74.89 40.57,84 C47.25,93.11 58.03,99.03 70.19,99.03 C82.35,99.03 93.12,93.11 99.8,84 C93.12,74.89 82.35,68.98 70.19,68.98z "/><path id="_R_G_L_9_G_D_7_P_0" fill="#ffffff" fill-opacity="1" fill-rule="nonzero" d=" M43.01 125.07 C43.01,125.07 32.66,125.07 32.66,125.07 C32.66,125.07 32.66,114.72 32.66,114.72 C32.66,114.72 43.01,114.72 43.01,114.72 C43.01,114.72 43.01,125.07 43.01,125.07z  M34.33 123.4 C34.33,123.4 41.34,123.4 41.34,123.4 C41.34,123.4 41.34,116.39 41.34,116.39 C41.34,116.39 34.33,116.39 34.33,116.39 C34.33,116.39 34.33,123.4 34.33,123.4z "/><path id="_R_G_L_9_G_D_8_P_0" fill="#ffffff" fill-opacity="1" fill-rule="nonzero" d=" M43.01 149.19 C43.01,149.19 32.66,149.19 32.66,149.19 C32.66,149.19 32.66,138.84 32.66,138.84 C32.66,138.84 43.01,138.84 43.01,138.84 C43.01,138.84 43.01,149.19 43.01,149.19z  M34.33 147.53 C34.33,147.53 41.34,147.53 41.34,147.53 C41.34,147.53 41.34,140.51 41.34,140.51 C41.34,140.51 34.33,140.51 34.33,140.51 C34.33,140.51 34.33,147.53 34.33,147.53z "/><path id="_R_G_L_9_G_D_9_P_0" fill="#ffffff" fill-opacity="1" fill-rule="nonzero" d=" M43.01 173.32 C43.01,173.32 32.66,173.32 32.66,173.32 C32.66,173.32 32.66,162.97 32.66,162.97 C32.66,162.97 43.01,162.97 43.01,162.97 C43.01,162.97 43.01,173.32 43.01,173.32z  M34.33 171.65 C34.33,171.65 41.34,171.65 41.34,171.65 C41.34,171.65 41.34,164.64 41.34,164.64 C41.34,164.64 34.33,164.64 34.33,164.64 C34.33,164.64 34.33,171.65 34.33,171.65z "/><path id="_R_G_L_9_G_D_10_P_0" fill="#34ad67" fill-opacity="1" fill-rule="nonzero" d=" M151.1 124.23 C151.1,124.23 53.39,124.23 53.39,124.23 C53.39,124.23 53.39,115.55 53.39,115.55 C53.39,115.55 151.1,115.55 151.1,115.55 C151.1,115.55 151.1,124.23 151.1,124.23z "/><path id="_R_G_L_9_G_D_11_P_0" fill="#34ad67" fill-opacity="1" fill-rule="nonzero" d=" M151.1 148.36 C151.1,148.36 53.39,148.36 53.39,148.36 C53.39,148.36 53.39,139.68 53.39,139.68 C53.39,139.68 151.1,139.68 151.1,139.68 C151.1,139.68 151.1,148.36 151.1,148.36z "/><path id="_R_G_L_9_G_D_12_P_0" fill="#34ad67" fill-opacity="1" fill-rule="nonzero" d=" M103.13 172.48 C103.13,172.48 53.39,172.48 53.39,172.48 C53.39,172.48 53.39,163.8 53.39,163.8 C53.39,163.8 103.13,163.8 103.13,163.8 C103.13,163.8 103.13,172.48 103.13,172.48z "/></g><g id="_R_G_L_8_G" transform=" translate(658.845, 541.965) translate(-161.652, -101.71)"><path id="_R_G_L_8_G_D_0_P_0" fill="#676767" fill-opacity="1" fill-rule="nonzero" d=" M33.14 1.92 C15.92,1.92 1.92,15.92 1.92,33.14 C1.92,33.14 1.92,170.28 1.92,170.28 C1.92,187.5 15.92,201.5 33.14,201.5 C33.14,201.5 290.16,201.5 290.16,201.5 C307.38,201.5 321.39,187.5 321.39,170.28 C321.39,170.28 321.39,33.14 321.39,33.14 C321.39,15.92 307.38,1.92 290.16,1.92 C290.16,1.92 33.14,1.92 33.14,1.92z "/><path id="_R_G_L_8_G_D_1_P_0" fill="#ffffff" fill-opacity="1" fill-rule="nonzero" d=" M290.16 203.17 C290.16,203.17 33.14,203.17 33.14,203.17 C15.01,203.17 0.25,188.41 0.25,170.28 C0.25,170.28 0.25,33.14 0.25,33.14 C0.25,15.01 15.01,0.25 33.14,0.25 C33.14,0.25 290.16,0.25 290.16,0.25 C308.3,0.25 323.05,15.01 323.05,33.14 C323.05,33.14 323.05,170.28 323.05,170.28 C323.05,188.41 308.3,203.17 290.16,203.17z  M33.14 1.92 C15.92,1.92 1.92,15.92 1.92,33.14 C1.92,33.14 1.92,170.28 1.92,170.28 C1.92,187.5 15.92,201.5 33.14,201.5 C33.14,201.5 290.16,201.5 290.16,201.5 C307.38,201.5 321.39,187.5 321.39,170.28 C321.39,170.28 321.39,33.14 321.39,33.14 C321.39,15.92 307.38,1.92 290.16,1.92 C290.16,1.92 33.14,1.92 33.14,1.92z "/><path id="_R_G_L_8_G_D_2_P_0" fill="#ffffff" fill-opacity="1" fill-rule="nonzero" d=" M289.12 31.3 C289.12,31.3 277.53,19.71 277.53,19.71 C277.53,19.71 278.71,18.53 278.71,18.53 C278.71,18.53 290.3,30.12 290.3,30.12 C290.3,30.12 289.12,31.3 289.12,31.3z "/><path id="_R_G_L_8_G_D_3_P_0" fill="#ffffff" fill-opacity="1" fill-rule="nonzero" d=" M278.71 31.3 C278.71,31.3 277.53,30.12 277.53,30.12 C277.53,30.12 289.12,18.53 289.12,18.53 C289.12,18.53 290.3,19.71 290.3,19.71 C290.3,19.71 278.71,31.3 278.71,31.3z "/><path id="_R_G_L_8_G_D_4_P_0" fill="#ffffff" fill-opacity="1" fill-rule="nonzero" d=" M106.88 62.34 C106.88,82.6 90.45,99.03 70.19,99.03 C49.92,99.03 33.49,82.6 33.49,62.34 C33.49,42.07 49.92,25.64 70.19,25.64 C90.45,25.64 106.88,42.07 106.88,62.34z "/><path id="_R_G_L_8_G_D_5_P_0" fill="#36a9df" fill-opacity="1" fill-rule="nonzero" d=" M86.28 49 C86.28,57.89 79.07,65.09 70.19,65.09 C61.3,65.09 54.1,57.89 54.1,49 C54.1,40.12 61.3,32.91 70.19,32.91 C79.07,32.91 86.28,40.12 86.28,49z "/><path id="_R_G_L_8_G_D_6_P_0" fill="#36a9df" fill-opacity="1" fill-rule="nonzero" d=" M70.19 68.98 C58.03,68.98 47.25,74.89 40.57,84 C47.25,93.11 58.03,99.03 70.19,99.03 C82.35,99.03 93.12,93.11 99.8,84 C93.12,74.89 82.35,68.98 70.19,68.98z "/><path id="_R_G_L_8_G_D_7_P_0" fill="#ffffff" fill-opacity="1" fill-rule="nonzero" d=" M43.01 125.07 C43.01,125.07 32.66,125.07 32.66,125.07 C32.66,125.07 32.66,114.72 32.66,114.72 C32.66,114.72 43.01,114.72 43.01,114.72 C43.01,114.72 43.01,125.07 43.01,125.07z  M34.33 123.4 C34.33,123.4 41.34,123.4 41.34,123.4 C41.34,123.4 41.34,116.39 41.34,116.39 C41.34,116.39 34.33,116.39 34.33,116.39 C34.33,116.39 34.33,123.4 34.33,123.4z "/><path id="_R_G_L_8_G_D_8_P_0" fill="#ffffff" fill-opacity="1" fill-rule="nonzero" d=" M43.01 149.19 C43.01,149.19 32.66,149.19 32.66,149.19 C32.66,149.19 32.66,138.84 32.66,138.84 C32.66,138.84 43.01,138.84 43.01,138.84 C43.01,138.84 43.01,149.19 43.01,149.19z  M34.33 147.53 C34.33,147.53 41.34,147.53 41.34,147.53 C41.34,147.53 41.34,140.51 41.34,140.51 C41.34,140.51 34.33,140.51 34.33,140.51 C34.33,140.51 34.33,147.53 34.33,147.53z "/><path id="_R_G_L_8_G_D_9_P_0" fill="#ffffff" fill-opacity="1" fill-rule="nonzero" d=" M43.01 173.32 C43.01,173.32 32.66,173.32 32.66,173.32 C32.66,173.32 32.66,162.97 32.66,162.97 C32.66,162.97 43.01,162.97 43.01,162.97 C43.01,162.97 43.01,173.32 43.01,173.32z  M34.33 171.65 C34.33,171.65 41.34,171.65 41.34,171.65 C41.34,171.65 41.34,164.64 41.34,164.64 C41.34,164.64 34.33,164.64 34.33,164.64 C34.33,164.64 34.33,171.65 34.33,171.65z "/><path id="_R_G_L_8_G_D_10_P_0" fill="#34ad67" fill-opacity="1" fill-rule="nonzero" d=" M151.1 124.23 C151.1,124.23 53.39,124.23 53.39,124.23 C53.39,124.23 53.39,115.55 53.39,115.55 C53.39,115.55 151.1,115.55 151.1,115.55 C151.1,115.55 151.1,124.23 151.1,124.23z "/><path id="_R_G_L_8_G_D_11_P_0" fill="#34ad67" fill-opacity="1" fill-rule="nonzero" d=" M151.1 148.36 C151.1,148.36 53.39,148.36 53.39,148.36 C53.39,148.36 53.39,139.68 53.39,139.68 C53.39,139.68 151.1,139.68 151.1,139.68 C151.1,139.68 151.1,148.36 151.1,148.36z "/><path id="_R_G_L_8_G_D_12_P_0" fill="#34ad67" fill-opacity="1" fill-rule="nonzero" d=" M103.13 172.48 C103.13,172.48 53.39,172.48 53.39,172.48 C53.39,172.48 53.39,163.8 53.39,163.8 C53.39,163.8 103.13,163.8 103.13,163.8 C103.13,163.8 103.13,172.48 103.13,172.48z "/></g><g id="_R_G_L_7_G" transform=" translate(781.778, 96.33) translate(-67.535, -67.535)"><path id="_R_G_L_7_G_D_0_P_0" fill="#ffffff" fill-opacity="1" fill-rule="nonzero" d=" M67.54 130.07 C33.05,130.07 5,102.02 5,67.54 C5,33.05 33.05,5 67.54,5 C102.02,5 130.07,33.05 130.07,67.54 C130.07,102.02 102.02,130.07 67.54,130.07z  M67.54 7.29 C34.32,7.29 7.29,34.32 7.29,67.54 C7.29,100.75 34.32,127.78 67.54,127.78 C100.75,127.78 127.78,100.75 127.78,67.54 C127.78,34.32 100.75,7.29 67.54,7.29z "/><path id="_R_G_L_7_G_D_1_P_0" stroke="#ffffff" stroke-linecap="round" stroke-linejoin="round" fill="none" stroke-width="2" stroke-opacity="1" d=" M67.54 130.07 C33.05,130.07 5,102.02 5,67.54 C5,33.05 33.05,5 67.54,5 C102.02,5 130.07,33.05 130.07,67.54 C130.07,102.02 102.02,130.07 67.54,130.07z  M67.54 7.29 C34.32,7.29 7.29,34.32 7.29,67.54 C7.29,100.75 34.32,127.78 67.54,127.78 C100.75,127.78 127.78,100.75 127.78,67.54 C127.78,34.32 100.75,7.29 67.54,7.29z "/><path id="_R_G_L_7_G_D_2_P_0" fill="#ffffff" fill-opacity="1" fill-rule="nonzero" d=" M101.05 68.68 C101.05,68.68 66.39,68.68 66.39,68.68 C66.39,68.68 66.39,22.03 66.39,22.03 C66.39,22.03 68.68,22.03 68.68,22.03 C68.68,22.03 68.68,66.39 68.68,66.39 C68.68,66.39 101.05,66.39 101.05,66.39 C101.05,66.39 101.05,68.68 101.05,68.68z "/><path id="_R_G_L_7_G_D_3_P_0" stroke="#ffffff" stroke-linecap="round" stroke-linejoin="round" fill="none" stroke-width="2" stroke-opacity="1" d=" M101.05 68.68 C101.05,68.68 66.39,68.68 66.39,68.68 C66.39,68.68 66.39,22.03 66.39,22.03 C66.39,22.03 68.68,22.03 68.68,22.03 C68.68,22.03 68.68,66.39 68.68,66.39 C68.68,66.39 101.05,66.39 101.05,66.39 C101.05,66.39 101.05,68.68 101.05,68.68z "/></g><g id="_R_G_L_6_G" transform=" translate(783.528, 95.955)"><g clip-path="url(#_R_G_L_6_C_0)"><path id="_R_G_L_6_G_G_0_D_0_P_0" fill="#ffffff" fill-opacity="1" fill-rule="nonzero" d=" M67.54 130.07 C33.05,130.07 5,102.02 5,67.54 C5,33.05 33.05,5 67.54,5 C102.02,5 130.07,33.05 130.07,67.54 C130.07,102.02 102.02,130.07 67.54,130.07z  M67.54 7.29 C34.32,7.29 7.29,34.32 7.29,67.54 C7.29,100.75 34.32,127.78 67.54,127.78 C100.75,127.78 127.78,100.75 127.78,67.54 C127.78,34.32 100.75,7.29 67.54,7.29z "/><path id="_R_G_L_6_G_G_0_D_1_P_0" stroke="#ffffff" stroke-linecap="round" stroke-linejoin="round" fill="none" stroke-width="2" stroke-opacity="1" d=" M67.54 130.07 C33.05,130.07 5,102.02 5,67.54 C5,33.05 33.05,5 67.54,5 C102.02,5 130.07,33.05 130.07,67.54 C130.07,102.02 102.02,130.07 67.54,130.07z  M67.54 7.29 C34.32,7.29 7.29,34.32 7.29,67.54 C7.29,100.75 34.32,127.78 67.54,127.78 C100.75,127.78 127.78,100.75 127.78,67.54 C127.78,34.32 100.75,7.29 67.54,7.29z "/><path id="_R_G_L_6_G_G_0_D_2_P_0" fill="#ffffff" fill-opacity="1" fill-rule="nonzero" d=" M101.05 68.68 C101.05,68.68 66.39,68.68 66.39,68.68 C66.39,68.68 66.39,22.03 66.39,22.03 C66.39,22.03 68.68,22.03 68.68,22.03 C68.68,22.03 68.68,66.39 68.68,66.39 C68.68,66.39 101.05,66.39 101.05,66.39 C101.05,66.39 101.05,68.68 101.05,68.68z "/><path id="_R_G_L_6_G_G_0_D_3_P_0" stroke="#ffffff" stroke-linecap="round" stroke-linejoin="round" fill="none" stroke-width="2" stroke-opacity="1" d=" M101.05 68.68 C101.05,68.68 66.39,68.68 66.39,68.68 C66.39,68.68 66.39,22.03 66.39,22.03 C66.39,22.03 68.68,22.03 68.68,22.03 C68.68,22.03 68.68,66.39 68.68,66.39 C68.68,66.39 101.05,66.39 101.05,66.39 C101.05,66.39 101.05,68.68 101.05,68.68z "/></g></g><g id="_R_G_L_5_G"><path id="_R_G_L_5_G_D_0_P_0" fill="#36a9df" fill-opacity="1" fill-rule="nonzero" d=" M0.25 665.34 C0.25,665.34 29.93,621.32 29.93,621.32 C29.93,621.32 147.58,695.77 147.58,695.77 C147.58,695.77 139.92,752.98 139.92,752.98 C139.92,752.98 0.25,665.34 0.25,665.34z "/><path id="_R_G_L_5_G_D_1_P_0" fill="#34ad67" fill-opacity="1" fill-rule="nonzero" d=" M189.19 443.47 C189.19,443.47 245.97,453.2 245.97,453.2 C245.97,453.2 270.53,309.86 270.53,309.86 C270.53,309.86 213.76,300.13 213.76,300.13 C213.76,300.13 189.19,443.47 189.19,443.47z "/><path id="_R_G_L_5_G_D_2_P_0" fill="#36a9df" fill-opacity="1" fill-rule="nonzero" d=" M162.99 139 C140.85,221.26 177.03,302.52 243.8,320.49 C310.58,338.46 382.66,286.34 404.79,204.08 C426.93,121.81 390.75,40.56 323.98,22.59 C257.21,4.62 185.13,56.74 162.99,139z "/><path id="_R_G_L_5_G_D_3_P_0" fill="#ffffff" fill-opacity="1" fill-rule="nonzero" d=" M214.4 310.51 C223.19,316.03 232.8,320.29 243.11,323.07 C311.2,341.39 384.89,288.32 407.37,204.77 C429.86,121.22 392.75,38.33 324.67,20.01 C256.58,1.69 182.9,54.75 160.41,138.3 C141.33,209.19 165.15,279.61 214.4,310.51z  M350.59 37.11 C397.88,66.78 420.67,134.81 402.22,203.38 C380.5,284.09 309.74,335.47 244.5,317.91 C179.25,300.35 143.84,220.4 165.57,139.69 C187.29,58.99 258.04,7.61 323.28,25.17 C333.09,27.81 342.23,31.86 350.59,37.11z "/><path id="_R_G_L_5_G_D_4_P_0" fill="#36a9df" fill-opacity="1" fill-rule="nonzero" d=" M145.25 134.63 C123.11,216.89 159.29,298.15 226.07,316.12 C292.84,334.09 364.92,281.97 387.06,199.71 C409.2,117.45 373.01,36.19 306.24,18.22 C239.47,0.25 167.39,52.37 145.25,134.63z "/><path id="_R_G_L_5_G_D_5_P_0" fill="#ffffff" fill-opacity="1" fill-rule="nonzero" d=" M196.66 306.14 C205.46,311.66 215.06,315.92 225.37,318.7 C258.46,327.6 293.79,320.13 324.87,297.67 C355.77,275.32 378.77,240.78 389.64,200.4 C400.5,160.03 397.94,118.6 382.43,83.77 C366.84,48.74 340.03,24.55 306.94,15.64 C273.85,6.74 238.51,14.21 207.44,36.67 C176.54,59.02 153.54,93.56 142.67,133.94 C123.59,204.83 147.42,275.24 196.66,306.14z  M333.04 32.81 C351.91,44.65 367.26,62.83 377.55,85.94 C392.57,119.66 395.03,159.82 384.48,199.01 C373.93,238.21 351.65,271.71 321.74,293.34 C291.99,314.84 258.27,322.02 226.76,313.54 C161.52,295.98 126.11,216.03 147.83,135.33 C158.38,96.13 180.66,62.63 210.57,41 C240.31,19.5 274.04,12.32 305.55,20.8 C315.33,23.43 324.54,27.48 333.04,32.81z "/><path id="_R_G_L_5_G_D_6_P_0" fill="#444343" fill-opacity="1" fill-rule="nonzero" d=" M163.25 139.48 C144.41,209.49 175.21,278.65 232.04,293.94 C288.87,309.24 350.21,264.88 369.06,194.86 C387.9,124.85 357.1,55.69 300.27,40.4 C243.44,25.1 182.1,69.46 163.25,139.48z "/><path id="_R_G_L_5_G_D_7_P_0" fill="#36a9df" fill-opacity="1" fill-rule="nonzero" d=" M206.8 285.79 C214.32,290.51 222.52,294.15 231.34,296.52 C289.5,312.17 352.44,266.88 371.63,195.56 C390.83,124.24 359.13,53.47 300.97,37.82 C242.8,22.17 179.87,67.46 160.67,138.78 C144.39,199.29 164.74,259.4 206.8,285.79z  M322.72 53.1 C362.82,78.26 382.14,135.98 366.48,194.17 C348.05,262.65 288.05,306.25 232.73,291.36 C177.41,276.47 147.4,208.65 165.83,140.17 C184.26,71.69 244.26,28.09 299.58,42.98 C307.89,45.21 315.63,48.65 322.72,53.1z  M163.25 139.48 C163.25,139.48 163.23,139.46 163.23,139.46 C163.23,139.46 163.25,139.48 163.25,139.48z "/><path id="_R_G_L_5_G_D_8_P_0" fill="#ffffff" fill-opacity="1" fill-rule="nonzero" d=" M212.63 336.57 C212.63,336.57 213.54,338.47 213.54,338.47 C215.62,345.96 215.41,353.39 212.93,359.92 C212.93,359.92 201.2,390.75 201.2,390.75 C198.7,397.33 209.12,404.14 214.27,399.29 C214.27,399.29 250.95,364.72 250.95,364.72 C250.95,364.72 256.43,321.31 256.43,321.31 C256.43,321.31 291.16,354.58 291.16,354.58 C291.16,354.58 284.06,433.97 284.06,433.97 C281.76,459.7 263.13,479.01 235.78,484.02 C235.78,484.02 176.54,494.87 176.54,494.87 C176.54,494.87 150.36,690.66 150.36,690.66 C150.36,690.66 32.43,616.66 32.43,616.66 C32.43,616.66 176.06,353.09 176.06,353.09 C176.06,353.09 190.73,331.87 190.73,331.87 C195.53,324.93 208.37,327.69 212.63,336.57z "/><path id="_R_G_L_5_G_D_9_P_0" fill="#ffffff" fill-opacity="1" fill-rule="nonzero" d=" M272.33 415.41 C272.33,415.41 291.59,355.81 291.59,355.81 C291.59,355.81 272.33,415.41 272.33,415.41z "/><path id="_R_G_L_5_G_D_10_P_0" fill="#38393d" fill-opacity="1" fill-rule="nonzero" d=" M270.9 417.67 C271.09,417.78 271.29,417.88 271.5,417.95 C272.91,418.4 274.41,417.63 274.87,416.23 C274.87,416.23 294.14,356.63 294.14,356.63 C294.59,355.22 293.82,353.72 292.42,353.27 C291.01,352.81 289.51,353.58 289.05,354.99 C289.05,354.99 269.78,414.59 269.78,414.59 C269.4,415.78 269.89,417.04 270.9,417.67z "/></g><g id="_R_G_L_4_G" transform=" translate(794.544, 395.138) translate(-39.136, -35.575)"><path id="_R_G_L_4_G_D_0_P_0" fill="#34ad67" fill-opacity="1" fill-rule="nonzero" d=" M50.06 0.25 C50.06,0.25 28.22,0.25 28.22,0.25 C12.77,0.25 0.25,12.77 0.25,28.22 C0.25,42.67 11.21,54.56 25.27,56.03 C25.27,56.03 25.27,70.9 25.27,70.9 C25.27,70.9 40.94,56.18 40.94,56.18 C40.94,56.18 50.06,56.18 50.06,56.18 C65.5,56.18 78.02,43.66 78.02,28.22 C78.02,12.77 65.5,0.25 50.06,0.25z "/><path id="_R_G_L_4_G_D_1_P_0" fill="#45484c" fill-opacity="1" fill-rule="nonzero" d=" M32.86 42.18 C32.86,42.18 21.6,30.93 21.6,30.93 C21.6,30.93 22.75,29.78 22.75,29.78 C22.75,29.78 32.86,39.89 32.86,39.89 C32.86,39.89 60.62,12.13 60.62,12.13 C60.62,12.13 61.77,13.27 61.77,13.27 C61.77,13.27 32.86,42.18 32.86,42.18z "/><path id="_R_G_L_4_G_D_2_P_0" stroke="#45484c" stroke-linecap="round" stroke-linejoin="round" fill="none" stroke-width="2" stroke-opacity="1" d=" M32.86 42.18 C32.86,42.18 21.6,30.93 21.6,30.93 C21.6,30.93 22.75,29.78 22.75,29.78 C22.75,29.78 32.86,39.89 32.86,39.89 C32.86,39.89 60.62,12.13 60.62,12.13 C60.62,12.13 61.77,13.27 61.77,13.27 C61.77,13.27 32.86,42.18 32.86,42.18z "/></g><g id="_R_G_L_3_G"><path id="_R_G_L_3_G_D_0_P_0" fill="#ffffff" fill-opacity="1" fill-rule="nonzero" d=" M88.81 63.33 C88.81,63.33 11.69,63.33 11.69,63.33 C7.55,63.33 4.18,59.96 4.18,55.82 C4.18,55.82 4.18,13.66 4.18,13.66 C4.18,9.52 7.55,6.16 11.69,6.16 C11.69,6.16 88.81,6.16 88.81,6.16 C92.95,6.16 96.32,9.52 96.32,13.66 C96.32,13.66 96.32,55.82 96.32,55.82 C96.32,59.96 92.95,63.33 88.81,63.33z  M11.69 8.05 C8.59,8.05 6.08,10.57 6.08,13.66 C6.08,13.66 6.08,55.82 6.08,55.82 C6.08,58.91 8.59,61.43 11.69,61.43 C11.69,61.43 88.81,61.43 88.81,61.43 C91.9,61.43 94.42,58.91 94.42,55.82 C94.42,55.82 94.42,13.66 94.42,13.66 C94.42,10.57 91.9,8.05 88.81,8.05 C88.81,8.05 11.69,8.05 11.69,8.05z "/><path id="_R_G_L_3_G_D_1_P_0" fill="#ffffff" fill-opacity="1" fill-rule="nonzero" d=" M50.25 38.34 C47.47,38.34 44.69,37.47 42.32,35.72 C42.32,35.72 7.03,9.68 7.03,9.68 C7.03,9.68 8.16,8.16 8.16,8.16 C8.16,8.16 43.45,34.19 43.45,34.19 C47.52,37.19 52.98,37.19 57.05,34.19 C57.05,34.19 92.34,8.16 92.34,8.16 C92.34,8.16 93.47,9.68 93.47,9.68 C93.47,9.68 58.18,35.72 58.18,35.72 C55.81,37.47 53.03,38.34 50.25,38.34z "/><path id="_R_G_L_3_G_D_2_P_0" fill="#36a9df" fill-opacity="1" fill-rule="nonzero" d=" M17.59 8.92 C17.59,13.71 13.71,17.59 8.92,17.59 C4.13,17.59 0.25,13.71 0.25,8.92 C0.25,4.13 4.13,0.25 8.92,0.25 C13.71,0.25 17.59,4.13 17.59,8.92z "/></g><g id="_R_G_L_2_G" transform=" translate(59.794, 290.356)"><path id="_R_G_L_2_G_D_0_P_0" fill="#ffffff" fill-opacity="1" fill-rule="nonzero" d=" M59.8 9.55 C59.8,9.55 4.65,9.55 4.65,9.55 C2.22,9.55 0.25,7.58 0.25,5.16 C0.25,2.73 2.22,0.76 4.65,0.76 C4.65,0.76 59.8,0.76 59.8,0.76 C62.22,0.76 64.19,2.73 64.19,5.16 C64.19,7.58 62.22,9.55 59.8,9.55z "/><path id="_R_G_L_2_G_D_1_P_0" fill="#ffffff" fill-opacity="1" fill-rule="nonzero" d=" M30.19 23.91 C30.19,23.91 4.65,23.91 4.65,23.91 C2.22,23.91 0.25,21.94 0.25,19.51 C0.25,17.08 2.22,15.11 4.65,15.11 C4.65,15.11 30.19,15.11 30.19,15.11 C32.62,15.11 34.59,17.08 34.59,19.51 C34.59,21.94 32.62,23.91 30.19,23.91z "/><path id="_R_G_L_2_G_D_2_P_0" fill="#ffffff" fill-opacity="1" fill-rule="nonzero" d=" M59.8 37.73 C59.8,37.73 4.65,37.73 4.65,37.73 C2.22,37.73 0.25,35.76 0.25,33.33 C0.25,30.9 2.22,28.94 4.65,28.94 C4.65,28.94 59.8,28.94 59.8,28.94 C62.22,28.94 64.19,30.9 64.19,33.33 C64.19,35.76 62.22,37.73 59.8,37.73z "/><path id="_R_G_L_2_G_D_3_P_0" fill="#ffffff" fill-opacity="1" fill-rule="nonzero" d=" M78.21 24.07 C78.21,24.07 45.89,24.07 45.89,24.07 C43.46,24.07 41.49,22.1 41.49,19.67 C41.49,17.24 43.46,15.27 45.89,15.27 C45.89,15.27 78.21,15.27 78.21,15.27 C80.63,15.27 82.6,17.24 82.6,19.67 C82.6,22.1 80.63,24.07 78.21,24.07z "/><path id="_R_G_L_2_G_D_4_P_0" fill="#ffffff" fill-opacity="1" fill-rule="nonzero" d=" M81.42 9.05 C81.42,9.05 72.41,9.05 72.41,9.05 C69.98,9.05 68.01,7.08 68.01,4.65 C68.01,2.22 69.98,0.25 72.41,0.25 C72.41,0.25 81.42,0.25 81.42,0.25 C83.85,0.25 85.81,2.22 85.81,4.65 C85.81,7.08 83.85,9.05 81.42,9.05z "/></g><g id="_R_G_L_1_G_N_3_T_0" transform=" translate(59.794, 290.356)"><g id="_R_G_L_1_G" transform=" translate(58.456, 28.663) translate(-80.832, -43.739)"><path id="_R_G_L_1_G_D_0_P_0" stroke="#ffffff" stroke-linecap="round" stroke-linejoin="round" fill="none" stroke-width="2" stroke-opacity="1" d=" M5.13 44.49 C5.13,44.49 5.47,19.89 5.47,19.89 C5.58,11.44 12.16,5 20.68,5 C20.68,5 138.42,5 138.42,5 C148.25,5.01 156.66,10.14 156.52,19.89 C156.52,19.89 156.16,44.49 156.16,44.49 C156.16,56.42 149.5,62.65 141.01,62.68 C141.01,62.68 55.23,63.2 55.23,63.2 C55.23,63.2 57.4,75.8 57.4,75.8 C58.17,80.23 52.76,82.48 49.66,79.02 C49.66,79.02 34.62,62.29 34.62,62.29 C34.62,62.29 23.85,62.68 23.85,62.68 C13.82,63.05 5,54.48 5.13,44.49z "/></g></g><g id="_R_G_L_0_G" transform=" translate(444.5, 371) scale(0.99, 0.99) translate(0, 0)"><path id="_R_G_L_0_G_D_0_P_0" fill="#ffffff" fill-opacity="1" fill-rule="nonzero" d=" M348.98 -277.51 C348.98,-277.51 348.98,-277.51 348.98,-277.51 C348.98,-273.72 345.91,-270.64 342.12,-270.64 C342.12,-270.64 342.12,-270.64 342.12,-270.64 C338.33,-270.64 335.25,-273.72 335.25,-277.51 C335.25,-277.51 335.25,-277.51 335.25,-277.51 C335.25,-281.3 338.33,-284.37 342.12,-284.37 C342.12,-284.37 342.12,-284.37 342.12,-284.37 C345.91,-284.37 348.98,-281.3 348.98,-277.51z "/><path id="_R_G_L_0_G_D_1_P_0" stroke="#ffffff" stroke-linecap="round" stroke-linejoin="round" fill="none" stroke-width="2" stroke-opacity="1" d=" M348.98 -277.51 C348.98,-277.51 348.98,-277.51 348.98,-277.51 C348.98,-273.72 345.91,-270.64 342.12,-270.64 C342.12,-270.64 342.12,-270.64 342.12,-270.64 C338.33,-270.64 335.25,-273.72 335.25,-277.51 C335.25,-277.51 335.25,-277.51 335.25,-277.51 C335.25,-281.3 338.33,-284.37 342.12,-284.37 C342.12,-284.37 342.12,-284.37 342.12,-284.37 C345.91,-284.37 348.98,-281.3 348.98,-277.51z "/></g></g><g id="time_group"/></svg>