<svg xmlns="http://www.w3.org/2000/svg" xmlns:xlink="http://www.w3.org/1999/xlink" preserveAspectRatio="xMidYMid meet" width="571" height="674" viewBox="0 0 571 674" style="width:100%;height:100%"><defs><animateTransform repeatCount="indefinite" dur="3s" begin="0s" xlink:href="#_R_G_L_16_G_D_0_P_0_G_0_T_0" fill="freeze" attributeName="transform" from="0" to="0" type="rotate" additive="sum" keyTimes="0;0.5;1" values="0;18;0" keySplines="0.333 0 0.667 1;0.333 0 0.667 1" calcMode="spline"/><animateTransform repeatCount="indefinite" dur="3s" begin="0s" xlink:href="#_R_G_L_16_G_D_0_P_0_G_0_T_0" fill="freeze" attributeName="transform" from="-0.688 -104.703" to="-0.688 -104.703" type="translate" additive="sum" keyTimes="0;1" values="-0.688 -104.703;-0.688 -104.703" keySplines="0 0 1 1" calcMode="spline"/><animateTransform repeatCount="indefinite" dur="3s" begin="0s" xlink:href="#_R_G_L_15_G" fill="freeze" attributeName="transform" from="0.1 0.1" to="0.1 0.1" type="scale" additive="sum" keyTimes="0;0.5;1" values="0.1 0.1;1 1;0.1 0.1" keySplines="0.333 0 0.667 1;0.333 0 0.667 1" calcMode="spline"/><animateTransform repeatCount="indefinite" dur="3s" begin="0s" xlink:href="#_R_G_L_15_G" fill="freeze" attributeName="transform" from="-22.919 -22.917" to="-22.919 -22.917" type="translate" additive="sum" keyTimes="0;1" values="-22.919 -22.917;-22.919 -22.917" keySplines="0 0 1 1" calcMode="spline"/><animateMotion repeatCount="indefinite" dur="3s" begin="0s" xlink:href="#_R_G_L_14_G" fill="freeze" keyTimes="0;0.5;1" path="M307.29 590.13 C307.29,590.13 244.29,590.13 244.29,590.13 C244.29,590.13 307.29,590.13 307.29,590.13 " keyPoints="0;0.5;1" keySplines="0.333 0 0.667 1;0.333 0 0.667 1" calcMode="spline"/><animateTransform repeatCount="indefinite" dur="3s" begin="0s" xlink:href="#_R_G_L_14_G" fill="freeze" attributeName="transform" from="-102.163 -67.437" to="-102.163 -67.437" type="translate" additive="sum" keyTimes="0;1" values="-102.163 -67.437;-102.163 -67.437" keySplines="0 0 1 1" calcMode="spline"/><animateMotion repeatCount="indefinite" dur="3s" begin="0s" xlink:href="#_R_G_L_13_G" fill="freeze" keyTimes="0;0.5;1" path="M363.82 70.51 C363.82,70.51 363.82,34.51 363.82,34.51 C363.82,34.51 363.82,70.51 363.82,70.51 " keyPoints="0;0.5;1" keySplines="0.333 0 0.667 1;0.333 0 0.667 1" calcMode="spline"/><animateTransform repeatCount="indefinite" dur="3s" begin="0s" xlink:href="#_R_G_L_13_G" fill="freeze" attributeName="transform" from="-33.48 -24.864" to="-33.48 -24.864" type="translate" additive="sum" keyTimes="0;1" values="-33.48 -24.864;-33.48 -24.864" keySplines="0 0 1 1" calcMode="spline"/><animateMotion repeatCount="indefinite" dur="3s" begin="0s" xlink:href="#_R_G_L_12_G" fill="freeze" keyTimes="0;0.5;1" path="M359.62 451.46 C359.62,451.46 405.62,451.46 405.62,451.46 C405.62,451.46 359.62,451.46 359.62,451.46 " keyPoints="0;0.5;1" keySplines="0.333 0 0.667 1;0.333 0 0.667 1" calcMode="spline"/><animateTransform repeatCount="indefinite" dur="3s" begin="0s" xlink:href="#_R_G_L_12_G" fill="freeze" attributeName="transform" from="-24.576 -24.604" to="-24.576 -24.604" type="translate" additive="sum" keyTimes="0;1" values="-24.576 -24.604;-24.576 -24.604" keySplines="0 0 1 1" calcMode="spline"/><animateTransform repeatCount="indefinite" dur="3s" begin="0s" xlink:href="#_R_G_L_8_G" fill="freeze" attributeName="transform" from="1 1" to="1 1" type="scale" additive="sum" keyTimes="0;0.5;1" values="1 1;1 0.3;1 1" keySplines="0.333 0 0.667 1;0.333 0 0.667 1" calcMode="spline"/><animateTransform repeatCount="indefinite" dur="3s" begin="0s" xlink:href="#_R_G_L_8_G" fill="freeze" attributeName="transform" from="-3.943 -51.197" to="-3.943 -51.197" type="translate" additive="sum" keyTimes="0;1" values="-3.943 -51.197;-3.943 -51.197" keySplines="0 0 1 1" calcMode="spline"/><animateTransform repeatCount="indefinite" dur="3s" begin="0s" xlink:href="#_R_G_L_6_G" fill="freeze" attributeName="transform" from="1 0.3" to="1 0.3" type="scale" additive="sum" keyTimes="0;0.5;1" values="1 0.3;1 1;1 0.3" keySplines="0.333 0 0.667 1;0.333 0 0.667 1" calcMode="spline"/><animateTransform repeatCount="indefinite" dur="3s" begin="0s" xlink:href="#_R_G_L_6_G" fill="freeze" attributeName="transform" from="-3.943 -43.643" to="-3.943 -43.643" type="translate" additive="sum" keyTimes="0;1" values="-3.943 -43.643;-3.943 -43.643" keySplines="0 0 1 1" calcMode="spline"/><animateMotion repeatCount="indefinite" dur="3s" begin="0s" xlink:href="#_R_G_L_4_G" fill="freeze" keyTimes="0;0.5;1" path="M188.48 29.83 C188.48,29.83 251,29.83 251,29.83 C251,29.83 188.48,29.83 188.48,29.83 " keyPoints="0;0.5;1" keySplines="0.333 0 0.667 1;0.333 0 0.667 1" calcMode="spline"/><animateTransform repeatCount="indefinite" dur="3s" begin="0s" xlink:href="#_R_G_L_4_G" fill="freeze" attributeName="transform" from="-1.25 -5.706" to="-1.25 -5.706" type="translate" additive="sum" keyTimes="0;1" values="-1.25 -5.706;-1.25 -5.706" keySplines="0 0 1 1" calcMode="spline"/><animateMotion repeatCount="indefinite" dur="3s" begin="0s" xlink:href="#_R_G_L_3_G" fill="freeze" keyTimes="0;0.5;1" path="M250.31 47.44 C250.31,47.44 189.31,47.44 189.31,47.44 C189.31,47.44 250.31,47.44 250.31,47.44 " keyPoints="0;0.5;1" keySplines="0.333 0 0.667 1;0.333 0 0.667 1" calcMode="spline"/><animateTransform repeatCount="indefinite" dur="3s" begin="0s" xlink:href="#_R_G_L_3_G" fill="freeze" attributeName="transform" from="-1.25 -5.706" to="-1.25 -5.706" type="translate" additive="sum" keyTimes="0;1" values="-1.25 -5.706;-1.25 -5.706" keySplines="0 0 1 1" calcMode="spline"/><animateMotion repeatCount="indefinite" dur="3s" begin="0s" xlink:href="#_R_G_L_2_G" fill="freeze" keyTimes="0;0.5;1" path="M188.3 65.05 C188.3,65.05 251.3,65.05 251.3,65.05 C251.3,65.05 188.3,65.05 188.3,65.05 " keyPoints="0;0.5;1" keySplines="0.333 0 0.667 1;0.333 0 0.667 1" calcMode="spline"/><animateTransform repeatCount="indefinite" dur="3s" begin="0s" xlink:href="#_R_G_L_2_G" fill="freeze" attributeName="transform" from="-1.25 -5.706" to="-1.25 -5.706" type="translate" additive="sum" keyTimes="0;1" values="-1.25 -5.706;-1.25 -5.706" keySplines="0 0 1 1" calcMode="spline"/><animateTransform repeatCount="indefinite" dur="3s" begin="0s" xlink:href="#_R_G_L_0_G" fill="freeze" attributeName="transform" from="0" to="0" type="rotate" additive="sum" keyTimes="0;0.5;1" values="0;18;0" keySplines="0.333 0 0.667 1;0.333 0 0.667 1" calcMode="spline"/><animateTransform repeatCount="indefinite" dur="3s" begin="0s" xlink:href="#_R_G_L_0_G" fill="freeze" attributeName="transform" from="-3.542 -39.326" to="-3.542 -39.326" type="translate" additive="sum" keyTimes="0;1" values="-3.542 -39.326;-3.542 -39.326" keySplines="0 0 1 1" calcMode="spline"/><animate attributeType="XML" attributeName="opacity" dur="3s" from="0" to="1" xlink:href="#time_group"/></defs><g id="_R_G"><g id="_R_G_L_16_G" transform=" translate(296.564, 322.616) translate(-254.858, -268.805)"><g id="_R_G_L_16_G_D_0_P_0_G_0_T_0" transform=" translate(60.306, 213.379)"><path id="_R_G_L_16_G_D_0_P_0" fill="#6f7070" fill-opacity="1" fill-rule="nonzero" d=" M-0.76 108.43 C-0.76,108.43 -47.23,-29.45 -47.23,-29.45 C-47.23,-29.45 6.63,-108.43 6.63,-108.43 C19.58,-92.38 21.84,-70.21 12.39,-51.88 C12.39,-51.88 -0.76,-26.4 -0.76,-26.4 C-0.76,-26.4 47.23,85.57 47.23,85.57 C47.23,85.57 -0.76,108.43 -0.76,108.43z "/></g><path id="_R_G_L_16_G_D_1_P_0" fill="#ffffff" fill-opacity="1" fill-rule="nonzero" d=" M114.11 86.35 C114.11,86.35 114.11,69.64 114.11,69.64 C114.11,69.64 171.33,69.64 171.33,69.64 C171.33,69.64 171.33,86.35 171.33,86.35 "/><path id="_R_G_L_16_G_D_2_P_0" fill="#41424c" fill-opacity="1" fill-rule="nonzero" d=" M171.33 88.15 C170.34,88.15 169.54,87.34 169.54,86.35 C169.54,86.35 169.54,71.43 169.54,71.43 C169.54,71.43 115.91,71.43 115.91,71.43 C115.91,71.43 115.91,86.35 115.91,86.35 C115.91,87.34 115.1,88.15 114.11,88.15 C113.12,88.15 112.32,87.34 112.32,86.35 C112.32,86.35 112.32,69.64 112.32,69.64 C112.32,68.64 113.12,67.84 114.11,67.84 C114.11,67.84 171.33,67.84 171.33,67.84 C172.33,67.84 173.13,68.64 173.13,69.64 C173.13,69.64 173.13,86.35 173.13,86.35 C173.13,87.34 172.33,88.15 171.33,88.15z "/><path id="_R_G_L_16_G_D_3_P_0" fill="#ffffff" fill-opacity="1" fill-rule="nonzero" d=" M251.64 86.35 C251.64,86.35 251.64,73.83 251.64,73.83 C251.64,73.83 236.33,73.83 236.33,73.83 C236.33,73.83 236.33,67.54 236.33,67.54 C236.33,67.54 218.15,67.54 218.15,67.54 C218.15,67.54 218.15,73.83 218.15,73.83 C218.15,73.83 202.79,73.83 202.79,73.83 C202.79,73.83 202.79,86.35 202.79,86.35 "/><path id="_R_G_L_16_G_D_4_P_0" fill="#41424c" fill-opacity="1" fill-rule="nonzero" d=" M251.64 88.15 C250.65,88.15 249.84,87.34 249.84,86.35 C249.84,86.35 249.84,75.63 249.84,75.63 C249.84,75.63 236.33,75.63 236.33,75.63 C235.34,75.63 234.54,74.82 234.54,73.83 C234.54,73.83 234.54,69.34 234.54,69.34 C234.54,69.34 219.95,69.34 219.95,69.34 C219.95,69.34 219.95,73.83 219.95,73.83 C219.95,74.82 219.14,75.63 218.15,75.63 C218.15,75.63 204.58,75.63 204.58,75.63 C204.58,75.63 204.58,86.35 204.58,86.35 C204.58,87.34 203.78,88.15 202.79,88.15 C201.8,88.15 200.99,87.34 200.99,86.35 C200.99,86.35 200.99,73.83 200.99,73.83 C200.99,72.84 201.8,72.03 202.79,72.03 C202.79,72.03 216.36,72.03 216.36,72.03 C216.36,72.03 216.36,67.54 216.36,67.54 C216.36,66.55 217.16,65.74 218.15,65.74 C218.15,65.74 236.33,65.74 236.33,65.74 C237.32,65.74 238.12,66.55 238.12,67.54 C238.12,67.54 238.12,72.03 238.12,72.03 C238.12,72.03 251.64,72.03 251.64,72.03 C252.63,72.03 253.43,72.84 253.43,73.83 C253.43,73.83 253.43,86.35 253.43,86.35 C253.43,87.34 252.63,88.15 251.64,88.15z "/><path id="_R_G_L_16_G_D_5_P_0" fill="#ffffff" fill-opacity="1" fill-rule="nonzero" d=" M383.42 86.35 C383.42,86.35 383.42,43.28 383.42,43.28 C383.42,43.28 479.09,43.28 479.09,43.28 C479.09,43.28 479.09,86.35 479.09,86.35 "/><path id="_R_G_L_16_G_D_6_P_0" fill="#41424c" fill-opacity="1" fill-rule="nonzero" d=" M479.09 88.15 C478.1,88.15 477.3,87.34 477.3,86.35 C477.3,86.35 477.3,45.08 477.3,45.08 C477.3,45.08 385.22,45.08 385.22,45.08 C385.22,45.08 385.22,86.35 385.22,86.35 C385.22,87.34 384.41,88.15 383.42,88.15 C382.43,88.15 381.63,87.34 381.63,86.35 C381.63,86.35 381.63,43.28 381.63,43.28 C381.63,42.29 382.43,41.48 383.42,41.48 C383.42,41.48 479.09,41.48 479.09,41.48 C480.08,41.48 480.89,42.29 480.89,43.28 C480.89,43.28 480.89,86.35 480.89,86.35 C480.89,87.34 480.08,88.15 479.09,88.15z "/><path id="_R_G_L_16_G_D_7_P_0" fill="#ffffff" fill-opacity="1" fill-rule="nonzero" d=" M507.61 351.12 C507.61,351.12 77.1,351.12 77.1,351.12 C76.11,351.12 75.31,350.31 75.31,349.32 C75.31,349.32 75.25,86.35 75.25,86.35 C75.25,86.35 75.25,86.33 75.25,86.33 C75.25,85.89 75.42,85.46 75.72,85.14 C75.72,85.14 75.72,85.13 75.72,85.13 C75.74,85.11 75.75,85.1 75.77,85.08 C75.77,85.08 75.81,85.05 75.81,85.05 C75.81,85.05 75.81,85.05 75.81,85.05 C76.14,84.73 76.58,84.56 77.04,84.55 C77.04,84.55 507.61,84.55 507.61,84.55 C508.6,84.55 509.41,85.36 509.41,86.35 C509.41,86.35 509.41,349.33 509.41,349.33 C509.41,350.32 508.6,351.12 507.61,351.12z  M78.89 347.52 C78.89,347.52 505.82,347.53 505.82,347.53 C505.82,347.53 505.82,144.52 505.82,144.52 C505.82,144.52 366.5,144.45 366.5,144.45 C365.51,144.45 364.71,143.64 364.71,142.65 C364.71,141.66 365.51,140.86 366.5,140.86 C366.5,140.86 505.82,140.92 505.82,140.92 C505.82,140.92 505.82,88.15 505.82,88.15 C505.82,88.15 78.83,88.15 78.83,88.15 C78.83,88.15 78.89,347.52 78.89,347.52z "/><path id="_R_G_L_16_G_D_8_P_0" fill="#ffffff" fill-opacity="1" fill-rule="nonzero" d=" M323.25 328.95 C275.12,328.95 235.95,289.72 235.95,241.49 C235.95,193.27 275.12,154.03 323.25,154.03 C371.38,154.03 410.55,193.27 410.55,241.49 C410.55,289.71 371.39,328.95 323.25,328.95z  M323.25 157.63 C277.09,157.63 239.54,195.25 239.54,241.49 C239.54,287.74 277.09,325.36 323.25,325.36 C369.41,325.36 406.96,287.74 406.96,241.49 C406.96,195.25 369.41,157.63 323.25,157.63z "/><path id="_R_G_L_16_G_D_9_P_0" fill="#ffffff" fill-opacity="1" fill-rule="nonzero" d=" M323.25 351.12 C262.92,351.12 213.83,301.94 213.83,241.49 C213.83,181.04 262.92,131.87 323.25,131.87 C383.59,131.87 432.67,181.05 432.67,241.49 C432.67,301.94 383.59,351.12 323.25,351.12z  M323.25 135.46 C264.89,135.46 217.42,183.02 217.42,241.49 C217.42,299.96 264.89,347.52 323.25,347.52 C381.61,347.52 429.08,299.96 429.08,241.49 C429.08,183.02 381.61,135.46 323.25,135.46z "/><path id="_R_G_L_16_G_D_10_P_0" fill="#41424c" fill-opacity="1" fill-rule="nonzero" d=" M469.11 79.82 C469.11,79.82 393.47,79.82 393.47,79.82 C392.48,79.82 391.67,79.02 391.67,78.02 C391.67,78.02 391.67,52.33 391.67,52.33 C391.67,51.33 392.48,50.53 393.47,50.53 C393.47,50.53 469.11,50.53 469.11,50.53 C470.1,50.53 470.9,51.33 470.9,52.33 C470.9,52.33 470.9,78.02 470.9,78.02 C470.9,79.02 470.1,79.82 469.11,79.82z  M395.26 76.23 C395.26,76.23 467.31,76.23 467.31,76.23 C467.31,76.23 467.31,54.12 467.31,54.12 C467.31,54.12 395.26,54.12 395.26,54.12 C395.26,54.12 395.26,76.23 395.26,76.23z "/><path id="_R_G_L_16_G_D_11_P_0" fill="#ffffff" fill-opacity="1" fill-rule="nonzero" d=" M279.2 144.45 C279.2,144.45 77.1,144.45 77.1,144.45 C76.11,144.45 75.31,143.64 75.31,142.65 C75.31,141.66 76.11,140.85 77.1,140.85 C77.1,140.85 279.2,140.85 279.2,140.85 C280.19,140.85 281,141.66 281,142.65 C281,143.64 280.19,144.45 279.2,144.45z "/><path id="_R_G_L_16_G_D_12_P_0" fill="#ffffff" fill-opacity="1" fill-rule="nonzero" d=" M284.16 196.09 C280.71,196.1 277.44,194.49 275.33,191.74 C271.59,186.92 272.45,179.96 277.27,176.21 C277.29,176.19 277.31,176.17 277.33,176.16 C284.75,170.41 293.34,166.39 302.49,164.39 C305.37,163.76 308.38,164.3 310.86,165.9 C313.34,167.49 315.08,170 315.69,172.88 C317.03,178.86 313.3,184.79 307.35,186.16 C301.38,187.44 295.77,190.05 290.95,193.8 C288.99,195.28 286.61,196.08 284.16,196.09z  M304.86 167.73 C304.32,167.73 303.78,167.79 303.26,167.9 C294.62,169.79 286.51,173.59 279.52,179.01 C276.25,181.52 275.62,186.21 278.13,189.49 C278.14,189.5 278.15,189.52 278.16,189.54 C279.59,191.41 281.81,192.5 284.16,192.5 C285.83,192.49 287.44,191.94 288.77,190.94 C294.01,186.88 300.09,184.05 306.56,182.66 C310.59,181.72 313.1,177.71 312.19,173.67 C312.19,173.67 312.19,173.65 312.19,173.65 C311.78,171.7 310.6,170 308.92,168.93 C307.71,168.15 306.3,167.73 304.86,167.73z "/><path id="_R_G_L_16_G_D_13_P_0" fill="#ffffff" fill-opacity="1" fill-rule="nonzero" d=" M507.61 351.01 C507.61,351.01 483.1,351.01 483.1,351.01 C465.01,350.98 450.37,336.28 450.39,318.16 C450.4,316.38 450.54,314.61 450.83,312.85 C450.83,312.85 474.75,168.37 474.75,168.37 C477.3,152.51 490.98,140.87 507.01,140.92 C507.01,140.92 507.67,140.92 507.67,140.92 C508.66,140.92 509.47,141.73 509.47,142.72 C509.47,142.72 509.41,349.21 509.41,349.21 C509.41,350.2 508.6,351.01 507.61,351.01z  M505.88 144.54 C492.04,145.03 480.49,155.26 478.29,168.95 C478.29,168.95 454.37,313.44 454.37,313.44 C451.75,329.36 462.5,344.39 478.39,347.02 C479.94,347.28 481.52,347.41 483.1,347.41 C483.1,347.41 505.82,347.41 505.82,347.41 C505.82,347.41 505.88,144.54 505.88,144.54z "/><path id="_R_G_L_16_G_D_14_P_0" fill="#ffffff" fill-opacity="1" fill-rule="nonzero" d=" M101.86 351 C101.86,351 77.34,351 77.34,351 C76.35,351 75.55,350.2 75.55,349.21 C75.55,349.21 75.49,142.72 75.49,142.72 C75.49,141.73 76.29,140.92 77.28,140.92 C77.28,140.92 77.94,140.92 77.94,140.92 C93.97,140.87 107.65,152.51 110.2,168.37 C110.2,168.37 134.12,312.85 134.12,312.85 C137.07,330.73 125,347.61 107.15,350.57 C105.4,350.86 103.63,351 101.86,351z  M79.13 347.41 C79.13,347.41 101.86,347.41 101.86,347.41 C117.96,347.39 130.99,334.29 130.97,318.16 C130.97,316.58 130.84,315 130.58,313.44 C130.58,313.44 106.66,168.95 106.66,168.95 C104.46,155.26 92.91,145.03 79.07,144.54 C79.07,144.54 79.13,347.41 79.13,347.41z "/><path id="_R_G_L_16_G_D_15_P_0" fill="#36a9df" fill-opacity="1" fill-rule="nonzero" d=" M323.25 212.14 C339.43,212.14 352.55,225.28 352.55,241.49 C352.55,257.7 339.43,270.84 323.25,270.84 C307.07,270.84 293.95,257.7 293.95,241.49 C293.95,225.28 307.07,212.14 323.25,212.14z "/><path id="_R_G_L_16_G_D_16_P_0" fill="#ffffff" fill-opacity="1" fill-rule="nonzero" d=" M101.75 537.36 C101.75,537.36 196.24,537.36 196.24,537.36 C196.24,537.36 196.24,368.27 196.24,368.27 C196.24,368.27 101.75,368.27 101.75,368.27 C101.75,368.27 101.75,537.36 101.75,537.36z "/><path id="_R_G_L_16_G_D_17_P_0" fill="#ffffff" fill-opacity="1" fill-rule="nonzero" d=" M95.09 412.23 C95.09,412.23 3.25,308.89 3.25,308.89 C3.25,308.89 3.25,279.75 3.25,279.75 C3.25,279.75 77.14,235.19 77.14,235.19 C77.14,235.19 157.69,223.2 157.69,223.2 C156.66,242.78 143.57,259.66 124.87,265.54 C124.87,265.54 95.99,274.61 95.99,274.61 C95.99,274.61 65.14,305.46 65.14,305.46 C65.14,305.46 126.76,305.46 126.76,305.46 C142.35,305.46 157.49,310.72 169.72,320.4 C199.92,344.27 204.86,388.18 180.72,418.17 C154.52,437.24 118.41,434.73 95.09,412.23z "/><path id="_R_G_L_16_G_D_18_P_0" fill="#ffffff" fill-opacity="1" fill-rule="nonzero" d=" M1.75 111.58 C1.75,111.58 153.58,72.65 153.58,72.65 C153.58,72.65 153.27,74.87 153.27,74.87 C149.95,98.57 133.11,118.67 110.35,126.07 C110.35,126.07 51.98,145.06 51.98,145.06 C51.98,145.06 51.98,221.95 51.98,221.95 C51.98,221.95 1.75,240.85 1.75,240.85 C1.75,240.85 1.75,111.58 1.75,111.58z "/><path id="_R_G_L_16_G_D_19_P_0" fill="#41424c" fill-opacity="1" fill-rule="nonzero" d=" M151.79 74.66 C151.79,74.66 151.79,74.66 151.79,74.66 C148.53,97.96 132.26,117.36 109.89,124.65 C109.89,124.65 50.48,143.98 50.48,143.98 C50.48,143.98 50.48,220.91 50.48,220.91 C50.48,220.91 3.25,238.68 3.25,238.68 C3.25,238.68 3.25,112.75 3.25,112.75 C3.25,112.75 151.79,74.66 151.79,74.66z  M155.38 70.64 C155.38,70.64 151.04,71.75 151.04,71.75 C151.04,71.75 2.5,109.84 2.5,109.84 C2.5,109.84 0.25,110.42 0.25,110.42 C0.25,110.42 0.25,112.75 0.25,112.75 C0.25,112.75 0.25,238.68 0.25,238.68 C0.25,238.68 0.25,243.02 0.25,243.02 C0.25,243.02 4.31,241.49 4.31,241.49 C4.31,241.49 51.53,223.72 51.53,223.72 C51.53,223.72 53.48,222.99 53.48,222.99 C53.48,222.99 53.48,220.91 53.48,220.91 C53.48,220.91 53.48,146.15 53.48,146.15 C53.48,146.15 110.81,127.5 110.81,127.5 C122.33,123.75 132.53,116.87 140.3,107.59 C148.08,98.31 153.08,87.07 154.76,75.07 C154.76,75.07 155.38,70.64 155.38,70.64z "/><path id="_R_G_L_16_G_D_20_P_0" fill="#ffffff" fill-opacity="1" fill-rule="nonzero" d=" M3.25 292.04 C3.25,292.04 3.25,224.72 3.25,224.72 C3.25,224.72 68.76,174.45 68.76,174.45 C68.76,174.45 189.11,165.3 189.11,165.3 C189.11,165.3 189.11,165.31 189.11,165.31 C186.43,185.91 170.09,202.05 149.45,204.49 C149.45,204.49 87.8,211.77 87.8,211.77 C87.8,211.77 3.25,292.04 3.25,292.04z "/><path id="_R_G_L_16_G_D_21_P_0" fill="#ffffff" fill-opacity="1" fill-rule="nonzero" d=" M77.14 173.81 C77.14,173.81 189.11,165.3 189.11,165.3 C186.43,185.91 170.08,202.05 149.45,204.49 C149.45,204.49 87.8,211.77 87.8,211.77 C87.8,211.77 76.13,222.85 76.13,222.85 "/><path id="_R_G_L_16_G_D_22_P_0" stroke="#41424c" stroke-linecap="round" stroke-linejoin="round" fill="none" stroke-width="3" stroke-opacity="1" d=" M77.14 173.81 C77.14,173.81 189.11,165.3 189.11,165.3 C186.43,185.91 170.08,202.05 149.45,204.49 C149.45,204.49 87.8,211.77 87.8,211.77 C87.8,211.77 76.13,222.85 76.13,222.85 "/><path id="_R_G_L_16_G_D_23_P_0" fill="#ffffff" fill-opacity="1" fill-rule="nonzero" d=" M77.14 235.19 C77.14,235.19 157.69,223.2 157.69,223.2 C156.66,242.78 143.58,259.66 124.87,265.54 C124.87,265.54 95.99,274.61 95.99,274.61 C95.99,274.61 77.28,293.32 77.28,293.32 "/><path id="_R_G_L_16_G_D_24_P_0" stroke="#41424c" stroke-linecap="round" stroke-linejoin="round" fill="none" stroke-width="3" stroke-opacity="1" d=" M77.14 235.19 C77.14,235.19 157.69,223.2 157.69,223.2 C156.66,242.78 143.58,259.66 124.87,265.54 C124.87,265.54 95.99,274.61 95.99,274.61 C95.99,274.61 77.28,293.32 77.28,293.32 "/><path id="_R_G_L_16_G_D_25_P_0" fill="#ffffff" fill-opacity="1" fill-rule="nonzero" d=" M65.14 305.46 C65.14,305.46 126.76,305.46 126.76,305.46 C142.35,305.46 157.49,310.73 169.72,320.4 C180.23,328.71 187.68,339.45 191.91,351.18 "/><path id="_R_G_L_16_G_D_26_P_0" stroke="#41424c" stroke-linecap="round" stroke-linejoin="round" fill="none" stroke-width="3" stroke-opacity="1" d=" M65.14 305.46 C65.14,305.46 126.76,305.46 126.76,305.46 C142.35,305.46 157.49,310.73 169.72,320.4 C180.23,328.71 187.68,339.45 191.91,351.18 "/></g><g id="_R_G_L_15_G" transform=" translate(496.142, 117.943)"><path id="_R_G_L_15_G_D_0_P_0" fill="#36a9df" fill-opacity="1" fill-rule="nonzero" d=" M24.34 1.49 C24.34,1.49 27.98,13.51 27.98,13.51 C28.61,15.59 30.25,17.23 32.34,17.86 C32.34,17.86 44.36,21.5 44.36,21.5 C45.15,21.74 45.59,22.56 45.35,23.35 C45.21,23.82 44.84,24.19 44.36,24.34 C44.36,24.34 32.34,27.98 32.34,27.98 C30.25,28.61 28.61,30.24 27.98,32.33 C27.98,32.33 24.34,44.35 24.34,44.35 C24.11,45.13 23.29,45.58 22.5,45.35 C22.02,45.21 21.64,44.83 21.5,44.35 C21.5,44.35 17.86,32.33 17.86,32.33 C17.23,30.24 15.59,28.61 13.5,27.98 C13.5,27.98 1.48,24.34 1.48,24.34 C0.69,24.1 0.25,23.27 0.49,22.49 C0.63,22.01 1,21.64 1.48,21.5 C1.48,21.5 13.5,17.86 13.5,17.86 C15.59,17.23 17.23,15.59 17.86,13.51 C17.86,13.51 21.5,1.49 21.5,1.49 C21.73,0.7 22.55,0.25 23.34,0.48 C23.82,0.62 24.2,1 24.34,1.49z "/></g><g id="_R_G_L_14_G"><path id="_R_G_L_14_G_D_0_P_0" fill="#6f7070" fill-opacity="1" fill-rule="nonzero" d=" M0.25 134.62 C0.25,134.62 204.08,134.62 204.08,134.62 C204.08,134.62 204.08,0.92 204.08,0.92 C204.08,0.92 0.25,0.92 0.25,0.92 C0.25,0.92 0.25,134.62 0.25,134.62z "/><path id="_R_G_L_14_G_D_1_P_0" fill="#595959" fill-opacity="1" fill-rule="nonzero" d=" M0.25 9.58 C0.25,9.58 204.08,9.58 204.08,9.58 C204.08,9.58 204.08,0.25 204.08,0.25 C204.08,0.25 0.25,0.25 0.25,0.25 C0.25,0.25 0.25,9.58 0.25,9.58z "/><path id="_R_G_L_14_G_D_2_P_0" fill="#595959" fill-opacity="1" fill-rule="nonzero" d=" M66.22 7.56 C66.22,7.56 204.08,7.56 204.08,7.56 C204.08,7.56 204.08,19.77 204.08,19.77 C204.08,19.77 66.22,19.77 66.22,19.77 C66.22,19.77 66.22,7.56 66.22,7.56z "/><path id="_R_G_L_14_G_D_3_P_0" fill="#595959" fill-opacity="1" fill-rule="nonzero" d=" M42.59 16.03 C42.59,16.03 4.82,16.03 4.82,16.03 C4.82,16.03 4.82,14.24 4.82,14.24 C4.82,14.24 42.59,14.24 42.59,14.24 C42.59,14.24 42.59,16.03 42.59,16.03z "/><path id="_R_G_L_14_G_D_4_P_0" fill="#ffffff" fill-opacity="1" fill-rule="nonzero" d=" M47.86 34.04 C47.86,34.04 41.85,34.04 41.85,34.04 C41.85,34.04 41.85,32.24 41.85,32.24 C41.85,32.24 47.86,32.24 47.86,32.24 C47.86,32.24 47.86,34.04 47.86,34.04z "/><path id="_R_G_L_14_G_D_5_P_0" fill="#ffffff" fill-opacity="1" fill-rule="nonzero" d=" M47.86 54.89 C47.86,54.89 41.85,54.89 41.85,54.89 C41.85,54.89 41.85,53.1 41.85,53.1 C41.85,53.1 47.86,53.1 47.86,53.1 C47.86,53.1 47.86,54.89 47.86,54.89z "/><path id="_R_G_L_14_G_D_6_P_0" fill="#ffffff" fill-opacity="1" fill-rule="nonzero" d=" M47.86 75.72 C47.86,75.72 41.85,75.72 41.85,75.72 C41.85,75.72 41.85,73.93 41.85,73.93 C41.85,73.93 47.86,73.93 47.86,73.93 C47.86,73.93 47.86,75.72 47.86,75.72z "/><path id="_R_G_L_14_G_D_7_P_0" fill="#ffffff" fill-opacity="1" fill-rule="nonzero" d=" M95.65 16.03 C95.65,16.03 70.71,16.03 70.71,16.03 C70.71,16.03 70.71,14.24 70.71,14.24 C70.71,14.24 95.65,14.24 95.65,14.24 C95.65,14.24 95.65,16.03 95.65,16.03z "/><path id="_R_G_L_14_G_D_8_P_0" fill="#ffffff" fill-opacity="1" fill-rule="nonzero" d=" M134.27 16.03 C134.27,16.03 109.33,16.03 109.33,16.03 C109.33,16.03 109.33,14.24 109.33,14.24 C109.33,14.24 134.27,14.24 134.27,14.24 C134.27,14.24 134.27,16.03 134.27,16.03z "/><path id="_R_G_L_14_G_D_9_P_0" fill="#6a7180" fill-opacity="1" fill-rule="nonzero" d=" M7.88 24.98 C7.88,24.98 4.97,24.98 4.97,24.98 C4.97,24.98 4.97,21.81 4.97,21.81 C4.97,21.81 7.88,21.81 7.88,21.81 C7.88,21.81 7.88,24.98 7.88,24.98z "/><path id="_R_G_L_14_G_D_10_P_0" fill="#595959" fill-opacity="1" fill-rule="nonzero" d=" M12.79 24.98 C12.79,24.98 9.88,24.98 9.88,24.98 C9.88,24.98 9.88,21.81 9.88,21.81 C9.88,21.81 12.79,21.81 12.79,21.81 C12.79,21.81 12.79,24.98 12.79,24.98z "/><path id="_R_G_L_14_G_D_11_P_0" fill="#6a7180" fill-opacity="1" fill-rule="nonzero" d=" M17.7 24.98 C17.7,24.98 14.8,24.98 14.8,24.98 C14.8,24.98 14.8,21.81 14.8,21.81 C14.8,21.81 17.7,21.81 17.7,21.81 C17.7,21.81 17.7,24.98 17.7,24.98z "/><path id="_R_G_L_14_G_D_12_P_0" fill="#6a7180" fill-opacity="1" fill-rule="nonzero" d=" M7.88 34.55 C7.88,34.55 4.97,34.55 4.97,34.55 C4.97,34.55 4.97,31.38 4.97,31.38 C4.97,31.38 7.88,31.38 7.88,31.38 C7.88,31.38 7.88,34.55 7.88,34.55z "/><path id="_R_G_L_14_G_D_13_P_0" fill="#595959" fill-opacity="1" fill-rule="nonzero" d=" M12.79 34.55 C12.79,34.55 9.88,34.55 9.88,34.55 C9.88,34.55 9.88,31.38 9.88,31.38 C9.88,31.38 12.79,31.38 12.79,31.38 C12.79,31.38 12.79,34.55 12.79,34.55z "/><path id="_R_G_L_14_G_D_14_P_0" fill="#6a7180" fill-opacity="1" fill-rule="nonzero" d=" M17.7 34.55 C17.7,34.55 14.8,34.55 14.8,34.55 C14.8,34.55 14.8,31.38 14.8,31.38 C14.8,31.38 17.7,31.38 17.7,31.38 C17.7,31.38 17.7,34.55 17.7,34.55z "/><path id="_R_G_L_14_G_D_15_P_0" fill="#ffffff" fill-opacity="1" fill-rule="nonzero" d=" M12.79 29.63 C12.79,29.63 9.88,29.63 9.88,29.63 C9.88,29.63 9.88,26.46 9.88,26.46 C9.88,26.46 12.79,26.46 12.79,26.46 C12.79,26.46 12.79,29.63 12.79,29.63z "/><path id="_R_G_L_14_G_D_16_P_0" fill="#ffffff" fill-opacity="1" fill-rule="nonzero" d=" M5.73 6.63 C5.73,6.63 2.81,6.63 2.81,6.63 C2.81,6.63 2.81,3.45 2.81,3.45 C2.81,3.45 5.73,3.45 5.73,3.45 C5.73,3.45 5.73,6.63 5.73,6.63z "/><path id="_R_G_L_14_G_D_17_P_0" fill="#595959" fill-opacity="1" fill-rule="nonzero" d=" M14.53 21.81 C14.53,21.81 17.7,21.81 17.7,21.81 C17.7,21.81 17.7,24.72 17.7,24.72 C17.7,24.72 14.53,24.72 14.53,24.72 C14.53,24.72 14.53,21.81 14.53,21.81z "/><path id="_R_G_L_14_G_D_18_P_0" fill="#595959" fill-opacity="1" fill-rule="nonzero" d=" M24.49 24.48 C24.49,24.48 27.66,24.48 27.66,24.48 C27.66,24.48 27.66,27.39 27.66,27.39 C27.66,27.39 24.49,27.39 24.49,27.39 C24.49,27.39 24.49,24.48 24.49,24.48z "/><path id="_R_G_L_14_G_D_19_P_0" fill="#595959" fill-opacity="1" fill-rule="nonzero" d=" M24.49 30.03 C24.49,30.03 27.66,30.03 27.66,30.03 C27.66,30.03 27.66,32.95 27.66,32.95 C27.66,32.95 24.49,32.95 24.49,32.95 C24.49,32.95 24.49,30.03 24.49,30.03z "/><path id="_R_G_L_14_G_D_20_P_0" fill="#595959" fill-opacity="1" fill-rule="nonzero" d=" M14.53 26.72 C14.53,26.72 17.7,26.72 17.7,26.72 C17.7,26.72 17.7,29.63 17.7,29.63 C17.7,29.63 14.53,29.63 14.53,29.63 C14.53,29.63 14.53,26.72 14.53,26.72z "/><path id="_R_G_L_14_G_D_21_P_0" fill="#595959" fill-opacity="1" fill-rule="nonzero" d=" M14.53 31.64 C14.53,31.64 17.7,31.64 17.7,31.64 C17.7,31.64 17.7,34.55 17.7,34.55 C17.7,34.55 14.53,34.55 14.53,34.55 C14.53,34.55 14.53,31.64 14.53,31.64z "/><path id="_R_G_L_14_G_D_22_P_0" fill="#595959" fill-opacity="1" fill-rule="nonzero" d=" M4.97 21.81 C4.97,21.81 8.14,21.81 8.14,21.81 C8.14,21.81 8.14,24.72 8.14,24.72 C8.14,24.72 4.97,24.72 4.97,24.72 C4.97,24.72 4.97,21.81 4.97,21.81z "/><path id="_R_G_L_14_G_D_23_P_0" fill="#595959" fill-opacity="1" fill-rule="nonzero" d=" M4.97 26.72 C4.97,26.72 8.14,26.72 8.14,26.72 C8.14,26.72 8.14,29.63 8.14,29.63 C8.14,29.63 4.97,29.63 4.97,29.63 C4.97,29.63 4.97,26.72 4.97,26.72z "/><path id="_R_G_L_14_G_D_24_P_0" fill="#595959" fill-opacity="1" fill-rule="nonzero" d=" M4.97 31.64 C4.97,31.64 8.14,31.64 8.14,31.64 C8.14,31.64 8.14,34.55 8.14,34.55 C8.14,34.55 4.97,34.55 4.97,34.55 C4.97,34.55 4.97,31.64 4.97,31.64z "/><path id="_R_G_L_14_G_D_25_P_0" fill="#bdc3c5" fill-opacity="1" fill-rule="nonzero" d=" M195.75 40.21 C195.75,40.21 168.79,40.21 168.79,40.21 C168.79,40.21 168.79,26.08 168.79,26.08 C168.79,26.08 195.75,26.08 195.75,26.08 C195.75,26.08 195.75,40.21 195.75,40.21z "/><path id="_R_G_L_14_G_D_26_P_0" fill="#bdc3c5" fill-opacity="1" fill-rule="nonzero" d=" M195.75 61.06 C195.75,61.06 168.79,61.06 168.79,61.06 C168.79,61.06 168.79,46.94 168.79,46.94 C168.79,46.94 195.75,46.94 195.75,46.94 C195.75,46.94 195.75,61.06 195.75,61.06z "/><path id="_R_G_L_14_G_D_27_P_0" fill="#bdc3c5" fill-opacity="1" fill-rule="nonzero" d=" M14.44 105.44 C14.44,105.44 5.6,105.44 5.6,105.44 C5.6,105.44 5.6,95.79 5.6,95.79 C5.6,95.79 14.44,95.79 14.44,95.79 C14.44,95.79 14.44,105.44 14.44,105.44z "/><path id="_R_G_L_14_G_D_28_P_0" fill="#45484c" fill-opacity="1" fill-rule="nonzero" d=" M26.46 105.44 C26.46,105.44 17.62,105.44 17.62,105.44 C17.62,105.44 17.62,95.79 17.62,95.79 C17.62,95.79 26.46,95.79 26.46,95.79 C26.46,95.79 26.46,105.44 26.46,105.44z "/><path id="_R_G_L_14_G_D_29_P_0" fill="#e7e9ed" fill-opacity="1" fill-rule="nonzero" d=" M38.47 105.44 C38.47,105.44 29.64,105.44 29.64,105.44 C29.64,105.44 29.64,95.79 29.64,95.79 C29.64,95.79 38.47,95.79 38.47,95.79 C38.47,95.79 38.47,105.44 38.47,105.44z "/><path id="_R_G_L_14_G_D_30_P_0" fill="#595959" fill-opacity="1" fill-rule="nonzero" d=" M158.7 36.31 C158.7,36.31 53.48,36.31 53.48,36.31 C53.48,36.31 53.48,29.97 53.48,29.97 C53.48,29.97 158.7,29.97 158.7,29.97 C158.7,29.97 158.7,36.31 158.7,36.31z "/><path id="_R_G_L_14_G_D_31_P_0" fill="#595959" fill-opacity="1" fill-rule="nonzero" d=" M158.7 57.17 C158.7,57.17 53.48,57.17 53.48,57.17 C53.48,57.17 53.48,50.82 53.48,50.82 C53.48,50.82 158.7,50.82 158.7,50.82 C158.7,50.82 158.7,57.17 158.7,57.17z "/><path id="_R_G_L_14_G_D_32_P_0" fill="#595959" fill-opacity="1" fill-rule="nonzero" d=" M158.7 77.99 C158.7,77.99 53.48,77.99 53.48,77.99 C53.48,77.99 53.48,71.64 53.48,71.64 C53.48,71.64 158.7,71.64 158.7,71.64 C158.7,71.64 158.7,77.99 158.7,77.99z "/><path id="_R_G_L_14_G_D_33_P_0" fill="#bdc3c5" fill-opacity="1" fill-rule="nonzero" d=" M195.75 81.88 C195.75,81.88 168.79,81.88 168.79,81.88 C168.79,81.88 168.79,67.76 168.79,67.76 C168.79,67.76 195.75,67.76 195.75,67.76 C195.75,67.76 195.75,81.88 195.75,81.88z "/><path id="_R_G_L_14_G_D_34_P_0" fill="#5c616a" fill-opacity="1" fill-rule="nonzero" d=" M187.33 75.72 C187.33,75.72 173.24,75.72 173.24,75.72 C173.24,75.72 173.24,73.93 173.24,73.93 C173.24,73.93 187.33,73.93 187.33,73.93 C187.33,73.93 187.33,75.72 187.33,75.72z "/><path id="_R_G_L_14_G_D_35_P_0" fill="#ffffff" fill-opacity="1" fill-rule="nonzero" d=" M140.71 100.26 C140.71,100.26 134.7,100.26 134.7,100.26 C134.7,100.26 134.7,98.47 134.7,98.47 C134.7,98.47 140.71,98.47 140.71,98.47 C140.71,98.47 140.71,100.26 140.71,100.26z "/><path id="_R_G_L_14_G_D_36_P_0" fill="#bdc3c5" fill-opacity="1" fill-rule="nonzero" d=" M195.75 106.43 C195.75,106.43 146.27,106.43 146.27,106.43 C146.27,106.43 146.27,92.31 146.27,92.31 C146.27,92.31 195.75,92.31 195.75,92.31 C195.75,92.31 195.75,106.43 195.75,106.43z "/><path id="_R_G_L_14_G_D_37_P_0" fill="#808080" fill-opacity="1" fill-rule="nonzero" d=" M195.75 113.84 C195.75,113.84 195.75,127.96 195.75,127.96 C195.75,127.96 5.57,127.96 5.57,127.96 C5.57,127.96 5.57,113.84 5.57,113.84 C5.57,113.84 195.75,113.84 195.75,113.84z "/><path id="_R_G_L_14_G_D_38_P_0" fill="#5c616a" fill-opacity="1" fill-rule="nonzero" d=" M190.57 100.26 C190.57,100.26 150.85,100.26 150.85,100.26 C150.85,100.26 150.85,98.47 150.85,98.47 C150.85,98.47 190.57,98.47 190.57,98.47 C190.57,98.47 190.57,100.26 190.57,100.26z "/><path id="_R_G_L_14_G_D_39_P_0" fill="#5c616a" fill-opacity="1" fill-rule="nonzero" d=" M187.15 54.89 C187.15,54.89 173.62,54.89 173.62,54.89 C173.62,54.89 173.62,53.1 173.62,53.1 C173.62,53.1 187.15,53.1 187.15,53.1 C187.15,53.1 187.15,54.89 187.15,54.89z "/><path id="_R_G_L_14_G_D_40_P_0" fill="#5c616a" fill-opacity="1" fill-rule="nonzero" d=" M187.15 34.04 C187.15,34.04 173.62,34.04 173.62,34.04 C173.62,34.04 173.62,32.24 173.62,32.24 C173.62,32.24 187.15,32.24 187.15,32.24 C187.15,32.24 187.15,34.04 187.15,34.04z "/><path id="_R_G_L_14_G_D_41_P_0" fill="#ffffff" fill-opacity="1" fill-rule="nonzero" d=" M24.72 62.09 C24.72,62.09 5.03,62.09 5.03,62.09 C5.03,62.09 5.03,42.4 5.03,42.4 C5.03,42.4 24.72,42.4 24.72,42.4 C24.72,42.4 24.72,62.09 24.72,62.09z "/><path id="_R_G_L_14_G_D_42_P_0" fill="#36a9df" fill-opacity="1" fill-rule="nonzero" d=" M23.71 61.08 C23.71,61.08 6.04,61.08 6.04,61.08 C6.04,61.08 6.04,43.41 6.04,43.41 C6.04,43.41 23.71,43.41 23.71,43.41 C23.71,43.41 23.71,61.08 23.71,61.08z "/><path id="_R_G_L_14_G_D_43_P_0" fill="#ffffff" fill-opacity="1" fill-rule="nonzero" d=" M32.12 69.5 C32.12,69.5 12.44,69.5 12.44,69.5 C12.44,69.5 12.44,49.8 12.44,49.8 C12.44,49.8 32.12,49.8 32.12,49.8 C32.12,49.8 32.12,69.5 32.12,69.5z "/><path id="_R_G_L_14_G_D_44_P_0" fill="#34ad67" fill-opacity="1" fill-rule="nonzero" d=" M31.28 68.66 C31.28,68.66 13.28,68.66 13.28,68.66 C13.28,68.66 13.28,50.64 13.28,50.64 C13.28,50.64 31.28,50.64 31.28,50.64 C31.28,50.64 31.28,68.66 31.28,68.66z  M15.55 66.38 C15.55,66.38 29.01,66.38 29.01,66.38 C29.01,66.38 29.01,52.92 29.01,52.92 C29.01,52.92 15.55,52.92 15.55,52.92 C15.55,52.92 15.55,66.38 15.55,66.38z "/><path id="_R_G_L_14_G_D_45_P_0" fill="#595959" fill-opacity="1" fill-rule="nonzero" d=" M28.25 65.62 C28.25,65.62 16.31,65.62 16.31,65.62 C16.31,65.62 16.31,53.67 16.31,53.67 C16.31,53.67 28.25,53.67 28.25,53.67 C28.25,53.67 28.25,65.62 28.25,65.62z "/></g><g id="_R_G_L_13_G"><path id="_R_G_L_13_G_D_0_P_0" stroke="#ffffff" stroke-linecap="round" stroke-linejoin="round" fill="none" stroke-width="2" stroke-opacity="1" d=" M53.74 5.01 C53.74,5.01 13.22,5 13.22,5 C8.7,5 5.01,8.7 5.01,13.22 C5.01,13.22 5,36.5 5,36.5 C5,41.02 8.7,44.72 13.22,44.72 C13.22,44.72 53.74,44.73 53.74,44.73 C58.26,44.73 61.95,41.03 61.96,36.51 C61.96,36.51 61.96,13.23 61.96,13.23 C61.96,8.71 58.26,5.01 53.74,5.01z  M33.48 29.36 C33.48,29.36 25.69,33.85 25.69,33.85 C25.69,33.85 25.69,24.86 25.69,24.86 C25.69,24.86 25.7,15.87 25.7,15.87 C25.7,15.87 33.48,20.37 33.48,20.37 C33.48,20.37 41.27,24.86 41.27,24.86 C41.27,24.86 33.48,29.36 33.48,29.36z "/></g><g id="_R_G_L_12_G"><path id="_R_G_L_12_G_D_0_P_0" fill="#ffffff" fill-opacity="1" fill-rule="nonzero" d=" M15.86 19.87 C15.35,19.58 14.88,19.22 14.46,18.79 C13.31,17.6 12.7,16.04 12.72,14.39 C12.75,12.75 13.42,11.21 14.6,10.06 C15.79,8.91 17.35,8.3 18.99,8.32 C22.4,8.38 25.12,11.19 25.07,14.6 C25.04,16.24 24.37,17.78 23.19,18.93 C22,20.07 20.44,20.69 18.79,20.66 C17.75,20.65 16.75,20.37 15.86,19.87z  M20.94 10.86 C20.36,10.53 19.68,10.34 18.96,10.32 C17.85,10.31 16.79,10.72 15.99,11.5 C15.19,12.27 14.74,13.31 14.72,14.43 C14.71,15.54 15.12,16.6 15.9,17.4 C16.67,18.2 17.71,18.65 18.83,18.66 C19.94,18.68 20.99,18.27 21.8,17.49 C22.6,16.72 23.05,15.68 23.07,14.56 C23.09,12.98 22.23,11.59 20.94,10.86z "/><path id="_R_G_L_12_G_D_1_P_0" fill="#ffffff" fill-opacity="1" fill-rule="nonzero" d=" M0.3 36.45 C0.3,36.45 0.36,32.42 0.36,32.42 C0.36,32.42 0.66,32.13 0.66,32.13 C5.28,27.66 12.68,27.78 17.16,32.4 C17.16,32.4 17.31,32.56 17.31,32.56 C17.31,32.56 31.04,19.27 31.04,19.27 C35.9,14.56 43.69,14.68 48.4,19.55 C48.4,19.55 46.96,20.94 46.96,20.94 C43.02,16.87 36.5,16.76 32.43,20.7 C32.43,20.7 17.26,35.39 17.26,35.39 C17.26,35.39 15.72,33.79 15.72,33.79 C12.11,30.06 6.19,29.87 2.35,33.29 C2.35,33.29 2.3,36.49 2.3,36.49 C2.3,36.49 0.3,36.45 0.3,36.45z "/><path id="_R_G_L_12_G_D_2_P_0" fill="#ffffff" fill-opacity="1" fill-rule="nonzero" d=" M6.47 46.9 C5.47,46.34 4.54,45.62 3.72,44.77 C1.46,42.44 0.25,39.38 0.3,36.14 C0.3,36.14 0.69,12.29 0.69,12.29 C0.8,5.6 6.33,0.25 13.02,0.36 C13.02,0.36 36.86,0.75 36.86,0.75 C43.55,0.86 48.9,6.39 48.79,13.07 C48.79,13.07 48.41,36.92 48.41,36.92 C48.3,43.61 42.77,48.96 36.08,48.85 C36.08,48.85 12.23,48.46 12.23,48.46 C10.18,48.43 8.21,47.89 6.47,46.9z  M41.64 4.05 C40.21,3.25 38.58,2.77 36.83,2.75 C36.83,2.75 12.98,2.36 12.98,2.36 C7.4,2.27 2.78,6.74 2.69,12.32 C2.69,12.32 2.3,36.17 2.3,36.17 C2.26,38.87 3.27,41.43 5.15,43.38 C7.03,45.32 9.56,46.42 12.27,46.46 C12.27,46.46 36.11,46.85 36.11,46.85 C41.7,46.94 46.31,42.47 46.41,36.89 C46.41,36.89 46.79,13.04 46.79,13.04 C46.86,9.2 44.76,5.82 41.64,4.05z "/></g><g id="_R_G_L_11_G" transform=" translate(487.407, 479.992) translate(-37.91, -51.027)"><path id="_R_G_L_11_G_D_0_P_0" fill="#595959" fill-opacity="1" fill-rule="nonzero" d=" M75.57 101.8 C75.57,101.8 0.25,101.8 0.25,101.8 C0.25,101.8 0.25,0.25 0.25,0.25 C0.25,0.25 75.57,0.25 75.57,0.25 C75.57,0.25 75.57,101.8 75.57,101.8z "/></g><g id="_R_G_L_10_G" transform=" translate(461.601, 441.914) translate(-5.189, -5.188)"><path id="_R_G_L_10_G_D_0_P_0" fill="#ffffff" fill-opacity="1" fill-rule="nonzero" d=" M8.71 10.13 C8.71,10.13 0.25,1.66 0.25,1.66 C0.25,1.66 1.66,0.25 1.66,0.25 C1.66,0.25 10.13,8.71 10.13,8.71 C10.13,8.71 8.71,10.13 8.71,10.13z "/><path id="_R_G_L_10_G_D_1_P_0" fill="#ffffff" fill-opacity="1" fill-rule="nonzero" d=" M1.66 10.13 C1.66,10.13 0.25,8.71 0.25,8.71 C0.25,8.71 8.71,0.25 8.71,0.25 C8.71,0.25 10.13,1.66 10.13,1.66 C10.13,1.66 1.66,10.13 1.66,10.13z "/></g><g id="_R_G_L_9_G" transform=" translate(464.446, 509.303) translate(-3.943, -9.022)"><path id="_R_G_L_9_G_D_0_P_0" fill="#6f7070" fill-opacity="1" fill-rule="nonzero" d=" M7.64 17.79 C7.64,17.79 0.25,17.79 0.25,17.79 C0.25,17.79 0.25,0.25 0.25,0.25 C0.25,0.25 7.64,0.25 7.64,0.25 C7.64,0.25 7.64,17.79 7.64,17.79z "/></g><g id="_R_G_L_8_G" transform=" translate(480.037, 521.128)"><path id="_R_G_L_8_G_D_0_P_0" fill="#36a9df" fill-opacity="1" fill-rule="nonzero" d=" M7.64 48.14 C7.64,48.14 0.25,48.14 0.25,48.14 C0.25,48.14 0.25,0.25 0.25,0.25 C0.25,0.25 7.64,0.25 7.64,0.25 C7.64,0.25 7.64,48.14 7.64,48.14z "/></g><g id="_R_G_L_7_G" transform=" translate(495.628, 505.592) translate(-3.943, -12.733)"><path id="_R_G_L_7_G_D_0_P_0" fill="#6f7070" fill-opacity="1" fill-rule="nonzero" d=" M7.64 25.22 C7.64,25.22 0.25,25.22 0.25,25.22 C0.25,25.22 0.25,0.25 0.25,0.25 C0.25,0.25 7.64,0.25 7.64,0.25 C7.64,0.25 7.64,25.22 7.64,25.22z "/></g><g id="_R_G_L_6_G" transform=" translate(511.219, 520.683)"><path id="_R_G_L_6_G_D_0_P_0" fill="#34ad67" fill-opacity="1" fill-rule="nonzero" d=" M7.64 41.04 C7.64,41.04 0.25,41.04 0.25,41.04 C0.25,41.04 0.25,0.25 0.25,0.25 C0.25,0.25 7.64,0.25 7.64,0.25 C7.64,0.25 7.64,41.04 7.64,41.04z "/></g><g id="_R_G_L_5_G" transform=" translate(219.999, 47.443) translate(-47.123, -18.857)"><path id="_R_G_L_5_G_D_0_P_0" fill="#ffffff" fill-opacity="1" fill-rule="nonzero" d=" M84.57 2.25 C84.57,2.25 9.18,2.25 9.18,2.25 C9.18,2.25 9.18,0.25 9.18,0.25 C9.18,0.25 84.57,0.25 84.57,0.25 C84.57,0.25 84.57,2.25 84.57,2.25z "/><path id="_R_G_L_5_G_D_1_P_0" fill="#ffffff" fill-opacity="1" fill-rule="nonzero" d=" M4.71 2.25 C4.71,2.25 0.25,2.25 0.25,2.25 C0.25,2.25 0.25,0.25 0.25,0.25 C0.25,0.25 4.71,0.25 4.71,0.25 C4.71,0.25 4.71,2.25 4.71,2.25z "/><path id="_R_G_L_5_G_D_2_P_0" fill="#ffffff" fill-opacity="1" fill-rule="nonzero" d=" M94 2.25 C94,2.25 89.53,2.25 89.53,2.25 C89.53,2.25 89.53,0.25 89.53,0.25 C89.53,0.25 94,0.25 94,0.25 C94,0.25 94,2.25 94,2.25z "/><path id="_R_G_L_5_G_D_3_P_0" fill="#ffffff" fill-opacity="1" fill-rule="nonzero" d=" M84.57 19.86 C84.57,19.86 9.18,19.86 9.18,19.86 C9.18,19.86 9.18,17.86 9.18,17.86 C9.18,17.86 84.57,17.86 84.57,17.86 C84.57,17.86 84.57,19.86 84.57,19.86z "/><path id="_R_G_L_5_G_D_4_P_0" fill="#ffffff" fill-opacity="1" fill-rule="nonzero" d=" M4.71 19.86 C4.71,19.86 0.25,19.86 0.25,19.86 C0.25,19.86 0.25,17.86 0.25,17.86 C0.25,17.86 4.71,17.86 4.71,17.86 C4.71,17.86 4.71,19.86 4.71,19.86z "/><path id="_R_G_L_5_G_D_5_P_0" fill="#ffffff" fill-opacity="1" fill-rule="nonzero" d=" M94 19.86 C94,19.86 89.53,19.86 89.53,19.86 C89.53,19.86 89.53,17.86 89.53,17.86 C89.53,17.86 94,17.86 94,17.86 C94,17.86 94,19.86 94,19.86z "/><path id="_R_G_L_5_G_D_6_P_0" fill="#ffffff" fill-opacity="1" fill-rule="nonzero" d=" M84.57 37.47 C84.57,37.47 9.18,37.47 9.18,37.47 C9.18,37.47 9.18,35.47 9.18,35.47 C9.18,35.47 84.57,35.47 84.57,35.47 C84.57,35.47 84.57,37.47 84.57,37.47z "/><path id="_R_G_L_5_G_D_7_P_0" fill="#ffffff" fill-opacity="1" fill-rule="nonzero" d=" M4.71 37.47 C4.71,37.47 0.25,37.47 0.25,37.47 C0.25,37.47 0.25,35.47 0.25,35.47 C0.25,35.47 4.71,35.47 4.71,35.47 C4.71,35.47 4.71,37.47 4.71,37.47z "/><path id="_R_G_L_5_G_D_8_P_0" fill="#ffffff" fill-opacity="1" fill-rule="nonzero" d=" M94 37.47 C94,37.47 89.53,37.47 89.53,37.47 C89.53,37.47 89.53,35.47 89.53,35.47 C89.53,35.47 94,35.47 94,35.47 C94,35.47 94,37.47 94,37.47z "/></g><g id="_R_G_L_4_G"><path id="_R_G_L_4_G_D_0_P_0" fill="#ffffff" fill-opacity="1" fill-rule="nonzero" d=" M2.25 11.16 C2.25,11.16 0.25,11.16 0.25,11.16 C0.25,11.16 0.25,0.25 0.25,0.25 C0.25,0.25 2.25,0.25 2.25,0.25 C2.25,0.25 2.25,11.16 2.25,11.16z "/></g><g id="_R_G_L_3_G"><path id="_R_G_L_3_G_D_0_P_0" fill="#ffffff" fill-opacity="1" fill-rule="nonzero" d=" M2.25 11.16 C2.25,11.16 0.25,11.16 0.25,11.16 C0.25,11.16 0.25,0.25 0.25,0.25 C0.25,0.25 2.25,0.25 2.25,0.25 C2.25,0.25 2.25,11.16 2.25,11.16z "/></g><g id="_R_G_L_2_G"><path id="_R_G_L_2_G_D_0_P_0" fill="#ffffff" fill-opacity="1" fill-rule="nonzero" d=" M2.25 11.16 C2.25,11.16 0.25,11.16 0.25,11.16 C0.25,11.16 0.25,0.25 0.25,0.25 C0.25,0.25 2.25,0.25 2.25,0.25 C2.25,0.25 2.25,11.16 2.25,11.16z "/></g><g id="_R_G_L_1_G" transform=" translate(72.102, 562.618) translate(-45.756, -28.138)"><path id="_R_G_L_1_G_D_0_P_0" fill="#595959" fill-opacity="1" fill-rule="nonzero" d=" M91.26 52.02 C91.26,54.23 89.46,56.03 87.23,56.03 C87.23,56.03 4.28,56.03 4.28,56.03 C2.06,56.03 0.25,54.23 0.25,52.02 C0.25,52.02 0.25,5.59 0.25,5.59 C0.25,3.38 2.06,1.59 4.28,1.59 C4.28,1.59 87.23,1.59 87.23,1.59 C89.46,1.59 91.26,3.38 91.26,5.59 C91.26,5.59 91.26,52.02 91.26,52.02z "/><path id="_R_G_L_1_G_D_1_P_0" fill="#ffffff" fill-opacity="1" fill-rule="nonzero" d=" M91.26 14.95 C91.26,14.95 0.25,14.95 0.25,14.95 C0.25,14.95 0.25,0.25 0.25,0.25 C0.25,0.25 91.26,0.25 91.26,0.25 C91.26,0.25 91.26,14.95 91.26,14.95z "/><path id="_R_G_L_1_G_D_2_P_0" fill="#595959" fill-opacity="1" fill-rule="nonzero" d=" M0.25 0.25 C0.25,0.25 0.25,14.95 0.25,14.95 C0.25,14.95 0.85,14.95 0.85,14.95 C0.85,14.95 12.15,0.25 12.15,0.25 C12.15,0.25 0.25,0.25 0.25,0.25z "/><path id="_R_G_L_1_G_D_3_P_0" fill="#595959" fill-opacity="1" fill-rule="nonzero" d=" M73.61 0.25 C73.61,0.25 62.32,14.95 62.32,14.95 C62.32,14.95 73.39,14.95 73.39,14.95 C73.39,14.95 84.69,0.25 84.69,0.25 C84.69,0.25 73.61,0.25 73.61,0.25z "/><path id="_R_G_L_1_G_D_4_P_0" fill="#595959" fill-opacity="1" fill-rule="nonzero" d=" M25.25 0.25 C25.25,0.25 13.96,14.95 13.96,14.95 C13.96,14.95 25.03,14.95 25.03,14.95 C25.03,14.95 36.33,0.25 36.33,0.25 C36.33,0.25 25.25,0.25 25.25,0.25z "/><path id="_R_G_L_1_G_D_5_P_0" fill="#595959" fill-opacity="1" fill-rule="nonzero" d=" M49.43 0.25 C49.43,0.25 38.14,14.95 38.14,14.95 C38.14,14.95 49.21,14.95 49.21,14.95 C49.21,14.95 60.51,0.25 60.51,0.25 C60.51,0.25 49.43,0.25 49.43,0.25z "/><path id="_R_G_L_1_G_D_6_P_0" fill="#595959" fill-opacity="1" fill-rule="nonzero" d=" M91.26 8.75 C91.26,8.75 86.5,14.95 86.5,14.95 C86.5,14.95 91.26,14.95 91.26,14.95 C91.26,14.95 91.26,8.75 91.26,8.75z "/><path id="_R_G_L_1_G_D_7_P_0" fill="#34ad67" fill-opacity="1" fill-rule="nonzero" d=" M83.43 27.35 C83.43,27.96 82.93,28.45 82.32,28.45 C82.32,28.45 7.31,28.45 7.31,28.45 C6.7,28.45 6.2,27.96 6.2,27.35 C6.2,26.74 6.7,26.24 7.31,26.24 C7.31,26.24 82.32,26.24 82.32,26.24 C82.93,26.24 83.43,26.74 83.43,27.35z "/><path id="_R_G_L_1_G_D_8_P_0" fill="#34ad67" fill-opacity="1" fill-rule="nonzero" d=" M83.43 35.36 C83.43,35.98 82.93,36.47 82.32,36.47 C82.32,36.47 7.31,36.47 7.31,36.47 C6.7,36.47 6.2,35.98 6.2,35.36 C6.2,34.75 6.7,34.26 7.31,34.26 C7.31,34.26 82.32,34.26 82.32,34.26 C82.93,34.26 83.43,34.75 83.43,35.36z "/><path id="_R_G_L_1_G_D_9_P_0" fill="#34ad67" fill-opacity="1" fill-rule="nonzero" d=" M83.43 43.9 C83.43,44.51 82.93,45.01 82.32,45.01 C82.32,45.01 7.31,45.01 7.31,45.01 C6.7,45.01 6.2,44.51 6.2,43.9 C6.2,43.29 6.7,42.79 7.31,42.79 C7.31,42.79 82.32,42.79 82.32,42.79 C82.93,42.79 83.43,43.29 83.43,43.9z "/></g><g id="_R_G_L_0_G" transform=" translate(26.198, 532.991)"><path id="_R_G_L_0_G_D_0_P_0" fill="#595959" fill-opacity="1" fill-rule="nonzero" d=" M82.26 0.94 C82.26,0.94 3.51,26.87 3.51,26.87 C1.39,27.57 0.25,29.84 0.95,31.94 C0.95,31.94 4.43,42.4 4.43,42.4 C4.43,42.4 90.83,13.95 90.83,13.95 C90.83,13.95 87.35,3.49 87.35,3.49 C86.64,1.39 84.37,0.25 82.26,0.94z "/><path id="_R_G_L_0_G_D_1_P_0" fill="#ffffff" fill-opacity="1" fill-rule="nonzero" d=" M19.97 21.45 C19.97,21.45 13.16,39.53 13.16,39.53 C13.16,39.53 23.89,36 23.89,36 C23.89,36 30.69,17.92 30.69,17.92 C30.69,17.92 19.97,21.45 19.97,21.45z "/><path id="_R_G_L_0_G_D_2_P_0" fill="#ffffff" fill-opacity="1" fill-rule="nonzero" d=" M3.51 26.87 C1.39,27.57 0.25,29.84 0.95,31.94 C0.95,31.94 2.8,37.51 2.8,37.51 C2.8,37.51 7.28,25.63 7.28,25.63 C7.28,25.63 3.51,26.87 3.51,26.87z "/><path id="_R_G_L_0_G_D_3_P_0" fill="#ffffff" fill-opacity="1" fill-rule="nonzero" d=" M43.38 13.74 C43.38,13.74 36.57,31.82 36.57,31.82 C36.57,31.82 47.3,28.29 47.3,28.29 C47.3,28.29 54.11,10.21 54.11,10.21 C54.11,10.21 43.38,13.74 43.38,13.74z "/><path id="_R_G_L_0_G_D_4_P_0" fill="#ffffff" fill-opacity="1" fill-rule="nonzero" d=" M87.78 4.79 C87.78,4.79 83.41,16.4 83.41,16.4 C83.41,16.4 90.83,13.95 90.83,13.95 C90.83,13.95 87.78,4.79 87.78,4.79z "/><path id="_R_G_L_0_G_D_5_P_0" fill="#ffffff" fill-opacity="1" fill-rule="nonzero" d=" M66.8 6.03 C66.8,6.03 59.99,24.11 59.99,24.11 C59.99,24.11 70.72,20.58 70.72,20.58 C70.72,20.58 77.53,2.5 77.53,2.5 C77.53,2.5 66.8,6.03 66.8,6.03z "/></g></g><g id="time_group"/></svg>