<svg xmlns="http://www.w3.org/2000/svg" xmlns:xlink="http://www.w3.org/1999/xlink" preserveAspectRatio="xMidYMid meet" width="871" height="697" viewBox="0 0 871 697" style="width:100%;height:100%"><defs><animateMotion repeatCount="indefinite" dur="3s" begin="0s" xlink:href="#_R_G_L_40_G" fill="freeze" keyTimes="0;0.5;1" path="M191.63 577.6 C191.63,577.6 161.63,598.6 161.63,598.6 C161.63,598.6 191.63,577.6 191.63,577.6 " keyPoints="0;0.5;1" keySplines="0.333 0 0.667 1;0.333 0 0.667 1" calcMode="spline"/><animateTransform repeatCount="indefinite" dur="3s" begin="0s" xlink:href="#_R_G_L_40_G" fill="freeze" attributeName="transform" from="-43.855 -38.299" to="-43.855 -38.299" type="translate" additive="sum" keyTimes="0;1" values="-43.855 -38.299;-43.855 -38.299" keySplines="0 0 1 1" calcMode="spline"/><animateMotion repeatCount="indefinite" dur="3s" begin="0s" xlink:href="#_R_G_L_39_G" fill="freeze" keyTimes="0;0.5;1" path="M362.75 599.09 C362.75,599.09 390.75,599.09 390.75,599.09 C390.75,599.09 362.75,599.09 362.75,599.09 " keyPoints="0;0.5;1" keySplines="0.333 0 0.667 1;0.333 0 0.667 1" calcMode="spline"/><animateTransform repeatCount="indefinite" dur="3s" begin="0s" xlink:href="#_R_G_L_39_G" fill="freeze" attributeName="transform" from="-56.686 -40.022" to="-56.686 -40.022" type="translate" additive="sum" keyTimes="0;1" values="-56.686 -40.022;-56.686 -40.022" keySplines="0 0 1 1" calcMode="spline"/><animateMotion repeatCount="indefinite" dur="3s" begin="0s" xlink:href="#_R_G_L_37_G" fill="freeze" keyTimes="0;0.5;1" path="M181.94 307.19 C181.94,307.19 255.94,307.19 255.94,307.19 C255.94,307.19 181.94,307.19 181.94,307.19 " keyPoints="0;0.5;1" keySplines="0.333 0 0.667 1;0.333 0 0.667 1" calcMode="spline"/><animateTransform repeatCount="indefinite" dur="3s" begin="0s" xlink:href="#_R_G_L_37_G" fill="freeze" attributeName="transform" from="-38.676 -7.972" to="-38.676 -7.972" type="translate" additive="sum" keyTimes="0;1" values="-38.676 -7.972;-38.676 -7.972" keySplines="0 0 1 1" calcMode="spline"/><animateMotion repeatCount="indefinite" dur="3s" begin="0s" xlink:href="#_R_G_L_31_G" fill="freeze" keyTimes="0;0.5;1" path="M256.59 341.23 C256.59,341.23 181.59,341.23 181.59,341.23 C181.59,341.23 256.59,341.23 256.59,341.23 " keyPoints="0;0.5;1" keySplines="0.333 0 0.667 1;0.333 0 0.667 1" calcMode="spline"/><animateTransform repeatCount="indefinite" dur="3s" begin="0s" xlink:href="#_R_G_L_31_G" fill="freeze" attributeName="transform" from="-38.676 -7.972" to="-38.676 -7.972" type="translate" additive="sum" keyTimes="0;1" values="-38.676 -7.972;-38.676 -7.972" keySplines="0 0 1 1" calcMode="spline"/><animateMotion repeatCount="indefinite" dur="3s" begin="0s" xlink:href="#_R_G_L_29_G" fill="freeze" keyTimes="0;0.5;1" path="M179.94 373.6 C179.94,373.6 256.94,373.6 256.94,373.6 C256.94,373.6 179.94,373.6 179.94,373.6 " keyPoints="0;0.5;1" keySplines="0.333 0 0.667 1;0.333 0 0.667 1" calcMode="spline"/><animateTransform repeatCount="indefinite" dur="3s" begin="0s" xlink:href="#_R_G_L_29_G" fill="freeze" attributeName="transform" from="-38.676 -7.972" to="-38.676 -7.972" type="translate" additive="sum" keyTimes="0;1" values="-38.676 -7.972;-38.676 -7.972" keySplines="0 0 1 1" calcMode="spline"/><animateMotion repeatCount="indefinite" dur="3s" begin="0s" xlink:href="#_R_G_L_27_G" fill="freeze" keyTimes="0;0.5;1" path="M256.03 406.19 C256.03,406.19 180.03,406.19 180.03,406.19 C180.03,406.19 256.03,406.19 256.03,406.19 " keyPoints="0;0.5;1" keySplines="0.333 0 0.667 1;0.333 0 0.667 1" calcMode="spline"/><animateTransform repeatCount="indefinite" dur="3s" begin="0s" xlink:href="#_R_G_L_27_G" fill="freeze" attributeName="transform" from="-38.676 -7.972" to="-38.676 -7.972" type="translate" additive="sum" keyTimes="0;1" values="-38.676 -7.972;-38.676 -7.972" keySplines="0 0 1 1" calcMode="spline"/><animateTransform repeatCount="indefinite" dur="3s" begin="0s" xlink:href="#_R_G_L_24_G" fill="freeze" attributeName="transform" from="1 1" to="1 1" type="scale" additive="sum" keyTimes="0;0.5;1" values="1 1;1.36 1;1 1" keySplines="0.333 0 0.667 1;0.333 0 0.667 1" calcMode="spline"/><animateTransform repeatCount="indefinite" dur="3s" begin="0s" xlink:href="#_R_G_L_24_G" fill="freeze" attributeName="transform" from="-1.207 -2.638" to="-1.207 -2.638" type="translate" additive="sum" keyTimes="0;1" values="-1.207 -2.638;-1.207 -2.638" keySplines="0 0 1 1" calcMode="spline"/><animateMotion repeatCount="indefinite" dur="3s" begin="0s" xlink:href="#_R_G_L_23_G" fill="freeze" keyTimes="0;0.5;1" path="M468.62 242.7 C468.62,242.7 512.62,242.7 512.62,242.7 C512.62,242.7 468.62,242.7 468.62,242.7 " keyPoints="0;0.5;1" keySplines="0.333 0 0.667 1;0.333 0 0.667 1" calcMode="spline"/><animateTransform repeatCount="indefinite" dur="3s" begin="0s" xlink:href="#_R_G_L_23_G" fill="freeze" attributeName="transform" from="-5.731 -5.701" to="-5.731 -5.701" type="translate" additive="sum" keyTimes="0;1" values="-5.731 -5.701;-5.731 -5.701" keySplines="0 0 1 1" calcMode="spline"/><animateMotion repeatCount="indefinite" dur="3s" begin="0s" xlink:href="#_R_G_L_22_G" fill="freeze" keyTimes="0;0.5;1" path="M410.53 357.54 C410.53,357.54 452.53,357.54 452.53,357.54 C452.53,357.54 410.53,357.54 410.53,357.54 " keyPoints="0;0.5;1" keySplines="0.333 0 0.667 1;0.333 0 0.667 1" calcMode="spline"/><animateTransform repeatCount="indefinite" dur="3s" begin="0s" xlink:href="#_R_G_L_22_G" fill="freeze" attributeName="transform" from="-4.176 -88.559" to="-4.176 -88.559" type="translate" additive="sum" keyTimes="0;1" values="-4.176 -88.559;-4.176 -88.559" keySplines="0 0 1 1" calcMode="spline"/><animateMotion repeatCount="indefinite" dur="3s" begin="0s" xlink:href="#_R_G_L_21_G" fill="freeze" keyTimes="0;0.5;1" path="M573.43 158.56 C573.43,158.56 622.43,145.56 622.43,145.56 C622.43,145.56 573.43,158.56 573.43,158.56 " keyPoints="0;0.5;1" keySplines="0.333 0 0.667 1;0.333 0 0.667 1" calcMode="spline"/><animateTransform repeatCount="indefinite" dur="3s" begin="0s" xlink:href="#_R_G_L_21_G" fill="freeze" attributeName="transform" from="-70.517 -68.885" to="-70.517 -68.885" type="translate" additive="sum" keyTimes="0;1" values="-70.517 -68.885;-70.517 -68.885" keySplines="0 0 1 1" calcMode="spline"/><animateMotion repeatCount="indefinite" dur="3s" begin="0s" xlink:href="#_R_G_L_9_G" fill="freeze" keyTimes="0;0.5;1" path="M802.11 563.96 C802.11,563.96 739.11,563.96 739.11,563.96 C739.11,563.96 802.11,563.96 802.11,563.96 " keyPoints="0;0.5;1" keySplines="0.333 0 0.667 1;0.333 0 0.667 1" calcMode="spline"/><animateTransform repeatCount="indefinite" dur="3s" begin="0s" xlink:href="#_R_G_L_9_G" fill="freeze" attributeName="transform" from="-6.94 -6.94" to="-6.94 -6.94" type="translate" additive="sum" keyTimes="0;1" values="-6.94 -6.94;-6.94 -6.94" keySplines="0 0 1 1" calcMode="spline"/><animateMotion repeatCount="indefinite" dur="3s" begin="0s" xlink:href="#_R_G_L_8_G" fill="freeze" keyTimes="0;0.5;1" path="M739.42 547.13 C739.42,547.13 803.42,547.13 803.42,547.13 C803.42,547.13 739.42,547.13 739.42,547.13 " keyPoints="0;0.5;1" keySplines="0.333 0 0.667 1;0.333 0 0.667 1" calcMode="spline"/><animateTransform repeatCount="indefinite" dur="3s" begin="0s" xlink:href="#_R_G_L_8_G" fill="freeze" attributeName="transform" from="-6.94 -6.94" to="-6.94 -6.94" type="translate" additive="sum" keyTimes="0;1" values="-6.94 -6.94;-6.94 -6.94" keySplines="0 0 1 1" calcMode="spline"/><animateTransform repeatCount="indefinite" dur="3s" begin="0s" xlink:href="#_R_G_L_6_G" fill="freeze" attributeName="transform" from="1 1" to="1 1" type="scale" additive="sum" keyTimes="0;0.5;1" values="1 1;1 0.5;1 1" keySplines="0.333 0 0.667 1;0.333 0 0.667 1" calcMode="spline"/><animateTransform repeatCount="indefinite" dur="3s" begin="0s" xlink:href="#_R_G_L_6_G" fill="freeze" attributeName="transform" from="-16.928 -84.882" to="-16.928 -84.882" type="translate" additive="sum" keyTimes="0;1" values="-16.928 -84.882;-16.928 -84.882" keySplines="0 0 1 1" calcMode="spline"/><animateTransform repeatCount="indefinite" dur="3s" begin="0s" xlink:href="#_R_G_L_5_G" fill="freeze" attributeName="transform" from="1 0.5" to="1 0.5" type="scale" additive="sum" keyTimes="0;0.5;1" values="1 0.5;1 1;1 0.5" keySplines="0.333 0 0.667 1;0.333 0 0.667 1" calcMode="spline"/><animateTransform repeatCount="indefinite" dur="3s" begin="0s" xlink:href="#_R_G_L_5_G" fill="freeze" attributeName="transform" from="-17.928 -84.882" to="-17.928 -84.882" type="translate" additive="sum" keyTimes="0;1" values="-17.928 -84.882;-17.928 -84.882" keySplines="0 0 1 1" calcMode="spline"/><animateTransform repeatCount="indefinite" dur="3s" begin="0s" xlink:href="#_R_G_L_4_G" fill="freeze" attributeName="transform" from="1 1" to="1 1" type="scale" additive="sum" keyTimes="0;0.5;1" values="1 1;1 0.5;1 1" keySplines="0.333 0 0.667 1;0.333 0 0.667 1" calcMode="spline"/><animateTransform repeatCount="indefinite" dur="3s" begin="0s" xlink:href="#_R_G_L_4_G" fill="freeze" attributeName="transform" from="-18.928 -85.882" to="-18.928 -85.882" type="translate" additive="sum" keyTimes="0;1" values="-18.928 -85.882;-18.928 -85.882" keySplines="0 0 1 1" calcMode="spline"/><animate attributeType="XML" attributeName="opacity" dur="3s" from="0" to="1" xlink:href="#time_group"/></defs><g id="_R_G"><g id="_R_G_L_40_G"><path id="_R_G_L_40_G_D_0_P_0" fill="#ffffff" fill-opacity="1" fill-rule="nonzero" d=" M18.24 47.83 C14.33,51.68 7.99,51.65 4.12,47.76 C0.25,43.87 0.28,37.57 4.19,33.72 C8.11,29.87 14.44,29.9 18.31,33.79 C22.18,37.68 22.15,43.98 18.24,47.83z  M5.84 35.37 C2.84,38.32 2.81,43.15 5.78,46.13 C8.75,49.11 13.6,49.13 16.6,46.18 C19.59,43.23 19.62,38.41 16.65,35.42 C13.68,32.44 8.83,32.42 5.84,35.37z "/><path id="_R_G_L_40_G_D_1_P_0" fill="#ffffff" fill-opacity="1" fill-rule="nonzero" d=" M19.08 45.02 C19.08,45.02 82.17,49.3 82.17,49.3 C82.17,49.3 87.46,45.57 86.34,45.78 C85.21,45.98 20.12,40.93 20.12,40.93 C20.12,40.93 19.08,45.02 19.08,45.02z "/><path id="_R_G_L_40_G_D_2_P_0" fill="#ffffff" fill-opacity="1" fill-rule="nonzero" d=" M27.52 56.54 C27.52,56.54 58.93,1.64 58.93,1.64 C58.93,1.64 62.78,0.25 62.78,0.25 C62.78,0.25 41.1,40.42 41.1,40.42 C41.1,40.42 43.88,42.75 43.88,42.75 C43.88,42.75 40.54,49.87 40.54,49.87 C39.69,51.42 37.83,52.11 36.17,51.51 C36.17,51.51 31.97,58.51 31.97,58.51 C31.97,58.51 27.52,56.54 27.52,56.54z "/><path id="_R_G_L_40_G_D_3_P_0" fill="#444343" fill-opacity="1" fill-rule="nonzero" d=" M39.42 43.8 C40.08,44.46 40.08,45.54 39.41,46.2 C38.74,46.86 37.65,46.85 36.99,46.19 C36.33,45.52 36.33,44.44 37,43.78 C37.67,43.12 38.76,43.13 39.42,43.8z "/><path id="_R_G_L_40_G_D_4_P_0" fill="#ffffff" fill-opacity="1" fill-rule="nonzero" d=" M33.95 71.6 C30.42,75.8 24.11,76.35 19.89,72.83 C15.68,69.32 15.12,63.05 18.66,58.85 C22.19,54.66 28.5,54.1 32.72,57.62 C36.93,61.13 37.49,67.41 33.95,71.6z  M20.44 60.34 C17.74,63.56 18.16,68.36 21.39,71.05 C24.63,73.75 29.46,73.33 32.17,70.11 C34.87,66.9 34.45,62.09 31.22,59.4 C27.99,56.7 23.15,57.13 20.44,60.34z "/></g><g id="_R_G_L_39_G"><path id="_R_G_L_39_G_D_0_P_0" stroke="#ffffff" stroke-linecap="round" stroke-linejoin="round" fill="none" stroke-width="1.804" stroke-opacity="1" d=" M98.81 69.45 C98.81,69.45 14.57,69.45 14.57,69.45 C9.01,69.45 4.51,64.97 4.51,59.45 C4.51,59.45 4.51,14.51 4.51,14.51 C4.51,8.99 9.01,4.51 14.57,4.51 C14.57,4.51 98.81,4.51 98.81,4.51 C104.36,4.51 108.86,8.99 108.86,14.51 C108.86,14.51 108.86,59.45 108.86,59.45 C108.86,64.97 104.36,69.45 98.81,69.45z "/><path id="_R_G_L_39_G_D_1_P_0" fill="#36a9df" fill-opacity="1" fill-rule="nonzero" d=" M50.51 48.81 C50.51,48.81 50.51,26.81 50.51,26.81 C50.51,26.81 70.74,37.8 70.74,37.8 C70.74,37.8 50.51,48.81 50.51,48.81z "/><path id="_R_G_L_39_G_D_2_P_0" fill="#ffffff" fill-opacity="1" fill-rule="nonzero" d=" M107.26 78.08 C107.26,78.08 6.11,78.08 6.11,78.08 C5.23,78.08 4.51,77.37 4.51,76.49 C4.51,75.61 5.23,74.9 6.11,74.9 C6.11,74.9 107.26,74.9 107.26,74.9 C108.15,74.9 108.86,75.61 108.86,76.49 C108.86,77.37 108.15,78.08 107.26,78.08z "/><path id="_R_G_L_39_G_D_3_P_0" fill="#34ad67" fill-opacity="1" fill-rule="nonzero" d=" M58.33 75.42 C58.33,77.83 56.36,79.8 53.93,79.8 C51.5,79.8 49.54,77.83 49.54,75.42 C49.54,73 51.5,71.05 53.93,71.05 C56.36,71.05 58.33,73 58.33,75.42z "/></g><g id="_R_G_L_38_G" transform=" translate(219.425, 307.19) translate(-80.488, -7.972)"><path id="_R_G_L_38_G_D_0_P_0" fill="#ffffff" fill-opacity="1" fill-rule="nonzero" d=" M157.91 1.25 C158.91,1.25 159.73,2.06 159.73,3.06 C159.73,3.06 159.73,12.88 159.73,12.88 C159.73,13.88 158.91,14.69 157.91,14.69 C157.91,14.69 3.06,14.69 3.06,14.69 C2.06,14.69 1.25,13.88 1.25,12.88 C1.25,12.88 1.25,3.06 1.25,3.06 C1.25,2.06 2.06,1.25 3.06,1.25 C3.06,1.25 157.91,1.25 157.91,1.25z  M157.91 0.25 C157.91,0.25 3.06,0.25 3.06,0.25 C1.52,0.25 0.25,1.52 0.25,3.06 C0.25,3.06 0.25,12.88 0.25,12.88 C0.25,14.43 1.52,15.69 3.06,15.69 C3.06,15.69 157.91,15.69 157.91,15.69 C159.46,15.69 160.73,14.43 160.73,12.88 C160.73,12.88 160.73,3.06 160.73,3.06 C160.73,1.52 159.46,0.25 157.91,0.25z "/></g><g id="_R_G_L_37_G"><path id="_R_G_L_37_G_D_0_P_0" fill="#36a9df" fill-opacity="1" fill-rule="nonzero" d=" M69.38 15.69 C69.38,15.69 7.97,15.69 7.97,15.69 C3.73,15.69 0.25,12.22 0.25,7.97 C0.25,3.73 3.73,0.25 7.97,0.25 C7.97,0.25 69.38,0.25 69.38,0.25 C73.63,0.25 77.1,3.73 77.1,7.97 C77.1,12.22 73.63,15.69 69.38,15.69z "/></g><g id="_R_G_L_36_G" transform=" translate(94.389, 307.191) translate(-19.593, -10.222)"><path id="_R_G_L_36_G_D_0_P_0" stroke="#ffffff" stroke-linecap="round" stroke-linejoin="round" fill="none" stroke-width="1" stroke-opacity="1" d=" M33.87 17.94 C33.87,17.94 5.31,17.94 5.31,17.94 C3.76,17.94 2.5,16.68 2.5,15.13 C2.5,15.13 2.5,5.31 2.5,5.31 C2.5,3.76 3.76,2.5 5.31,2.5 C5.31,2.5 33.87,2.5 33.87,2.5 C35.42,2.5 36.69,3.76 36.69,5.31 C36.69,5.31 36.69,15.13 36.69,15.13 C36.69,16.68 35.42,17.94 33.87,17.94z "/></g><g id="_R_G_L_35_G" transform=" translate(94.389, 373.598) translate(-19.593, -10.222)"><path id="_R_G_L_35_G_D_0_P_0" stroke="#ffffff" stroke-linecap="round" stroke-linejoin="round" fill="none" stroke-width="1" stroke-opacity="1" d=" M33.87 17.94 C33.87,17.94 5.31,17.94 5.31,17.94 C3.76,17.94 2.5,16.68 2.5,15.13 C2.5,15.13 2.5,5.31 2.5,5.31 C2.5,3.76 3.76,2.5 5.31,2.5 C5.31,2.5 33.87,2.5 33.87,2.5 C35.42,2.5 36.69,3.76 36.69,5.31 C36.69,5.31 36.69,15.13 36.69,15.13 C36.69,16.68 35.42,17.94 33.87,17.94z "/></g><g id="_R_G_L_34_G" transform=" translate(94.389, 405.966) translate(-19.593, -10.222)"><path id="_R_G_L_34_G_D_0_P_0" stroke="#ffffff" stroke-linecap="round" stroke-linejoin="round" fill="none" stroke-width="1" stroke-opacity="1" d=" M33.87 17.94 C33.87,17.94 5.31,17.94 5.31,17.94 C3.76,17.94 2.5,16.68 2.5,15.13 C2.5,15.13 2.5,5.31 2.5,5.31 C2.5,3.76 3.76,2.5 5.31,2.5 C5.31,2.5 33.87,2.5 33.87,2.5 C35.42,2.5 36.69,3.76 36.69,5.31 C36.69,5.31 36.69,15.13 36.69,15.13 C36.69,16.68 35.42,17.94 33.87,17.94z "/></g><g id="_R_G_L_33_G" transform=" translate(94.389, 341.229) translate(-19.593, -10.222)"><path id="_R_G_L_33_G_D_0_P_0" stroke="#ffffff" stroke-linecap="round" stroke-linejoin="round" fill="none" stroke-width="1" stroke-opacity="1" d=" M33.87 17.94 C33.87,17.94 5.31,17.94 5.31,17.94 C3.76,17.94 2.5,16.68 2.5,15.13 C2.5,15.13 2.5,5.31 2.5,5.31 C2.5,3.76 3.76,2.5 5.31,2.5 C5.31,2.5 33.87,2.5 33.87,2.5 C35.42,2.5 36.69,3.76 36.69,5.31 C36.69,5.31 36.69,15.13 36.69,15.13 C36.69,16.68 35.42,17.94 33.87,17.94z "/></g><g id="_R_G_L_32_G" transform=" translate(219.425, 341.229) translate(-80.488, -7.972)"><path id="_R_G_L_32_G_D_0_P_0" fill="#ffffff" fill-opacity="1" fill-rule="nonzero" d=" M157.91 1.25 C158.91,1.25 159.73,2.06 159.73,3.06 C159.73,3.06 159.73,12.88 159.73,12.88 C159.73,13.88 158.91,14.69 157.91,14.69 C157.91,14.69 3.06,14.69 3.06,14.69 C2.06,14.69 1.25,13.88 1.25,12.88 C1.25,12.88 1.25,3.06 1.25,3.06 C1.25,2.06 2.06,1.25 3.06,1.25 C3.06,1.25 157.91,1.25 157.91,1.25z  M157.91 0.25 C157.91,0.25 3.06,0.25 3.06,0.25 C1.52,0.25 0.25,1.52 0.25,3.06 C0.25,3.06 0.25,12.88 0.25,12.88 C0.25,14.43 1.52,15.69 3.06,15.69 C3.06,15.69 157.91,15.69 157.91,15.69 C159.46,15.69 160.73,14.43 160.73,12.88 C160.73,12.88 160.73,3.06 160.73,3.06 C160.73,1.52 159.46,0.25 157.91,0.25z "/></g><g id="_R_G_L_31_G"><path id="_R_G_L_31_G_D_0_P_0" fill="#36a9df" fill-opacity="1" fill-rule="nonzero" d=" M69.34 15.69 C69.34,15.69 8.01,15.69 8.01,15.69 C3.74,15.69 0.25,12.22 0.25,7.97 C0.25,3.73 3.74,0.25 8.01,0.25 C8.01,0.25 69.34,0.25 69.34,0.25 C73.61,0.25 77.1,3.73 77.1,7.97 C77.1,12.22 73.61,15.69 69.34,15.69z "/></g><g id="_R_G_L_30_G" transform=" translate(219.425, 373.597) translate(-80.488, -7.972)"><path id="_R_G_L_30_G_D_0_P_0" fill="#ffffff" fill-opacity="1" fill-rule="nonzero" d=" M157.91 1.25 C158.91,1.25 159.73,2.06 159.73,3.06 C159.73,3.06 159.73,12.88 159.73,12.88 C159.73,13.88 158.91,14.69 157.91,14.69 C157.91,14.69 3.06,14.69 3.06,14.69 C2.06,14.69 1.25,13.88 1.25,12.88 C1.25,12.88 1.25,3.06 1.25,3.06 C1.25,2.06 2.06,1.25 3.06,1.25 C3.06,1.25 157.91,1.25 157.91,1.25z  M157.91 0.25 C157.91,0.25 3.06,0.25 3.06,0.25 C1.52,0.25 0.25,1.52 0.25,3.06 C0.25,3.06 0.25,12.88 0.25,12.88 C0.25,14.43 1.52,15.69 3.06,15.69 C3.06,15.69 157.91,15.69 157.91,15.69 C159.46,15.69 160.73,14.43 160.73,12.88 C160.73,12.88 160.73,3.06 160.73,3.06 C160.73,1.52 159.46,0.25 157.91,0.25z "/></g><g id="_R_G_L_29_G"><path id="_R_G_L_29_G_D_0_P_0" fill="#36a9df" fill-opacity="1" fill-rule="nonzero" d=" M69.34 15.69 C69.34,15.69 8.01,15.69 8.01,15.69 C3.74,15.69 0.25,12.22 0.25,7.97 C0.25,3.73 3.74,0.25 8.01,0.25 C8.01,0.25 69.34,0.25 69.34,0.25 C73.61,0.25 77.1,3.73 77.1,7.97 C77.1,12.22 73.61,15.69 69.34,15.69z "/></g><g id="_R_G_L_28_G" transform=" translate(219.425, 406.194) translate(-80.488, -7.972)"><path id="_R_G_L_28_G_D_0_P_0" fill="#ffffff" fill-opacity="1" fill-rule="nonzero" d=" M157.91 1.25 C158.91,1.25 159.73,2.06 159.73,3.06 C159.73,3.06 159.73,12.88 159.73,12.88 C159.73,13.88 158.91,14.69 157.91,14.69 C157.91,14.69 3.06,14.69 3.06,14.69 C2.06,14.69 1.25,13.88 1.25,12.88 C1.25,12.88 1.25,3.06 1.25,3.06 C1.25,2.06 2.06,1.25 3.06,1.25 C3.06,1.25 157.91,1.25 157.91,1.25z  M157.91 0.25 C157.91,0.25 3.06,0.25 3.06,0.25 C1.52,0.25 0.25,1.52 0.25,3.06 C0.25,3.06 0.25,12.88 0.25,12.88 C0.25,14.43 1.52,15.69 3.06,15.69 C3.06,15.69 157.91,15.69 157.91,15.69 C159.46,15.69 160.73,14.43 160.73,12.88 C160.73,12.88 160.73,3.06 160.73,3.06 C160.73,1.52 159.46,0.25 157.91,0.25z "/></g><g id="_R_G_L_27_G"><path id="_R_G_L_27_G_D_0_P_0" fill="#36a9df" fill-opacity="1" fill-rule="nonzero" d=" M74.29 15.69 C74.29,15.69 3.06,15.69 3.06,15.69 C1.52,15.69 0.25,14.43 0.25,12.88 C0.25,12.88 0.25,3.06 0.25,3.06 C0.25,1.52 1.52,0.25 3.06,0.25 C3.06,0.25 74.29,0.25 74.29,0.25 C75.84,0.25 77.1,1.52 77.1,3.06 C77.1,3.06 77.1,12.88 77.1,12.88 C77.1,14.43 75.84,15.69 74.29,15.69z "/></g><g id="_R_G_L_26_G" transform=" translate(436.982, 255.208) translate(-390.341, -202.492)"><path id="_R_G_L_26_G_D_0_P_0" stroke="#ffffff" stroke-linecap="round" stroke-linejoin="round" fill="none" stroke-width="2" stroke-opacity="1" d=" M761.49 399.98 C761.49,399.98 19.19,399.98 19.19,399.98 C11.35,399.98 5,393.63 5,385.79 C5,385.79 5,19.19 5,19.19 C5,11.35 11.35,5 19.19,5 C19.19,5 761.49,5 761.49,5 C769.33,5 775.68,11.35 775.68,19.19 C775.68,19.19 775.68,385.79 775.68,385.79 C775.68,393.63 769.33,399.98 761.49,399.98z "/><path id="_R_G_L_26_G_D_1_P_0" stroke="#ffffff" stroke-linecap="round" stroke-linejoin="round" fill="none" stroke-width="2" stroke-opacity="1" d=" M266.39 209.67 C266.39,209.67 30.47,209.67 30.47,209.67 C23.61,209.67 18.06,204.11 18.06,197.25 C18.06,197.25 18.06,29.44 18.06,29.44 C18.06,22.58 23.61,17.03 30.47,17.03 C30.47,17.03 266.39,17.03 266.39,17.03 C273.25,17.03 278.81,22.58 278.81,29.44 C278.81,29.44 278.81,197.25 278.81,197.25 C278.81,204.11 273.25,209.67 266.39,209.67z "/><path id="_R_G_L_26_G_D_2_P_0" fill="#ffffff" fill-opacity="1" fill-rule="nonzero" d=" M753.45 209.67 C753.45,209.67 303.3,209.67 303.3,209.67 C297.88,209.67 293.48,205.27 293.48,199.85 C293.48,199.85 293.48,26.84 293.48,26.84 C293.48,21.42 297.88,17.03 303.3,17.03 C303.3,17.03 753.45,17.03 753.45,17.03 C758.87,17.03 763.27,21.42 763.27,26.84 C763.27,26.84 763.27,199.85 763.27,199.85 C763.27,205.27 758.87,209.67 753.45,209.67z "/><path id="_R_G_L_26_G_D_3_P_0" stroke="#ffffff" stroke-linecap="round" stroke-linejoin="round" fill="none" stroke-width="2" stroke-opacity="1" d=" M267.64 381.4 C267.64,381.4 29.22,381.4 29.22,381.4 C23.06,381.4 18.06,376.41 18.06,370.24 C18.06,370.24 18.06,236.73 18.06,236.73 C18.06,230.56 23.06,225.56 29.22,225.56 C29.22,225.56 267.64,225.56 267.64,225.56 C273.81,225.56 278.81,230.56 278.81,236.73 C278.81,236.73 278.81,370.24 278.81,370.24 C278.81,376.41 273.81,381.4 267.64,381.4z "/><path id="_R_G_L_26_G_D_4_P_0" fill="#36a9df" fill-opacity="1" fill-rule="nonzero" d=" M756.2 264.41 C756.2,264.41 300.56,264.41 300.56,264.41 C296.65,264.41 293.48,261.24 293.48,257.33 C293.48,257.33 293.48,232.63 293.48,232.63 C293.48,228.73 296.65,225.56 300.56,225.56 C300.56,225.56 756.2,225.56 756.2,225.56 C760.1,225.56 763.27,228.73 763.27,232.63 C763.27,232.63 763.27,257.33 763.27,257.33 C763.27,261.24 760.1,264.41 756.2,264.41z "/><path id="_R_G_L_26_G_D_5_P_0" fill="#34ad67" fill-opacity="1" fill-rule="nonzero" d=" M756.2 324.51 C756.2,324.51 300.56,324.51 300.56,324.51 C296.65,324.51 293.48,321.34 293.48,317.43 C293.48,317.43 293.48,292.73 293.48,292.73 C293.48,288.83 296.65,285.66 300.56,285.66 C300.56,285.66 756.2,285.66 756.2,285.66 C760.1,285.66 763.27,288.83 763.27,292.73 C763.27,292.73 763.27,317.43 763.27,317.43 C763.27,321.34 760.1,324.51 756.2,324.51z "/><path id="_R_G_L_26_G_D_6_P_0" stroke="#ffffff" stroke-linecap="round" stroke-linejoin="round" fill="none" stroke-width="2" stroke-opacity="1" d=" M756.2 384.6 C756.2,384.6 300.56,384.6 300.56,384.6 C296.65,384.6 293.48,381.44 293.48,377.53 C293.48,377.53 293.48,352.83 293.48,352.83 C293.48,348.92 296.65,345.76 300.56,345.76 C300.56,345.76 756.2,345.76 756.2,345.76 C760.1,345.76 763.27,348.92 763.27,352.83 C763.27,352.83 763.27,377.53 763.27,377.53 C763.27,381.44 760.1,384.6 756.2,384.6z "/><path id="_R_G_L_26_G_D_7_P_0" fill="#ffffff" fill-opacity="1" fill-rule="nonzero" d=" M763.27 301.2 C763.27,301.2 293.49,301.2 293.49,301.2 C293.49,301.2 293.49,299.94 293.49,299.94 C293.49,299.94 763.27,299.94 763.27,299.94 C763.27,299.94 763.27,301.2 763.27,301.2z "/><path id="_R_G_L_26_G_D_8_P_0" fill="#ffffff" fill-opacity="1" fill-rule="nonzero" d=" M763.27 309.58 C763.27,309.58 293.49,309.58 293.49,309.58 C293.49,309.58 293.49,308.33 293.49,308.33 C293.49,308.33 763.27,308.33 763.27,308.33 C763.27,308.33 763.27,309.58 763.27,309.58z "/><path id="_R_G_L_26_G_D_9_P_0" fill="#ffffff" fill-opacity="1" fill-rule="nonzero" d=" M763.27 365.8 C763.27,365.8 293.49,365.8 293.49,365.8 C293.49,365.8 293.49,364.55 293.49,364.55 C293.49,364.55 763.27,364.55 763.27,364.55 C763.27,364.55 763.27,365.8 763.27,365.8z "/><path id="_R_G_L_26_G_D_10_P_0" fill="#ffffff" fill-opacity="1" fill-rule="nonzero" d=" M763.27 245.61 C763.27,245.61 293.49,245.61 293.49,245.61 C293.49,245.61 293.49,244.36 293.49,244.36 C293.49,244.36 763.27,244.36 763.27,244.36 C763.27,244.36 763.27,245.61 763.27,245.61z "/><path id="_R_G_L_26_G_D_11_P_0" stroke="#ffffff" stroke-linecap="round" stroke-linejoin="round" fill="none" stroke-width="1" stroke-opacity="1" d=" M64.38 64.74 C64.38,64.74 64.38,64.74 64.38,64.74 C64.38,64.22 63.95,63.8 63.43,63.8 C63.43,63.8 57.97,63.8 57.97,63.8 C57.45,63.8 57.03,64.22 57.03,64.74 C57.03,64.74 57.03,65.68 57.03,65.68 C57.03,65.68 57.03,67.77 57.03,67.77 C57.03,67.77 57.03,77.48 57.03,77.48 C57.03,78 57.45,78.42 57.97,78.42 C57.97,78.42 75.15,78.42 75.15,78.42 C75.67,78.42 76.1,78 76.1,77.48 C76.1,77.48 76.1,66.62 76.1,66.62 C76.1,66.1 75.67,65.68 75.15,65.68 C75.15,65.68 65.32,65.68 65.32,65.68 C64.8,65.68 64.38,65.26 64.38,64.74z "/><path id="_R_G_L_26_G_D_12_P_0" fill="#ffffff" fill-opacity="1" fill-rule="nonzero" d=" M61.8 51.26 C61.8,51.26 67.88,51.26 67.88,51.26 C68.88,51.26 69.44,52.4 68.82,53.18 C68.82,53.18 65.78,57.04 65.78,57.04 C65.3,57.64 64.38,57.64 63.9,57.04 C63.9,57.04 60.86,53.18 60.86,53.18 C60.24,52.4 60.8,51.26 61.8,51.26z "/><path id="_R_G_L_26_G_D_13_P_0" stroke="#ffffff" stroke-linecap="round" stroke-linejoin="round" fill="none" stroke-width="1" stroke-opacity="1" d=" M64.38 128.43 C64.38,128.43 64.38,128.43 64.38,128.43 C64.38,127.91 63.95,127.49 63.43,127.49 C63.43,127.49 57.97,127.49 57.97,127.49 C57.45,127.49 57.03,127.91 57.03,128.43 C57.03,128.43 57.03,129.37 57.03,129.37 C57.03,129.37 57.03,131.45 57.03,131.45 C57.03,131.45 57.03,141.17 57.03,141.17 C57.03,141.68 57.45,142.1 57.97,142.1 C57.97,142.1 75.15,142.1 75.15,142.1 C75.67,142.1 76.1,141.68 76.1,141.17 C76.1,141.17 76.1,130.31 76.1,130.31 C76.1,129.79 75.67,129.37 75.15,129.37 C75.15,129.37 65.32,129.37 65.32,129.37 C64.8,129.37 64.38,128.95 64.38,128.43z "/><path id="_R_G_L_26_G_D_14_P_0" fill="#ffffff" fill-opacity="1" fill-rule="nonzero" d=" M61.8 114.94 C61.8,114.94 67.88,114.94 67.88,114.94 C68.88,114.94 69.44,116.08 68.82,116.86 C68.82,116.86 65.78,120.72 65.78,120.72 C65.3,121.33 64.38,121.33 63.9,120.72 C63.9,120.72 60.86,116.86 60.86,116.86 C60.24,116.08 60.8,114.94 61.8,114.94z "/><path id="_R_G_L_26_G_D_15_P_0" stroke="#ffffff" stroke-linecap="round" stroke-linejoin="round" fill="none" stroke-width="1" stroke-opacity="1" d=" M64.38 179.51 C64.38,179.51 64.38,179.51 64.38,179.51 C64.38,178.99 63.95,178.57 63.43,178.57 C63.43,178.57 57.97,178.57 57.97,178.57 C57.45,178.57 57.03,178.99 57.03,179.51 C57.03,179.51 57.03,180.45 57.03,180.45 C57.03,180.45 57.03,182.54 57.03,182.54 C57.03,182.54 57.03,192.25 57.03,192.25 C57.03,192.77 57.45,193.19 57.97,193.19 C57.97,193.19 75.15,193.19 75.15,193.19 C75.67,193.19 76.1,192.77 76.1,192.25 C76.1,192.25 76.1,181.39 76.1,181.39 C76.1,180.87 75.67,180.45 75.15,180.45 C75.15,180.45 65.32,180.45 65.32,180.45 C64.8,180.45 64.38,180.03 64.38,179.51z "/><path id="_R_G_L_26_G_D_16_P_0" fill="#ffffff" fill-opacity="1" fill-rule="nonzero" d=" M61.8 166.02 C61.8,166.02 67.88,166.02 67.88,166.02 C68.88,166.02 69.44,167.17 68.82,167.95 C68.82,167.95 65.78,171.8 65.78,171.8 C65.3,172.41 64.38,172.41 63.9,171.8 C63.9,171.8 60.86,167.95 60.86,167.95 C60.24,167.17 60.8,166.02 61.8,166.02z "/><path id="_R_G_L_26_G_D_17_P_0" stroke="#ffffff" stroke-linecap="round" stroke-linejoin="round" fill="none" stroke-width="1" stroke-opacity="1" d=" M101.88 76.59 C101.88,76.59 94.24,76.59 94.24,76.59 C93.3,76.59 92.55,75.84 92.55,74.9 C92.55,74.9 92.55,67.32 92.55,67.32 C92.55,66.39 93.3,65.63 94.24,65.63 C94.24,65.63 101.88,65.63 101.88,65.63 C102.81,65.63 103.57,66.39 103.57,67.32 C103.57,67.32 103.57,74.9 103.57,74.9 C103.57,75.84 102.81,76.59 101.88,76.59z "/><path id="_R_G_L_26_G_D_18_P_0" fill="#ffffff" fill-opacity="1" fill-rule="nonzero" d=" M139.33 67.51 C139.33,67.51 108.68,67.51 108.68,67.51 C108.55,67.51 108.45,67.41 108.45,67.28 C108.45,67.28 108.45,66.48 108.45,66.48 C108.45,66.36 108.55,66.26 108.68,66.26 C108.68,66.26 139.33,66.26 139.33,66.26 C139.45,66.26 139.55,66.36 139.55,66.48 C139.55,66.48 139.55,67.28 139.55,67.28 C139.55,67.41 139.45,67.51 139.33,67.51z "/><path id="_R_G_L_26_G_D_19_P_0" fill="#ffffff" fill-opacity="1" fill-rule="nonzero" d=" M139.88 75.97 C139.88,75.97 109.23,75.97 109.23,75.97 C109.11,75.97 109,75.86 109,75.74 C109,75.74 109,74.94 109,74.94 C109,74.82 109.11,74.71 109.23,74.71 C109.23,74.71 139.88,74.71 139.88,74.71 C140,74.71 140.1,74.82 140.1,74.94 C140.1,74.94 140.1,75.74 140.1,75.74 C140.1,75.86 140,75.97 139.88,75.97z "/><path id="_R_G_L_26_G_D_20_P_0" fill="#ffffff" fill-opacity="1" fill-rule="nonzero" d=" M153.18 71.74 C153.18,71.74 109.08,71.74 109.08,71.74 C108.73,71.74 108.45,71.46 108.45,71.11 C108.45,70.77 108.73,70.49 109.08,70.49 C109.08,70.49 153.18,70.49 153.18,70.49 C153.52,70.49 153.81,70.77 153.81,71.11 C153.81,71.46 153.52,71.74 153.18,71.74z "/><path id="_R_G_L_26_G_D_21_P_0" fill="#ffffff" fill-opacity="1" fill-rule="nonzero" d=" M101.88 82.71 C102.26,82.71 102.57,83.02 102.57,83.4 C102.57,83.4 102.57,90.98 102.57,90.98 C102.57,91.36 102.26,91.67 101.88,91.67 C101.88,91.67 94.24,91.67 94.24,91.67 C93.86,91.67 93.55,91.36 93.55,90.98 C93.55,90.98 93.55,83.4 93.55,83.4 C93.55,83.02 93.86,82.71 94.24,82.71 C94.24,82.71 101.88,82.71 101.88,82.71z  M101.88 81.71 C101.88,81.71 94.24,81.71 94.24,81.71 C93.3,81.71 92.55,82.47 92.55,83.4 C92.55,83.4 92.55,90.98 92.55,90.98 C92.55,91.92 93.3,92.67 94.24,92.67 C94.24,92.67 101.88,92.67 101.88,92.67 C102.81,92.67 103.57,91.92 103.57,90.98 C103.57,90.98 103.57,83.4 103.57,83.4 C103.57,82.47 102.81,81.71 101.88,81.71z "/><path id="_R_G_L_26_G_D_22_P_0" fill="#ffffff" fill-opacity="1" fill-rule="nonzero" d=" M139.33 83.59 C139.33,83.59 108.68,83.59 108.68,83.59 C108.55,83.59 108.45,83.49 108.45,83.36 C108.45,83.36 108.45,82.56 108.45,82.56 C108.45,82.44 108.55,82.34 108.68,82.34 C108.68,82.34 139.33,82.34 139.33,82.34 C139.45,82.34 139.55,82.44 139.55,82.56 C139.55,82.56 139.55,83.36 139.55,83.36 C139.55,83.49 139.45,83.59 139.33,83.59z "/><path id="_R_G_L_26_G_D_23_P_0" fill="#ffffff" fill-opacity="1" fill-rule="nonzero" d=" M139.88 92.05 C139.88,92.05 109.23,92.05 109.23,92.05 C109.11,92.05 109,91.94 109,91.82 C109,91.82 109,91.02 109,91.02 C109,90.9 109.11,90.79 109.23,90.79 C109.23,90.79 139.88,90.79 139.88,90.79 C140,90.79 140.1,90.9 140.1,91.02 C140.1,91.02 140.1,91.82 140.1,91.82 C140.1,91.94 140,92.05 139.88,92.05z "/><path id="_R_G_L_26_G_D_24_P_0" fill="#ffffff" fill-opacity="1" fill-rule="nonzero" d=" M153.58 87.82 C153.58,87.82 108.68,87.82 108.68,87.82 C108.55,87.82 108.45,87.71 108.45,87.59 C108.45,87.59 108.45,86.79 108.45,86.79 C108.45,86.67 108.55,86.57 108.68,86.57 C108.68,86.57 153.58,86.57 153.58,86.57 C153.7,86.57 153.81,86.67 153.81,86.79 C153.81,86.79 153.81,87.59 153.81,87.59 C153.81,87.71 153.7,87.82 153.58,87.82z "/><path id="_R_G_L_26_G_D_25_P_0" fill="#ffffff" fill-opacity="1" fill-rule="nonzero" d=" M101.88 130.31 C102.26,130.31 102.57,130.63 102.57,131.01 C102.57,131.01 102.57,138.58 102.57,138.58 C102.57,138.97 102.26,139.28 101.88,139.28 C101.88,139.28 94.24,139.28 94.24,139.28 C93.86,139.28 93.55,138.97 93.55,138.58 C93.55,138.58 93.55,131.01 93.55,131.01 C93.55,130.63 93.86,130.31 94.24,130.31 C94.24,130.31 101.88,130.31 101.88,130.31z  M101.88 129.31 C101.88,129.31 94.24,129.31 94.24,129.31 C93.3,129.31 92.55,130.07 92.55,131.01 C92.55,131.01 92.55,138.58 92.55,138.58 C92.55,139.52 93.3,140.28 94.24,140.28 C94.24,140.28 101.88,140.28 101.88,140.28 C102.81,140.28 103.57,139.52 103.57,138.58 C103.57,138.58 103.57,131.01 103.57,131.01 C103.57,130.07 102.81,129.31 101.88,129.31z "/><path id="_R_G_L_26_G_D_26_P_0" fill="#ffffff" fill-opacity="1" fill-rule="nonzero" d=" M139.33 131.19 C139.33,131.19 108.68,131.19 108.68,131.19 C108.55,131.19 108.45,131.09 108.45,130.97 C108.45,130.97 108.45,130.17 108.45,130.17 C108.45,130.04 108.55,129.94 108.68,129.94 C108.68,129.94 139.33,129.94 139.33,129.94 C139.45,129.94 139.55,130.04 139.55,130.17 C139.55,130.17 139.55,130.97 139.55,130.97 C139.55,131.09 139.45,131.19 139.33,131.19z "/><path id="_R_G_L_26_G_D_27_P_0" fill="#ffffff" fill-opacity="1" fill-rule="nonzero" d=" M139.88 139.65 C139.88,139.65 109.23,139.65 109.23,139.65 C109.11,139.65 109,139.55 109,139.42 C109,139.42 109,138.63 109,138.63 C109,138.5 109.11,138.4 109.23,138.4 C109.23,138.4 139.88,138.4 139.88,138.4 C140,138.4 140.1,138.5 140.1,138.63 C140.1,138.63 140.1,139.42 140.1,139.42 C140.1,139.55 140,139.65 139.88,139.65z "/><path id="_R_G_L_26_G_D_28_P_0" fill="#ffffff" fill-opacity="1" fill-rule="nonzero" d=" M153.18 135.42 C153.18,135.42 109.08,135.42 109.08,135.42 C108.73,135.42 108.45,135.14 108.45,134.8 C108.45,134.45 108.73,134.17 109.08,134.17 C109.08,134.17 153.18,134.17 153.18,134.17 C153.52,134.17 153.81,134.45 153.81,134.8 C153.81,135.14 153.52,135.42 153.18,135.42z "/><path id="_R_G_L_26_G_D_29_P_0" fill="#ffffff" fill-opacity="1" fill-rule="nonzero" d=" M101.88 151.57 C102.26,151.57 102.57,151.88 102.57,152.26 C102.57,152.26 102.57,159.84 102.57,159.84 C102.57,160.22 102.26,160.53 101.88,160.53 C101.88,160.53 94.24,160.53 94.24,160.53 C93.86,160.53 93.55,160.22 93.55,159.84 C93.55,159.84 93.55,152.26 93.55,152.26 C93.55,151.88 93.86,151.57 94.24,151.57 C94.24,151.57 101.88,151.57 101.88,151.57z  M101.88 150.57 C101.88,150.57 94.24,150.57 94.24,150.57 C93.3,150.57 92.55,151.32 92.55,152.26 C92.55,152.26 92.55,159.84 92.55,159.84 C92.55,160.77 93.3,161.53 94.24,161.53 C94.24,161.53 101.88,161.53 101.88,161.53 C102.81,161.53 103.57,160.77 103.57,159.84 C103.57,159.84 103.57,152.26 103.57,152.26 C103.57,151.32 102.81,150.57 101.88,150.57z "/><path id="_R_G_L_26_G_D_30_P_0" fill="#ffffff" fill-opacity="1" fill-rule="nonzero" d=" M139.33 152.45 C139.33,152.45 108.68,152.45 108.68,152.45 C108.55,152.45 108.45,152.34 108.45,152.22 C108.45,152.22 108.45,151.42 108.45,151.42 C108.45,151.29 108.55,151.19 108.68,151.19 C108.68,151.19 139.33,151.19 139.33,151.19 C139.45,151.19 139.55,151.29 139.55,151.42 C139.55,151.42 139.55,152.22 139.55,152.22 C139.55,152.34 139.45,152.45 139.33,152.45z "/><path id="_R_G_L_26_G_D_31_P_0" fill="#ffffff" fill-opacity="1" fill-rule="nonzero" d=" M139.88 160.9 C139.88,160.9 109.23,160.9 109.23,160.9 C109.11,160.9 109,160.8 109,160.67 C109,160.67 109,159.88 109,159.88 C109,159.75 109.11,159.65 109.23,159.65 C109.23,159.65 139.88,159.65 139.88,159.65 C140,159.65 140.1,159.75 140.1,159.88 C140.1,159.88 140.1,160.67 140.1,160.67 C140.1,160.8 140,160.9 139.88,160.9z "/><path id="_R_G_L_26_G_D_32_P_0" fill="#ffffff" fill-opacity="1" fill-rule="nonzero" d=" M153.18 156.67 C153.18,156.67 109.08,156.67 109.08,156.67 C108.73,156.67 108.45,156.39 108.45,156.05 C108.45,155.7 108.73,155.42 109.08,155.42 C109.08,155.42 153.18,155.42 153.18,155.42 C153.52,155.42 153.81,155.7 153.81,156.05 C153.81,156.39 153.52,156.67 153.18,156.67z "/><path id="_R_G_L_26_G_D_33_P_0" fill="#ffffff" fill-opacity="1" fill-rule="nonzero" d=" M101.88 172.82 C102.26,172.82 102.57,173.13 102.57,173.51 C102.57,173.51 102.57,181.09 102.57,181.09 C102.57,181.47 102.26,181.78 101.88,181.78 C101.88,181.78 94.24,181.78 94.24,181.78 C93.86,181.78 93.55,181.47 93.55,181.09 C93.55,181.09 93.55,173.51 93.55,173.51 C93.55,173.13 93.86,172.82 94.24,172.82 C94.24,172.82 101.88,172.82 101.88,172.82z  M101.88 171.82 C101.88,171.82 94.24,171.82 94.24,171.82 C93.3,171.82 92.55,172.58 92.55,173.51 C92.55,173.51 92.55,181.09 92.55,181.09 C92.55,182.02 93.3,182.78 94.24,182.78 C94.24,182.78 101.88,182.78 101.88,182.78 C102.81,182.78 103.57,182.02 103.57,181.09 C103.57,181.09 103.57,173.51 103.57,173.51 C103.57,172.58 102.81,171.82 101.88,171.82z "/><path id="_R_G_L_26_G_D_34_P_0" fill="#ffffff" fill-opacity="1" fill-rule="nonzero" d=" M139.33 173.7 C139.33,173.7 108.68,173.7 108.68,173.7 C108.55,173.7 108.45,173.59 108.45,173.47 C108.45,173.47 108.45,172.67 108.45,172.67 C108.45,172.55 108.55,172.45 108.68,172.45 C108.68,172.45 139.33,172.45 139.33,172.45 C139.45,172.45 139.55,172.55 139.55,172.67 C139.55,172.67 139.55,173.47 139.55,173.47 C139.55,173.59 139.45,173.7 139.33,173.7z "/><path id="_R_G_L_26_G_D_35_P_0" fill="#ffffff" fill-opacity="1" fill-rule="nonzero" d=" M139.88 182.16 C139.88,182.16 109.23,182.16 109.23,182.16 C109.11,182.16 109,182.05 109,181.93 C109,181.93 109,181.13 109,181.13 C109,181.01 109.11,180.9 109.23,180.9 C109.23,180.9 139.88,180.9 139.88,180.9 C140,180.9 140.1,181.01 140.1,181.13 C140.1,181.13 140.1,181.93 140.1,181.93 C140.1,182.05 140,182.16 139.88,182.16z "/><path id="_R_G_L_26_G_D_36_P_0" fill="#ffffff" fill-opacity="1" fill-rule="nonzero" d=" M153.18 177.93 C153.18,177.93 109.08,177.93 109.08,177.93 C108.73,177.93 108.45,177.65 108.45,177.3 C108.45,176.96 108.73,176.67 109.08,176.67 C109.08,176.67 153.18,176.67 153.18,176.67 C153.52,176.67 153.81,176.96 153.81,177.3 C153.81,177.65 153.52,177.93 153.18,177.93z "/><path id="_R_G_L_26_G_D_37_P_0" fill="#ffffff" fill-opacity="1" fill-rule="nonzero" d=" M101.88 190.36 C102.26,190.36 102.57,190.67 102.57,191.05 C102.57,191.05 102.57,198.63 102.57,198.63 C102.57,199.01 102.26,199.32 101.88,199.32 C101.88,199.32 94.24,199.32 94.24,199.32 C93.86,199.32 93.55,199.01 93.55,198.63 C93.55,198.63 93.55,191.05 93.55,191.05 C93.55,190.67 93.86,190.36 94.24,190.36 C94.24,190.36 101.88,190.36 101.88,190.36z  M101.88 189.36 C101.88,189.36 94.24,189.36 94.24,189.36 C93.3,189.36 92.55,190.12 92.55,191.05 C92.55,191.05 92.55,198.63 92.55,198.63 C92.55,199.57 93.3,200.32 94.24,200.32 C94.24,200.32 101.88,200.32 101.88,200.32 C102.81,200.32 103.57,199.57 103.57,198.63 C103.57,198.63 103.57,191.05 103.57,191.05 C103.57,190.12 102.81,189.36 101.88,189.36z "/><path id="_R_G_L_26_G_D_38_P_0" fill="#ffffff" fill-opacity="1" fill-rule="nonzero" d=" M139.33 191.24 C139.33,191.24 108.68,191.24 108.68,191.24 C108.55,191.24 108.45,191.14 108.45,191.01 C108.45,191.01 108.45,190.21 108.45,190.21 C108.45,190.09 108.55,189.99 108.68,189.99 C108.68,189.99 139.33,189.99 139.33,189.99 C139.45,189.99 139.55,190.09 139.55,190.21 C139.55,190.21 139.55,191.01 139.55,191.01 C139.55,191.14 139.45,191.24 139.33,191.24z "/><path id="_R_G_L_26_G_D_39_P_0" fill="#ffffff" fill-opacity="1" fill-rule="nonzero" d=" M139.88 199.7 C139.88,199.7 109.23,199.7 109.23,199.7 C109.11,199.7 109,199.59 109,199.47 C109,199.47 109,198.67 109,198.67 C109,198.55 109.11,198.44 109.23,198.44 C109.23,198.44 139.88,198.44 139.88,198.44 C140,198.44 140.1,198.55 140.1,198.67 C140.1,198.67 140.1,199.47 140.1,199.47 C140.1,199.59 140,199.7 139.88,199.7z "/><path id="_R_G_L_26_G_D_40_P_0" fill="#ffffff" fill-opacity="1" fill-rule="nonzero" d=" M153.18 195.47 C153.18,195.47 109.08,195.47 109.08,195.47 C108.73,195.47 108.45,195.19 108.45,194.84 C108.45,194.5 108.73,194.22 109.08,194.22 C109.08,194.22 153.18,194.22 153.18,194.22 C153.52,194.22 153.81,194.5 153.81,194.84 C153.81,195.19 153.52,195.47 153.18,195.47z "/><path id="_R_G_L_26_G_D_41_P_0" fill="#ffffff" fill-opacity="1" fill-rule="nonzero" d=" M263.64 65.51 C263.9,65.51 264.11,65.72 264.11,65.98 C264.11,65.98 264.11,72.56 264.11,72.56 C264.11,72.82 263.9,73.04 263.64,73.04 C263.64,73.04 257,73.04 257,73.04 C256.74,73.04 256.53,72.82 256.53,72.56 C256.53,72.56 256.53,65.98 256.53,65.98 C256.53,65.72 256.74,65.51 257,65.51 C257,65.51 263.64,65.51 263.64,65.51z  M263.64 64.51 C263.64,64.51 257,64.51 257,64.51 C256.19,64.51 255.53,65.17 255.53,65.98 C255.53,65.98 255.53,72.56 255.53,72.56 C255.53,73.38 256.19,74.04 257,74.04 C257,74.04 263.64,74.04 263.64,74.04 C264.45,74.04 265.11,73.38 265.11,72.56 C265.11,72.56 265.11,65.98 265.11,65.98 C265.11,65.17 264.45,64.51 263.64,64.51z "/><path id="_R_G_L_26_G_D_42_P_0" fill="#ffffff" fill-opacity="1" fill-rule="nonzero" d=" M263.64 84.32 C263.9,84.32 264.11,84.53 264.11,84.79 C264.11,84.79 264.11,91.37 264.11,91.37 C264.11,91.63 263.9,91.84 263.64,91.84 C263.64,91.84 257,91.84 257,91.84 C256.74,91.84 256.53,91.63 256.53,91.37 C256.53,91.37 256.53,84.79 256.53,84.79 C256.53,84.53 256.74,84.32 257,84.32 C257,84.32 263.64,84.32 263.64,84.32z  M263.64 83.32 C263.64,83.32 257,83.32 257,83.32 C256.19,83.32 255.53,83.98 255.53,84.79 C255.53,84.79 255.53,91.37 255.53,91.37 C255.53,92.18 256.19,92.84 257,92.84 C257,92.84 263.64,92.84 263.64,92.84 C264.45,92.84 265.11,92.18 265.11,91.37 C265.11,91.37 265.11,84.79 265.11,84.79 C265.11,83.98 264.45,83.32 263.64,83.32z "/><path id="_R_G_L_26_G_D_43_P_0" fill="#7fa8d5" fill-opacity="1" fill-rule="nonzero" d=" M263.64 110.54 C263.64,110.54 257,110.54 257,110.54 C256.19,110.54 255.53,109.88 255.53,109.07 C255.53,109.07 255.53,102.49 255.53,102.49 C255.53,101.67 256.19,101.02 257,101.02 C257,101.02 263.64,101.02 263.64,101.02 C264.45,101.02 265.11,101.67 265.11,102.49 C265.11,102.49 265.11,109.07 265.11,109.07 C265.11,109.88 264.45,110.54 263.64,110.54z "/><path id="_R_G_L_26_G_D_44_P_0" fill="#ffffff" fill-opacity="1" fill-rule="nonzero" d=" M263.64 131.03 C263.9,131.03 264.11,131.25 264.11,131.5 C264.11,131.5 264.11,138.09 264.11,138.09 C264.11,138.35 263.9,138.56 263.64,138.56 C263.64,138.56 257,138.56 257,138.56 C256.74,138.56 256.53,138.35 256.53,138.09 C256.53,138.09 256.53,131.5 256.53,131.5 C256.53,131.25 256.74,131.03 257,131.03 C257,131.03 263.64,131.03 263.64,131.03z  M263.64 130.03 C263.64,130.03 257,130.03 257,130.03 C256.19,130.03 255.53,130.69 255.53,131.5 C255.53,131.5 255.53,138.09 255.53,138.09 C255.53,138.9 256.19,139.56 257,139.56 C257,139.56 263.64,139.56 263.64,139.56 C264.45,139.56 265.11,138.9 265.11,138.09 C265.11,138.09 265.11,131.5 265.11,131.5 C265.11,130.69 264.45,130.03 263.64,130.03z "/><path id="_R_G_L_26_G_D_45_P_0" fill="#ffffff" fill-opacity="1" fill-rule="nonzero" d=" M263.64 151.66 C263.9,151.66 264.11,151.87 264.11,152.13 C264.11,152.13 264.11,158.71 264.11,158.71 C264.11,158.97 263.9,159.18 263.64,159.18 C263.64,159.18 257,159.18 257,159.18 C256.74,159.18 256.53,158.97 256.53,158.71 C256.53,158.71 256.53,152.13 256.53,152.13 C256.53,151.87 256.74,151.66 257,151.66 C257,151.66 263.64,151.66 263.64,151.66z  M263.64 150.66 C263.64,150.66 257,150.66 257,150.66 C256.19,150.66 255.53,151.32 255.53,152.13 C255.53,152.13 255.53,158.71 255.53,158.71 C255.53,159.52 256.19,160.18 257,160.18 C257,160.18 263.64,160.18 263.64,160.18 C264.45,160.18 265.11,159.52 265.11,158.71 C265.11,158.71 265.11,152.13 265.11,152.13 C265.11,151.32 264.45,150.66 263.64,150.66z "/><path id="_R_G_L_26_G_D_46_P_0" fill="#34ad67" fill-opacity="1" fill-rule="nonzero" d=" M267.49 114.94 C267.49,114.94 89.57,114.94 89.57,114.94 C88.34,114.94 87.35,113.95 87.35,112.72 C87.35,112.72 87.35,99.18 87.35,99.18 C87.35,97.95 88.34,96.95 89.57,96.95 C89.57,96.95 267.49,96.95 267.49,96.95 C268.72,96.95 269.72,97.95 269.72,99.18 C269.72,99.18 269.72,112.72 269.72,112.72 C269.72,113.95 268.72,114.94 267.49,114.94z "/><path id="_R_G_L_26_G_D_47_P_0" fill="#ffffff" fill-opacity="1" fill-rule="nonzero" d=" M263.64 169.94 C263.9,169.94 264.11,170.15 264.11,170.41 C264.11,170.41 264.11,176.99 264.11,176.99 C264.11,177.25 263.9,177.46 263.64,177.46 C263.64,177.46 257,177.46 257,177.46 C256.74,177.46 256.53,177.25 256.53,176.99 C256.53,176.99 256.53,170.41 256.53,170.41 C256.53,170.15 256.74,169.94 257,169.94 C257,169.94 263.64,169.94 263.64,169.94z  M263.64 168.94 C263.64,168.94 257,168.94 257,168.94 C256.19,168.94 255.53,169.59 255.53,170.41 C255.53,170.41 255.53,176.99 255.53,176.99 C255.53,177.8 256.19,178.46 257,178.46 C257,178.46 263.64,178.46 263.64,178.46 C264.45,178.46 265.11,177.8 265.11,176.99 C265.11,176.99 265.11,170.41 265.11,170.41 C265.11,169.59 264.45,168.94 263.64,168.94z "/><path id="_R_G_L_26_G_D_48_P_0" fill="#ffffff" fill-opacity="1" fill-rule="nonzero" d=" M263.64 190.45 C263.9,190.45 264.11,190.66 264.11,190.92 C264.11,190.92 264.11,197.51 264.11,197.51 C264.11,197.77 263.9,197.98 263.64,197.98 C263.64,197.98 257,197.98 257,197.98 C256.74,197.98 256.53,197.77 256.53,197.51 C256.53,197.51 256.53,190.92 256.53,190.92 C256.53,190.66 256.74,190.45 257,190.45 C257,190.45 263.64,190.45 263.64,190.45z  M263.64 189.45 C263.64,189.45 257,189.45 257,189.45 C256.19,189.45 255.53,190.11 255.53,190.92 C255.53,190.92 255.53,197.51 255.53,197.51 C255.53,198.32 256.19,198.98 257,198.98 C257,198.98 263.64,198.98 263.64,198.98 C264.45,198.98 265.11,198.32 265.11,197.51 C265.11,197.51 265.11,190.92 265.11,190.92 C265.11,190.11 264.45,189.45 263.64,189.45z "/><path id="_R_G_L_26_G_D_49_P_0" fill="#ffffff" fill-opacity="1" fill-rule="nonzero" d=" M101.88 101.47 C102.26,101.47 102.57,101.78 102.57,102.16 C102.57,102.16 102.57,109.74 102.57,109.74 C102.57,110.12 102.26,110.43 101.88,110.43 C101.88,110.43 94.24,110.43 94.24,110.43 C93.86,110.43 93.55,110.12 93.55,109.74 C93.55,109.74 93.55,102.16 93.55,102.16 C93.55,101.78 93.86,101.47 94.24,101.47 C94.24,101.47 101.88,101.47 101.88,101.47z  M101.88 100.47 C101.88,100.47 94.24,100.47 94.24,100.47 C93.3,100.47 92.55,101.22 92.55,102.16 C92.55,102.16 92.55,109.74 92.55,109.74 C92.55,110.67 93.3,111.43 94.24,111.43 C94.24,111.43 101.88,111.43 101.88,111.43 C102.81,111.43 103.57,110.67 103.57,109.74 C103.57,109.74 103.57,102.16 103.57,102.16 C103.57,101.22 102.81,100.47 101.88,100.47z "/><path id="_R_G_L_26_G_D_50_P_0" fill="#ffffff" fill-opacity="1" fill-rule="nonzero" d=" M139.33 102.34 C139.33,102.34 108.68,102.34 108.68,102.34 C108.55,102.34 108.45,102.24 108.45,102.12 C108.45,102.12 108.45,101.32 108.45,101.32 C108.45,101.19 108.55,101.09 108.68,101.09 C108.68,101.09 139.33,101.09 139.33,101.09 C139.45,101.09 139.55,101.19 139.55,101.32 C139.55,101.32 139.55,102.12 139.55,102.12 C139.55,102.24 139.45,102.34 139.33,102.34z "/><path id="_R_G_L_26_G_D_51_P_0" fill="#ffffff" fill-opacity="1" fill-rule="nonzero" d=" M139.88 110.8 C139.88,110.8 109.23,110.8 109.23,110.8 C109.11,110.8 109,110.7 109,110.57 C109,110.57 109,109.78 109,109.78 C109,109.65 109.11,109.55 109.23,109.55 C109.23,109.55 139.88,109.55 139.88,109.55 C140,109.55 140.1,109.65 140.1,109.78 C140.1,109.78 140.1,110.57 140.1,110.57 C140.1,110.7 140,110.8 139.88,110.8z "/><path id="_R_G_L_26_G_D_52_P_0" fill="#ffffff" fill-opacity="1" fill-rule="nonzero" d=" M153.18 106.57 C153.18,106.57 109.08,106.57 109.08,106.57 C108.73,106.57 108.45,106.29 108.45,105.95 C108.45,105.6 108.73,105.32 109.08,105.32 C109.08,105.32 153.18,105.32 153.18,105.32 C153.52,105.32 153.81,105.6 153.81,105.95 C153.81,106.29 153.52,106.57 153.18,106.57z "/><path id="_R_G_L_26_G_D_53_P_0" fill="#444343" fill-opacity="1" fill-rule="nonzero" d=" M308.71 153.31 C324.76,130.77 345.93,110.02 373.46,102.64 C387.04,98.99 401.67,98.68 415.08,103.17 C422.52,105.66 429.21,109.77 436.29,113.05 C442.46,115.92 448.94,117.99 455.64,119.21 C484.5,124.46 513.15,115.11 539.44,104.02 C567.9,92.01 595.83,78.76 626.11,71.78 C658.44,64.33 693.59,64.25 723.91,79.08 C724.8,79.52 725.58,78.19 724.69,77.76 C698.64,65.01 668.75,62.99 640.39,67.44 C609.47,72.29 580.48,84.43 552.03,96.91 C523.81,109.29 493.86,121.98 462.3,118.62 C454.58,117.8 446.96,115.96 439.8,112.94 C433.09,110.11 426.86,106.29 420.15,103.46 C407.39,98.08 393.27,97.16 379.72,99.65 C348.77,105.31 324.97,127.84 307.38,152.54 C306.8,153.34 308.14,154.11 308.71,153.31z "/><path id="_R_G_L_26_G_D_54_P_0" fill="#36a9df" fill-opacity="1" fill-rule="nonzero" d=" M378.89 99.47 C378.89,95.36 382.24,92.02 386.38,92.02 C390.51,92.02 393.86,95.36 393.86,99.47 C393.86,103.58 390.51,106.91 386.38,106.91 C382.24,106.91 378.89,103.58 378.89,99.47z "/><path id="_R_G_L_26_G_D_55_P_0" fill="#36a9df" fill-opacity="1" fill-rule="nonzero" d=" M647.49 66.36 C647.49,62.24 650.84,58.91 654.98,58.91 C659.11,58.91 662.46,62.24 662.46,66.36 C662.46,70.47 659.11,73.8 654.98,73.8 C650.84,73.8 647.49,70.47 647.49,66.36z "/><path id="_R_G_L_26_G_D_56_P_0" fill="#36a9df" fill-opacity="1" fill-rule="nonzero" d=" M719.9 78.04 C719.9,73.93 723.25,70.59 727.39,70.59 C731.52,70.59 734.87,73.93 734.87,78.04 C734.87,82.15 731.52,85.49 727.39,85.49 C723.25,85.49 719.9,82.15 719.9,78.04z "/></g><g id="_R_G_L_25_G" transform=" translate(575.732, 243.708) translate(-222.46, -3.638)"><path id="_R_G_L_25_G_D_0_P_0" fill="#b3cdc8" fill-opacity="1" fill-rule="nonzero" d=" M444.67 3.05 C444.67,3.82 443.91,4.51 442.68,5.02 C441.44,5.52 439.73,5.84 437.84,5.84 C437.84,5.84 283.57,6.26 283.57,6.26 C283.57,6.26 7.54,7.02 7.54,7.02 C3.46,7.03 0.25,5.6 0.66,3.94 C0.66,3.94 0.94,2.77 0.94,2.77 C1.29,1.34 4.25,0.25 7.78,0.25 C7.78,0.25 437.8,0.25 437.8,0.25 C441.59,0.25 444.67,1.5 444.67,3.05z "/></g><g id="_R_G_L_24_G" transform=" translate(354.699, 242.708)"><path id="_R_G_L_24_G_D_0_P_0" fill="#36a9df" fill-opacity="1" fill-rule="nonzero" d=" M116.17 6.26 C116.17,6.26 3.23,7.02 3.23,7.02 C1.56,7.03 0.25,5.59 0.42,3.94 C0.42,3.94 0.53,2.77 0.53,2.77 C0.68,1.34 1.88,0.25 3.33,0.25 C3.33,0.25 114.45,0.25 114.45,0.25 C114.45,0.25 116.17,6.26 116.17,6.26z "/></g><g id="_R_G_L_23_G"><path id="_R_G_L_23_G_D_0_P_0" fill="#4b3c4b" fill-opacity="1" fill-rule="nonzero" d=" M0.25 5.7 C0.25,2.69 2.7,0.25 5.73,0.25 C8.76,0.25 11.21,2.69 11.21,5.7 C11.21,8.71 8.76,11.15 5.73,11.15 C2.7,11.15 0.25,8.71 0.25,5.7z "/></g><g id="_R_G_L_22_G"><path id="_R_G_L_22_G_D_0_P_0" fill="#ffffff" fill-opacity="1" fill-rule="nonzero" d=" M2.55 3.58 C2.55,3.58 5.81,3.58 5.81,3.58 C5.81,3.58 5.81,175.46 5.81,175.46 C5.81,175.46 2.55,175.46 2.55,175.46 C2.55,175.46 2.55,3.58 2.55,3.58z "/><path id="_R_G_L_22_G_D_1_P_0" fill="#444343" fill-opacity="1" fill-rule="nonzero" d=" M4.81 174.46 C4.81,174.46 3.55,174.46 3.55,174.46 C3.55,174.46 3.55,4.58 3.55,4.58 C3.55,4.58 4.81,4.58 4.81,4.58 C4.81,4.58 4.81,174.46 4.81,174.46z  M6.81 2.58 C6.81,2.58 4.81,2.58 4.81,2.58 C4.81,2.58 3.55,2.58 3.55,2.58 C3.55,2.58 1.55,2.58 1.55,2.58 C1.55,2.58 1.55,4.58 1.55,4.58 C1.55,4.58 1.55,174.46 1.55,174.46 C1.55,174.46 1.55,176.46 1.55,176.46 C1.55,176.46 3.55,176.46 3.55,176.46 C3.55,176.46 4.81,176.46 4.81,176.46 C4.81,176.46 6.81,176.46 6.81,176.46 C6.81,176.46 6.81,174.46 6.81,174.46 C6.81,174.46 6.81,4.58 6.81,4.58 C6.81,4.58 6.81,2.58 6.81,2.58z "/><path id="_R_G_L_22_G_D_2_P_0" fill="#36a9df" fill-opacity="1" fill-rule="nonzero" d=" M4.18 7.57 C2.29,7.57 0.75,6.04 0.75,4.16 C0.75,2.28 2.29,0.75 4.18,0.75 C6.07,0.75 7.6,2.28 7.6,4.16 C7.6,6.04 6.07,7.57 4.18,7.57z "/><path id="_R_G_L_22_G_D_3_P_0" fill="#ffffff" fill-opacity="1" fill-rule="nonzero" d=" M4.18 1.25 C5.79,1.25 7.1,2.55 7.1,4.16 C7.1,5.77 5.79,7.07 4.18,7.07 C2.56,7.07 1.25,5.77 1.25,4.16 C1.25,2.55 2.56,1.25 4.18,1.25z  M4.18 0.25 C2.01,0.25 0.25,2 0.25,4.16 C0.25,6.32 2.01,8.07 4.18,8.07 C6.34,8.07 8.1,6.32 8.1,4.16 C8.1,2 6.34,0.25 4.18,0.25z "/><path id="_R_G_L_22_G_D_4_P_0" fill="#36a9df" fill-opacity="1" fill-rule="nonzero" d=" M4.18 176.37 C2.29,176.37 0.75,174.84 0.75,172.96 C0.75,171.08 2.29,169.55 4.18,169.55 C6.07,169.55 7.6,171.08 7.6,172.96 C7.6,174.84 6.07,176.37 4.18,176.37z "/><path id="_R_G_L_22_G_D_5_P_0" fill="#ffffff" fill-opacity="1" fill-rule="nonzero" d=" M4.18 170.05 C5.79,170.05 7.1,171.35 7.1,172.96 C7.1,174.57 5.79,175.87 4.18,175.87 C2.56,175.87 1.25,174.57 1.25,172.96 C1.25,171.35 2.56,170.05 4.18,170.05z  M4.18 169.05 C2.01,169.05 0.25,170.8 0.25,172.96 C0.25,175.11 2.01,176.87 4.18,176.87 C6.34,176.87 8.1,175.11 8.1,172.96 C8.1,170.8 6.34,169.05 4.18,169.05z "/></g><g id="_R_G_L_21_G"><path id="_R_G_L_21_G_D_0_P_0" fill="#36a9df" fill-opacity="1" fill-rule="nonzero" d=" M96.25 95.92 C96.25,95.92 66.76,105.51 66.76,105.51 C66.76,105.51 76.01,133.64 76.01,133.64 C76.83,136.15 79.55,137.52 82.07,136.7 C82.07,136.7 85.66,135.53 85.66,135.53 C87.3,135 88.53,133.63 88.87,131.94 C88.87,131.94 96.25,95.92 96.25,95.92z "/><path id="_R_G_L_21_G_D_1_P_0" fill="#ffffff" fill-opacity="1" fill-rule="nonzero" d=" M39.57 38.05 C39.57,38.05 80.44,24.76 80.44,24.76 C85.85,23 91.47,22.11 97.16,22.11 C112.57,22.11 127.27,28.7 137.48,40.18 C137.48,40.18 138.49,41.32 138.49,41.32 C139.68,42.66 140.27,44.45 140.11,46.24 C138.06,68.43 122.97,87.25 101.67,94.18 C101.67,94.18 62.25,107 62.25,107 C62.25,107 39.57,38.05 39.57,38.05z "/><path id="_R_G_L_21_G_D_2_P_0" fill="#444343" fill-opacity="1" fill-rule="nonzero" d=" M97.16 21.61 C97.16,21.61 97.16,22.61 97.16,22.61 C112.43,22.61 126.99,29.14 137.11,40.52 C137.11,40.52 138.12,41.65 138.12,41.65 C139.22,42.89 139.76,44.54 139.61,46.19 C137.58,68.19 122.62,86.84 101.51,93.7 C101.51,93.7 62.57,106.37 62.57,106.37 C62.57,106.37 40.2,38.37 40.2,38.37 C40.2,38.37 80.59,25.24 80.59,25.24 C85.95,23.49 91.53,22.61 97.16,22.61 C97.16,22.61 97.16,21.61 97.16,21.61z  M97.16 21.61 C91.52,21.61 85.82,22.48 80.28,24.29 C80.28,24.29 38.94,37.73 38.94,37.73 C38.94,37.73 61.93,107.63 61.93,107.63 C61.93,107.63 101.82,94.65 101.82,94.65 C123.3,87.67 138.54,68.66 140.6,46.28 C140.78,44.35 140.15,42.44 138.86,40.99 C138.86,40.99 137.85,39.85 137.85,39.85 C127.37,28.05 112.46,21.61 97.16,21.61z "/><path id="_R_G_L_21_G_D_3_P_0" fill="#36a9df" fill-opacity="1" fill-rule="nonzero" d=" M114.91 51.71 C110.31,37.73 104.34,26.31 99.62,21.66 C114.05,22.32 127.93,28.69 137.86,39.85 C137.86,39.85 138.86,40.99 138.86,40.99 C140.15,42.44 140.78,44.35 140.61,46.28 C139.57,57.47 135.24,67.82 128.49,76.24 C126.12,79.2 123.44,81.92 120.51,84.36 C121.36,77.68 119.38,65.29 114.91,51.71z "/><path id="_R_G_L_21_G_D_4_P_0" fill="#444343" fill-opacity="1" fill-rule="nonzero" d=" M61.59 107.74 C56.88,109.27 47.93,94.86 41.58,75.56 C35.23,56.26 33.9,39.37 38.6,37.85 C43.3,36.32 52.26,50.72 58.61,70.02 C64.95,89.33 66.29,106.21 61.59,107.74z "/><path id="_R_G_L_21_G_D_5_P_0" fill="#ffffff" fill-opacity="1" fill-rule="nonzero" d=" M21.97 96.91 C21.76,95.37 21.75,91.95 25.43,90.27 C25.68,90.15 25.79,89.85 25.68,89.6 C25.6,89.42 25.41,89.31 25.22,89.31 C25.15,89.31 25.08,89.33 25.02,89.36 C24.99,89.37 21.74,90.82 16.76,90.82 C15.37,90.82 13.96,90.71 12.57,90.48 C7.24,89.63 2.86,85.55 1.27,83.89 C4.26,83.49 13.19,81.95 17.29,77.51 C25.54,68.59 31.98,64.61 38.18,64.61 C39.9,64.61 41.65,64.92 43.39,65.55 C50.21,67.99 52.14,73.87 51.67,78.56 C51.14,83.9 47.13,90.15 39.6,91.25 C28.5,92.88 23.62,95.71 21.97,96.91z "/><path id="_R_G_L_21_G_D_6_P_0" fill="#444343" fill-opacity="1" fill-rule="nonzero" d=" M38.17 65.11 C38.17,65.11 38.18,65.11 38.18,65.11 C39.84,65.11 41.54,65.41 43.22,66.02 C49.77,68.36 51.62,74.01 51.18,78.51 C50.64,83.84 46.84,89.69 39.53,90.76 C29.67,92.2 24.62,94.62 22.4,96.02 C22.36,94.44 22.81,92.01 25.64,90.72 C26.14,90.49 26.36,89.9 26.13,89.4 C25.97,89.03 25.6,88.81 25.22,88.81 C25.08,88.81 24.94,88.84 24.81,88.9 C24.78,88.91 21.61,90.32 16.76,90.32 C15.4,90.32 14.01,90.21 12.65,89.99 C8.11,89.26 4.25,86.1 2.33,84.24 C6.01,83.66 13.84,81.98 17.66,77.85 C25.8,69.04 32.13,65.11 38.17,65.11z  M38.18 64.11 C31.3,64.1 24.61,68.85 16.92,77.17 C12.14,82.35 0.25,83.51 0.25,83.51 C0.25,83.51 5.53,89.86 12.49,90.98 C14.02,91.22 15.45,91.32 16.76,91.32 C21.92,91.32 25.22,89.81 25.22,89.81 C20.02,92.19 21.65,97.83 21.65,97.83 C21.65,97.83 25.62,93.8 39.67,91.75 C53.73,89.69 57.34,70.01 43.56,65.07 C41.74,64.42 39.95,64.11 38.18,64.11z "/><path id="_R_G_L_21_G_D_7_P_0" fill="#36a9df" fill-opacity="1" fill-rule="nonzero" d=" M23.49 82.83 C23.49,82.83 30.44,78.23 34.3,74.74 C38.15,71.25 46.51,71.46 45.33,78.36 C44.15,85.27 23.49,82.83 23.49,82.83z "/><path id="_R_G_L_21_G_D_8_P_0" fill="#444343" fill-opacity="1" fill-rule="nonzero" d=" M89 74.85 C86.54,74.85 84.11,74.28 81.85,73.14 C78.08,71.24 75.27,67.99 73.96,63.99 C71.24,55.73 75.79,46.81 84.09,44.11 C88.11,42.8 92.41,43.13 96.18,45.03 C99.96,46.94 102.76,50.19 104.08,54.19 C105.4,58.19 105.07,62.46 103.15,66.21 C101.24,69.97 97.97,72.76 93.95,74.07 C92.32,74.6 90.66,74.85 89,74.85z  M84.2 44.42 C76.06,47.07 71.61,55.8 74.27,63.89 C76.93,71.98 85.73,76.4 93.84,73.76 C101.97,71.11 106.43,62.38 103.77,54.29 C101.63,47.79 95.54,43.65 89.01,43.65 C87.41,43.65 85.79,43.9 84.2,44.42z "/><path id="_R_G_L_21_G_D_9_P_0" fill="#36a9df" fill-opacity="1" fill-rule="nonzero" d=" M92.69 70.25 C86.49,72.27 79.82,68.91 77.79,62.74 C77.14,60.75 77.05,58.7 77.44,56.78 C77.69,55.52 78.15,54.32 78.79,53.21 C79.9,51.3 81.55,49.69 83.61,48.64 C84.16,48.36 84.74,48.12 85.35,47.92 C91.55,45.9 98.22,49.27 100.25,55.44 C101.07,57.92 101,60.48 100.23,62.79 C99.91,63.77 99.45,64.7 98.88,65.56 C98.31,66.42 97.62,67.21 96.84,67.9 C95.67,68.93 94.27,69.74 92.69,70.25z "/><path id="_R_G_L_21_G_D_10_P_0" fill="#444343" fill-opacity="1" fill-rule="nonzero" d=" M100.23 62.78 C100.23,62.78 83.61,48.64 83.61,48.64 C84.16,48.36 84.74,48.12 85.35,47.92 C91.55,45.9 98.22,49.27 100.25,55.44 C101.07,57.92 101,60.48 100.23,62.78z "/><path id="_R_G_L_21_G_D_11_P_0" fill="#444343" fill-opacity="1" fill-rule="nonzero" d=" M96.83 67.9 C96.83,67.9 77.43,56.78 77.43,56.78 C77.69,55.52 78.15,54.32 78.79,53.21 C78.79,53.21 98.88,65.56 98.88,65.56 C98.31,66.42 97.62,67.21 96.83,67.9z "/><path id="_R_G_L_21_G_D_12_P_0" fill="#36a9df" fill-opacity="1" fill-rule="nonzero" d=" M73.42 26.52 C73.42,26.52 43.93,36.11 43.93,36.11 C43.93,36.11 34.68,7.98 34.68,7.98 C33.85,5.47 35.23,2.77 37.75,1.95 C37.75,1.95 41.34,0.78 41.34,0.78 C42.98,0.25 44.79,0.63 46.07,1.79 C46.07,1.79 73.42,26.52 73.42,26.52z "/><path id="_R_G_L_21_G_D_13_P_0" fill="#444343" fill-opacity="1" fill-rule="nonzero" d=" M112.63 51.61 C113.06,51.47 113.51,51.7 113.65,52.12 C113.79,52.54 113.56,52.99 113.13,53.13 C112.71,53.26 112.26,53.03 112.12,52.62 C111.98,52.2 112.21,51.75 112.63,51.61z "/><path id="_R_G_L_21_G_D_14_P_0" fill="#444343" fill-opacity="1" fill-rule="nonzero" d=" M108.5 40.32 C108.92,40.18 109.37,40.41 109.51,40.83 C109.65,41.25 109.42,41.7 109,41.84 C108.58,41.97 108.12,41.74 107.99,41.33 C107.85,40.91 108.08,40.46 108.5,40.32z "/><path id="_R_G_L_21_G_D_15_P_0" fill="#444343" fill-opacity="1" fill-rule="nonzero" d=" M116.51 64.68 C116.93,64.54 117.38,64.77 117.52,65.19 C117.66,65.61 117.43,66.06 117.01,66.19 C116.59,66.33 116.14,66.1 116,65.68 C115.86,65.27 116.09,64.82 116.51,64.68z "/><path id="_R_G_L_21_G_D_16_P_0" fill="#444343" fill-opacity="1" fill-rule="nonzero" d=" M102.81 29.43 C103.23,29.3 103.68,29.53 103.82,29.94 C103.96,30.36 103.73,30.81 103.31,30.95 C102.89,31.09 102.43,30.86 102.3,30.44 C102.16,30.02 102.39,29.57 102.81,29.43z "/><path id="_R_G_L_21_G_D_17_P_0" fill="#444343" fill-opacity="1" fill-rule="nonzero" d=" M116.93 72.38 C117.35,72.24 117.81,72.47 117.95,72.89 C118.08,73.31 117.85,73.76 117.43,73.9 C117.01,74.03 116.56,73.8 116.42,73.38 C116.28,72.96 116.51,72.52 116.93,72.38z "/><path id="_R_G_L_21_G_D_18_P_0" fill="#444343" fill-opacity="1" fill-rule="nonzero" d=" M63.97 65.67 C64.39,65.53 64.84,65.76 64.98,66.18 C65.12,66.6 64.89,67.05 64.47,67.18 C64.05,67.32 63.59,67.09 63.46,66.67 C63.32,66.26 63.55,65.81 63.97,65.67z "/><path id="_R_G_L_21_G_D_19_P_0" fill="#444343" fill-opacity="1" fill-rule="nonzero" d=" M59.83 54.38 C60.25,54.24 60.71,54.47 60.85,54.89 C60.98,55.31 60.75,55.76 60.33,55.9 C59.91,56.03 59.46,55.8 59.32,55.38 C59.18,54.97 59.41,54.52 59.83,54.38z "/><path id="_R_G_L_21_G_D_20_P_0" fill="#444343" fill-opacity="1" fill-rule="nonzero" d=" M67.85 78.74 C68.27,78.6 68.72,78.83 68.86,79.25 C68.99,79.67 68.77,80.12 68.34,80.26 C67.92,80.39 67.47,80.16 67.33,79.74 C67.19,79.32 67.42,78.88 67.85,78.74z "/><path id="_R_G_L_21_G_D_21_P_0" fill="#444343" fill-opacity="1" fill-rule="nonzero" d=" M54.14 43.49 C54.56,43.36 55.02,43.59 55.16,44 C55.29,44.42 55.06,44.87 54.64,45.01 C54.22,45.15 53.77,44.92 53.63,44.5 C53.49,44.08 53.72,43.63 54.14,43.49z "/><path id="_R_G_L_21_G_D_22_P_0" fill="#444343" fill-opacity="1" fill-rule="nonzero" d=" M68.27 86.44 C68.69,86.3 69.14,86.53 69.28,86.95 C69.42,87.37 69.19,87.82 68.77,87.95 C68.35,88.09 67.89,87.86 67.75,87.44 C67.62,87.02 67.85,86.57 68.27,86.44z "/><path id="_R_G_L_21_G_D_23_P_0" fill="#444343" fill-opacity="1" fill-rule="nonzero" d=" M74.66 103.54 C74.66,103.54 74.33,103.53 74.33,103.53 C75.49,82.97 69.19,65.1 63.7,53.72 C57.75,41.39 51.45,33.83 51.38,33.75 C51.38,33.75 51.64,33.54 51.64,33.54 C51.7,33.61 58.03,41.21 63.99,53.57 C69.51,64.98 75.83,82.92 74.66,103.54z "/></g><g id="_R_G_L_20_G" transform=" translate(85.904, 307.19) translate(-6.817, -6.794)"><path id="_R_G_L_20_G_D_0_P_0" stroke="#ffffff" stroke-linecap="round" stroke-linejoin="round" fill="none" stroke-width="1" stroke-opacity="1" d=" M2.5 6.79 C2.5,4.42 4.43,2.5 6.82,2.5 C9.2,2.5 11.14,4.42 11.14,6.79 C11.14,9.16 9.2,11.09 6.82,11.09 C4.43,11.09 2.5,9.16 2.5,6.79z "/></g><g id="_R_G_L_19_G" transform=" translate(85.904, 373.597) translate(-6.817, -6.794)"><path id="_R_G_L_19_G_D_0_P_0" stroke="#ffffff" stroke-linecap="round" stroke-linejoin="round" fill="none" stroke-width="1" stroke-opacity="1" d=" M2.5 6.79 C2.5,4.42 4.43,2.5 6.82,2.5 C9.2,2.5 11.14,4.42 11.14,6.79 C11.14,9.16 9.2,11.09 6.82,11.09 C4.43,11.09 2.5,9.16 2.5,6.79z "/></g><g id="_R_G_L_18_G" transform=" translate(85.904, 405.966) translate(-6.817, -6.794)"><path id="_R_G_L_18_G_D_0_P_0" stroke="#ffffff" stroke-linecap="round" stroke-linejoin="round" fill="none" stroke-width="1" stroke-opacity="1" d=" M2.5 6.79 C2.5,4.42 4.43,2.5 6.82,2.5 C9.2,2.5 11.14,4.42 11.14,6.79 C11.14,9.16 9.2,11.09 6.82,11.09 C4.43,11.09 2.5,9.16 2.5,6.79z "/></g><g id="_R_G_L_17_G" transform=" translate(100.603, 341.229) translate(-6.817, -6.794)"><path id="_R_G_L_17_G_D_0_P_0" stroke="#ffffff" stroke-linecap="round" stroke-linejoin="round" fill="none" stroke-width="1" stroke-opacity="1" d=" M2.5 6.79 C2.5,4.42 4.43,2.5 6.82,2.5 C9.2,2.5 11.14,4.42 11.14,6.79 C11.14,9.16 9.2,11.09 6.82,11.09 C4.43,11.09 2.5,9.16 2.5,6.79z "/></g><g id="_R_G_L_16_G" transform=" translate(90.189, 92.085) translate(-12.034, -9.809)"><path id="_R_G_L_16_G_D_0_P_0" stroke="#ffffff" stroke-linecap="round" stroke-linejoin="round" fill="none" stroke-width="1" stroke-opacity="1" d=" M9.85 3.44 C9.85,3.44 9.85,3.44 9.85,3.44 C9.85,2.92 9.43,2.5 8.9,2.5 C8.9,2.5 3.45,2.5 3.45,2.5 C2.92,2.5 2.5,2.92 2.5,3.44 C2.5,3.44 2.5,4.38 2.5,4.38 C2.5,4.38 2.5,6.47 2.5,6.47 C2.5,6.47 2.5,16.18 2.5,16.18 C2.5,16.7 2.92,17.12 3.45,17.12 C3.45,17.12 20.62,17.12 20.62,17.12 C21.15,17.12 21.57,16.7 21.57,16.18 C21.57,16.18 21.57,5.32 21.57,5.32 C21.57,4.8 21.15,4.38 20.62,4.38 C20.62,4.38 10.79,4.38 10.79,4.38 C10.27,4.38 9.85,3.96 9.85,3.44z "/></g><g id="_R_G_L_15_G" transform=" translate(437.153, 282.349) translate(-420.88, -250.581)"><path id="_R_G_L_15_G_D_0_P_0" stroke="#ffffff" stroke-linecap="round" stroke-linejoin="round" fill="none" stroke-width="2" stroke-opacity="1" d=" M805.67 495.98 C805.67,495.98 35.05,495.98 35.05,495.98 C18.4,495.81 5,483.39 5,468.13 C5,468.13 5,33.09 5,33.09 C5,17.87 18.33,5.47 34.94,5.23 C34.94,5.23 802.89,5.23 802.89,5.23 C819.62,5 833.41,17.76 833.75,33.09 C833.75,33.09 836.41,468.13 836.41,468.13 C836.76,483.85 822.83,496.16 805.67,495.98z "/></g><g id="_R_G_L_14_G" transform=" translate(436.981, 490.081) translate(-27.773, -27.773)"><path id="_R_G_L_14_G_D_0_P_0" stroke="#ffffff" stroke-linecap="round" stroke-linejoin="round" fill="none" stroke-width="2.005" stroke-opacity="1" d=" M50.53 27.77 C50.53,40.34 40.34,50.53 27.77,50.53 C15.2,50.53 5.01,40.34 5.01,27.77 C5.01,15.2 15.2,5.01 27.77,5.01 C40.34,5.01 50.53,15.2 50.53,27.77z "/></g><g id="_R_G_L_13_G" transform=" translate(670.841, 565.163) translate(-162.941, -84.54)"><path id="_R_G_L_13_G_D_0_P_0" fill="#595959" fill-opacity="1" fill-rule="nonzero" d=" M97.66 146.36 C97.66,146.36 97.66,15.02 97.66,15.02 C97.66,6.86 104.27,0.25 112.43,0.25 C112.43,0.25 310.63,0.25 310.63,0.25 C318.78,0.25 325.4,6.86 325.4,15.02 C325.4,15.02 325.4,41.81 325.4,41.81 C325.4,41.81 325.63,86.28 325.63,86.28 C325.63,86.28 325.4,146.36 325.4,146.36 C325.4,146.36 97.66,146.36 97.66,146.36z "/><path id="_R_G_L_13_G_D_1_P_0" fill="#ffffff" fill-opacity="1" fill-rule="nonzero" d=" M311.42 16.9 C308.78,16.9 306.63,14.75 306.63,12.11 C306.63,9.47 308.78,7.32 311.42,7.32 C314.06,7.32 316.21,9.47 316.21,12.11 C316.21,14.75 314.06,16.9 311.42,16.9z  M311.42 8.99 C309.7,8.99 308.3,10.39 308.3,12.11 C308.3,13.83 309.7,15.23 311.42,15.23 C313.14,15.23 314.53,13.83 314.53,12.11 C314.53,10.39 313.14,8.99 311.42,8.99z "/><path id="_R_G_L_13_G_D_2_P_0" fill="#ffffff" fill-opacity="1" fill-rule="nonzero" d=" M298.11 16.9 C295.47,16.9 293.32,14.75 293.32,12.11 C293.32,9.47 295.47,7.32 298.11,7.32 C300.76,7.32 302.9,9.47 302.9,12.11 C302.9,14.75 300.76,16.9 298.11,16.9z  M298.11 8.99 C296.4,8.99 295,10.39 295,12.11 C295,13.83 296.4,15.23 298.11,15.23 C299.83,15.23 301.23,13.83 301.23,12.11 C301.23,10.39 299.83,8.99 298.11,8.99z "/><path id="_R_G_L_13_G_D_3_P_0" fill="#ffffff" fill-opacity="1" fill-rule="nonzero" d=" M284.81 16.9 C282.17,16.9 280.02,14.75 280.02,12.11 C280.02,9.47 282.17,7.32 284.81,7.32 C287.45,7.32 289.6,9.47 289.6,12.11 C289.6,14.75 287.45,16.9 284.81,16.9z  M284.81 8.99 C283.09,8.99 281.69,10.39 281.69,12.11 C281.69,13.83 283.09,15.23 284.81,15.23 C286.53,15.23 287.92,13.83 287.92,12.11 C287.92,10.39 286.53,8.99 284.81,8.99z "/><path id="_R_G_L_13_G_D_4_P_0" fill="#ffffff" fill-opacity="1" fill-rule="nonzero" d=" M112.2 131.42 C111.74,131.42 111.36,131.06 111.36,130.6 C111.36,130.6 110.23,37.86 110.23,37.86 C110.23,37.4 110.6,37.02 111.06,37.01 C111.06,37.01 203.8,35.88 203.8,35.88 C203.8,35.88 203.81,35.88 203.81,35.88 C204.27,35.88 204.64,36.25 204.65,36.71 C204.65,36.71 205.77,129.45 205.77,129.45 C205.77,129.67 205.69,129.89 205.54,130.04 C205.38,130.2 205.17,130.3 204.94,130.3 C204.94,130.3 112.21,131.42 112.21,131.42 C112.21,131.42 112.2,131.42 112.2,131.42z  M111.92 38.68 C111.92,38.68 113.02,129.74 113.02,129.74 C113.02,129.74 204.09,128.63 204.09,128.63 C204.09,128.63 202.98,37.57 202.98,37.57 C202.98,37.57 111.92,38.68 111.92,38.68z "/><path id="_R_G_L_13_G_D_5_P_0" fill="#ffffff" fill-opacity="1" fill-rule="nonzero" d=" M204.94 130.3 C204.72,130.3 204.51,130.21 204.35,130.06 C204.35,130.06 110.49,38.45 110.49,38.45 C110.24,38.21 110.17,37.85 110.29,37.54 C110.42,37.22 110.72,37.01 111.06,37.01 C111.06,37.01 203.8,35.88 203.8,35.88 C203.8,35.88 203.81,35.88 203.81,35.88 C204.27,35.88 204.64,36.25 204.65,36.71 C204.65,36.71 205.77,129.45 205.77,129.45 C205.78,129.79 205.58,130.1 205.26,130.23 C205.16,130.28 205.05,130.3 204.94,130.3z  M113.1 38.66 C113.1,38.66 204.07,127.45 204.07,127.45 C204.07,127.45 202.98,37.57 202.98,37.57 C202.98,37.57 113.1,38.66 113.1,38.66z "/><path id="_R_G_L_13_G_D_6_P_0" fill="#ffffff" fill-opacity="1" fill-rule="nonzero" d=" M112.2 131.42 C112.09,131.42 111.99,131.4 111.89,131.36 C111.57,131.24 111.36,130.94 111.36,130.6 C111.36,130.6 110.23,37.86 110.23,37.86 C110.23,37.39 110.6,37.01 111.06,37.01 C111.06,37.01 203.8,35.88 203.8,35.88 C204.15,35.85 204.44,36.08 204.58,36.39 C204.71,36.7 204.64,37.06 204.41,37.31 C204.41,37.31 112.8,131.17 112.8,131.17 C112.64,131.34 112.42,131.42 112.2,131.42z  M111.92 38.67 C111.92,38.67 113.01,128.55 113.01,128.55 C113.01,128.55 201.79,37.58 201.79,37.58 C201.79,37.58 111.92,38.67 111.92,38.67z "/><path id="_R_G_L_13_G_D_7_P_0" fill="#ffffff" fill-opacity="1" fill-rule="nonzero" d=" M309.08 85.67 C309.08,85.67 215.91,85.67 215.91,85.67 C215.45,85.67 215.08,85.3 215.08,84.83 C215.08,84.37 215.45,84 215.91,84 C215.91,84 309.08,84 309.08,84 C309.54,84 309.91,84.37 309.91,84.83 C309.91,85.3 309.54,85.67 309.08,85.67z "/><path id="_R_G_L_13_G_D_8_P_0" fill="#ffffff" fill-opacity="1" fill-rule="nonzero" d=" M309.08 67.71 C309.08,67.71 215.91,67.71 215.91,67.71 C215.45,67.71 215.08,67.34 215.08,66.87 C215.08,66.41 215.45,66.04 215.91,66.04 C215.91,66.04 309.08,66.04 309.08,66.04 C309.54,66.04 309.91,66.41 309.91,66.87 C309.91,67.34 309.54,67.71 309.08,67.71z "/><path id="_R_G_L_13_G_D_9_P_0" fill="#34ad67" fill-opacity="1" fill-rule="nonzero" d=" M262.9 83.34 C262.9,79.64 259.9,76.65 256.21,76.65 C252.51,76.65 249.52,79.64 249.52,83.34 C249.52,87.03 252.51,90.03 256.21,90.03 C259.9,90.03 262.9,87.03 262.9,83.34z "/><path id="_R_G_L_13_G_D_10_P_0" fill="#34ad67" fill-opacity="1" fill-rule="nonzero" d=" M238.21 66.5 C238.21,62.81 235.21,59.81 231.52,59.81 C227.82,59.81 224.83,62.81 224.83,66.5 C224.83,70.2 227.82,73.19 231.52,73.19 C235.21,73.19 238.21,70.2 238.21,66.5z "/><path id="_R_G_L_13_G_D_11_P_0" fill="#6f7070" fill-opacity="1" fill-rule="nonzero" d=" M206.02 168.83 C206.02,168.83 0.25,168.83 0.25,168.83 C0.25,168.83 0.25,34.27 0.25,34.27 C0.25,34.27 206.02,34.27 206.02,34.27 C206.02,34.27 206.02,168.83 206.02,168.83z "/><path id="_R_G_L_13_G_D_12_P_0" fill="#36a9df" fill-opacity="1" fill-rule="nonzero" d=" M119.81 158.99 C119.81,158.99 86.46,158.99 86.46,158.99 C86.46,158.99 86.46,71.73 86.46,71.73 C86.46,71.73 119.81,71.73 119.81,71.73 C119.81,71.73 119.81,158.99 119.81,158.99z "/><path id="_R_G_L_13_G_D_13_P_0" fill="#36a9df" fill-opacity="1" fill-rule="nonzero" d=" M52.66 158.99 C52.66,158.99 19.31,158.99 19.31,158.99 C19.31,158.99 19.31,71.73 19.31,71.73 C19.31,71.73 52.66,71.73 52.66,71.73 C52.66,71.73 52.66,158.99 52.66,158.99z "/><path id="_R_G_L_13_G_D_14_P_0" fill="#36a9df" fill-opacity="1" fill-rule="nonzero" d=" M186.57 158.99 C186.57,158.99 153.21,158.99 153.21,158.99 C153.21,158.99 153.21,71.73 153.21,71.73 C153.21,71.73 186.57,71.73 186.57,71.73 C186.57,71.73 186.57,158.99 186.57,158.99z "/><path id="_R_G_L_13_G_D_15_P_0" fill="#ffffff" fill-opacity="1" fill-rule="nonzero" d=" M61.53 59.2 C61.53,59.2 19.44,59.2 19.44,59.2 C18.98,59.2 18.6,58.83 18.6,58.36 C18.6,57.9 18.98,57.53 19.44,57.53 C19.44,57.53 61.53,57.53 61.53,57.53 C61.99,57.53 62.37,57.9 62.37,58.36 C62.37,58.83 61.99,59.2 61.53,59.2z "/><path id="_R_G_L_13_G_D_16_P_0" fill="#ffffff" fill-opacity="1" fill-rule="nonzero" d=" M42.14 65.48 C42.14,65.48 19.44,65.48 19.44,65.48 C18.98,65.48 18.61,65.11 18.61,64.65 C18.61,64.18 18.98,63.81 19.44,63.81 C19.44,63.81 42.14,63.81 42.14,63.81 C42.6,63.81 42.98,64.18 42.98,64.65 C42.98,65.11 42.6,65.48 42.14,65.48z "/><path id="_R_G_L_13_G_D_17_P_0" fill="#ffffff" fill-opacity="1" fill-rule="nonzero" d=" M57.21 65.48 C57.21,65.48 46.67,65.48 46.67,65.48 C46.2,65.48 45.83,65.11 45.83,64.65 C45.83,64.18 46.2,63.81 46.67,63.81 C46.67,63.81 57.21,63.81 57.21,63.81 C57.67,63.81 58.05,64.18 58.05,64.65 C58.05,65.11 57.67,65.48 57.21,65.48z "/><path id="_R_G_L_13_G_D_18_P_0" fill="#ffffff" fill-opacity="1" fill-rule="nonzero" d=" M186.82 149.13 C186.82,149.13 19.43,149.13 19.43,149.13 C18.97,149.13 18.6,148.75 18.6,148.29 C18.6,147.83 18.97,147.45 19.43,147.45 C19.43,147.45 186.82,147.45 186.82,147.45 C187.28,147.45 187.66,147.83 187.66,148.29 C187.66,148.75 187.28,149.13 186.82,149.13z "/><path id="_R_G_L_13_G_D_19_P_0" fill="#ffffff" fill-opacity="1" fill-rule="nonzero" d=" M19.45 152.91 C18.99,152.91 18.61,152.54 18.61,152.08 C18.61,152.08 18.61,148.29 18.61,148.29 C18.61,147.82 18.99,147.45 19.45,147.45 C19.91,147.45 20.29,147.82 20.29,148.29 C20.29,148.29 20.29,152.08 20.29,152.08 C20.29,152.54 19.91,152.91 19.45,152.91z "/><path id="_R_G_L_13_G_D_20_P_0" fill="#ffffff" fill-opacity="1" fill-rule="nonzero" d=" M52.93 152.91 C52.46,152.91 52.09,152.54 52.09,152.08 C52.09,152.08 52.09,148.29 52.09,148.29 C52.09,147.82 52.46,147.45 52.93,147.45 C53.39,147.45 53.77,147.82 53.77,148.29 C53.77,148.29 53.77,152.08 53.77,152.08 C53.77,152.54 53.39,152.91 52.93,152.91z "/><path id="_R_G_L_13_G_D_21_P_0" fill="#ffffff" fill-opacity="1" fill-rule="nonzero" d=" M86.4 152.91 C85.94,152.91 85.57,152.54 85.57,152.08 C85.57,152.08 85.57,148.29 85.57,148.29 C85.57,147.82 85.94,147.45 86.4,147.45 C86.87,147.45 87.24,147.82 87.24,148.29 C87.24,148.29 87.24,152.08 87.24,152.08 C87.24,152.54 86.87,152.91 86.4,152.91z "/><path id="_R_G_L_13_G_D_22_P_0" fill="#ffffff" fill-opacity="1" fill-rule="nonzero" d=" M119.88 152.91 C119.42,152.91 119.04,152.54 119.04,152.08 C119.04,152.08 119.04,148.29 119.04,148.29 C119.04,147.82 119.42,147.45 119.88,147.45 C120.34,147.45 120.72,147.82 120.72,148.29 C120.72,148.29 120.72,152.08 120.72,152.08 C120.72,152.54 120.34,152.91 119.88,152.91z "/><path id="_R_G_L_13_G_D_23_P_0" fill="#ffffff" fill-opacity="1" fill-rule="nonzero" d=" M153.36 152.91 C152.89,152.91 152.52,152.54 152.52,152.08 C152.52,152.08 152.52,148.29 152.52,148.29 C152.52,147.82 152.89,147.45 153.36,147.45 C153.82,147.45 154.2,147.82 154.2,148.29 C154.2,148.29 154.2,152.08 154.2,152.08 C154.2,152.54 153.82,152.91 153.36,152.91z "/><path id="_R_G_L_13_G_D_24_P_0" fill="#ffffff" fill-opacity="1" fill-rule="nonzero" d=" M186.83 152.91 C186.37,152.91 186,152.54 186,152.08 C186,152.08 186,148.29 186,148.29 C186,147.82 186.37,147.45 186.83,147.45 C187.3,147.45 187.67,147.82 187.67,148.29 C187.67,148.29 187.67,152.08 187.67,152.08 C187.67,152.54 187.3,152.91 186.83,152.91z "/><path id="_R_G_L_13_G_D_25_P_0" fill="#ffffff" fill-opacity="1" fill-rule="nonzero" d=" M22.08 129.57 C22.08,130.98 20.93,132.13 19.52,132.13 C18.1,132.13 16.96,130.98 16.96,129.57 C16.96,128.16 18.1,127.01 19.52,127.01 C20.93,127.01 22.08,128.16 22.08,129.57z "/><path id="_R_G_L_13_G_D_26_P_0" fill="#ffffff" fill-opacity="1" fill-rule="nonzero" d=" M89.22 123.28 C89.22,124.69 88.07,125.84 86.66,125.84 C85.24,125.84 84.1,124.69 84.1,123.28 C84.1,121.86 85.24,120.72 86.66,120.72 C88.07,120.72 89.22,121.86 89.22,123.28z "/><path id="_R_G_L_13_G_D_27_P_0" fill="#ffffff" fill-opacity="1" fill-rule="nonzero" d=" M155.58 106 C155.58,107.42 154.43,108.56 153.01,108.56 C151.6,108.56 150.45,107.42 150.45,106 C150.45,104.59 151.6,103.44 153.01,103.44 C154.43,103.44 155.58,104.59 155.58,106z "/><path id="_R_G_L_13_G_D_28_P_0" fill="#ffffff" fill-opacity="1" fill-rule="nonzero" d=" M188.34 73.05 C188.34,74.46 187.19,75.61 185.78,75.61 C184.36,75.61 183.22,74.46 183.22,73.05 C183.22,71.63 184.36,70.48 185.78,70.48 C187.19,70.48 188.34,71.63 188.34,73.05z "/><path id="_R_G_L_13_G_D_29_P_0" fill="#ffffff" fill-opacity="1" fill-rule="nonzero" d=" M115.59 138.44 C106.02,138.44 96.12,133.56 86.08,123.88 C72.69,110.98 59.86,105.48 47.98,107.54 C30.25,110.6 20.55,129.74 20.46,129.93 C20.25,130.35 19.75,130.52 19.33,130.31 C18.92,130.11 18.75,129.6 18.95,129.19 C19.36,128.37 29.11,109.11 47.68,105.89 C60.13,103.73 73.44,109.38 87.24,122.68 C98.93,133.93 110.32,138.48 121.1,136.18 C142.14,131.69 154.14,102.51 154.26,102.22 C154.3,102.12 157.55,94.79 162.98,87.49 C170.25,77.72 178.14,72.43 185.79,72.18 C185.8,72.18 185.81,72.18 185.82,72.18 C186.27,72.18 186.64,72.53 186.65,72.99 C186.67,73.45 186.3,73.84 185.84,73.85 C168.52,74.42 155.93,102.58 155.8,102.87 C155.78,102.92 152.7,110.49 146.98,118.51 C141.67,125.97 132.93,135.37 121.45,137.82 C119.51,138.23 117.56,138.44 115.59,138.44z "/></g><g id="_R_G_L_12_G" transform=" translate(719.543, 553.929) translate(-114.239, -73.306)"><path id="_R_G_L_12_G_D_0_P_0" fill="#595959" fill-opacity="1" fill-rule="nonzero" d=" M0.25 146.36 C0.25,146.36 0.25,15.02 0.25,15.02 C0.25,6.86 6.86,0.25 15.02,0.25 C15.02,0.25 213.22,0.25 213.22,0.25 C221.38,0.25 227.99,6.86 227.99,15.02 C227.99,15.02 227.99,41.81 227.99,41.81 C227.99,41.81 228.23,86.28 228.23,86.28 C228.23,86.28 227.99,146.36 227.99,146.36 C227.99,146.36 0.25,146.36 0.25,146.36z "/><path id="_R_G_L_12_G_D_1_P_0" fill="#ffffff" fill-opacity="1" fill-rule="nonzero" d=" M214.02 16.9 C211.37,16.9 209.22,14.75 209.22,12.11 C209.22,9.47 211.37,7.32 214.02,7.32 C216.66,7.32 218.81,9.47 218.81,12.11 C218.81,14.75 216.66,16.9 214.02,16.9z  M214.02 8.99 C212.3,8.99 210.9,10.39 210.9,12.11 C210.9,13.83 212.3,15.23 214.02,15.23 C215.73,15.23 217.13,13.83 217.13,12.11 C217.13,10.39 215.73,8.99 214.02,8.99z "/><path id="_R_G_L_12_G_D_2_P_0" fill="#ffffff" fill-opacity="1" fill-rule="nonzero" d=" M200.71 16.9 C198.07,16.9 195.92,14.75 195.92,12.11 C195.92,9.47 198.07,7.32 200.71,7.32 C203.35,7.32 205.5,9.47 205.5,12.11 C205.5,14.75 203.35,16.9 200.71,16.9z  M200.71 8.99 C198.99,8.99 197.6,10.39 197.6,12.11 C197.6,13.83 198.99,15.23 200.71,15.23 C202.43,15.23 203.83,13.83 203.83,12.11 C203.83,10.39 202.43,8.99 200.71,8.99z "/><path id="_R_G_L_12_G_D_3_P_0" fill="#ffffff" fill-opacity="1" fill-rule="nonzero" d=" M187.4 16.9 C184.76,16.9 182.61,14.75 182.61,12.11 C182.61,9.47 184.76,7.32 187.4,7.32 C190.05,7.32 192.2,9.47 192.2,12.11 C192.2,14.75 190.05,16.9 187.4,16.9z  M187.4 8.99 C185.69,8.99 184.29,10.39 184.29,12.11 C184.29,13.83 185.69,15.23 187.4,15.23 C189.12,15.23 190.52,13.83 190.52,12.11 C190.52,10.39 189.12,8.99 187.4,8.99z "/></g><g id="_R_G_L_11_G" transform=" translate(665.871, 564.262) translate(-48.056, -48.034)"><path id="_R_G_L_11_G_D_0_P_0" fill="#ffffff" fill-opacity="1" fill-rule="nonzero" d=" M2.28 95.82 C1.82,95.82 1.45,95.45 1.44,94.99 C1.44,94.99 0.32,2.25 0.32,2.25 C0.31,1.79 0.68,1.41 1.14,1.4 C1.14,1.4 93.88,0.28 93.88,0.28 C93.88,0.28 93.89,0.28 93.89,0.28 C94.35,0.28 94.72,0.65 94.73,1.11 C94.73,1.11 95.86,93.84 95.86,93.84 C95.86,94.07 95.77,94.28 95.62,94.44 C95.46,94.6 95.25,94.69 95.03,94.69 C95.03,94.69 2.29,95.82 2.29,95.82 C2.29,95.82 2.28,95.82 2.28,95.82z  M2 3.07 C2,3.07 3.11,94.13 3.11,94.13 C3.11,94.13 94.17,93.03 94.17,93.03 C94.17,93.03 93.06,1.96 93.06,1.96 C93.06,1.96 2,3.07 2,3.07z "/><path id="_R_G_L_11_G_D_1_P_0" fill="#ffffff" fill-opacity="1" fill-rule="nonzero" d=" M95.02 94.69 C94.81,94.69 94.59,94.61 94.43,94.45 C94.43,94.45 0.57,2.84 0.57,2.84 C0.33,2.61 0.25,2.25 0.38,1.93 C0.5,1.62 0.8,1.41 1.14,1.4 C1.14,1.4 93.88,0.28 93.88,0.28 C93.88,0.28 93.89,0.28 93.89,0.28 C94.35,0.28 94.72,0.65 94.73,1.11 C94.73,1.11 95.86,93.84 95.86,93.84 C95.86,94.18 95.66,94.49 95.35,94.62 C95.24,94.67 95.13,94.69 95.02,94.69z  M3.19 3.06 C3.19,3.06 94.16,91.84 94.16,91.84 C94.16,91.84 93.07,1.96 93.07,1.96 C93.07,1.96 3.19,3.06 3.19,3.06z "/><path id="_R_G_L_11_G_D_2_P_0" fill="#ffffff" fill-opacity="1" fill-rule="nonzero" d=" M2.28 95.82 C2.18,95.82 2.07,95.8 1.97,95.76 C1.65,95.63 1.45,95.33 1.44,94.99 C1.44,94.99 0.32,2.25 0.32,2.25 C0.31,1.79 0.68,1.41 1.14,1.4 C1.14,1.4 93.88,0.28 93.88,0.28 C94.24,0.25 94.53,0.48 94.66,0.79 C94.8,1.1 94.73,1.46 94.49,1.7 C94.49,1.7 2.88,95.57 2.88,95.57 C2.72,95.73 2.5,95.82 2.28,95.82z  M2 3.07 C2,3.07 3.09,92.95 3.09,92.95 C3.09,92.95 91.88,1.98 91.88,1.98 C91.88,1.98 2,3.07 2,3.07z "/></g><g id="_R_G_L_10_G" transform=" translate(770.394, 556.71) translate(-47.669, -9.834)"><path id="_R_G_L_10_G_D_0_P_0" fill="#ffffff" fill-opacity="1" fill-rule="nonzero" d=" M94.25 19.42 C94.25,19.42 1.09,19.42 1.09,19.42 C0.62,19.42 0.25,19.04 0.25,18.58 C0.25,18.12 0.62,17.74 1.09,17.74 C1.09,17.74 94.25,17.74 94.25,17.74 C94.71,17.74 95.09,18.12 95.09,18.58 C95.09,19.04 94.71,19.42 94.25,19.42z "/><path id="_R_G_L_10_G_D_1_P_0" fill="#ffffff" fill-opacity="1" fill-rule="nonzero" d=" M94.25 1.93 C94.25,1.93 1.09,1.93 1.09,1.93 C0.62,1.93 0.25,1.55 0.25,1.09 C0.25,0.63 0.62,0.25 1.09,0.25 C1.09,0.25 94.25,0.25 94.25,0.25 C94.71,0.25 95.09,0.63 95.09,1.09 C95.09,1.55 94.71,1.93 94.25,1.93z "/></g><g id="_R_G_L_9_G"><path id="_R_G_L_9_G_D_0_P_0" fill="#34ad67" fill-opacity="1" fill-rule="nonzero" d=" M13.63 6.94 C13.63,3.25 10.64,0.25 6.94,0.25 C3.25,0.25 0.25,3.25 0.25,6.94 C0.25,10.64 3.25,13.63 6.94,13.63 C10.64,13.63 13.63,10.64 13.63,6.94z "/></g><g id="_R_G_L_8_G"><path id="_R_G_L_8_G_D_0_P_0" fill="#34ad67" fill-opacity="1" fill-rule="nonzero" d=" M13.63 6.94 C13.63,3.25 10.64,0.25 6.94,0.25 C3.25,0.25 0.25,3.25 0.25,6.94 C0.25,10.64 3.25,13.63 6.94,13.63 C10.64,13.63 13.63,10.64 13.63,6.94z "/></g><g id="_R_G_L_7_G" transform=" translate(611.034, 582.173) translate(-103.134, -67.531)"><path id="_R_G_L_7_G_D_0_P_0" fill="#6f7070" fill-opacity="1" fill-rule="nonzero" d=" M206.02 134.81 C206.02,134.81 0.25,134.81 0.25,134.81 C0.25,134.81 0.25,0.25 0.25,0.25 C0.25,0.25 206.02,0.25 206.02,0.25 C206.02,0.25 206.02,134.81 206.02,134.81z "/></g><g id="_R_G_L_6_G" transform=" translate(543.884, 636.982)"><path id="_R_G_L_6_G_D_0_P_0" fill="#36a9df" fill-opacity="1" fill-rule="nonzero" d=" M33.61 87.51 C33.61,87.51 0.25,87.51 0.25,87.51 C0.25,87.51 0.25,0.25 0.25,0.25 C0.25,0.25 33.61,0.25 33.61,0.25 C33.61,0.25 33.61,87.51 33.61,87.51z "/></g><g id="_R_G_L_5_G" transform=" translate(612.033, 636.982)"><path id="_R_G_L_5_G_D_0_P_0" fill="#36a9df" fill-opacity="1" fill-rule="nonzero" d=" M33.61 87.51 C33.61,87.51 0.25,87.51 0.25,87.51 C0.25,87.51 0.25,0.25 0.25,0.25 C0.25,0.25 33.61,0.25 33.61,0.25 C33.61,0.25 33.61,87.51 33.61,87.51z "/></g><g id="_R_G_L_4_G" transform=" translate(679.79, 637.982)"><path id="_R_G_L_4_G_D_0_P_0" fill="#36a9df" fill-opacity="1" fill-rule="nonzero" d=" M33.61 87.51 C33.61,87.51 0.25,87.51 0.25,87.51 C0.25,87.51 0.25,0.25 0.25,0.25 C0.25,0.25 33.61,0.25 33.61,0.25 C33.61,0.25 33.61,87.51 33.61,87.51z "/></g><g id="_R_G_L_3_G" transform=" translate(548.385, 538.986) translate(-22.131, -1.088)"><path id="_R_G_L_3_G_D_0_P_0" fill="#ffffff" fill-opacity="1" fill-rule="nonzero" d=" M43.17 1.93 C43.17,1.93 1.09,1.93 1.09,1.93 C0.63,1.93 0.25,1.55 0.25,1.09 C0.25,0.63 0.63,0.25 1.09,0.25 C1.09,0.25 43.17,0.25 43.17,0.25 C43.64,0.25 44.01,0.63 44.01,1.09 C44.01,1.55 43.64,1.93 43.17,1.93z "/></g><g id="_R_G_L_2_G" transform=" translate(538.691, 545.268) translate(-12.436, -1.088)"><path id="_R_G_L_2_G_D_0_P_0" fill="#ffffff" fill-opacity="1" fill-rule="nonzero" d=" M23.78 1.93 C23.78,1.93 1.09,1.93 1.09,1.93 C0.63,1.93 0.25,1.55 0.25,1.09 C0.25,0.63 0.63,0.25 1.09,0.25 C1.09,0.25 23.78,0.25 23.78,0.25 C24.25,0.25 24.62,0.63 24.62,1.09 C24.62,1.55 24.25,1.93 23.78,1.93z "/></g><g id="_R_G_L_1_G" transform=" translate(559.836, 545.268) translate(-6.36, -1.088)"><path id="_R_G_L_1_G_D_0_P_0" fill="#ffffff" fill-opacity="1" fill-rule="nonzero" d=" M11.63 1.93 C11.63,1.93 1.09,1.93 1.09,1.93 C0.63,1.93 0.25,1.55 0.25,1.09 C0.25,0.63 0.63,0.25 1.09,0.25 C1.09,0.25 11.63,0.25 11.63,0.25 C12.1,0.25 12.47,0.63 12.47,1.09 C12.47,1.55 12.1,1.93 11.63,1.93z "/></g><g id="_R_G_L_0_G" transform=" translate(611.034, 630.805) translate(-84.788, -2.982)"><path id="_R_G_L_0_G_D_0_P_0" fill="#ffffff" fill-opacity="1" fill-rule="nonzero" d=" M168.47 1.93 C168.47,1.93 1.09,1.93 1.09,1.93 C0.63,1.93 0.25,1.55 0.25,1.09 C0.25,0.63 0.63,0.25 1.09,0.25 C1.09,0.25 168.47,0.25 168.47,0.25 C168.93,0.25 169.31,0.63 169.31,1.09 C169.31,1.55 168.93,1.93 168.47,1.93z "/><path id="_R_G_L_0_G_D_1_P_0" fill="#ffffff" fill-opacity="1" fill-rule="nonzero" d=" M1.1 5.71 C0.64,5.71 0.27,5.34 0.27,4.88 C0.27,4.88 0.27,1.09 0.27,1.09 C0.27,0.63 0.64,0.25 1.1,0.25 C1.57,0.25 1.94,0.63 1.94,1.09 C1.94,1.09 1.94,4.88 1.94,4.88 C1.94,5.34 1.57,5.71 1.1,5.71z "/><path id="_R_G_L_0_G_D_2_P_0" fill="#ffffff" fill-opacity="1" fill-rule="nonzero" d=" M34.58 5.71 C34.12,5.71 33.74,5.34 33.74,4.88 C33.74,4.88 33.74,1.09 33.74,1.09 C33.74,0.63 34.12,0.25 34.58,0.25 C35.04,0.25 35.42,0.63 35.42,1.09 C35.42,1.09 35.42,4.88 35.42,4.88 C35.42,5.34 35.04,5.71 34.58,5.71z "/><path id="_R_G_L_0_G_D_3_P_0" fill="#ffffff" fill-opacity="1" fill-rule="nonzero" d=" M68.06 5.71 C67.59,5.71 67.22,5.34 67.22,4.88 C67.22,4.88 67.22,1.09 67.22,1.09 C67.22,0.63 67.59,0.25 68.06,0.25 C68.52,0.25 68.9,0.63 68.9,1.09 C68.9,1.09 68.9,4.88 68.9,4.88 C68.9,5.34 68.52,5.71 68.06,5.71z "/><path id="_R_G_L_0_G_D_4_P_0" fill="#ffffff" fill-opacity="1" fill-rule="nonzero" d=" M101.53 5.71 C101.07,5.71 100.7,5.34 100.7,4.88 C100.7,4.88 100.7,1.09 100.7,1.09 C100.7,0.63 101.07,0.25 101.53,0.25 C102,0.25 102.37,0.63 102.37,1.09 C102.37,1.09 102.37,4.88 102.37,4.88 C102.37,5.34 102,5.71 101.53,5.71z "/><path id="_R_G_L_0_G_D_5_P_0" fill="#ffffff" fill-opacity="1" fill-rule="nonzero" d=" M135.01 5.71 C134.55,5.71 134.17,5.34 134.17,4.88 C134.17,4.88 134.17,1.09 134.17,1.09 C134.17,0.63 134.55,0.25 135.01,0.25 C135.47,0.25 135.85,0.63 135.85,1.09 C135.85,1.09 135.85,4.88 135.85,4.88 C135.85,5.34 135.47,5.71 135.01,5.71z "/><path id="_R_G_L_0_G_D_6_P_0" fill="#ffffff" fill-opacity="1" fill-rule="nonzero" d=" M168.49 5.71 C168.02,5.71 167.65,5.34 167.65,4.88 C167.65,4.88 167.65,1.09 167.65,1.09 C167.65,0.63 168.02,0.25 168.49,0.25 C168.95,0.25 169.33,0.63 169.33,1.09 C169.33,1.09 169.33,4.88 169.33,4.88 C169.33,5.34 168.95,5.71 168.49,5.71z "/></g></g><g id="time_group"/></svg>