<?xml version="1.0" encoding="UTF-8"?>
<svg xmlns="http://www.w3.org/2000/svg" id="Layer_1" data-name="Layer 1" viewBox="0 0 63.46 63.35">
  <path d="M.77,58.61A1.43,1.43,0,0,1,2.18,58c9.71,0,19.42,0,29.13,0A25.43,25.43,0,0,0,51.22,16.23,25.57,25.57,0,0,0,35.27,7.3h-.38c.89.7,1.69,1.31,2.47,1.93s1,1.18.57,1.7-1,.5-1.78-.13L31.32,7c-.84-.66-.83-1.28,0-1.95l5.13-4A1,1,0,0,1,37.72,1a.87.87,0,0,1,.33,1.1,1.85,1.85,0,0,1-.59.69c-1,.77-1.94,1.52-3,2.35.95.16,1.8.28,2.63.45a27.4,27.4,0,0,1-.21,53.79,29.56,29.56,0,0,1-5.48.5c-9.73.05-19.45,0-29.18,0a1.41,1.41,0,0,1-1.45-.71Z" transform="translate(-0.77 -0.82)" fill="#01c6fd"></path>
  <path d="M57.41,64.18c-.86-.79-.84-1.29.1-2a33.12,33.12,0,0,0,2.63-2.21H49.9a2.56,2.56,0,0,1-.79-.09.89.89,0,0,1-.61-1,.91.91,0,0,1,.79-.83A5.1,5.1,0,0,1,50,58H60.12l.18-.21a2.93,2.93,0,0,1-.47-.23c-.84-.64-1.67-1.28-2.49-1.93-.59-.46-.71-1-.35-1.49s.95-.54,1.57-.06c1.72,1.32,3.42,2.65,5.13,4a5,5,0,0,1,.54.58v.62a10.9,10.9,0,0,1-.91.89c-1.71,1.36-3.44,2.71-5.16,4.06Z" transform="translate(-0.77 -0.82)" fill="#01c6fd"></path>
  <path d="M16.24,32.49c0-2.82,0-5.65,0-8.47A1.36,1.36,0,0,1,17,22.68q7.38-4.23,14.74-8.5a1.34,1.34,0,0,1,1.5,0Q40.63,18.46,48,22.7A1.3,1.3,0,0,1,48.76,24q0,8.57,0,17.13a1.26,1.26,0,0,1-.69,1.2l-14.9,8.58a1.19,1.19,0,0,1-1.33,0l-15-8.61A1.25,1.25,0,0,1,16.24,41C16.25,38.18,16.24,35.33,16.24,32.49Zm29.49-8.8-.35-.22q-6.24-3.6-12.48-7.21a.7.7,0,0,0-.83,0L19.69,23.43c-.13.07-.25.17-.42.27l.26.18c4.2,2.42,8.4,4.85,12.61,7.24a1,1,0,0,0,.82,0c4.14-2.36,8.26-4.75,12.39-7.13A2.89,2.89,0,0,0,45.73,23.69ZM18.26,25.45c0,.2,0,.32,0,.44q0,7.2,0,14.4a.74.74,0,0,0,.45.71L31,48.09c.15.09.31.15.52.25v-.69c0-4.64,0-9.27,0-13.91a1,1,0,0,0-.57-1c-4-2.26-7.94-4.56-11.9-6.84Zm28.51,0-.3.13q-6.33,3.64-12.63,7.3a.92.92,0,0,0-.33.69q0,7.14,0,14.28a4.19,4.19,0,0,0,0,.47l.22-.09C38,45.81,42.18,43.37,46.4,41a.72.72,0,0,0,.38-.75c0-2.86,0-5.73,0-8.59Z" transform="translate(-0.77 -0.82)" fill="#001157"></path>
  <path d="M24.84,6a1,1,0,0,1,1,.78.92.92,0,0,1-.63,1.13c-.52.19-1.07.31-1.59.5-9.09,3.28-14.93,9.58-16.87,19-2,9.63,1,17.84,8.34,24.45l.23.2a1,1,0,0,1,.24,1.48,1,1,0,0,1-1.53,0,26.89,26.89,0,0,1-7.6-10.16A27.42,27.42,0,0,1,24.23,6.11Z" transform="translate(-0.77 -0.82)" fill="#01c6fd"></path>
</svg>
