<?xml version="1.0" encoding="UTF-8"?>
<svg xmlns="http://www.w3.org/2000/svg" id="Layer_1" data-name="Layer 1" viewBox="0 0 58.22 65.22">
  <path d="M37.16,60.45c0,.82,0,1.54,0,2.26a2.33,2.33,0,0,1-2.4,2.39c-1.51,0-3,0-4.51,0a2.33,2.33,0,0,1-2.41-2.38c0-.73,0-1.45,0-2.27H25.72a2.35,2.35,0,0,1-2.54-2.54c0-3.59,0-7.18,0-10.77a1,1,0,0,0-.59-1,19.78,19.78,0,1,1,19.74,0,.9.9,0,0,0-.53.91c0,3.57,0,7.13,0,10.7a2.39,2.39,0,0,1-2.68,2.7Zm2.33-11.68a19.78,19.78,0,0,0,0-2.19,2,2,0,0,1,1.34-2.27A17.44,17.44,0,1,0,15.05,28.59c0,7.15,3.22,12.47,9.49,15.92a1.58,1.58,0,0,1,1,1.6c0,.89,0,1.78,0,2.65h5.83c0-1.61,0-3.18,0-4.75a1.54,1.54,0,0,0-.4-.93c-.8-.88-1.67-1.7-2.5-2.54-.67-.67-.74-1.31-.23-1.85s1.19-.47,1.9.22l1.34,1.34,1.12,1.09c.84-.86,1.61-1.67,2.4-2.46s1.31-.73,1.84-.21.47,1.18-.18,1.85c-.86.86-1.72,1.71-2.57,2.58-.15.15-.35.34-.35.51,0,1.72,0,3.43,0,5.16Zm0,2.39H25.56v2.25h13.9ZM25.55,58.07H39.43V55.82H25.55Zm4.65,4.65h4.57V60.48H30.2Z" transform="translate(-3.39 0.11)" fill="#01c6fd"></path>
  <path d="M12.67,7.89a6.72,6.72,0,0,1,1,.66q1.53,1.48,3,3a1.18,1.18,0,1,1-1.65,1.65Q13.5,11.66,12,10.09a1,1,0,0,1-.27-1.31A5.08,5.08,0,0,1,12.67,7.89Z" transform="translate(-3.39 0.11)" fill="#001157"></path>
  <path d="M48.87,13.81c-.3-.24-.76-.43-.9-.76a1.36,1.36,0,0,1,.1-1.19c1.12-1.23,2.31-2.4,3.52-3.55a1,1,0,0,1,1.5.1,1,1,0,0,1,.09,1.5c-1.14,1.21-2.34,2.38-3.53,3.54A3,3,0,0,1,48.87,13.81Z" transform="translate(-3.39 0.11)" fill="#001157"></path>
  <path d="M12.63,50c-.29-.22-.74-.39-.88-.7a1.42,1.42,0,0,1,.05-1.2c1.12-1.24,2.31-2.42,3.53-3.56a1,1,0,0,1,1.5.11,1,1,0,0,1,.08,1.51c-1.14,1.19-2.32,2.34-3.5,3.49A2.76,2.76,0,0,1,12.63,50Z" transform="translate(-3.39 0.11)" fill="#001157"></path>
  <path d="M31.34,3.37c0-.75,0-1.51,0-2.26a1.16,1.16,0,1,1,2.32,0c0,1.5,0,3,0,4.51a1.16,1.16,0,1,1-2.32,0C31.32,4.87,31.34,4.12,31.34,3.37Z" transform="translate(-3.39 0.11)" fill="#001157"></path>
  <path d="M6.83,30.16c-.73,0-1.46,0-2.18,0a1.16,1.16,0,1,1,0-2.32q2.22,0,4.44,0A1.17,1.17,0,0,1,10.37,29a1.18,1.18,0,0,1-1.29,1.19C8.33,30.18,7.58,30.16,6.83,30.16Z" transform="translate(-3.39 0.11)" fill="#001157"></path>
  <path d="M58.12,30.16c-.75,0-1.5,0-2.25,0a1.16,1.16,0,1,1,0-2.32c1.5,0,3,0,4.51,0a1.16,1.16,0,1,1,0,2.32C59.63,30.18,58.87,30.16,58.12,30.16Z" transform="translate(-3.39 0.11)" fill="#001157"></path>
  <path d="M48.91,44.15a6.44,6.44,0,0,1,1,.65c1,1,2,2,3,3a1.19,1.19,0,0,1,.13,1.8,1.18,1.18,0,0,1-1.75-.12c-1-1-2.06-2.06-3.08-3.09a1,1,0,0,1-.29-1.31A5.33,5.33,0,0,1,48.91,44.15Z" transform="translate(-3.39 0.11)" fill="#001157"></path>
</svg>
