<?xml version="1.0" encoding="UTF-8"?>
<svg xmlns="http://www.w3.org/2000/svg" id="Layer_1" data-name="Layer 1" viewBox="0 0 64.38 57.35">
  <path d="M.31,12.53c.1-.32.2-.63.31-.94A5.5,5.5,0,0,1,9.31,9.12c.19.15.38.32.59.5A5.38,5.38,0,0,1,14,7.89a7.86,7.86,0,0,1,2.08.43A1,1,0,0,0,17,8.25,27.25,27.25,0,0,1,33.72,3.9C44.88,4.7,53,10.19,58.14,20.16c.44.86.76,1.77,1.11,2.66s.13,1.29-.42,1.5-1.06-.06-1.35-.84A25.57,25.57,0,0,0,47.13,10.27c-9.34-5.91-18.91-6.11-28.59-.75l-.27.16a.73.73,0,0,0-.11.14A5.56,5.56,0,0,1,19.43,14,5.84,5.84,0,0,1,17,18a.93.93,0,0,1-1.28-1.33,6.7,6.7,0,0,1,.7-.71,3.45,3.45,0,0,0,.9-3.81,3.42,3.42,0,0,0-3-2.39,3.52,3.52,0,0,0-3.52,1.72c-.64,1-1.31,1-1.95,0a3.6,3.6,0,0,0-5.2-1.05,3.53,3.53,0,0,0-.57,5.3A40.14,40.14,0,0,0,6.88,19c.8.66,1.69,1.23,2.53,1.86a.7.7,0,0,0,1,0c.77-.59,1.55-1.15,2.32-1.72s1.19-.47,1.55,0,.22,1.05-.43,1.53l-2.28,1.68a2.47,2.47,0,0,1-3.29,0L7.67,22A26.74,26.74,0,0,0,49.22,53.17c-.72-.67-1.48-1.3-2.14-2a5.33,5.33,0,0,1-1.3-5.52,5.49,5.49,0,0,1,8.86-2.48l.38.33H55c.74-.46,1.42-.86,2.08-1.29a1,1,0,0,0,.35-.47,26.57,26.57,0,0,0,1.27-13.6c0-.22-.08-.45-.1-.68a.92.92,0,0,1,.72-1.08.87.87,0,0,1,1.11.74c.2,1.24.4,2.48.48,3.73a28.14,28.14,0,0,1-1.32,10.47c0,.14-.07.28-.1.44.48.11.95.19,1.4.33A5.42,5.42,0,0,1,63.13,51a77.71,77.71,0,0,1-6.84,5.51,2.19,2.19,0,0,1-2.7-.13c-.92-.65-1.83-1.32-2.77-2a28.77,28.77,0,0,1-35.7,1.12A28.83,28.83,0,0,1,6,20.79C3.81,18.85,1,17.42.31,14.16Zm47.1,34.78A3.85,3.85,0,0,0,49,50.43c1.81,1.49,3.69,2.89,5.54,4.33a.72.72,0,0,0,1,0c1.08-.83,2.2-1.61,3.26-2.46a29.5,29.5,0,0,0,3-2.61A3.57,3.57,0,0,0,60,43.8a3.61,3.61,0,0,0-4,1.65c-.6.95-1.3.95-1.92,0a1.4,1.4,0,0,0-.1-.16,3.6,3.6,0,0,0-6.6,2Z" transform="translate(-0.31 -3.83)" fill="#01c6fd"></path>
  <path d="M32.27,47.08A11.18,11.18,0,0,1,21.14,36.22c0-.52.09-1,.63-1.17s1.19.23,1.28,1a15.87,15.87,0,0,0,.4,2.59,9.21,9.21,0,0,0,18-1.71c0-.33,0-.67.08-1a.9.9,0,0,1,.93-.9.88.88,0,0,1,.93,1A15.14,15.14,0,0,1,43,38.82,11.13,11.13,0,0,1,32.27,47.08Z" transform="translate(-0.31 -3.83)" fill="#001157"></path>
  <path d="M25.34,33.06a4.3,4.3,0,0,1-4.29-4.13c0-.66.3-1.06.85-1.1s1,.32,1,1a2.41,2.41,0,0,0,4.81.11c.11-.81.46-1.16,1.08-1.1A1,1,0,0,1,29.66,29,4.31,4.31,0,0,1,25.34,33.06Z" transform="translate(-0.31 -3.83)" fill="#001157"></path>
  <path d="M38.3,33.06A4.29,4.29,0,0,1,34,29c0-.76.27-1.17.86-1.2s1,.34,1,1.08a2.41,2.41,0,0,0,4.7.55,6,6,0,0,0,.12-.74.93.93,0,0,1,1-.89.91.91,0,0,1,.87,1A4.29,4.29,0,0,1,38.3,33.06Z" transform="translate(-0.31 -3.83)" fill="#001157"></path>
</svg>
