<?xml version="1.0" encoding="UTF-8"?>
<svg xmlns="http://www.w3.org/2000/svg" id="Layer_1" data-name="Layer 1" viewBox="0 0 64.15 64.17">
  <path d="M12.11,42.68a23.67,23.67,0,0,0,2.66-1.85,14.26,14.26,0,0,1,6.09-3.59,12.89,12.89,0,0,1,9.25.91,10.73,10.73,0,0,0,5.15,1.15c1.53,0,3.13.25,4.57-.11a18.34,18.34,0,0,0,4.05-2.09,6,6,0,0,1,6.67.26.77.77,0,0,0,.66,0,4.48,4.48,0,0,1,5.53.83c.32.33.54.18.84,0A5.29,5.29,0,0,1,64.24,40c.51.74.45,1.09-.3,1.6-6.27,4.32-12.51,8.68-18.84,12.9a11.23,11.23,0,0,1-7.87,1.66c-3.68-.5-7.33-1.25-11-1.9-.57-.1-1.13-.23-1.7-.33a3.53,3.53,0,0,0-2.59.49c-1.58,1-3.16,2-4.76,3a.65.65,0,0,0-.33.89c.52,1.61,1,3.23,1.48,4.84.32,1.05,0,1.45-1,1.46H4.59c-.89,0-1.13-.19-1.24-1.05l-1.71-14C1.25,46.25.86,43,.45,39.77c-.12-1,.14-1.32,1.14-1.32,2.76,0,5.52,0,8.27,0a1.11,1.11,0,0,1,1.24.93C11.38,40.39,11.71,41.4,12.11,42.68ZM46.3,44.75A4.49,4.49,0,0,0,43,41.12,6.85,6.85,0,0,0,41.47,41c-1.87,0-3.75-.06-5.62,0a14.74,14.74,0,0,1-6.77-1.43A10.93,10.93,0,0,0,17.15,41c-1.45,1.14-2.71,2.54-4.62,3.08l3.64,12c.28-.15.48-.26.67-.38Q19,54.3,21.12,52.94a4.89,4.89,0,0,1,3.53-.69c1.6.26,3.18.59,4.78.88,2.61.46,5.22,1,7.86,1.35A10.19,10.19,0,0,0,44.35,53c4.62-3.07,9.17-6.26,13.75-9.41l4.39-3a3.48,3.48,0,0,0-4.33-.72q-4.83,2.58-9.65,5.2a.8.8,0,0,0-.39.42c-.27,1-.36,1-1.37,1-3.72-.12-7.44-.55-11.16-.05-.56.08-1.05,0-1.16-.68s.26-.93,1-1c1.89-.1,3.79-.2,5.68-.2C42.81,44.55,44.52,44.67,46.3,44.75ZM2.18,40.12,5,62.89H16.45c0-.07,0-.12,0-.16q-3.37-11.1-6.78-22.2a.75.75,0,0,0-.58-.39c-.83,0-1.66,0-2.49,0Zm45.64,3.39,7.62-4.12a2.49,2.49,0,0,0-2.85-.78c-2,1-3.86,2-5.79,3.06Zm1.31-5c-1.53-1.09-3.66-.75-5.81.84.65.32,1.29.67,2,1a.78.78,0,0,0,.56-.05C46.93,39.73,48,39.14,49.13,38.53Z" transform="translate(-0.43 -0.41)" fill="#001157"></path>
  <path d="M43.53,30.23c0,.6,0,1.13,0,1.66,0,.81-.25,1.06-1,1.06h-20c-.75,0-1-.26-1-1,0-.53,0-1.06,0-1.67-.31,0-.58-.05-.84-.05H8c-1.13,0-1.36-.22-1.36-1.32,0-1.74,0-3.48,0-5.21a6.23,6.23,0,0,1,5.72-5.95,1.37,1.37,0,0,1,1.21.5,3.75,3.75,0,0,0,5.78,0,1.38,1.38,0,0,1,1.48-.48c.77.2,1.54.46,2.38.73a7.26,7.26,0,0,1,3.88-2.21,2.17,2.17,0,0,1,2.34.67,4.34,4.34,0,0,0,6.42-.1,1.79,1.79,0,0,1,1.9-.59,7.21,7.21,0,0,1,3.93,2.17c1-.25,1.95-.5,2.89-.71a1.11,1.11,0,0,1,1.14.47,3.77,3.77,0,0,0,5.84,0,1.38,1.38,0,0,1,1.35-.47,6.27,6.27,0,0,1,5.4,6c0,1.76,0,3.52,0,5.28,0,.93-.26,1.2-1.19,1.2H43.53Zm-1.71,1c0-2.91.08-5.73,0-8.55a5.16,5.16,0,0,0-4-4.69.86.86,0,0,0-.92.24,6.14,6.14,0,0,1-8.63,0,1.12,1.12,0,0,0-.84-.25,5.28,5.28,0,0,0-4.27,5.18c0,2.53,0,5.05,0,7.57,0,.17,0,.35.06.52ZM8.32,28.51H21.41c.33-2.85-.49-5.75.8-8.53A8.36,8.36,0,0,0,21,19.56a1,1,0,0,0-.72.19,5.5,5.5,0,0,1-7.66,0,1,1,0,0,0-.72-.2A4.48,4.48,0,0,0,8.34,23.6C8.26,25.21,8.32,26.83,8.32,28.51Zm48.34,0v-.69c0-1.41.05-2.83,0-4.23a4.48,4.48,0,0,0-3.37-4,1,1,0,0,0-.78.18,5.5,5.5,0,0,1-7.67,0c-.14-.12-.37-.28-.51-.25-.52.12-1,.32-1.58.5a8.34,8.34,0,0,1,.8,4.24c0,1.43,0,2.86,0,4.32Z" transform="translate(-0.43 -0.41)" fill="#01c6fd"></path>
  <path d="M26.13,8.08a18,18,0,0,1,.18-2.56A6.3,6.3,0,0,1,32.75.42a6.2,6.2,0,0,1,6,5.74,18,18,0,0,1-.16,4.76A6.14,6.14,0,0,1,32,15.74,6.27,6.27,0,0,1,26.2,9.82c0-.58,0-1.16,0-1.74Zm1.63,0h.11c0,.58,0,1.16,0,1.73A4.63,4.63,0,0,0,32.4,14.1a4.57,4.57,0,0,0,4.68-4,21.61,21.61,0,0,0,0-3.94,4.62,4.62,0,0,0-9-.74A16.92,16.92,0,0,0,27.76,8.05Z" transform="translate(-0.43 -0.41)" fill="#01c6fd"></path>
  <path d="M10.72,10.76a17.54,17.54,0,0,1,.2-2.41A5.62,5.62,0,0,1,22,9.2,19.4,19.4,0,0,1,21.91,13a5.56,5.56,0,0,1-5.76,4.58,5.63,5.63,0,0,1-5.36-5.3c0-.5,0-1,0-1.52Zm9.71,0h-.05c0-.44,0-.88,0-1.32a4,4,0,0,0-4-3.87,4,4,0,0,0-3.91,3.9c0,.9,0,1.8,0,2.71a3.94,3.94,0,0,0,7.81.58A16.51,16.51,0,0,0,20.43,10.75Z" transform="translate(-0.43 -0.41)" fill="#01c6fd"></path>
  <path d="M54.26,10.74A18.43,18.43,0,0,1,54,13.22,5.61,5.61,0,0,1,43,12.28a19.47,19.47,0,0,1,.1-3.74A5.57,5.57,0,0,1,48.84,3.9a5.63,5.63,0,0,1,5.34,5.31c0,.51,0,1,0,1.53Zm-1.69,0h0c0-.49,0-1,0-1.46a3.94,3.94,0,0,0-3.76-3.75,3.84,3.84,0,0,0-4,3.18,14.78,14.78,0,0,0,0,3.93,3.82,3.82,0,0,0,3.77,3.25,4,4,0,0,0,3.94-3.08A12.94,12.94,0,0,0,52.57,10.78Z" transform="translate(-0.43 -0.41)" fill="#01c6fd"></path>
  <path d="M10.26,62.09a2.61,2.61,0,0,1-2.64-2.63,2.62,2.62,0,1,1,2.64,2.63Zm0-1.67a1,1,0,1,0-.94-.92A1,1,0,0,0,10.22,60.42Z" transform="translate(-0.43 -0.41)" fill="#001157"></path>
</svg>
