<?xml version="1.0" encoding="UTF-8"?>
<svg id="Layer_2" data-name="Layer 2" xmlns="http://www.w3.org/2000/svg" viewBox="0 0 98.92 114.08">
  <defs>
    <style>
      .cls-1 {
        fill: #fff;
      }
    </style>
  </defs>
  <g id="Layer_1-2" data-name="Layer 1">
    <path class="cls-1" d="M38.66,7.74c-10.81,18.77,9.78,61.29,33.77,55.98-2.98,9.55-8.37,18.7-16.38,24.86-6.34,4.79-14.45,7.87-22.46,7.31-9.92-.9-18.27-7.27-25.88-13.19,5.13-2.07,10.7-3.26,16.04-4.62,4.66-.39,3.82-6.43-.62-5.06-5.96,1.67-18.24,3.77-22.38,8.03-1.43,1.79-.52,4.15.13,6.07,1.03,2.91,2.37,5.95,3.64,8.77,2.46,5.36,5.21,11.05,7.98,16.24,2.21,4.28,7.39.63,4.31-3.24-3.35-6.4-6.67-13.18-9.55-19.8,7.1,5.43,15.06,10.59,24.08,11.9,10.55,1.43,21.44-2.72,29.49-9.43,9.11-7.69,14.93-18.8,17.77-30.27,8.16-4.87,13.82-13.29,17.24-22.01,3.99-10,4.03-18.67.52-28.83-.38-1.06-1.26-3.2-1.76-4.22-.74-1.71-2.19-4.16-4.41-2.92-2.18,1.13-1.16,3.58-.13,5.14,3.77,7.99,5.17,17.51,2.12,25.95-2.32,7.39-6.38,14.42-12.17,19.62,1.71-12.33.8-27.78-6.11-38.47C68.95,8.1,61.53.35,52,0c-5.41-.09-10.6,3.15-13.34,7.74ZM45.57,7.53c6.71-5.55,14.81-.09,19.66,5.26,5.13,5.62,8.01,11.64,9.26,19.12,1.55,8.56,1.3,17.54-.53,26.03-15.22,6.02-27.63-13.44-31.25-25.88-2.17-7.55-3.81-18.81,2.86-24.54Z"/>
  </g>
</svg>