<?xml version="1.0" encoding="UTF-8"?><svg id="Layer_2" xmlns="http://www.w3.org/2000/svg" viewBox="0 0 177.68 177.35"><defs><style>.cls-1{fill:#fff;}</style></defs><g id="Layer_3"><path class="cls-1" d="M41.44,13.83l1.01-.63,14.71,10.33-1.77,1.11-3.31-2.35-6.65,4.16.64,4.02-1.77,1.11-2.85-17.75ZM50.49,21.19l-6.66-4.71,1.31,8.05,5.34-3.34Z"/><path class="cls-1" d="M52.13,10.19l-5.23,2.38-.81-1.78,12.21-5.55.81,1.78-5.23,2.38,6.05,13.29-1.74.79-6.05-13.29Z"/><path class="cls-1" d="M61.74,4.1l5.96-1.45c3.35-.82,5.96.75,6.71,3.93.52,2.24-.11,4.41-2.46,5.52l5.84,5.13-2.37.56-5.42-4.74-3.86.94,1.4,5.74-1.88.46-3.92-16.08ZM72.51,7.03c-.53-2.17-2.09-3.04-4.37-2.48l-4.07.99,1.59,6.52,4-.98c2.68-.65,3.36-1.93,2.85-4.05Z"/><path class="cls-1" d="M76.48.95l1.92-.25,2.11,16.42-1.92.25-2.11-16.42Z"/><path class="cls-1" d="M87.07,8.24L81.51.21l2.39-.04,4.35,6.19L92.39.04l2.39-.04-5.32,8.25,6.04,8.28-2.39.04-4.85-6.71-4.58,6.86-2.39.04,5.78-8.51Z"/><path class="cls-1" d="M106.7,1.9l1.89.41-3.5,16.18-1.89-.41,3.5-16.18Z"/><path class="cls-1" d="M116.15,6.45l-5.44-1.87.64-1.85,12.68,4.37-.64,1.85-5.44-1.87-4.76,13.81-1.8-.62,4.76-13.81Z"/><path class="cls-1" d="M128.41,22.01l1.53,1.11c-1.15,1.63-.86,3.73,1.43,5.35,2.33,1.64,4.24.97,5.14-.31.8-1.13.58-2.29-.88-3.58l-2.61-2.21c-2.1-1.82-2.23-3.77-.95-5.59,1.46-2.07,4.58-3.1,7.81-.82,2.61,1.84,3.9,4.61,1.82,7.67l-1.58-1.11c1.01-1.62.9-3.39-1.35-4.98-2.01-1.42-4.13-1.09-5.06.23-.84,1.18-.42,2.18.94,3.37l2.53,2.15c2.34,1.99,2.24,4.17,1,5.91-1.41,1.99-4.43,3.32-7.84.91-3.02-2.13-4.02-5.11-1.94-8.1Z"/><path class="cls-1" d="M141.68,27.73c3.79-3.63,8.47-3.5,11.3-.54,2.83,2.96,2.78,7.65-1,11.28-3.77,3.61-8.45,3.51-11.32.53-2.83-2.96-2.77-7.64,1.02-11.27ZM150.65,37.1c3.07-2.94,3.08-6.29.91-8.55-2.15-2.24-5.48-2.36-8.55.58-3.05,2.93-3.08,6.26-.93,8.5,2.16,2.26,5.51,2.39,8.57-.53Z"/><path class="cls-1" d="M159.88,35.56l1.06,1.59-12.12,8.1,4.24,6.35-1.64,1.1-5.3-7.93,13.77-9.2Z"/><path class="cls-1" d="M158.58,49.09l7.87-3.64.81,1.75-7.87,3.64c-3.9,1.81-4.73,4.14-3.47,6.85,1.28,2.78,3.56,3.58,7.46,1.77l7.87-3.64.81,1.75-7.87,3.64c-4.8,2.22-8.38.96-10.07-2.69-1.68-3.63-.33-7.22,4.45-9.44Z"/><path class="cls-1" d="M172.75,67.12l-1.37-5.58,1.9-.46,3.19,13.02-1.9.46-1.37-5.58-14.19,3.47-.45-1.85,14.19-3.47Z"/><path class="cls-1" d="M176.63,76.83l.24,1.92-16.44,2.02-.24-1.92,16.44-2.02Z"/><path class="cls-1" d="M169.27,81.6c5.24.08,8.48,3.47,8.41,7.56-.06,4.09-3.41,7.4-8.65,7.31-5.22-.08-8.48-3.45-8.41-7.59.06-4.09,3.41-7.38,8.65-7.29ZM169.06,94.56c4.25.07,6.61-2.31,6.66-5.44.05-3.1-2.23-5.53-6.49-5.6-4.23-.07-6.59,2.29-6.64,5.39-.05,3.13,2.23,5.58,6.47,5.65Z"/><path class="cls-1" d="M176.93,100.16l-.36,1.71-14.56,7.1,12.54,2.61-.39,1.87-16.19-3.37.26-1.38,15.01-7.33-12.93-2.69.39-1.89,16.22,3.37Z"/><path class="cls-1" d="M162.59,112.59l-.74,1.73c-1.85-.76-3.83-.01-4.9,2.58-1.09,2.64,0,4.35,1.44,4.95,1.28.53,2.37.06,3.3-1.65l1.58-3.03c1.31-2.44,3.19-3.01,5.25-2.16,2.34.97,4.04,3.78,2.52,7.44-1.22,2.95-3.64,4.82-7.08,3.47l.74-1.79c1.81.62,3.51.13,4.56-2.42.94-2.27.15-4.27-1.34-4.88-1.34-.55-2.22.08-3.08,1.66l-1.54,2.95c-1.42,2.72-3.57,3.1-5.55,2.29-2.25-.93-4.22-3.59-2.62-7.45,1.42-3.42,4.1-5.05,7.47-3.68Z"/><path class="cls-1" d="M144.14,137.11c-1.25-1.05.43-3.04,1.68-1.98,1.3,1.1-.38,3.08-1.68,1.98Z"/><path class="cls-1" d="M134.91,164.33l-1.02.62-14.52-10.59,1.79-1.08,3.27,2.41,6.72-4.04-.57-4.03,1.79-1.08,2.53,17.79ZM125.99,156.81l6.57,4.82-1.17-8.07-5.4,3.24Z"/><path class="cls-1" d="M124.16,167.79l5.28-2.29.78,1.79-12.3,5.34-.78-1.79,5.28-2.29-5.81-13.4,1.75-.76,5.81,13.4Z"/><path class="cls-1" d="M114.48,173.7l-5.99,1.35c-3.36.76-5.94-.85-6.64-4.04-.48-2.25.18-4.4,2.56-5.48l-5.75-5.23,2.38-.51,5.33,4.83,3.88-.88-1.3-5.76,1.88-.43,3.65,16.15ZM103.76,170.58c.49,2.18,2.04,3.08,4.33,2.56l4.08-.92-1.48-6.55-4.02.91c-2.69.61-3.4,1.88-2.91,4.01Z"/><path class="cls-1" d="M99.66,176.59l-1.92.21-1.82-16.46,1.92-.21,1.82,16.46Z"/><path class="cls-1" d="M89.17,169.14l5.3,8.2-2.39-.04-4.15-6.32-4.33,6.19-2.39-.04,5.58-8.08-5.78-8.46,2.39.04,4.63,6.86,4.8-6.71,2.39.04-6.04,8.32Z"/><path class="cls-1" d="M69.48,175.14l-1.88-.44,3.78-16.13,1.88.44-3.78,16.13Z"/><path class="cls-1" d="M60.13,170.43l5.41,1.96-.67,1.84-12.61-4.58.67-1.84,5.41,1.96,4.99-13.73,1.79.65-4.99,13.73Z"/><path class="cls-1" d="M48.11,154.64l-1.51-1.13c1.18-1.61.92-3.71-1.34-5.37-2.3-1.68-4.23-1.04-5.15.22-.81,1.11-.62,2.28.82,3.59l2.57,2.25c2.06,1.85,2.17,3.81.85,5.61-1.49,2.04-4.63,3.02-7.82.68-2.58-1.89-3.82-4.67-1.69-7.7l1.56,1.14c-1.03,1.61-.96,3.37,1.27,5,1.99,1.45,4.11,1.16,5.06-.14.86-1.17.45-2.18-.89-3.38l-2.5-2.2c-2.31-2.03-2.17-4.21-.9-5.93,1.44-1.97,4.48-3.24,7.86-.77,2.99,2.19,3.93,5.18,1.8,8.13Z"/><path class="cls-1" d="M34.97,148.71c-3.85,3.57-8.53,3.36-11.31.35s-2.65-7.7,1.19-11.27c3.83-3.55,8.51-3.37,11.33-.33,2.78,3,2.64,7.69-1.21,11.25ZM26.14,139.2c-3.12,2.89-3.18,6.25-1.06,8.54,2.11,2.28,5.44,2.45,8.56-.44,3.11-2.88,3.18-6.21,1.07-8.49-2.13-2.3-5.47-2.49-8.58.39Z"/><path class="cls-1" d="M16.9,140.58l-1.03-1.6,12.26-7.89-4.13-6.42,1.66-1.07,5.17,8.02-13.92,8.96Z"/><path class="cls-1" d="M18.42,127.06l-7.93,3.5-.78-1.77,7.93-3.5c3.94-1.74,4.8-4.06,3.59-6.79-1.24-2.8-3.49-3.64-7.43-1.9l-7.93,3.5-.78-1.77,7.93-3.5c4.84-2.14,8.39-.81,10.02,2.87,1.62,3.66.2,7.23-4.62,9.36Z"/><path class="cls-1" d="M4.56,108.79l1.27,5.61-1.91.43-2.96-13.08,1.91-.43,1.27,5.61,14.24-3.23.42,1.86-14.24,3.23Z"/><path class="cls-1" d="M.85,98.99l-.2-1.92,16.47-1.74.2,1.92-16.47,1.74Z"/><path class="cls-1" d="M8.38,94.43C3.14,94.32-.08,90.92,0,86.83c.08-4.09,3.44-7.38,8.68-7.27,5.22.11,8.46,3.49,8.38,7.63-.08,4.09-3.44,7.36-8.68,7.25ZM8.65,81.46c-4.25-.09-6.63,2.28-6.69,5.41-.06,3.1,2.21,5.54,6.46,5.63,4.23.09,6.6-2.26,6.67-5.36.06-3.13-2.21-5.59-6.44-5.68Z"/><path class="cls-1" d="M.95,75.67l.39-1.7,14.68-6.84-12.49-2.83.42-1.86,16.13,3.65-.29,1.37-15.14,7.06,12.88,2.92-.43,1.88-16.15-3.66Z"/><path class="cls-1" d="M15.49,63.5l.77-1.72c1.84.8,3.83.08,4.94-2.49,1.14-2.62.08-4.35-1.35-4.98-1.27-.55-2.36-.1-3.32,1.59l-1.63,3c-1.35,2.42-3.24,2.96-5.29,2.07-2.32-1.01-3.97-3.85-2.4-7.48,1.27-2.93,3.72-4.76,7.14-3.35l-.77,1.77c-1.8-.65-3.5-.19-4.6,2.34-.98,2.26-.22,4.27,1.26,4.91,1.33.58,2.22-.04,3.11-1.61l1.59-2.92c1.47-2.7,3.63-3.04,5.59-2.19,2.24.97,4.16,3.66,2.49,7.5-1.47,3.4-4.19,4.98-7.53,3.55Z"/><path class="cls-1" d="M34.35,39.31c1.23,1.07-.48,3.03-1.71,1.96-1.28-1.12.43-3.08,1.71-1.96Z"/></g></svg>