<?xml version="1.0" encoding="UTF-8"?>
<svg id="Layer_2" data-name="Layer 2" xmlns="http://www.w3.org/2000/svg" viewBox="0 0 688.47 222.66">
  <defs>
    <style>
      .cls-1 {
        fill: #fff;
      }

      .cls-2 {
        fill: #231f20;
      }

      .cls-3 {
        fill: #00a2dc;
      }

      .cls-4 {
        fill: #00a657;
      }
    </style>
  </defs>
  <g id="Layer_1-2" data-name="Layer 1">
    <g>
      <rect class="cls-2" x="383.32" y="182.85" width="305.15" height="39.81"/>
      <rect class="cls-4" x="383.32" y="182.85" width="305.15" height="39.81"/>
      <polygon class="cls-3" points="255.56 0 178.81 169.42 227.08 137.63 255.56 71.97 284.05 137.63 332.32 169.42 255.56 0"/>
      <polygon class="cls-4" points="255.56 129.77 162.2 191.35 255.56 164.67 348.93 191.35 255.56 129.77"/>
      <path class="cls-3" d="M122.67,169.27h17.41L84.05,23.19h-27.82L0,169.27h17.01l11.13-29.02h83.45l11.08,29.02ZM39.35,111.04l16.28-42.42c.93-2.27,2.5-3.93,4.7-5,2.2-1.07,5.3-1.6,9.31-1.6s7.37.53,9.71,1.6c2.33,1.07,3.97,2.74,4.9,5l16.19,42.42h-61.09Z"/>
      <path class="cls-3" d="M187.84,36c-10.41-8.53-25.49-12.81-45.24-12.81h-46.81v.09l11.18,29.14h36.63c10,0,18.32.77,24.91,2.29,6.61,1.54,11.58,3.84,14.91,6.9,3.33,3.08,5,6.88,5,11.42,0,4.8-1.67,8.73-5,11.79-3.33,3.08-8.3,5.41-14.91,7.01-6.6,1.6-14.91,2.4-24.91,2.4h-20.61l11.2,29.21h15.02c17.74,0,31.22-4.37,40.42-13.1,9.21-8.75,13.82-21.24,13.82-37.53s-5.22-28.26-15.61-36.81Z"/>
      <polygon class="cls-3" points="406.31 23.18 406.31 53.21 360.89 53.21 360.89 188.25 336.07 171.9 336.07 53.21 290.92 53.21 278.11 23.18 406.31 23.18"/>
      <path class="cls-3" d="M477.58,35.61c-9.61-8.28-23.6-12.42-42.03-12.42h-10.13v29.43h10.13c9.34,0,17.04.7,23.12,2.1,6.08,1.4,10.61,3.49,13.6,6.31,3.01,2.8,4.5,6.2,4.5,10.2,0,4.27-1.49,7.78-4.5,10.5-2.99,2.74-7.53,4.8-13.6,6.2-6.08,1.42-13.78,2.11-23.12,2.11h-52.23v79.24h16.42v-50.44h39.41c3.87,0,7.56-.23,11.04-.68,6.6-.86,12.49-2.53,17.69-5.02,7.92-3.8,13.93-9.23,17.99-16.31,4.07-7.06,6.11-15.61,6.11-25.61,0-15.47-4.8-27.35-14.41-35.61ZM450.19,118.17l-2.03-2.31-20.61.39,2.2,2.6,42.62,50.44h22.6l-44.79-51.12Z"/>
      <polygon class="cls-3" points="551.31 52.61 551.31 23.19 502.08 23.19 502.08 52.61 518.69 52.61 518.69 139.86 502.08 139.86 502.08 169.27 551.31 169.27 551.31 139.86 534.3 139.86 534.3 52.61 551.31 52.61"/>
      <path class="cls-3" d="M637.13,92.65l46.93-69.46h-20.21l-27.01,40.02c-1.74,2.4-3.87,4.14-6.4,5.2-2.54,1.07-5.87,1.6-10,1.6s-7.37-.53-10.11-1.6c-2.74-1.07-4.84-2.8-6.3-5.2l-26.61-40.02h-21.01l46.63,69.56-51.83,76.52h20.21l30.62-45.83c1.6-2.27,3.83-3.97,6.7-5.1,2.87-1.13,6.37-1.7,10.51-1.7s7.67.57,10.61,1.7c2.93,1.14,5.2,2.84,6.8,5.1l30.62,45.83h21.21l-51.33-76.62Z"/>
      <g>
        <path class="cls-1" d="M401.74,189.81h7.18v25.9h-7.18v-25.9Z"/>
        <path class="cls-1" d="M419.98,196.1h-7.73v-6.29h22.68v6.29h-7.77v19.61h-7.18v-19.61Z"/>
        <path class="cls-1" d="M448.46,211.93l2.74-3.26c2.52,2.18,4.96,3.37,8.18,3.37,2.81,0,4.59-1.33,4.59-3.26v-.07c0-1.81-1.04-2.89-5.85-3.96-5.51-1.3-8.62-3-8.62-7.73v-.07c0-4.44,3.7-7.51,8.84-7.51,3.81,0,6.73,1.15,9.4,3.26l-2.44,3.44c-2.37-1.74-4.66-2.66-7.03-2.66-2.66,0-4.22,1.33-4.22,3.07v.07c0,2,1.18,2.89,6.18,4.07,5.44,1.41,8.29,3.26,8.29,7.58v.07c0,4.88-3.81,7.73-9.25,7.73-3.99,0-7.7-1.33-10.8-4.14Z"/>
        <path class="cls-1" d="M472.73,202.83v-.07c0-7.25,5.62-13.39,13.58-13.39s13.5,6.03,13.5,13.32v.07c0,7.25-5.62,13.39-13.58,13.39s-13.5-6.03-13.5-13.32ZM495.04,202.83v-.07c0-5.03-3.63-9.17-8.8-9.17s-8.73,4.07-8.73,9.1v.07c0,5.03,3.63,9.18,8.81,9.18s8.73-4.07,8.73-9.1Z"/>
        <path class="cls-1" d="M505.32,189.81h4.55v21.75h13.61v4.14h-18.16v-25.9Z"/>
        <path class="cls-1" d="M527.07,204.72v-14.91h4.55v14.72c0,4.85,2.44,7.36,6.55,7.36s6.51-2.4,6.51-7.18v-14.91h4.55v14.69c0,7.73-4.37,11.62-11.14,11.62s-11.03-3.88-11.03-11.39Z"/>
        <path class="cls-1" d="M561.81,194.02h-8.25v-4.22h21.05v4.22h-8.25v21.68h-4.55v-21.68Z"/>
        <path class="cls-1" d="M579.6,189.81h4.55v25.9h-4.55v-25.9Z"/>
        <path class="cls-1" d="M589.92,202.83v-.07c0-7.25,5.62-13.39,13.58-13.39s13.5,6.03,13.5,13.32v.07c0,7.25-5.62,13.39-13.58,13.39s-13.5-6.03-13.5-13.32ZM612.23,202.83v-.07c0-5.03-3.63-9.17-8.81-9.17s-8.73,4.07-8.73,9.1v.07c0,5.03,3.63,9.18,8.81,9.18s8.73-4.07,8.73-9.1Z"/>
        <path class="cls-1" d="M622.51,189.81h4.22l13.87,17.91v-17.91h4.48v25.9h-3.81l-14.28-18.42v18.42h-4.48v-25.9Z"/>
        <path class="cls-1" d="M650,211.93l2.74-3.26c2.52,2.18,4.96,3.37,8.18,3.37,2.81,0,4.59-1.33,4.59-3.26v-.07c0-1.81-1.04-2.89-5.85-3.96-5.51-1.3-8.62-3-8.62-7.73v-.07c0-4.44,3.7-7.51,8.84-7.51,3.81,0,6.73,1.15,9.4,3.26l-2.44,3.44c-2.37-1.74-4.66-2.66-7.03-2.66-2.66,0-4.22,1.33-4.22,3.07v.07c0,2,1.18,2.89,6.18,4.07,5.44,1.41,8.29,3.26,8.29,7.58v.07c0,4.88-3.81,7.73-9.25,7.73-3.99,0-7.7-1.33-10.8-4.14Z"/>
      </g>
    </g>
  </g>
</svg>