<?xml version="1.0" encoding="UTF-8"?>
<svg id="Layer_2" data-name="Layer 2" xmlns="http://www.w3.org/2000/svg" viewBox="0 0 58.26 62.23">
  <defs>
    <style>
      .cls-1 {
        fill: #272626;
      }
    </style>
  </defs>
  <g id="Layer_1-2" data-name="Layer 1">
    <path class="cls-1" d="M15.65,47.01v-16.34c0-.34.94-1.29,1.29-1.29h7.53V13.05c0-.42,1.02-1.38,1.53-1.29l18.3.06c.37.05,1.22.92,1.22,1.23v16.34h7.53c.38,0,1.36,1.04,1.29,1.53v16.1s2.63,0,2.63,0c.04,0,.53.3.61.37.77.61.92,1.6.31,2.39-.13.17-.76.67-.92.67h-8.02c.07.41-.13,1.4.06,1.72.05.08,1.28.71,1.6.97,2.95,2.5,2.08,7.43-1.53,8.75-5.68,2.07-9.85-5.57-4.57-9.22.22-.15.86-.35.96-.51.19-.32-.02-1.3.06-1.72h-23.99c.07.41-.13,1.4.06,1.72.05.08,1.28.71,1.6.97,2.95,2.5,2.08,7.43-1.53,8.75-5.68,2.07-9.85-5.57-4.57-9.22.22-.15.86-.35.96-.51.19-.32-.02-1.3.06-1.72h-5.45c-1.58,0-3.87-2.47-3.85-4.1l-.06-39.97c-.19-.72-.65-1.3-1.35-1.59-1.63-.66-4.13-.78-5.9-1.32C-.77,2.75-.25.1,1.64,0c.94-.05,5.17,1,6.28,1.32,2.44.71,4.12,2.52,4.32,5.11v39.18c-.12.51.55,1.4,1.03,1.4h2.39ZM33.28,15.19h-5.39v14.2h14.2v-14.2h-5.39v2.63s-.3.53-.37.61c-.61.77-1.6.92-2.39.31-.17-.13-.67-.76-.67-.92v-2.63ZM24.47,32.81h-5.39v14.2h14.2v-14.2h-5.39v2.63s-.3.53-.37.61c-.61.77-1.6.92-2.39.31-.17-.13-.67-.76-.67-.92v-2.63ZM42.09,32.81h-5.39v14.2h14.2v-14.2h-5.39v2.63s-.3.53-.37.61c-.61.77-1.6.92-2.39.31-.17-.13-.67-.76-.67-.92v-2.63ZM21.52,57.05c0-.94-.76-1.71-1.71-1.71s-1.71.76-1.71,1.71.76,1.71,1.71,1.71,1.71-.76,1.71-1.71ZM48.94,57.05c0-.94-.76-1.71-1.71-1.71s-1.71.76-1.71,1.71.76,1.71,1.71,1.71,1.71-.76,1.71-1.71Z"/>
  </g>
</svg>