<?xml version="1.0" encoding="UTF-8"?>
<svg id="Layer_2" data-name="Layer 2" xmlns="http://www.w3.org/2000/svg" viewBox="0 0 58.26 50.06">
  <defs>
    <style>
      .cls-1 {
        fill: #272626;
      }
    </style>
  </defs>
  <g id="Layer_1-2" data-name="Layer 1">
    <path class="cls-1" d="M1.74,48.19c-.95-.97-1.53-2.32-1.73-3.66V14.1c.3-2.93,2.61-5.27,5.53-5.65l9.43-.06c.82-3.84,1.84-7.79,6.42-8.27,5.03.31,10.51-.39,15.48,0,4.58.36,5.6,4.52,6.42,8.27l9.66.09c2.82.48,5.01,2.77,5.3,5.62v30.43c-.38,2.91-2.73,5.25-5.66,5.53H5.66c-1.35-.11-2.98-.9-3.92-1.87ZM21.69,4.32c-.3.07-.56.18-.81.36-1.28.91-1.58,4.96-2.18,6.53-.28.75-.91,1.3-1.72,1.4-3.33.41-7.61-.44-10.91,0-1.14.16-1.83,1-1.9,2.13.09,9.88-.16,19.8.13,29.66.27.97,1.05,1.41,2.02,1.49,15.43-.09,30.9.16,46.3-.13.97-.27,1.41-1.05,1.49-2.02-.09-9.88.16-19.8-.13-29.66-.24-.89-1-1.39-1.89-1.49-3.34-.38-7.49.41-10.8,0-.79-.1-1.45-.66-1.72-1.4-.58-1.61-.58-5.59-1.92-6.53-.22-.16-.45-.26-.71-.33l-15.25-.03ZM41.63,29.25c0,6.9-5.6,12.5-12.5,12.5s-12.5-5.6-12.5-12.5,5.6-12.5,12.5-12.5,12.5,5.6,12.5,12.5ZM37.43,29.25c0-4.59-3.72-8.3-8.3-8.3s-8.3,3.72-8.3,8.3,3.72,8.3,8.3,8.3,8.3-3.72,8.3-8.3ZM24.55,12.58c2.81-.21,6.33.39,9.06.02,2.29-.31,2.37-3.65.11-4.12h-9.3c-2.11.74-2.03,3.53.13,4.1ZM46.82,16.74c-1.74,0-3.15,1.41-3.15,3.15s1.41,3.15,3.15,3.15,3.15-1.41,3.15-3.15-1.41-3.15-3.15-3.15Z"/>
  </g>
</svg>