<?xml version="1.0" encoding="UTF-8"?>
<svg id="Layer_2" data-name="Layer 2" xmlns="http://www.w3.org/2000/svg" viewBox="0 0 63.01 55.5">
  <defs>
    <style>
      .cls-1 {
        fill: #272626;
      }
    </style>
  </defs>
  <g id="Layer_1-2" data-name="Layer 1">
    <g>
      <circle class="cls-1" cx="35.18" cy="13.07" r="1.87"/>
      <path class="cls-1" d="M0,16.76v-3.69c.62-2,1.95-3.71,4.06-4.24,1.57-.4,7.14-.35,8.92-.19.99.09,1.36.46,1.75,1.33,1.51,3.41,2.28,7.67,3.71,11.17.05.43.03.88-.19,1.27l-3.13,4.76c-.06.41.53,1.29.76,1.69,2.12,3.64,6.12,7.61,9.6,9.95.5.34,2.17,1.46,2.64,1.55.18.04.35.06.52-.04l4.57-3.06,1.03-.21,11.91,3.96c.5.32.76.81.82,1.39.21,1.98.15,5.96,0,8-.45,6.21-7.39,5.31-11.71,4.57C17.41,51.89,1.52,35.16.11,16.95l-.11-.2ZM42.76,51.28c.27-.27.49-.87.53-1.25.13-1.23.16-4.58,0-5.79-.02-.14,0-.27-.13-.36l-8.79-2.89c-1.36.52-4.31,3.32-5.54,3.45-.85.09-2.08-.57-2.85-.97-5.14-2.64-11.57-8.98-14.13-14.16-.44-.89-1.09-2.03-.66-3l3.31-5.06-2.89-8.79c-.09-.14-.23-.11-.36-.13-1.21-.15-4.56-.13-5.79,0-.81.09-1.5.56-1.7,1.38s-.04,2.33.04,3.24c1.5,16.91,16.86,32.54,33.66,34.61,1.17.14,3.71.46,4.72.08.15-.06.47-.24.57-.35Z"/>
      <path class="cls-1" d="M33.33,25.86c-8.99-1.31-13.94-11.28-9.36-19.28C29.52-3.13,41.96,1.05,51.1.15c10.54,1.01,15.8,13.52,8.55,21.58-4.48,4.98-10.14,4.28-16.27,4.27l-7.04,6.99c-4.52,1.89-2.61-4.77-3.02-7.13ZM37.02,26.97l4.3-4.25c.32-.3.75-.4,1.17-.43,4.32-.38,8.79,1.01,12.68-1.59,7.44-4.97,4.13-16.26-4.8-16.86-5.11.27-10.56-.34-15.63,0-8.4.56-11.92,10.98-5.4,16.36,2.11,1.74,3.6,1.73,6.14,2.1.61.09,1.55.76,1.55,1.4v3.26Z"/>
      <circle class="cls-1" cx="42.56" cy="13.07" r="1.87"/>
      <circle class="cls-1" cx="49.94" cy="13.07" r="1.87"/>
    </g>
  </g>
</svg>