<?xml version="1.0" encoding="UTF-8"?>
<svg id="Layer_2" data-name="Layer 2" xmlns="http://www.w3.org/2000/svg" viewBox="0 0 58.26 66.2">
  <defs>
    <style>
      .cls-1 {
        fill: #272626;
      }
    </style>
  </defs>
  <g id="Layer_1-2" data-name="Layer 1">
    <path class="cls-1" d="M52.01,3.92c1.79-.33,3.02,1.47,2.08,2.99-.27.44-3.93,4.12-4.38,4.41-1.76,1.15-3.83-.72-2.84-2.58.31-.58,3.5-3.76,4.14-4.26.3-.24.61-.48,1-.55ZM52.36,19.4c.95.09,3.47.12,4.37-.04,2-.34,2-3.32.23-3.79-.61-.16-4.28-.15-4.95-.03-2.06.38-2.08,3.62.35,3.85ZM38.89,1.52c-.14.67-.11,4.3.07,4.91.55,1.87,3.39,1.68,3.75-.06.15-.74.13-3.94.03-4.76-.14-1.16-1.26-1.79-2.37-1.58-.7.13-1.35.81-1.49,1.49ZM31.49,66.2l1.85-.67c1.18-.69,2.17-1.75,2.64-3.05,1.79-4.88-2.65-7.22-5.4-10.31,2.93-2.37,4.29-5.99,1.73-9.23-.19-.25-1.35-1.24-1.22-1.43,3.86-2.5,8.03-4.61,12.51-5.78.73-.19,2.1-.62,2.81-.56.51.04,1.26.57,1.87.72,5.68,1.38,9.56-5.31,5.76-9.64L31.82,4.01c-4.55-4.05-11.53.41-9.51,6.28.13.37.63,1.09.65,1.29.06.58-.89,3.66-1.13,4.43-4.06,12.94-11.62,16.87-19.82,26.21-2.08,2.37-2.88,5.32-.77,8.02.98,1.25,5.76,6.06,6.99,6.84,3.15,2.02,6.45.55,8.59-2.12l9.5,9.5c.92.86,1.94,1.31,3.1,1.74h2.07ZM29.16,6.92l21.91,21.91c1.67,1.87-.61,4.36-2.65,2.78L26.38,9.58c-1-1.19-.37-2.99,1.2-3.21.56-.08,1.15.22,1.58.55ZM42.99,31.75c-1.16.52-2.47.79-3.68,1.23-5.21,1.86-9.99,4.71-14.2,8.27l-8.23-8.33c1.25-1.73,2.6-3.37,3.75-5.17,2.5-3.92,4.37-8.24,5.56-12.74l16.8,16.74ZM22.18,43.9l-.13.26-9.44,9.43c-.9.75-1.86.55-2.72-.13-1.16-.92-4.47-4.21-5.37-5.36-.79-1.02-.79-1.83,0-2.85l9.47-9.42,8.19,8.07ZM27.8,49.39l-2.64-2.76,2.66-2.53c2.6,1.72,2.33,3.48-.02,5.29ZM32.06,59.23c1.21,1.99-.91,4.05-2.83,2.58l-9.44-9.44-.06-.19c0-.31,2.19-2.24,2.54-2.64,3.37,3.1,6.53,6.47,9.8,9.7ZM9.58,45.91c-.72,1.88,1.25,3.46,2.9,2.38.48-.31,3.2-3.13,3.39-3.59.68-1.62-.7-3.03-2.39-2.65-.64.14-3.65,3.2-3.9,3.85Z"/>
  </g>
</svg>