<?xml version="1.0" encoding="UTF-8"?><svg id="Layer_2" xmlns="http://www.w3.org/2000/svg" viewBox="0 0 104.82 105"><defs><style>.cls-1{fill:#fff;}</style></defs><g id="Layer_1-2"><path class="cls-1" d="M85.54,50.44h5.43c1.73,0,5.37,1.58,6.85,2.58,9.75,6.55,9.23,21.29-1.07,26.98-5.07,2.8-9.98,1.8-15.52,2.12-3.4,6.87-8.85,12.31-15.17,16.51h16.3c.56,0,1.82.61,2.24,1.05,1.8,1.89.69,4.94-1.83,5.31H2.99c-3.21-.27-3.85-4.78-.86-5.99.16-.06,1.21-.36,1.28-.36h16.3l-5.84-4.31C-.64,81.58-.43,65.98.23,47.88c.14-1.3.85-2.2,2.05-2.67l80.5-.1c2.69.53,2.96,3,2.76,5.34ZM79.18,51.47H6.59c.25,7.72-.87,15.55,1.49,23.01,3.47,10.93,13.35,19.83,24.34,22.82,22.75,6.2,45.71-8.6,46.76-32.6.19-4.39-.16-8.84,0-13.23ZM83.9,75.67h5.84c5.44,0,9.43-5.9,8.62-11.08-.51-3.27-4.33-7.78-7.8-7.78h-5.02c.08,6.34.11,12.73-1.64,18.87Z"/><path class="cls-1" d="M63.59,0c5.71,4.41,8.14,11.99,3.18,18.05-1.8,2.19-5.17,3.77-5.03,7.06.12,3.04,3.8,5.21,3.91,7.19.07,1.29-.82,2.87-2.09,3.24-2.49.72-3.95-1.07-5.26-2.87-2.77-3.79-3.91-8.32-1.71-12.72,2.44-4.87,9.42-6.41,5.13-12.84-.74-1.11-2.24-2.22-2.41-3.54-.2-1.57.7-2.84,2.03-3.57h2.26Z"/><path class="cls-1" d="M43.91,0c5.1,3.75,7.81,10.55,4.39,16.39-2.68,4.59-8.98,5.87-4.64,12.26,1.24,1.83,3.74,3.54,1.59,6.01-2.76,3.17-6.24-1.18-7.58-3.51-2.7-4.68-2.51-9.55,1.01-13.72,2.43-2.88,6.38-4.24,4.25-8.96-1.07-2.37-4.12-3.65-3.01-6.62.36-.97,1.1-1.35,1.94-1.85h2.05Z"/><path class="cls-1" d="M24.22,0c5.38,3.86,7.99,10.98,4.11,16.92-2.58,3.95-8.33,5.59-4.6,11.36.71,1.1,2.39,2.35,2.55,3.6.31,2.5-1.38,4.25-3.91,3.71-2.04-.44-4.8-4.9-5.48-6.82-1-2.82-.95-5.87.33-8.6,2.42-5.16,9.76-6.47,5.13-13.26-.63-.93-2.03-2.04-2.21-3.12-.29-1.85.52-2.91,2.04-3.78h2.05Z"/></g></svg>