<?xml version="1.0" encoding="UTF-8"?><svg id="Layer_2" xmlns="http://www.w3.org/2000/svg" viewBox="0 0 104.97 105"><defs><style>.cls-1{fill:#fff;}</style></defs><g id="Layer_1-2"><path class="cls-1" d="M24.37,4.15c.33-1.78,2.61-3.76,4.39-4.04,4.83-.78,7.51,2.91,6.85,7.44h33.74c-1.39-9.98,12.61-10.01,11.24,0l16.69.06c4.1.78,7.23,4.07,7.68,8.25v59.76c0,1.69-.83,3.18-1.88,4.45-6.67,8.1-16.48,15.37-23.43,23.43-.96.7-2.06,1.22-3.23,1.46l-68.34.06c-4.29-.61-7.63-3.98-8.09-8.31V15.63c0-3.25,4.45-8.08,7.62-8.08h16.75c.13-1.02-.18-2.43,0-3.4ZM29.22,4.08c-.64.19-1,1.12-1.08,1.73-.2,1.42-.2,5.8,0,7.22.36,2.51,3.35,2.51,3.71,0,.2-1.43.2-5.79,0-7.22s-1.15-2.17-2.62-1.73ZM74.2,4.08c-.64.19-1,1.12-1.08,1.73-.2,1.42-.2,5.8,0,7.22.36,2.51,3.35,2.51,3.71,0,.2-1.43.2-5.79,0-7.22-.2-1.45-1.15-2.17-2.62-1.73ZM3.76,16.56c-.35,3.01.26,6.65,0,9.72h97.46v-9.72c0-.27-.5-1.8-.66-2.15-.91-2-3-2.93-5.08-3.12-4.74-.43-10.07.32-14.87,0,1.39,9.98-12.61,10.01-11.24,0h-33.74c.36,3.09-.58,6.36-3.85,7.28-4.92,1.37-8.16-2.59-7.39-7.28-4.71.25-9.75-.33-14.42,0-3.26.23-5.79,1.82-6.2,5.28ZM101.22,30.03H3.76v65.95c0,.27.5,1.8.66,2.15.91,2,3,2.93,5.08,3.12l65.77-.06c2.34-.41,3.29-2.01,3.47-4.26.5-6.43-2.06-14.81,6.02-17.64,4.04-1.42,10.9.5,14.12-.87,1.08-.46,2.34-2.11,2.34-3.28V30.03ZM94.89,82.51h-7.15c-1.01,0-2.91.99-3.64,1.75-.69.71-1.63,2.58-1.63,3.52v7.38l12.42-12.65Z"/><path class="cls-1" d="M36.73,47.9c5.42-.73,10.76,1.83,12.75,7.04,1.34,3.5,1.2,13.61.89,17.61-1.07,13.92-20.33,14.5-22.85,2.01-.67-3.34-.72-14.33-.05-17.64.87-4.29,4.86-8.42,9.26-9.01ZM33.12,77.27c3.74,3.96,11.28,2.63,12.91-2.73.68-2.22.65-13.84.3-16.45-1.04-7.68-12.35-8.86-14.76-1.06-.77,2.47-.66,12.58-.4,15.52.14,1.56.86,3.57,1.95,4.72Z"/><path class="cls-1" d="M61.86,51.59l-.7,8.9c9.08-4.12,18.23,4.1,16.33,13.64-1.84,9.26-13.52,12.53-19.97,5.57-1.39-1.5-4.93-7.9-1.17-8.22,2.33-.2,1.99,1.6,2.58,3.06,3.66,8.96,16.92,4.95,14.57-5.2-1.17-5.04-7.45-7.81-11.76-4.64-.61.45-1.14,1.33-1.77,1.74-1.66,1.11-3.36.15-3.28-1.85.2-4.99,1.3-10.29,1.57-15.32.2-.66.87-1.44,1.59-1.46l16.41.02c1.19.39,1.65,1.67,1.17,2.8-.05.11-.87.94-.93.94h-14.64Z"/></g></svg>