<?xml version="1.0" encoding="UTF-8"?><svg id="Layer_2" xmlns="http://www.w3.org/2000/svg" viewBox="0 0 495.99 745.54"><defs><style>.cls-1{fill:#10100c;}.cls-2{stroke:#00a2dc;stroke-miterlimit:10;stroke-width:3px;}.cls-2,.cls-3{fill:none;}.cls-4{fill:#444343;}.cls-5{fill:#00a657;}.cls-6{fill:#33b5e3;}.cls-7{fill:#fff;}.cls-3{stroke:#444343;stroke-linecap:round;stroke-linejoin:round;stroke-width:2px;}</style></defs><g id="Layer_1-2"><path class="cls-7" d="M495.96,744.64c0,.14-111.03.26-247.96.26S.02,744.79.02,744.64s111-.26,247.98-.26,247.96.12,247.96.26Z"/><path class="cls-7" d="M84.5,163.42l-.36-3.97.84-37.51,4.06-31.22,30.96-20.14,24.05,7.16c-.04-.5-.1,2.19.72,8.35,0,0,2.44,45.77-2.91,54.6-4.96,8.18-16.64,8.95-19.24,13.64-3.24,5.84-3.83,20.8-3.83,20.8,0,0-28.68.74-34.29-11.7Z"/><path class="cls-1" d="M84.5,163.42s.12.19.33.57c.19.39.55.93,1.05,1.62,1.05,1.33,2.93,3.08,5.85,4.52,5.8,2.95,15.3,4.86,27.05,4.81l-.17.17c.14-3.12.43-6.39.89-9.8.52-3.39,1.06-7,2.62-10.46.34-.89,1.03-1.66,1.74-2.31.77-.6,1.58-1.13,2.45-1.58,1.72-.92,3.54-1.69,5.34-2.55,1.8-.86,3.61-1.78,5.28-2.96,1.67-1.18,3.2-2.62,4.35-4.36.64-.83,1-1.81,1.34-2.82.32-1.01.57-2.06.77-3.12.41-2.13.69-4.31.9-6.53.42-4.44.61-9,.7-13.65.17-9.3-.03-18.97-.5-28.88v.02c-.1-.85-.21-1.77-.33-2.69-.11-.97-.2-1.94-.28-2.9l-.1-1.45-.03-.73v-.37s0-.19,0-.19v-.11s0-.03.02-.07v-.02s.02-.03.02-.03c.01-.01.06-.15.27-.14.18.05.18.13.2.15v.02s.02.04.02.04v.08c.03.14-.07.26-.21.28-.04,0-.07,0-.1,0h-.01c-8.24-2.46-16.28-4.85-24.05-7.17l.21-.03c-11.02,7.16-21.42,13.92-30.98,20.12l.1-.16c-1.52,11.56-2.9,22.06-4.1,31.21v-.02c-.47,18.4-.81,31.52-.96,37.5h0c.11,1.33.19,2.32.24,2.99.05.66.06.98.06.98,0,0-.05-.31-.12-.97-.07-.67-.17-1.66-.3-3h0c.11-6,.36-19.12.71-37.52v-.02c1.18-9.16,2.53-19.66,4.02-31.23,0-.07.05-.13.1-.16,9.55-6.22,19.94-12.99,30.95-20.17.06-.04.14-.05.21-.03,7.77,2.31,15.81,4.7,24.05,7.15l-.33.27s-.05-.03.04-.02c.06,0,.12-.02.18-.05.03,0,.08,0,.14.02.04.01.16.02.14.01h0s0,.08,0,.08v.17s0,.35,0,.35l.03.72.1,1.44c.07.96.17,1.92.28,2.89.11.92.22,1.83.33,2.68,0,0,0,.02,0,.02.47,9.92.66,19.59.49,28.91-.1,4.66-.29,9.23-.72,13.69-.22,2.23-.5,4.42-.92,6.58-.21,1.08-.47,2.14-.79,3.18-.34,1.02-.74,2.08-1.4,2.94-1.2,1.8-2.77,3.28-4.48,4.47-1.71,1.2-3.54,2.13-5.35,2.99-1.81.86-3.63,1.62-5.33,2.52-.85.44-1.65.96-2.38,1.53-.68.63-1.3,1.28-1.64,2.16-1.53,3.36-2.09,6.96-2.62,10.33-.47,3.39-.77,6.66-.93,9.76h0c0,.1-.08.17-.17.17-11.81,0-21.33-1.96-27.15-4.99-2.93-1.48-4.81-3.28-5.84-4.64-.49-.7-.84-1.25-1.02-1.66-.2-.39-.28-.59-.28-.59Z"/><path class="cls-1" d="M135.78,105.44c.13-1.01,0-2.21.7-3.04l.19-.12c.72-.26,1.56-.4,2.21.02.58.37.86,1.11.92,1.83.08.97-.19,1.94-.45,2.88-.14.5-.28,1.01-.55,1.45-.27.44-.68.81-1.17.89-.81.14-1.56-.56-1.82-1.37-.26-.81-.14-1.69-.03-2.54Z"/><path class="cls-1" d="M112.77,105.93c.13-1.01,0-2.21.7-3.04l.19-.12c.72-.26,1.56-.4,2.21.02.58.37.86,1.11.92,1.83.08.97-.19,1.94-.45,2.88-.14.5-.28,1.01-.55,1.45-.27.44-.68.81-1.17.89-.81.14-1.56-.56-1.82-1.37-.26-.81-.14-1.69-.03-2.54Z"/><path class="cls-1" d="M129,149.88l-4.02,1.75c-1.23,1.34-3.4,3.33-3.42,5.15-8.17-1.94-14.23-6.69-19.74-13.04,9.7,3.84,16.76,5.61,27.18,6.13Z"/><path class="cls-7" d="M86.48,134.22c-4.12.2-8.2-2.2-10.06-4.33-2.55-2.93-3.61-6.01-3.32-9.88.29-3.87,2.47-7.7,5.98-9.37,3.5-1.67,8.23-.73,10.39,2.5"/><path class="cls-1" d="M86.48,134.22c-10.48.48-17.42-11.35-11.57-20.19,3.03-5.09,11.15-6.09,14.55-.9-2.19-3.11-6.7-3.93-10.06-2.43-5.2,2.37-7.18,9.01-5.58,14.24,1.63,5.37,7.04,9.3,12.66,9.28h0Z"/><path class="cls-7" d="M80.41,115.51c3.89.78,7.25,3.78,8.47,7.55-.43-.81-.88-1.64-1.57-2.23-.7-.59-1.72-.9-2.55-.51-1.15.54-1.4,2.04-1.38,3.31.02.88.1,1.79.46,2.59s1.04,1.52,1.9,1.72"/><path d="M80.41,115.51c3.97.62,7.45,3.64,8.7,7.48,0,0-.44.19-.44.19-.74-1.47-2-3.31-3.8-2.65-1.58.88-1.38,3.15-1.2,4.74.18,1.15.86,2.34,2.07,2.69-3.51-.63-3.62-9.53.9-7.8,1.26.53,1.91,1.75,2.46,2.8l-.44.19c-1.19-3.72-4.43-6.68-8.24-7.62h0Z"/><path class="cls-1" d="M121.52,120.74c-.04-.1,1.22-.34,2.82-1.49.79-.57,1.65-1.39,2.36-2.46.35-.54.67-1.14.91-1.79.11-.31.28-.73.17-.81-.06-.12-.44-.13-.81-.06-1.58.22-3.08.43-4.45.61-.13.02-.25-.07-.27-.2,0-.01,0-.03,0-.04.07-1.93.14-3.57.21-4.72s.13-1.82.19-1.82c.05,0,.09.67.1,1.83s0,2.79-.02,4.72l-.27-.24c1.37-.2,2.87-.43,4.44-.66.18-.03.39-.06.62-.05.21.01.51.07.69.34.18.27.12.56.06.75-.06.19-.12.36-.19.53-.26.69-.61,1.32-.99,1.88-.77,1.12-1.7,1.94-2.55,2.5-.85.56-1.62.87-2.17,1.03-.54.16-.86.19-.86.16Z"/><path class="cls-1" d="M115.24,92.33c-.39-.45-.96-.64-1.5-.74-.56-.1-1.12-.1-1.67-.05-.05,0-.1.01-.15.02-.28.03-.56.07-.84.13-.33.07-.65.18-.96.31-.03.01-.07.02-.1.04-.34.15-.67.33-1,.55-.04.02-.08.04-.11.06h.02c-.05.03-.11.05-.16.09-.56.41-1.09.93-1.33,1.64-.24.71-.1,1.65.46,2.08.37.28.83.29,1.26.3.63,0,1.25.01,1.88.02.81,0,1.64.02,2.42-.21.78-.23,1.54-.72,1.96-1.52.44-.83.42-2.02-.18-2.72Z"/><path class="cls-1" d="M139.38,92.13c-.39-.45-.96-.64-1.5-.74-.56-.1-1.12-.1-1.67-.05-.05,0-.1.01-.15.02-.28.03-.56.07-.84.13-.33.07-.65.18-.96.31-.03.01-.07.02-.1.04-.34.15-.67.33-1,.55-.04.02-.08.04-.11.06h.02c-.05.03-.11.05-.16.09-.56.41-1.09.93-1.33,1.64-.24.71-.1,1.65.46,2.08.37.28.83.29,1.26.3.63,0,1.25.01,1.88.02.81,0,1.64.02,2.42-.21.78-.23,1.54-.72,1.96-1.52.44-.83.42-2.02-.18-2.72Z"/><path class="cls-1" d="M112.16,129.08s-.31.1-.85-.03c-.54-.12-1.3-.51-1.93-1.31-.64-.79-1-2.03-.86-3.34.11-1.32.7-2.69,1.49-3.94.36-.57.74-1.11,1.1-1.62.08-.12.24-.14.36-.06.02.01.04.03.06.05,3.03,3.89,6.56,5.5,6.45,5.63-.02.05-.91-.29-2.23-1.13-1.32-.83-3.06-2.22-4.62-4.19h.41c-.36.5-.73,1.04-1.08,1.59-.77,1.22-1.33,2.49-1.46,3.71-.14,1.22.14,2.33.68,3.08.53.75,1.21,1.16,1.69,1.33.49.18.8.18.79.22Z"/><path class="cls-4" d="M145.32,91.31l1.67-1.88c2.89-2.76,6.98-2.78,10.91-7.63,5.34-6.6,1.35-12.02,1.35-12.02-4.68-7.59-15.71-7.62-23.64-4.7,4.3-1.93,12.57-3.82,11.07-8.58-1.36-6.51-14.18-6.16-26.47-1.4,7.07-3.6,6.6-9.06,1.06-7.67-9.1,3.14-18.2,6.27-27.31,9.41-3.58,1.24-7.25,2.52-10.18,4.93-6.78,5.59-9.4,15.83-9.86,24.6-.38,7.29.89,14.39,3.09,21.35.37,1.16.85,2.29,1.39,3.41.44-.32,1.36-.7,2.61-1.06,0,0,3.33-.52,6.03.81,2.44,1.19,3.04,3.04,3.04,3.04.56,1.58.89,3.26,1.79,4.68.9,1.41,2.6,2.51,4.21,2.06,1.27-.36,2.14-1.59,2.45-2.88.3-1.29.14-2.63-.02-3.94-.73-5.9-1.46-11.81-2.19-17.71,12.54-2.87,20.12-11.84,22.15-24.42l.16-.1c.12,1.52.82,5.06,4.78,5.21,5.05.19,9.72-.78,9.72-.78,0,0,3.16,9.16,11.17,5.68l1.02,9.63Z"/><path class="cls-7" d="M101.97,675.84c2.87-8.08,5.74-16.17,8.62-24.25l37.56,13.34-14.17,34.94-28.19.61-6.4-17.36,2.59-7.29Z"/><path class="cls-1" d="M101.97,675.84s-.04.17-.14.49c-.11.34-.27.81-.47,1.41-.44,1.27-1.06,3.09-1.87,5.43v-.08c1.57,4.19,3.78,10.11,6.48,17.33l-.19-.13c7.97-.19,17.58-.42,28.19-.67l-.22.15c2.85-7.03,5.95-14.69,9.17-22.64,1.7-4.2,3.38-8.32,4.99-12.31l.15.34c-14.4-5.14-27.34-9.76-37.54-13.4l.24-.12c-2.69,7.45-4.86,13.5-6.38,17.71-.76,2.07-1.35,3.68-1.76,4.81-.2.53-.36.94-.47,1.25-.11.28-.17.42-.18.42,0,0,.03-.15.13-.44.1-.31.24-.73.42-1.27.39-1.13.95-2.76,1.67-4.85,1.48-4.22,3.6-10.29,6.22-17.77.03-.1.14-.15.24-.12h0c10.21,3.61,23.17,8.19,37.58,13.28.13.05.2.19.16.33h0c-1.62,4-3.28,8.12-4.99,12.32-3.23,7.95-6.34,15.61-9.19,22.63-.04.09-.13.15-.22.15-10.61.21-20.23.4-28.19.56-.08,0-.16-.05-.19-.13-2.64-7.24-4.8-13.18-6.33-17.39,0-.02,0-.05,0-.08.85-2.32,1.51-4.13,1.97-5.39.22-.59.4-1.06.53-1.39.12-.31.2-.47.2-.47Z"/><path class="cls-4" d="M77.03,722.43c5.21-15.42,10.76-24.3,15.98-39.72.95-2.81,2.31-6.01,5.18-6.75,2.59-.66,5.25,1.12,6.73,3.35s2.18,4.88,3.41,7.25c2.91,5.62,9,9.44,15.32,9.62,6.32.18,12.62-3.29,15.84-8.73,9.88,12.02,19.76,24.04,29.64,36.07,0,0,12.12-.18,16.51,4.01,3.04,2.9,4.37,5.1,4.93,9.5.84,6.52-1.55,8.17-1.55,8.17l-47.1.14-64.88-22.91Z"/><path class="cls-7" d="M189.38,744.53c.56-1.07.97-2.27,1.27-3.59l-44.76-1.27c-35.02-12.69-30.8-12.78-65.82-25.46l-1.07,2.74c-.66,1.74-1.31,3.56-1.96,5.48l64.88,22.91,47.1-.14s-.42.86.37-.67Z"/><path class="cls-1" d="M189.38,744.53s-.04.09-.13.29c-.05.1-.11.22-.18.36-.04.07-.08.15-.12.24l-.02.03s0,0-.03.02c-.08-.08-.02-.03-.03-.05v-.02s.04-.07.04-.07l.07-.15.03.05c-4.44.08-21.9.2-47.1.31-.02,0-.05,0-.07-.01-18.01-6.34-40.47-14.25-64.9-22.86-.13-.04-.21-.19-.16-.32h0c.57-1.61,1.19-3.33,1.81-5.07.39-1.08.82-2.14,1.22-3.18.05-.13.2-.2.33-.15,6.24,2.27,12.35,4.53,18.25,6.82,5.91,2.28,11.6,4.65,17.08,6.93,10.96,4.57,21.27,8.4,30.47,11.76h-.06c22.04.69,38.09,1.19,44.76,1.4.03,0,.06.03.06.06h0c-.29,1.29-.64,2.19-.9,2.76-.26.57-.43.83-.43.83,0,0,.03-.07.09-.21.07-.16.16-.36.28-.64.24-.58.56-1.48.84-2.75l.06.08c-6.67-.17-22.72-.57-44.77-1.13-.02,0-.05,0-.06-.01-9.21-3.33-19.54-7.14-30.52-11.7-5.49-2.27-11.17-4.63-17.08-6.9-5.9-2.29-12-4.54-18.25-6.81l.33-.15c-.4,1.04-.83,2.1-1.22,3.17-.62,1.73-1.23,3.45-1.81,5.04l-.16-.33c24.42,8.64,46.86,16.58,64.86,22.96h-.07c25.2-.05,42.65-.04,47.1.02.02,0,.04.02.04.04v.02s-.08.14-.08.14l-.03.07v.02s-.1-.03-.06-.03l.02-.03c.05-.08.09-.16.13-.23.08-.14.14-.26.19-.35.1-.19.16-.27.16-.27Z"/><polygon class="cls-7" points="76.68 674.75 76.23 699.18 69.19 715.42 53.89 716.75 39.81 700.31 40.34 671.18 76.68 674.75"/><path class="cls-1" d="M76.68,674.75s-.07,0-.18,0c-.14-.01-.3-.02-.51-.04-.47-.04-1.13-.1-1.97-.17-1.74-.16-4.24-.38-7.42-.67-6.38-.6-15.43-1.45-26.28-2.47l.25-.22c-.15,8.63-.32,18.55-.5,29.13l-.06-.17c1.4,1.63,2.88,3.36,4.39,5.12,3.33,3.88,6.57,7.67,9.69,11.32l-.22-.09c5.36-.46,10.49-.9,15.31-1.31l-.2.14c2.61-5.97,4.99-11.43,7.08-16.21l-.02.07c.18-7.49.33-13.57.43-17.81.06-2.1.11-3.74.14-4.89.02-.54.03-.97.05-1.28.01-.29.02-.44.03-.45,0,0,.01.13.01.41,0,.31,0,.72,0,1.25,0,1.14-.02,2.77-.04,4.85-.05,4.27-.13,10.39-.23,17.93,0,.03,0,.05-.02.07-2.07,4.8-4.42,10.26-7,16.25-.04.08-.11.13-.2.14-4.82.42-9.94.88-15.3,1.35-.08,0-.16-.03-.22-.09-3.12-3.64-6.37-7.43-9.7-11.31-1.5-1.75-2.99-3.49-4.38-5.12-.04-.05-.06-.11-.06-.17.21-10.59.4-20.5.57-29.13,0-.12.1-.22.23-.22h.02c10.9,1.12,19.99,2.05,26.4,2.71,3.14.33,5.63.6,7.36.78.82.09,1.46.16,1.92.22.2.02.36.04.49.06.11.01.16.02.16.03Z"/><path class="cls-4" d="M32.3,745.01c-.05-15.09,2.16-26.06,2.11-41.15,0-2.75.22-5.96,2.52-7.47,2.07-1.36,4.94-.59,6.91.92,1.97,1.51,3.37,3.62,5.16,5.34,4.23,4.05,10.72,5.58,16.32,3.85,5.6-1.74,10.08-6.67,11.28-12.4,17.05,10.54,34.09,21.08,51.14,31.62,3.49,2.16,7.1,4.43,9.34,7.87,2.24,3.44,2.71,8.4-.06,11.44H32.3Z"/><path class="cls-7" d="M35.43,735.42c34.4.63,68.8,1.26,103.2,1.89.63,2.74.26,5.67-1.61,7.71H32.31c0-2.89.06-7.1.19-9.65l2.94.05Z"/><path class="cls-1" d="M35.43,735.42s-.25.02-.74.02c-.51,0-1.24,0-2.2-.01l.06-.06c-.03,2.11-.07,5.36-.13,9.65l-.12-.12c18.48-.03,57.13-.08,101.77-.14h2.95l-.19.08c.91-1,1.47-2.27,1.69-3.58.22-1.31.14-2.65-.15-3.9l.25.2c-29-.56-54.79-1.06-73.36-1.42-9.26-.2-16.71-.37-21.88-.48-2.56-.07-4.54-.12-5.91-.15-.66-.02-1.17-.04-1.53-.05-.34-.01-.52-.03-.52-.03,0,0,.18-.01.52-.02.36,0,.87,0,1.53,0,1.37.01,3.36.04,5.91.06,5.16.08,12.62.18,21.88.32,18.57.32,44.36.76,73.36,1.26.12,0,.22.09.25.2.3,1.31.39,2.71.15,4.11-.23,1.39-.83,2.76-1.82,3.84-.05.06-.12.08-.19.08h-2.95c-44.64-.06-83.29-.12-101.77-.14-.06,0-.12-.05-.12-.11h0c.11-4.3.19-7.55.24-9.66,0-.03.03-.06.06-.06h0c.96.03,1.69.05,2.2.07.49.02.74.04.74.04Z"/><path class="cls-7" d="M138.63,737.3s-.1-.21-.24-.63c-.14-.42-.35-1.04-.67-1.81-.32-.77-.77-1.7-1.43-2.67-.66-.98-1.58-1.97-2.68-2.98-2.23-2-4.96-4.32-8.32-6.42-3.34-2.14-7.2-4.2-11.2-6.43-7.99-4.47-15.22-8.52-20.51-11.48-2.57-1.47-4.67-2.67-6.19-3.53-.69-.4-1.24-.73-1.67-.98-.38-.23-.57-.36-.56-.37s.22.08.62.28c.44.23,1.01.53,1.72.9,1.53.83,3.66,1.98,6.27,3.39,5.32,2.93,12.57,6.93,20.59,11.35,4,2.24,7.86,4.31,11.21,6.49,3.38,2.14,6.11,4.51,8.32,6.56,1.1,1.04,2.02,2.07,2.67,3.09.66,1.01,1.08,1.97,1.38,2.76.29.79.47,1.42.58,1.85.11.43.15.66.14.66Z"/><path class="cls-4" d="M168.66,408.69c2.04,2.38,26.48,104.68,27.16,116.6.68,11.92-42.98,157.04-42.98,157.04l-51.64-12.83,27.27-137.45-17.85-78.78-21.58,229.06-63.04-2.68,5.05-262.42s-8.71-26.56-3.96-56.95c4.75-30.39,16.95-54,16.95-54h103.22l21.39,102.41Z"/><path class="cls-7" d="M113.05,366.44c.14,0-.66,23.47-1.78,52.4-1.13,28.94-2.16,52.39-2.3,52.39-.14,0,.66-23.47,1.78-52.41,1.13-28.93,2.16-52.39,2.3-52.38Z"/><path class="cls-7" d="M66.16,349.35c-.14,0-.15-3.44-.02-7.68.13-4.24.36-7.67.5-7.66.14,0,.15,3.44.02,7.68-.13,4.24-.36,7.67-.5,7.66Z"/><path class="cls-7" d="M72.39,350.79c-.14-.01.03-3.25.39-7.22.36-3.98.77-7.19.91-7.18.14.01-.03,3.25-.39,7.22-.36,3.98-.77,7.19-.91,7.18Z"/><path class="cls-7" d="M134.2,345.52c-.14,0-.36-2.03-.49-4.54-.12-2.52-.11-4.56.03-4.57.14,0,.36,2.03.49,4.54.12,2.52.11,4.56-.03,4.57Z"/><path class="cls-7" d="M139.81,345.52c-.14,0-.28-2.36-.31-5.27-.03-2.91.07-5.28.21-5.28.14,0,.28,2.36.31,5.27.03,2.91-.07,5.27-.21,5.28Z"/><path class="cls-7" d="M60,634.99s-.05-.18-.13-.53c-.08-.37-.19-.9-.34-1.57-.22-1.4-.57-3.46-.61-6.16-.18-5.37.81-13.24,4.17-22.26,1.65-4.52,3.87-9.3,6.4-14.35,2.53-5.05,5.39-10.36,8.11-16.08,1.33-2.87,2.71-5.82,3.77-8.95,1.03-3.11,1.68-6.52,1.01-9.87-.66-3.34-2.6-6.39-5.06-8.89-2.47-2.54-5.43-4.62-8.49-6.61-3.05-2.01-6.13-3.97-8.8-6.39-1.33-1.21-2.55-2.53-3.58-3.98-1.02-1.46-1.85-3.03-2.48-4.65-1.28-3.26-1.72-6.71-1.78-10.04-.02-3.34.32-6.61.96-9.73,1.2-6.26,3.15-12.02,5.4-17.2,2.25-5.19,4.77-9.82,7.24-13.95,2.47-4.12,4.88-7.74,7.06-10.87,2.17-3.13,4.12-5.78,5.71-7.94,1.6-2.13,2.85-3.79,3.72-4.94.42-.55.75-.97.98-1.27.22-.29.35-.42.35-.42,0,0-.1.16-.31.45-.22.31-.54.74-.94,1.3-.84,1.16-2.07,2.84-3.64,5-1.57,2.18-3.49,4.84-5.64,7.99-2.16,3.14-4.54,6.77-6.99,10.89-2.44,4.12-4.94,8.75-7.16,13.93-2.21,5.17-4.14,10.91-5.32,17.12-.62,3.1-.96,6.33-.93,9.63.07,3.29.51,6.68,1.76,9.87.62,1.59,1.43,3.12,2.42,4.54,1,1.41,2.2,2.71,3.51,3.9,2.62,2.38,5.68,4.33,8.74,6.34,3.07,1.99,6.07,4.1,8.58,6.69,2.51,2.55,4.51,5.69,5.19,9.16.69,3.48,0,6.97-1.03,10.12-1.07,3.17-2.46,6.12-3.81,9-2.73,5.74-5.61,11.04-8.15,16.07-2.55,5.03-4.78,9.79-6.44,14.28-3.39,8.97-4.43,16.79-4.31,22.13.01,2.68.33,4.75.51,6.14.12.68.22,1.2.29,1.58.06.36.08.54.08.54Z"/><path class="cls-7" d="M293.57,140.35c.23-3.62-3.22-4.51-5.46-4.58-.83-.02-10.81-.14-18.68-.14.39-.88,4.84-11.14,3.64-14.52-1.25-3.54-4.1-2.57-5.55,1.98-1.45,4.55-5.26,7.34-8.54,11.49-3.28,4.15-4.91,19.08-4.91,19.09l-1.27,3.02-5.29,11.6,20.13,12.3,4.62-10.53s14.14-3,16.22-5.81c2.08-2.8.11-5.02.11-5.02,0,0,1.74-.24,2.94-2.78,1.2-2.54-.3-4.59-.3-4.59,0,0,1.34-.82,2.35-3.41,1.01-2.59-2.1-3.95-2.1-3.95,0,0,1.86-.76,2.07-4.14Z"/><path class="cls-1" d="M293.57,140.35s.02.42-.13,1.23c-.08.4-.21.9-.49,1.44-.28.54-.69,1.15-1.43,1.55v-.15c.52.25,1.06.59,1.53,1.09.47.48.86,1.19.85,2-.04.82-.43,1.57-.82,2.33-.43.76-.94,1.53-1.76,2.13l.04-.2c.76,1.14,1.05,2.71.55,4.19-.25.74-.65,1.42-1.17,2.05-.54.61-1.2,1.17-2.11,1.38l.1-.29c.54.67.85,1.5.89,2.38.03.89-.26,1.79-.76,2.54-.5.78-1.32,1.34-2.14,1.74-.82.44-1.7.8-2.59,1.15-3.6,1.35-7.58,2.39-11.81,3.35l.16-.13c-1.47,3.35-3.01,6.88-4.61,10.54-.05.12-.2.18-.32.12l-.03-.02c-6.24-3.81-13.04-7.96-20.14-12.29-.11-.07-.15-.21-.1-.33,1.34-2.93,2.75-6.04,4.19-9.19.85-1.81,1.63-3.64,2.37-5.43l-.02.05c.33-2.79.76-5.6,1.29-8.31.56-2.71,1.15-5.39,2.13-7.92.45-1.26,1.13-2.5,1.99-3.51.84-1.02,1.72-1.98,2.6-2.93,1.74-1.88,3.47-3.73,4.6-5.89.59-1.06.88-2.22,1.38-3.36.51-1.09,1.16-2.23,2.34-2.79.58-.28,1.36-.22,1.87.19.52.38.82.93,1.07,1.46.51,1.1.43,2.32.29,3.41-.31,2.21-.96,4.26-1.62,6.21-.67,1.95-1.4,3.79-2.16,5.53l-.17-.26c4.13.05,7.87.09,11.16.12,1.64.02,3.17.04,4.58.06,1.41.05,2.69-.03,3.85.12,1.16.16,2.17.5,2.91,1.02.75.51,1.22,1.17,1.42,1.75.2.58.24,1.06.23,1.37,0,.31-.03.47-.03.47-.06,0,.1-.67-.31-1.81-.21-.56-.67-1.18-1.41-1.66-.73-.49-1.72-.8-2.85-.94-1.13-.12-2.43-.04-3.84-.07-1.41,0-2.94,0-4.58-.01-3.29-.01-7.03-.03-11.16-.05-.1,0-.18-.08-.18-.19,0-.03,0-.05.02-.07.74-1.73,1.47-3.57,2.12-5.51.65-1.94,1.28-3.98,1.57-6.13.12-1.07.19-2.19-.27-3.17-.23-.49-.51-.97-.93-1.28-.41-.31-.95-.35-1.43-.13-.97.45-1.63,1.51-2.1,2.56-.46,1.06-.77,2.29-1.38,3.39-1.16,2.23-2.92,4.11-4.66,6-1.7,1.92-3.66,3.74-4.48,6.29-.95,2.47-1.54,5.14-2.09,7.83-.53,2.71-.95,5.46-1.29,8.31v.03s-.02.02-.02.02c-.74,1.8-1.52,3.62-2.37,5.44-1.44,3.15-2.85,6.26-4.19,9.19l-.1-.33c7.09,4.34,13.89,8.5,20.12,12.32l-.35.11c1.61-3.65,3.16-7.18,4.64-10.53.03-.07.09-.11.16-.13,4.21-.93,8.19-1.97,11.76-3.28.89-.34,1.75-.69,2.55-1.12.82-.4,1.55-.9,2.01-1.6.48-.71.75-1.52.72-2.33-.02-.8-.32-1.58-.79-2.17-.06-.08-.05-.19.03-.25.02-.02.05-.03.08-.04.74-.16,1.41-.68,1.91-1.25.49-.59.89-1.26,1.13-1.94.49-1.38.21-2.87-.47-3.93-.04-.07-.02-.15.04-.2.73-.52,1.27-1.29,1.68-2.01.39-.74.78-1.49.82-2.22.02-.74-.32-1.39-.77-1.86-.44-.48-.96-.82-1.45-1.07-.04-.02-.06-.07-.04-.11,0-.02.02-.03.04-.04.67-.34,1.1-.94,1.38-1.45.28-.53.42-1.01.52-1.4.17-.79.18-1.21.21-1.21Z"/><path class="cls-1" d="M291.5,144.49s-.43.07-1.2.1c-.88.02-1.97.05-3.27.08-2.88.03-6.63.06-10.78.1-1.06.02-2.13-.01-3.13-.38-1.03-.42-1.69-1.28-2.06-2.16-.18-.45-.29-.92-.28-1.39.02-.46.1-.91.26-1.3.31-.81.84-1.41,1.37-1.88,1.08-.94,2.21-1.3,2.98-1.44.39-.07.69-.09.9-.08.21,0,.31.02.31.04,0,.05-.43.05-1.17.24-.73.19-1.79.6-2.77,1.51-.48.46-.96,1.04-1.22,1.76-.27.72-.3,1.56.06,2.35.34.78.96,1.54,1.8,1.87.88.31,1.9.35,2.94.33,4.21-.05,8.03.02,10.79.05,1.3.03,2.39.06,3.27.08.77.03,1.2.07,1.2.1Z"/><path class="cls-1" d="M291.26,151.85s-.37.07-1.04.09c-.67.03-1.63.05-2.83.06-2.38.03-5.69.02-9.32.02-.91.02-1.82.04-2.7-.12-.88-.15-1.7-.53-2.34-1.06-.64-.53-1.11-1.24-1.25-1.98-.12-.83.25-1.46.53-1.98.64-1.05,1.37-1.74,1.97-2.09.6-.38,1.03-.28,1.02-.26,0,.05-.38.02-.91.43-.52.37-1.19,1.08-1.76,2.1-.26.5-.55,1.13-.43,1.71.14.63.55,1.24,1.13,1.7.58.47,1.32.79,2.13.93.81.14,1.69.12,2.6.1,3.65,0,6.94.08,9.33.14,1.19.03,2.16.07,2.83.1.67.04,1.04.07,1.03.11Z"/><path class="cls-1" d="M289.25,159.03s-.34.09-.96.15c-.62.06-1.53.12-2.64.18-1.16.05-2.48.1-3.92.16-1.48.04-3.08.19-4.81.19-1.73,0-3.49-.53-4.55-1.73-.26-.3-.47-.65-.58-1.02-.12-.38-.08-.76-.07-1.09.05-.68.25-1.31.53-1.82.57-1.03,1.41-1.58,2.01-1.78.62-.22.99-.12.98-.1,0,.05-.36.02-.91.28-.54.24-1.29.8-1.76,1.77-.24.48-.4,1.05-.43,1.68-.06.65.09,1.25.57,1.76.95,1.03,2.55,1.53,4.2,1.52,1.67,0,3.31-.14,4.79-.15,1.44-.02,2.76-.03,3.92-.05,2.23-.02,3.61-.04,3.62.04Z"/><path class="cls-1" d="M288.11,164.66s-.27.21-.79.5c-.53.29-1.29.71-2.3,1.12-1,.43-2.3.73-3.73.85-1.43.11-2.97.25-4.65.23-.84-.03-1.67-.15-2.43-.45-.76-.3-1.42-.77-1.89-1.36-.46-.6-.79-1.29-.67-2.04.13-.68.45-1.21.75-1.67.62-.92,1.31-1.51,1.85-1.81.55-.32.94-.22.93-.2,0,.05-.34.03-.82.38-.48.33-1.1.94-1.65,1.84-.26.44-.54.97-.63,1.54-.09.52.21,1.17.61,1.67.43.51,1.03.92,1.71,1.19.69.26,1.46.37,2.26.4,3.23-.07,6.26-.12,8.23-.9,1.99-.76,3.19-1.37,3.23-1.28Z"/><path class="cls-1" d="M265.84,160.76c-.08-.08,1.34-1.03,2.84-3.23.74-1.1,1.46-2.51,1.94-4.19.47-1.68.65-3.62.36-5.61-.48-3.42-2.24-6.24-3.97-7.96-.07-.07-.08-.18-.02-.27.94-1.39,1.53-2.69,2.05-3.52.49-.85.85-1.27.88-1.24.03.03-.25.48-.68,1.35-.46.86-.97,2.16-1.92,3.64l-.02-.27c1.84,1.72,3.7,4.62,4.2,8.17.31,2.06.1,4.09-.41,5.81-.52,1.73-1.3,3.17-2.1,4.27-.8,1.1-1.6,1.87-2.18,2.35-.58.48-.95.69-.96.67Z"/><path class="cls-7" d="M243.51,159.89l-34.86,53.45-46.65-36.61-36.38-12.31-4.8-6.32-1.79,13.07-35.56-20.9-9.49,10.34-20.3.49c-24.23,1.98-32.12,31.55-29.44,48.76l3.45,23.22,3.68,31.48-1.55,52.39c-.36,3.41,2,12.85,5.43,12.85l117.34,2.04c3.19.04,4.24-10.7,4.01-13.88l-8.89-48.12,5.93-38.67,41.21,25.73c9.11,5.69,24.26,7.97,33-3.88l45.03-70.23-29.39-22.89Z"/><path class="cls-1" d="M243.51,159.89c.59.46,10.41,8.06,29.45,22.81.04.03.05.09.02.14-9.43,14.73-22.12,34.57-37.47,58.56-1.92,3-3.88,6.06-5.88,9.19-.5.78-1,1.57-1.51,2.36-.56.75-1.2,1.47-1.8,2.21-.69.65-1.37,1.34-2.11,1.96l-1.17.86-.59.43-.63.36c-3.35,2-7.33,3.02-11.36,2.94-4.04,0-8.1-1-11.92-2.65-1.9-.86-3.72-1.93-5.49-3.06-1.79-1.11-3.59-2.24-5.4-3.37-3.63-2.26-7.31-4.56-11.05-6.89-7.48-4.66-15.17-9.46-23.07-14.39l.34-.15c-1.86,12.18-3.86,25.23-5.92,38.68v-.08c2.82,15.25,5.82,31.45,8.9,48.12h0s0,.03,0,.03c.11,2.78-.21,5.53-.74,8.27-.29,1.36-.64,2.73-1.28,4.02-.34.62-.73,1.29-1.45,1.67-.35.2-.82.21-1.13.19l-1.05-.02c-5.59-.1-11.24-.19-16.95-.29-11.41-.2-23.04-.4-34.86-.6-11.82-.2-23.83-.41-35.99-.62-6.08-.11-12.2-.21-18.36-.32-3.08-.05-6.16-.11-9.26-.16h-.59c-.22-.02-.43-.06-.64-.12-.41-.14-.77-.38-1.08-.65-.61-.55-1.06-1.22-1.45-1.91-.77-1.39-1.29-2.88-1.7-4.4-.5-1.97-.91-3.98-.77-6.06v.02c.52-17.76,1.04-35.26,1.55-52.39v.04c-.72-6.17-1.43-12.29-2.14-18.37-.35-3.04-.71-6.07-1.06-9.08-.18-1.51-.34-3.01-.54-4.51-.22-1.49-.44-2.99-.66-4.48-.88-5.96-1.76-11.86-2.63-17.71-.93-5.88-.68-11.85.37-17.58,1.07-5.73,2.95-11.27,5.81-16.24,2.84-4.95,6.76-9.32,11.65-12.13,2.43-1.41,5.07-2.42,7.77-3.02.68-.12,1.36-.29,2.04-.38.69-.08,1.38-.17,2.06-.23,1.37-.03,2.73-.06,4.09-.1,5.44-.13,10.8-.26,16.1-.38l-.17.07c3.25-3.54,6.39-6.96,9.49-10.33.07-.08.19-.1.28-.04,12.43,7.31,24.25,14.27,35.55,20.92l-.32.15c.63-4.57,1.22-8.85,1.8-13.07.02-.11.12-.19.23-.18.06,0,.1.04.14.08,1.69,2.23,3.25,4.29,4.79,6.33l-.1-.07c12.96,4.39,25.03,8.49,36.37,12.33.02,0,.04.02.05.03,17.99,14.14,33.53,26.36,46.62,36.64l-.2.03c22.43-34.23,34.43-52.55,34.97-53.37-.53.82-12.46,19.2-34.75,53.52-.04.06-.12.08-.19.04h-.01c-13.1-10.27-28.67-22.47-46.68-36.58l.05.03c-11.34-3.83-23.42-7.91-36.38-12.29-.04-.01-.07-.04-.1-.07-1.54-2.03-3.1-4.09-4.8-6.32l.37-.1c-.58,4.22-1.16,8.5-1.79,13.07-.02.12-.12.2-.24.18-.03,0-.06-.01-.08-.03-11.31-6.64-23.13-13.58-35.57-20.89l.28-.04c-3.1,3.38-6.23,6.8-9.48,10.34-.04.05-.1.07-.17.08-5.29.13-10.66.26-16.09.39-1.36.03-2.72.07-4.09.1-.68.06-1.34.16-2.02.23-.67.09-1.34.25-2.01.37-2.66.59-5.25,1.59-7.63,2.97-4.8,2.75-8.66,7.06-11.47,11.95-2.82,4.91-4.69,10.4-5.74,16.08-1.04,5.68-1.29,11.6-.36,17.42.87,5.85,1.75,11.76,2.64,17.72.22,1.49.44,2.98.67,4.48.21,1.5.36,3,.54,4.51.35,3.02.71,6.04,1.06,9.08.71,6.08,1.43,12.2,2.15,18.37v.04c-.5,17.13-1.02,34.63-1.54,52.39h0s0,.02,0,.02c-.13,1.94.26,3.95.75,5.87.4,1.48.91,2.95,1.65,4.28.73,1.28,1.75,2.66,3.3,2.43,3.09.05,6.18.11,9.26.16,6.15.11,12.27.21,18.36.32,12.16.21,24.17.42,35.99.63,11.82.21,23.45.41,34.86.61,5.71.1,11.36.2,16.95.3l1.05.02c.38.02.63,0,.9-.14.54-.27.92-.87,1.23-1.45.6-1.21.96-2.55,1.24-3.89.53-2.68.84-5.45.73-8.13v.03c-3.07-16.67-6.06-32.87-8.87-48.12,0-.03,0-.05,0-.08,2.07-13.45,4.07-26.5,5.94-38.67.02-.12.13-.2.25-.19.03,0,.06.02.08.03,7.89,4.93,15.58,9.74,23.05,14.41,3.74,2.33,7.42,4.64,11.04,6.9,1.81,1.13,3.61,2.26,5.4,3.37,1.78,1.14,3.56,2.19,5.44,3.04,3.77,1.63,7.78,2.62,11.76,2.63,3.97.08,7.89-.92,11.17-2.88l.62-.35.57-.42,1.15-.84c.73-.6,1.39-1.28,2.07-1.92.59-.73,1.21-1.42,1.77-2.17.51-.79,1.01-1.57,1.51-2.35,2.01-3.12,3.97-6.18,5.89-9.18,15.39-23.96,28.12-43.77,37.57-58.48l.02.14c-18.96-14.85-28.74-22.51-29.32-22.97Z"/><polygon class="cls-6" points="123.52 189.23 136.02 275.09 120.26 327.05 101.82 300.5 114.73 186.77 123.52 189.23"/><path class="cls-1" d="M161.5,191.88s-.01.21-.08.58c-.09.43-.2.98-.33,1.65-.31,1.5-.73,3.56-1.24,6.07-1.02,5.13-2.33,12.24-3.68,20.11-1.35,7.87-2.48,15.01-3.26,20.18-.39,2.59-.68,4.68-.88,6.13-.08.72-.17,1.29-.2,1.67-.03.38-.06.58-.07.59-.02,0-.03-.2-.03-.59-.01-.39.05-.95.1-1.69.13-1.46.37-3.57.71-6.16.69-5.19,1.76-12.35,3.11-20.22,1.35-7.87,2.72-14.98,3.83-20.09.57-2.56,1.03-4.62,1.4-6.04.17-.66.32-1.2.43-1.63.1-.37.17-.56.18-.56Z"/><path class="cls-6" d="M260,184.3c0,1.36,1.1,2.46,2.46,2.46s2.46-1.1,2.46-2.46-1.1-2.46-2.46-2.46-2.46,1.1-2.46,2.46Z"/><path class="cls-7" d="M25.68,205.71c1.19,1.98,17.44,74.93,42.42,91.58,24.98,16.65,90.21,36.32,90.21,36.32l14.53-36.77-68.04-35.21-27.12-59.9"/><path class="cls-1" d="M77.67,201.72s.18.35.51,1.05c.33.71.81,1.75,1.44,3.11,1.26,2.75,3.1,6.77,5.46,11.94,4.72,10.38,11.53,25.34,19.89,43.72l-.09-.09c19.16,9.9,42.42,21.92,68.06,35.16.12.06.16.2.12.32-4.64,11.75-9.51,24.09-14.52,36.77-.05.13-.19.19-.32.15-2.73-.83-5.65-1.75-8.58-2.69-12.55-4.04-24.73-8.23-36.36-12.63-11.62-4.41-22.73-8.97-32.97-14.07-1.3-.6-2.53-1.31-3.78-1.97-1.24-.68-2.49-1.32-3.69-2.01-2.35-1.5-4.78-2.79-6.91-4.52-4.24-3.45-7.49-7.68-10.33-11.88-2.82-4.24-5.18-8.56-7.29-12.78-2.1-4.23-3.94-8.37-5.58-12.37-3.28-8-5.86-15.38-7.98-21.91-2.12-6.53-3.78-12.2-5.09-16.85-1.31-4.65-2.27-8.28-2.92-10.73-.33-1.22-.59-2.15-.76-2.79-.09-.31-.15-.55-.22-.7-.06-.15-.08-.24-.08-.24,0,0,.16.3.35.92.2.62.47,1.55.81,2.78.69,2.46,1.71,6.06,3.02,10.7,1.34,4.64,3.03,10.3,5.17,16.82,2.14,6.51,4.74,13.88,8.04,21.86,1.64,3.99,3.49,8.12,5.6,12.33,2.11,4.21,4.47,8.51,7.29,12.72,2.83,4.18,6.08,8.37,10.26,11.77,2.09,1.69,4.52,2.99,6.86,4.47,1.21.69,2.45,1.33,3.68,2,1.24.66,2.47,1.36,3.77,1.96,10.22,5.07,21.32,9.62,32.94,14.02,11.62,4.39,23.79,8.57,36.34,12.61,2.93.94,5.85,1.86,8.57,2.69l-.32.15c5.01-12.68,9.89-25.01,14.54-36.77l.12.32c-25.62-13.29-48.86-25.33-68.01-35.26-.04-.02-.07-.05-.09-.09-8.3-18.42-15.05-33.4-19.73-43.79-2.32-5.19-4.13-9.23-5.37-11.99-.61-1.37-1.07-2.41-1.39-3.13-.31-.71-.46-1.08-.46-1.08Z"/><path class="cls-6" d="M108.35,180.63c.08-.14,6.37,8.6,6.37,8.6h8.8l.55-9.4-3.64-6.54-8.61,1.02-3.46,6.32Z"/><path class="cls-1" d="M212.58,239.6s-.15-.34-.32-.99c-.18-.64-.4-1.58-.66-2.74-.52-2.33-1.13-5.56-1.64-9.16-.51-3.6-.81-6.88-.96-9.26-.07-1.19-.12-2.15-.13-2.82-.01-.67,0-1.04.03-1.04.04,0,.09.36.17,1.02.08.78.18,1.71.29,2.8.24,2.36.6,5.62,1.11,9.21.51,3.59,1.06,6.82,1.49,9.16.19,1.08.36,2,.5,2.77.11.66.16,1.02.12,1.03Z"/><path class="cls-1" d="M104.8,261.62c.04.06-.84.7-2.27,1.69-1.43,1-3.42,2.36-5.57,3.93-2.15,1.57-4.03,3.07-5.39,4.17-1.35,1.1-2.19,1.79-2.24,1.73-.05-.05.7-.83,2-2.01,1.3-1.18,3.16-2.73,5.32-4.31,2.16-1.58,4.19-2.9,5.68-3.82,1.49-.92,2.44-1.45,2.47-1.39Z"/><path class="cls-1" d="M118.78,175.12s-.13-.09-.4-.26c-.27-.17-.66-.4-1.19-.7-.55-.31-1.19-.66-1.92-1.08-.38-.21-.79-.43-1.22-.66-.22-.12-.44-.24-.67-.36l-.35-.19-.17-.09s0,0,0,0h.02c-.03.25.32-.32.16-.29-.02-.01-.01,0-.01,0h.02s.04.04.04.04l.09.05c.08.04.11.15.07.23v.02c-1.12,1.53-2.32,3.41-3.52,5.61-1.2,2.19-2.55,4.64-4.32,7.02-.08.11-.24.14-.36.05l-.03-.02c-1.46-1.42-3.08-2.85-4.81-4.24-6.13-4.82-12.18-8.53-16.33-11.54-2.1-1.48-3.73-2.76-4.85-3.66-.51-.44-.93-.79-1.26-1.07-.28-.25-.43-.39-.41-.4s.18.1.48.32c.35.26.78.59,1.32.99,1.15.85,2.82,2.08,4.94,3.52,4.2,2.93,10.28,6.58,16.45,11.44,1.74,1.4,3.37,2.84,4.84,4.28l-.38.03c1.76-2.35,3.11-4.75,4.34-6.94,1.22-2.19,2.47-4.08,3.61-5.6l.06.25-.09-.05-.04-.03h-.02s-.02-.03-.02-.03c-.16.04.19-.54.16-.3h.01s0,0,0,0l.18.1.34.2c.23.13.45.25.66.38.42.25.82.48,1.2.7.74.44,1.38.83,1.89,1.15,1.02.64,1.53,1.08,1.49,1.12Z"/><path class="cls-1" d="M125.61,164.69s.16.4.35,1.15c.17.75.41,1.85.61,3.22.41,2.74.67,6.59.27,10.81-.09,1.07-.24,2.11-.39,3.11-.02.14-.15.23-.29.21-.07-.01-.13-.05-.17-.1-2.07-2.81-3.54-5.5-4.46-7.47-.46-.99-.79-1.79-1-2.35-.21-.56-.3-.87-.27-.89.07-.03.58,1.17,1.57,3.09.99,1.92,2.5,4.55,4.57,7.31l-.46.11c.14-.99.29-2.02.38-3.08.39-4.18.2-7.99-.11-10.72-.15-1.37-.33-2.47-.44-3.23-.13-.76-.18-1.19-.15-1.19Z"/><path class="cls-7" d="M257.19,25.01c-9.05-10.68-21.58-13.56-35.57-14.25-10.66-.52-21.89.51-30.86,6.28-12.74,8.2-18.32,25.49-13.98,40.01,4.34,14.52,17.48,26.81,32.33,29.86h1.23c-2.26,8.47-7.38,16.15-14.33,21.5,11.58.71,22.92-8.5,24.6-19.98,15.02,2.69,30.34-4.15,39.94-16,9.6-11.85,10.68-30.84-3.36-47.42Z"/><path class="cls-1" d="M257.19,25.01s.11.11.3.35c.2.25.48.6.85,1.06.38.47.84,1.05,1.38,1.74.49.73,1.06,1.58,1.71,2.53.66.95,1.22,2.11,1.94,3.34.37.61.62,1.31.96,2,.3.71.7,1.42.95,2.21,1.23,3.1,2.2,6.85,2.51,11.12.28,4.25-.1,9.09-1.91,13.91-.23.6-.46,1.21-.69,1.82-.29.59-.57,1.19-.86,1.79l-.44.9-.52.87c-.36.58-.69,1.18-1.08,1.75-1.58,2.28-3.47,4.43-5.58,6.5-4.28,4.04-9.57,7.65-15.78,9.86-6.17,2.25-13.25,3.17-20.35,1.91l.28-.2c-.79,5.41-3.82,10.62-8.28,14.38-4.43,3.76-10.4,6.19-16.58,5.83-.14,0-.25-.13-.24-.27,0-.08.04-.14.1-.19,6.65-5.11,11.92-12.7,14.23-21.37l.25.33h-1.24s-.03,0-.04,0c-.61-.15-1.28-.31-1.94-.48-2.7-.72-5.33-1.67-7.78-2.94-1.26-.57-2.41-1.32-3.61-2-1.13-.77-2.3-1.48-3.36-2.34-4.36-3.26-8-7.3-10.89-11.7-1.38-2.24-2.68-4.52-3.61-6.93-.54-1.18-.87-2.43-1.31-3.63l-.47-1.86-.23-.93-.16-.94-.31-1.87c-.05-.63-.11-1.25-.16-1.88-.15-1.25-.07-2.5-.11-3.74.13-2.47.35-4.93.93-7.28.49-2.37,1.3-4.63,2.19-6.82.99-2.14,2.05-4.23,3.39-6.09,2.59-3.78,5.86-6.95,9.55-9.19,1.82-1.15,3.74-2.06,5.67-2.82,1.93-.77,3.89-1.36,5.83-1.8,3.88-.92,7.71-1.29,11.35-1.42,3.65-.12,7.12,0,10.39.25,3.27.24,6.35.63,9.2,1.19,2.84.55,5.45,1.27,7.79,2.1,2.33.86,4.39,1.83,6.16,2.84,3.54,2.04,5.95,4.16,7.44,5.69.78.73,1.28,1.39,1.66,1.79.36.41.54.63.54.63,0,0-.2-.2-.58-.6-.39-.39-.9-1.03-1.69-1.75-1.51-1.51-3.93-3.59-7.46-5.59-1.78-.98-3.83-1.94-6.15-2.78-2.33-.81-4.93-1.51-7.76-2.05-2.83-.54-5.9-.92-9.17-1.14-3.27-.23-6.73-.35-10.36-.21-3.62.15-7.43.52-11.28,1.45-1.93.44-3.86,1.03-5.77,1.8-1.91.76-3.8,1.66-5.6,2.8-3.63,2.21-6.85,5.35-9.4,9.08-1.32,1.84-2.36,3.9-3.34,6.02-.87,2.16-1.67,4.39-2.15,6.74-.57,2.33-.78,4.75-.91,7.19.04,1.22-.04,2.46.11,3.69.05.62.11,1.23.16,1.85l.31,1.85.16.93.23.91.47,1.83c.43,1.19.76,2.42,1.3,3.58.92,2.39,2.21,4.63,3.58,6.85,2.86,4.35,6.47,8.33,10.78,11.56,1.04.85,2.2,1.55,3.32,2.31,1.18.66,2.32,1.41,3.56,1.97,2.42,1.25,5.02,2.19,7.68,2.9.66.16,1.31.32,1.91.47h-.05c.42,0,.84,0,1.23,0,.14,0,.26.12.26.26,0,.02,0,.05,0,.07-2.35,8.79-7.68,16.46-14.43,21.64l-.14-.46c6.03.36,11.88-2.01,16.22-5.69,4.38-3.68,7.35-8.78,8.13-14.06.02-.13.14-.22.27-.2h0c7,1.25,14,.36,20.12-1.86,6.16-2.18,11.4-5.75,15.66-9.74,2.09-2.04,3.98-4.17,5.55-6.42.39-.56.72-1.16,1.07-1.73l.52-.86.44-.89c.29-.59.58-1.18.86-1.76.23-.6.46-1.2.69-1.8,1.81-4.77,2.2-9.55,1.95-13.77-.29-4.24-1.23-7.97-2.43-11.06-.25-.79-.64-1.5-.93-2.21-.33-.69-.57-1.39-.94-2-.7-1.22-1.25-2.39-1.9-3.34-.63-.96-1.19-1.81-1.67-2.55-.53-.69-.98-1.28-1.35-1.76-.36-.47-.63-.83-.82-1.08-.18-.24-.27-.37-.27-.37Z"/><polyline class="cls-2" points="207.95 47.9 219.27 57.16 235.14 41.14"/><path class="cls-7" d="M308.44,74.78l-.24-.89c5.52-2.92,10.49-6.95,14.47-11.87,9.49-11.72,10.66-30.41-2.89-46.85-6.48-7.87-15.87-12.74-25.99-13.94-13.23-1.57-29.04-2.24-40.92,5.41-1.99,1.28-3.78,2.8-5.41,4.48,7.07,2.05,13.38,5.6,18.55,11.71,14.05,16.58,12.97,35.57,3.36,47.42-1.29,1.59-2.69,3.08-4.17,4.48.09.04.19.07.29.11,4.41,1.66,9.01,2.78,13.69,3.4l3.53.47c5.29.71,10.62.3,15.73-1.02,2.35,10.83,13.21,19.28,24.33,18.6-6.95-5.35-12.07-13.03-14.33-21.5Z"/><path class="cls-1" d="M308.44,74.78s.05.14.14.42c.09.3.22.71.39,1.26.37,1.1.94,2.73,1.89,4.75.96,2.02,2.29,4.45,4.23,7.05,1.94,2.59,4.47,5.36,7.77,7.9.06.05.07.14.03.2-.03.03-.06.05-.1.06-4.52.26-9.73-.98-14.36-4.14-4.59-3.11-8.71-8.15-10.17-14.56l.25.15c-4.94,1.29-10.45,1.8-16.09,1.01-2.8-.37-5.69-.7-8.59-1.36-2.9-.63-5.81-1.48-8.69-2.58-.12-.05-.18-.18-.14-.3.01-.03.03-.06.06-.09,1.84-1.77,3.65-3.67,5.15-5.84.83-1.03,1.43-2.22,2.15-3.35.56-1.21,1.25-2.38,1.68-3.67,2.03-5.04,2.67-10.72,2.05-16.37-.72-5.64-2.74-11.23-5.85-16.27-1.59-2.49-3.37-4.91-5.37-7.15-2.04-2.21-4.35-4.19-6.92-5.83-3.33-2.15-7-3.68-10.55-4.71-.14-.04-.22-.18-.18-.32.01-.04.04-.08.06-.11,3.51-3.72,7.99-6.31,12.61-8.03,4.67-1.65,9.51-2.49,14.27-2.76,4.76-.31,9.45-.11,14.01.27,2.28.21,4.53.42,6.75.74,2.22.33,4.4.82,6.49,1.48,8.39,2.65,15.42,7.89,19.95,14.27,4.74,6.22,7.54,13.23,8.39,19.87.39,3.33.34,6.55-.08,9.56-.5,3-1.3,5.77-2.36,8.26-2.18,4.97-5.29,8.64-8.09,11.37-2.82,2.75-5.41,4.59-7.34,5.83-1.94,1.24-3.23,1.88-3.67,2.11v-.02c.22.81.24.89.24.89,0,0-.03-.08-.26-.89,0,0,0-.01,0-.02.43-.26,1.7-.93,3.62-2.19,1.91-1.26,4.47-3.12,7.26-5.87,2.77-2.74,5.83-6.41,7.97-11.34,1.04-2.47,1.82-5.22,2.3-8.19.41-2.98.45-6.17.05-9.46-.86-6.57-3.64-13.51-8.36-19.67-4.5-6.31-11.46-11.47-19.75-14.07-2.07-.64-4.22-1.13-6.42-1.45-2.2-.31-4.46-.52-6.73-.73-4.54-.37-9.21-.57-13.94-.25-4.73.28-9.52,1.12-14.12,2.74-4.57,1.7-8.96,4.24-12.41,7.9l-.11-.43c3.59,1.04,7.3,2.59,10.69,4.77,2.61,1.66,4.95,3.68,7.02,5.92,2.02,2.28,3.81,4.71,5.42,7.23,3.14,5.1,5.18,10.76,5.91,16.48.63,5.73-.03,11.5-2.1,16.61-.44,1.31-1.14,2.49-1.71,3.72-.73,1.14-1.34,2.35-2.18,3.4-1.53,2.2-3.36,4.11-5.22,5.9l-.08-.39c2.85,1.09,5.74,1.94,8.61,2.57,2.87.65,5.74.99,8.55,1.37,5.58.79,11.03.3,15.93-.96.11-.03.22.04.25.15h0c1.41,6.29,5.45,11.28,9.97,14.36,4.56,3.13,9.69,4.38,14.15,4.14l-.08.25c-3.31-2.57-5.85-5.38-7.77-8-1.93-2.63-3.25-5.08-4.19-7.12-.93-2.05-1.47-3.69-1.82-4.79-.32-1.12-.46-1.7-.46-1.7Z"/><path class="cls-7" d="M359.66,693.89v-24.98h-38.7l1.61,36.57,25.59,9.72,11.5-13.8v-7.51Z"/><path class="cls-1" d="M359.66,693.89s.02.17.03.49c0,.35.02.83.03,1.45.01,1.3.03,3.17.05,5.57,0,.03-.01.05-.03.07-2.77,3.35-6.68,8.08-11.44,13.85-.05.06-.14.08-.22.06-7.24-2.73-15.97-6.03-25.61-9.67-.09-.04-.16-.12-.16-.22-.33-7.36-.68-15.37-1.05-23.69-.19-4.4-.38-8.71-.56-12.88,0-.14.1-.26.24-.27h.01c14.84.02,28.19.05,38.7.06.11,0,.19.08.19.19h0c-.04,7.69-.06,13.93-.09,18.28-.02,2.14-.04,3.81-.05,4.97-.01.55-.02.98-.03,1.29,0,.29-.02.44-.03.44s-.02-.15-.03-.44c0-.32-.02-.75-.03-1.29-.01-1.17-.03-2.84-.05-4.97-.02-4.35-.05-10.59-.09-18.27l.19.19c-10.51.02-23.86.04-38.7.06l.26-.27c.18,4.17.37,8.48.57,12.88.36,8.32.71,16.34,1.03,23.69l-.16-.22c9.62,3.68,18.34,7.01,25.57,9.77l-.22.06c4.81-5.72,8.77-10.42,11.56-13.75l-.03.07c.02-2.4.04-4.27.05-5.57.01-.61.02-1.09.03-1.45,0-.33.02-.49.03-.49Z"/><path class="cls-7" d="M367.33,744.61c.24-15.8-1.95-25.73-1.71-41.53.04-2.88-.16-6.25-2.54-7.85-2.15-1.45-5.16-.68-7.25.87-2.08,1.55-3.58,3.75-5.48,5.52-4.49,4.19-11.3,5.71-17.14,3.82-5.84-1.89-10.47-7.11-11.65-13.14-17.99,10.82-35.98,21.64-53.97,32.47-3.69,2.22-7.49,4.55-9.88,8.12-2.39,3.57-2.94,8.77-.09,11.98l109.7-.27Z"/><path class="cls-1" d="M367.33,744.61s-.17.01-.52.02c-.37,0-.89.01-1.56.02-1.4.01-3.44.03-6.08.05-5.34.03-13.09.07-22.82.13-19.53.08-46.98.19-78.72.31-.07,0-.14-.03-.19-.08-.54-.63-.98-1.34-1.32-2.1-.32-.77-.51-1.59-.62-2.41-.18-1.66.05-3.36.6-4.96,1.1-3.24,3.63-5.78,6.37-7.8,2.78-2.02,5.81-3.68,8.79-5.51,2.99-1.8,6.01-3.62,9.06-5.45,14.46-8.7,28.37-17.06,41.11-24.72.12-.07.27-.03.34.08.01.02.03.05.03.08,1.44,7.27,7.76,12.9,14.53,13.62,3.38.43,6.77-.22,9.69-1.6,1.46-.7,2.81-1.59,3.98-2.64,1.18-1.05,2.17-2.27,3.23-3.41,1.06-1.14,2.18-2.24,3.54-2.98,1.35-.73,2.89-1.14,4.39-.94,1.52.17,2.86,1.17,3.55,2.44.71,1.28.94,2.71,1.04,4.06.09,1.37.03,2.7.03,4-.02,1.3,0,2.58.02,3.82.06,2.49.14,4.88.27,7.14.25,4.53.59,8.59.82,12.14.24,3.55.38,6.59.45,9.06.06,2.48.06,4.37.04,5.67-.01.63-.03,1.12-.03,1.46,0,.33-.02.48-.02.48,0,0,0-.18-.01-.51,0-.34,0-.83-.01-1.46,0-1.27-.03-3.18-.12-5.65-.09-2.47-.25-5.5-.52-9.05-.26-3.55-.62-7.6-.89-12.14-.14-2.27-.23-4.65-.3-7.15-.01-1.25-.05-2.53-.03-3.83,0-1.31.05-2.64-.04-3.97-.1-1.33-.33-2.71-1-3.9-.65-1.19-1.87-2.08-3.27-2.24-1.4-.19-2.86.2-4.15.91-1.29.7-2.39,1.78-3.43,2.91-1.05,1.13-2.04,2.37-3.25,3.44-1.2,1.08-2.58,2-4.07,2.72-2.99,1.43-6.47,2.09-9.94,1.66-6.98-.74-13.46-6.5-14.96-13.99l.37.16c-12.73,7.67-26.64,16.04-41.1,24.74-3.05,1.83-6.07,3.65-9.06,5.45-2.97,1.83-6.01,3.49-8.75,5.48-2.7,1.98-5.15,4.45-6.2,7.55-.53,1.53-.75,3.16-.58,4.73.1.78.28,1.55.58,2.28.31.72.73,1.38,1.23,1.96l-.19-.08c31.67-.03,59.06-.06,78.55-.08,9.75,0,17.52.01,22.87.01,2.67,0,4.72.01,6.14.02.69,0,1.22,0,1.59.01.36,0,.55.01.55.01Z"/><path class="cls-1" d="M367.23,736.11c0,.14-24.97.41-55.77.6-30.81.19-55.78.22-55.78.08,0-.14,24.97-.41,55.78-.6,30.8-.19,55.78-.23,55.78-.08Z"/><path class="cls-7" d="M289.32,712.08c2.96,1.33,5.19,4.2,5.74,7.41"/><path class="cls-1" d="M295.06,719.48c-.16.04-.53-2.16-2.17-4.24-1.61-2.11-3.65-3.02-3.57-3.16.02-.06.57.09,1.35.53.78.44,1.78,1.22,2.63,2.31.84,1.09,1.35,2.26,1.58,3.12.23.87.24,1.43.18,1.44Z"/><path class="cls-7" d="M297.98,706.58c2.96,1.33,5.19,4.2,5.74,7.41"/><path class="cls-1" d="M303.72,713.99c-.16.04-.53-2.16-2.17-4.24-1.61-2.11-3.65-3.02-3.57-3.16.02-.06.57.09,1.35.53.78.44,1.78,1.22,2.63,2.31.84,1.09,1.35,2.26,1.58,3.12.23.87.24,1.43.18,1.44Z"/><path class="cls-7" d="M306.59,701.77c2.96,1.33,5.19,4.2,5.74,7.41"/><path class="cls-1" d="M312.32,709.18c-.16.04-.53-2.16-2.17-4.24-1.61-2.11-3.65-3.02-3.57-3.16.02-.06.57.09,1.35.53.78.44,1.78,1.22,2.63,2.31.84,1.09,1.35,2.26,1.58,3.12.23.87.24,1.43.18,1.44Z"/><circle class="cls-7" cx="295.06" cy="719.48" r="2.44"/><path class="cls-1" d="M297.5,719.48s-.06-.22-.17-.57c-.12-.35-.37-.85-.9-1.22-.51-.38-1.33-.57-2.11-.27-.78.28-1.44,1.1-1.43,2.07,0,.96.65,1.79,1.43,2.07.78.3,1.6.1,2.11-.27.53-.37.78-.87.9-1.22.12-.35.13-.57.17-.57.03,0,.09.22.02.62-.06.39-.29.99-.87,1.47-.56.48-1.54.77-2.5.43-.96-.31-1.8-1.32-1.79-2.52-.01-1.19.83-2.21,1.79-2.52.97-.34,1.94-.05,2.5.43.58.48.81,1.07.87,1.47.06.4,0,.62-.02.62Z"/><circle class="cls-7" cx="304.2" cy="714.09" r="2.44"/><path class="cls-1" d="M306.64,714.09s-.06-.22-.17-.57c-.12-.35-.37-.85-.9-1.22-.51-.38-1.33-.57-2.11-.27-.78.28-1.44,1.1-1.43,2.07,0,.96.65,1.79,1.43,2.07.78.3,1.6.1,2.11-.27.53-.37.79-.87.9-1.22.12-.35.13-.57.17-.57.03,0,.09.22.02.62-.06.39-.29.99-.87,1.47-.56.48-1.54.77-2.5.43-.96-.31-1.8-1.32-1.79-2.52-.01-1.19.83-2.21,1.79-2.52.97-.34,1.94-.05,2.5.43.58.48.81,1.07.87,1.47.06.4,0,.62-.02.62Z"/><circle class="cls-7" cx="312.75" cy="708.69" r="2.44"/><path class="cls-1" d="M315.19,708.69s-.06-.22-.17-.57c-.12-.35-.37-.85-.9-1.22-.51-.38-1.33-.57-2.11-.27-.78.28-1.44,1.1-1.43,2.07,0,.96.65,1.79,1.43,2.07.78.3,1.6.1,2.11-.27.53-.37.79-.87.9-1.22.12-.35.13-.57.17-.57.03,0,.09.22.02.62-.06.39-.29.99-.87,1.47-.56.48-1.54.77-2.5.43-.96-.31-1.8-1.32-1.79-2.52-.01-1.19.83-2.21,1.79-2.52.97-.34,1.94-.05,2.5.43.58.48.81,1.07.87,1.47.06.4,0,.62-.02.62Z"/><path class="cls-1" d="M316.89,695.29c.05-.01.23.85.71,2.36.47,1.51,1.38,3.64,2.93,6.01.77,1.19,1.75,2.39,2.88,3.61,1.17,1.17,2.48,2.38,4.03,3.43,3.05,2.14,6.93,3.78,11.21,4.26,4.29.41,8.43-.41,11.85-1.87,1.73-.71,3.26-1.62,4.65-2.53,1.35-.96,2.56-1.94,3.55-2.94,2-2,3.32-3.9,4.1-5.28.78-1.38,1.13-2.19,1.18-2.17.02,0-.06.21-.22.6-.18.38-.37.98-.78,1.67-.72,1.42-2.01,3.38-4.01,5.44-.99,1.04-2.2,2.05-3.57,3.04-1.4.94-2.95,1.89-4.7,2.62-3.48,1.52-7.7,2.37-12.09,1.95-4.38-.49-8.34-2.19-11.43-4.39-1.57-1.08-2.89-2.32-4.07-3.52-1.13-1.25-2.11-2.49-2.87-3.7-1.53-2.42-2.4-4.61-2.81-6.15-.25-.76-.32-1.38-.42-1.79-.08-.41-.11-.63-.1-.63Z"/><path class="cls-7" d="M456.46,693.89v-24.98h-38.7l1.61,36.57,25.59,9.72,11.5-13.8v-7.51Z"/><path class="cls-1" d="M456.46,693.89s.02.17.03.49c0,.35.02.83.03,1.45.01,1.3.03,3.17.05,5.57,0,.03-.01.05-.03.07-2.77,3.35-6.68,8.08-11.44,13.85-.05.06-.14.08-.22.06-7.24-2.73-15.97-6.03-25.61-9.67-.09-.04-.16-.12-.16-.22-.33-7.36-.68-15.37-1.05-23.69-.19-4.4-.38-8.71-.56-12.88,0-.14.1-.26.24-.27h.01c14.84.02,28.19.05,38.7.06.11,0,.19.08.19.19h0c-.04,7.69-.06,13.93-.09,18.28-.02,2.14-.04,3.81-.05,4.97-.01.55-.02.98-.03,1.29,0,.29-.02.44-.03.44s-.02-.15-.03-.44c0-.32-.02-.75-.03-1.29-.01-1.17-.03-2.84-.05-4.97-.02-4.35-.05-10.59-.09-18.27l.19.19c-10.51.02-23.86.04-38.7.06l.26-.27c.18,4.17.37,8.48.57,12.88.36,8.32.71,16.34,1.03,23.69l-.16-.22c9.62,3.68,18.34,7.01,25.57,9.77l-.22.06c4.81-5.72,8.77-10.42,11.56-13.75l-.03.07c.02-2.4.04-4.27.05-5.57.01-.61.02-1.09.03-1.45,0-.33.02-.49.03-.49Z"/><path class="cls-7" d="M464.12,744.61c.24-15.8-1.95-25.73-1.71-41.53.04-2.88-.16-6.25-2.54-7.85-2.15-1.45-5.16-.68-7.25.87-2.08,1.55-3.58,3.75-5.48,5.52-4.49,4.19-11.3,5.71-17.14,3.82-5.84-1.89-10.47-7.11-11.65-13.14-17.99,10.82-35.98,21.64-53.97,32.47-3.69,2.22-7.49,4.55-9.88,8.12-2.39,3.57-2.94,8.77-.09,11.98l109.7-.27Z"/><path class="cls-1" d="M464.12,744.61s-.17.01-.52.02c-.37,0-.88.01-1.56.02-1.4.01-3.44.03-6.08.05-5.34.03-13.09.07-22.82.13-19.53.08-46.98.19-78.72.31-.07,0-.14-.03-.19-.08-.54-.63-.98-1.34-1.32-2.1-.32-.77-.51-1.59-.62-2.41-.18-1.66.05-3.36.6-4.96,1.1-3.24,3.63-5.78,6.37-7.8,2.78-2.02,5.81-3.68,8.79-5.51,2.99-1.8,6.01-3.62,9.06-5.45,14.46-8.7,28.37-17.06,41.11-24.72.12-.07.27-.03.34.08.02.02.03.05.03.08,1.44,7.27,7.76,12.9,14.53,13.62,3.38.43,6.77-.22,9.69-1.6,1.46-.7,2.81-1.59,3.98-2.64,1.18-1.05,2.17-2.27,3.23-3.41,1.06-1.14,2.18-2.24,3.54-2.98,1.35-.73,2.89-1.14,4.39-.94,1.52.17,2.86,1.17,3.55,2.44.71,1.28.94,2.71,1.04,4.06.09,1.37.03,2.7.03,4-.02,1.3,0,2.58.02,3.82.06,2.49.14,4.88.27,7.14.25,4.53.59,8.59.82,12.14.24,3.55.38,6.59.45,9.06.06,2.48.06,4.37.04,5.67-.01.63-.03,1.12-.03,1.46,0,.33-.02.48-.02.48,0,0,0-.18-.01-.51,0-.34,0-.83-.01-1.46,0-1.27-.03-3.18-.12-5.65-.09-2.47-.25-5.5-.52-9.05-.26-3.55-.62-7.6-.89-12.14-.14-2.27-.23-4.65-.3-7.15-.01-1.25-.05-2.53-.03-3.83,0-1.31.05-2.64-.04-3.97-.1-1.33-.33-2.71-1-3.9-.65-1.19-1.87-2.08-3.27-2.24-1.4-.19-2.86.2-4.15.91-1.29.7-2.39,1.78-3.43,2.91-1.05,1.13-2.04,2.37-3.25,3.44-1.2,1.08-2.58,2-4.07,2.72-2.99,1.43-6.47,2.09-9.94,1.66-6.98-.74-13.46-6.5-14.96-13.99l.37.16c-12.73,7.67-26.64,16.04-41.1,24.74-3.05,1.83-6.07,3.65-9.06,5.45-2.97,1.83-6.01,3.49-8.75,5.48-2.7,1.98-5.15,4.45-6.2,7.55-.53,1.53-.75,3.16-.58,4.73.1.78.28,1.55.58,2.28.31.72.73,1.38,1.23,1.96l-.19-.08c31.67-.03,59.06-.06,78.55-.08,9.75,0,17.52.01,22.87.01,2.67,0,4.72.01,6.14.02.69,0,1.22,0,1.59.01.36,0,.55.01.55.01Z"/><path class="cls-1" d="M464.03,736.11c0,.14-24.97.41-55.77.6-30.81.19-55.78.22-55.78.08,0-.14,24.97-.41,55.78-.6,30.8-.19,55.77-.23,55.78-.08Z"/><path class="cls-7" d="M386.12,712.08c2.96,1.33,5.19,4.2,5.74,7.41"/><path class="cls-1" d="M391.85,719.48c-.16.04-.53-2.16-2.17-4.24-1.61-2.11-3.65-3.02-3.57-3.16.02-.06.57.09,1.35.53.78.44,1.78,1.22,2.63,2.31.84,1.09,1.35,2.26,1.58,3.12.23.87.24,1.43.18,1.44Z"/><path class="cls-7" d="M394.77,706.58c2.96,1.33,5.19,4.2,5.74,7.41"/><path class="cls-1" d="M400.51,713.99c-.16.04-.53-2.16-2.17-4.24-1.61-2.11-3.65-3.02-3.57-3.16.02-.06.57.09,1.35.53.78.44,1.78,1.22,2.63,2.31.84,1.09,1.35,2.26,1.58,3.12.23.87.24,1.43.18,1.44Z"/><path class="cls-7" d="M403.38,701.77c2.96,1.33,5.19,4.2,5.74,7.41"/><path class="cls-1" d="M409.12,709.18c-.16.04-.53-2.16-2.17-4.24-1.61-2.11-3.65-3.02-3.57-3.16.02-.06.57.09,1.35.53.78.44,1.78,1.22,2.63,2.31.84,1.09,1.35,2.26,1.58,3.12.23.87.24,1.43.18,1.44Z"/><path class="cls-7" d="M394.29,719.48c0,1.35-1.09,2.44-2.44,2.44s-2.44-1.09-2.44-2.44,1.09-2.44,2.44-2.44,2.44,1.09,2.44,2.44Z"/><path class="cls-1" d="M394.29,719.48s-.06-.22-.17-.57c-.12-.35-.37-.85-.9-1.22-.51-.38-1.33-.57-2.11-.27-.78.28-1.44,1.1-1.43,2.07,0,.96.65,1.79,1.43,2.07.78.3,1.6.1,2.11-.27.53-.37.79-.87.9-1.22.12-.35.13-.57.17-.57.03,0,.09.22.02.62-.06.39-.29.99-.87,1.47-.56.48-1.54.77-2.5.43-.96-.31-1.8-1.32-1.79-2.52-.01-1.19.83-2.21,1.79-2.52.97-.34,1.94-.05,2.5.43.58.48.81,1.07.87,1.47.06.4,0,.62-.02.62Z"/><circle class="cls-7" cx="401" cy="714.09" r="2.44"/><path class="cls-1" d="M403.44,714.09s-.06-.22-.17-.57c-.12-.35-.37-.85-.9-1.22-.51-.38-1.33-.57-2.11-.27-.78.28-1.44,1.1-1.43,2.07,0,.96.65,1.79,1.43,2.07.78.3,1.6.1,2.11-.27.53-.37.79-.87.9-1.22.12-.35.13-.57.17-.57.03,0,.09.22.02.62-.06.39-.29.99-.87,1.47-.56.48-1.54.77-2.5.43-.96-.31-1.8-1.32-1.79-2.52-.01-1.19.83-2.21,1.79-2.52.97-.34,1.94-.05,2.5.43.58.48.81,1.07.87,1.47.06.4,0,.62-.02.62Z"/><circle class="cls-7" cx="409.55" cy="708.69" r="2.44"/><path class="cls-1" d="M411.99,708.69s-.06-.22-.17-.57c-.12-.35-.37-.85-.9-1.22-.51-.38-1.33-.57-2.11-.27-.78.28-1.44,1.1-1.43,2.07,0,.96.65,1.79,1.43,2.07.78.3,1.6.1,2.11-.27.53-.37.79-.87.9-1.22.12-.35.13-.57.17-.57.03,0,.09.22.02.62-.06.39-.29.99-.87,1.47-.56.48-1.54.77-2.5.43-.96-.31-1.8-1.32-1.79-2.52-.01-1.19.83-2.21,1.79-2.52.97-.34,1.94-.05,2.5.43.58.48.81,1.07.87,1.47.06.4,0,.62-.02.62Z"/><path class="cls-1" d="M413.68,695.29c.05-.01.23.85.71,2.36.47,1.51,1.38,3.64,2.93,6.01.77,1.19,1.75,2.39,2.88,3.61,1.17,1.17,2.48,2.38,4.03,3.43,3.05,2.14,6.93,3.78,11.21,4.26,4.29.41,8.43-.41,11.85-1.87,1.73-.71,3.26-1.62,4.65-2.53,1.35-.96,2.56-1.94,3.55-2.94,2-2,3.32-3.9,4.1-5.28.78-1.38,1.13-2.19,1.18-2.17.02,0-.06.21-.22.6-.18.38-.37.98-.78,1.67-.72,1.42-2.01,3.38-4.01,5.44-.99,1.04-2.2,2.05-3.57,3.04-1.4.94-2.95,1.89-4.7,2.62-3.48,1.52-7.7,2.37-12.09,1.95-4.38-.49-8.34-2.19-11.43-4.39-1.57-1.08-2.89-2.32-4.07-3.52-1.13-1.25-2.11-2.49-2.87-3.7-1.53-2.42-2.4-4.61-2.81-6.15-.25-.76-.32-1.38-.42-1.79-.08-.41-.11-.63-.1-.63Z"/><path class="cls-4" d="M324.34,404.73c-2.04,2.38-27.39,101.17-28.07,113.09-.68,11.92,12.1,161.18,12.1,161.18h63.19s-5.04-146.95-5.04-146.95l17.85-78.78,20.96,222.56h63.57l-4.98-258.6s8.71-26.56,3.96-56.95c-4.75-30.39-16.95-54-16.95-54h-103.22l-23.38,98.45Z"/><path class="cls-7" d="M381.12,369.65c.14,0,1.15,22.73,2.24,50.78,1.09,28.06,1.87,50.8,1.72,50.8-.14,0-1.15-22.73-2.24-50.78-1.09-28.05-1.87-50.79-1.72-50.8Z"/><path class="cls-7" d="M427.88,349.35c-.14,0-.37-3.43-.5-7.66-.13-4.24-.12-7.68.02-7.68.14,0,.37,3.43.5,7.66.13,4.24.12,7.68-.02,7.68Z"/><path class="cls-7" d="M239.76,296.27l61.22-22.36,37.48-53.54,28.52,26.38-32.53,53.23c-3.48,5.69-9.19,9.67-15.73,10.96l-81.57,16.1-16.26-17.31,18.88-13.47Z"/><path class="cls-1" d="M239.76,296.27s-.41.32-1.23.92c-.83.6-2.04,1.48-3.62,2.63-3.2,2.3-7.9,5.68-13.95,10.03l.02-.19c4.48,4.75,9.99,10.59,16.3,17.27l-.16-.05c16.86-3.35,37.97-7.54,61.95-12.3,6-1.19,12.17-2.41,18.5-3.66,3.17-.53,6.27-1.61,9.04-3.36,2.77-1.73,5.21-4.08,7.07-6.85,7.05-11.52,14.38-23.51,21.91-35.82,3.78-6.18,7.51-12.28,11.17-18.27l.05.32c-9.88-9.14-19.43-17.98-28.51-26.39l.37-.04c-14.08,20.08-26.81,38.23-37.52,53.51-.02.03-.06.06-.09.07-18.87,6.85-34.17,12.41-44.78,16.26-5.3,1.91-9.42,3.4-12.22,4.41-1.39.5-2.46.88-3.19,1.14-.72.25-1.1.37-1.1.37,0,0,.36-.15,1.07-.42.73-.27,1.78-.67,3.16-1.19,2.8-1.04,6.9-2.55,12.18-4.5,10.6-3.89,25.89-9.51,44.74-16.43l-.09.07c10.69-15.3,23.39-33.46,37.44-53.57.08-.11.23-.14.34-.06l.03.02c9.09,8.4,18.65,17.23,28.53,26.37.09.09.11.22.05.33-3.66,5.99-7.39,12.09-11.17,18.28-7.54,12.31-14.88,24.31-21.94,35.83-1.9,2.83-4.39,5.22-7.23,6.99-2.82,1.78-6.02,2.9-9.21,3.42-6.33,1.25-12.51,2.46-18.51,3.64-23.99,4.71-45.11,8.86-61.98,12.17-.06.01-.12,0-.16-.05-6.28-6.71-11.76-12.57-16.23-17.34-.05-.05-.04-.13,0-.17h.01c6.08-4.32,10.81-7.67,14.03-9.95,1.6-1.13,2.82-1.98,3.66-2.57.83-.58,1.26-.86,1.26-.86Z"/><path class="cls-7" d="M170.51,297.88l18.63,7.28s6.86-5.22,20.04-10.16c13.18-4.94,20.39-11.51,21.14-5.49.38,3.1-3.02,6.62-3.02,6.62l-7.41,9.03s24.16,14.28,23.61,19.49c-.55,5.22-3.02,5.22-3.02,5.22,0,0,1.1,5.49-4.12,5.77,0,0,.27,6.59-7.41,5.77,0,0,3.84,4.12-5.49,3.84-9.34-.27-66.84-15.15-66.84-15.15l13.88-32.21Z"/><path class="cls-1" d="M170.51,297.88s-.08.21-.23.59c-.16.39-.4.95-.7,1.67-.63,1.48-1.54,3.63-2.71,6.41-2.37,5.56-5.8,13.61-10.07,23.61l-.12-.24c9.62,2.45,21.05,5.31,33.81,8.35,6.38,1.51,13.1,3.08,20.11,4.55,3.5.73,7.09,1.45,10.75,1.97,1.82.2,3.69.31,5.52.04.88-.14,1.88-.36,2.38-1,.54-.62.1-1.61-.46-2.25h0c-.09-.11-.08-.28.02-.37.06-.05.13-.07.2-.06,1.67.19,3.49.03,4.94-.93,1.43-.98,2.18-2.81,2.18-4.57h0c0-.15.11-.26.25-.27,1.22-.06,2.58-.52,3.27-1.64.7-1.09.81-2.53.61-3.81-.02-.15.08-.29.23-.31h.01s.02,0,.02,0c.65-.07,1.31-.64,1.69-1.29.41-.66.66-1.42.83-2.2.09-.39.15-.78.2-1.18.04-.2.05-.39.03-.56.01-.17-.05-.35-.1-.53-.23-.71-.68-1.38-1.16-2-2.02-2.45-4.55-4.44-7.02-6.35-5.01-3.77-10.15-7.09-15.19-10.13-.12-.07-.16-.22-.09-.34l.02-.03c2.54-3.09,5.02-6.1,7.42-9.03h0s0-.01,0-.01c.93-1.01,1.74-2.15,2.32-3.36.59-1.21.87-2.55.5-3.79-.16-.62-.5-1.16-1.06-1.36-.55-.21-1.21-.12-1.83,0-1.25.29-2.44.82-3.6,1.34-4.62,2.18-8.98,4.39-13.26,6.01-8.55,3.17-15.7,6.74-20.98,10.45h0s-.09.03-.13.02c-5.9-2.34-10.54-4.18-13.71-5.44-1.57-.63-2.78-1.12-3.62-1.45-.4-.16-.71-.29-.93-.38-.21-.09-.32-.14-.32-.14,0,0,.1.03.31.1.22.08.53.2.92.34.83.32,2.04.78,3.62,1.38,3.2,1.23,7.88,3.03,13.84,5.32l-.13.02c5.3-3.77,12.45-7.39,21-10.59,4.26-1.63,8.58-3.84,13.22-6.05,1.17-.53,2.37-1.07,3.68-1.38.65-.14,1.37-.25,2.08,0,.36.12.66.38.89.67.21.31.37.64.45.98.19.68.24,1.4.13,2.11-.1.7-.35,1.37-.65,2.01-.6,1.27-1.43,2.43-2.4,3.49h.01c-2.4,2.92-4.87,5.93-7.41,9.03l-.07-.37c5.06,3.05,10.21,6.36,15.25,10.15,2.49,1.93,5.02,3.91,7.11,6.43.5.65.98,1.34,1.25,2.17.14.39.16.93.09,1.31-.05.41-.12.82-.21,1.23-.18.81-.44,1.62-.9,2.36-.45.72-1.11,1.43-2.13,1.54l.26-.31c.21,1.41.12,2.92-.68,4.2-.8,1.31-2.39,1.83-3.68,1.88l.25-.27c0,1.94-.8,3.91-2.4,5.02-1.62,1.06-3.57,1.21-5.3,1.01l.22-.43c.34.4.61.82.76,1.34.16.5.09,1.15-.27,1.57-.73.87-1.78,1.03-2.71,1.2-1.91.29-3.8.17-5.67-.04-3.69-.53-7.27-1.25-10.78-1.99-7.02-1.48-13.73-3.06-20.11-4.59-12.76-3.06-24.17-5.96-33.79-8.45-.1-.02-.15-.12-.13-.22v-.03c4.37-10.02,7.88-18.07,10.3-23.63,1.2-2.75,2.14-4.88,2.78-6.34.31-.71.55-1.25.72-1.63.16-.36.25-.54.25-.54Z"/><path class="cls-7" d="M200.07,327.14s-3.34-.82-6.57,2.29c-3.24,3.11-7.66,9.5-6.51,12.45,1.15,2.95,3.28,4.12,5.41,3.37,2.13-.75,6.68-5.03,7.68-7.31,1-2.28,3.26-8.18,0-10.8Z"/><path class="cls-1" d="M200.07,327.14s.15.09.41.32c.14.11.28.27.43.48.17.19.31.45.46.75.61,1.19.74,3.2.2,5.47-.26,1.14-.67,2.36-1.2,3.62-.54,1.31-1.52,2.45-2.57,3.58-1.07,1.12-2.26,2.22-3.64,3.2-.69.46-1.46.98-2.38,1.12-.91.17-1.9-.04-2.68-.55-.8-.51-1.38-1.25-1.82-2.02-.22-.39-.4-.78-.55-1.2-.05-.23-.13-.45-.15-.67,0-.22-.03-.45-.02-.67.15-1.76.9-3.25,1.63-4.6,1.54-2.69,3.33-4.84,4.99-6.47,1.68-1.68,3.58-2.36,4.88-2.48.65-.07,1.17-.04,1.51,0,.34.05.52.11.51.13,0,.04-.72-.13-1.99.07-1.26.18-3.06.89-4.65,2.54-1.6,1.64-3.35,3.8-4.83,6.44-.71,1.32-1.42,2.8-1.54,4.39,0,.2.02.39.02.58.02.19.09.37.13.56.13.38.32.76.52,1.12.41.72.95,1.39,1.65,1.83.69.45,1.53.63,2.32.48.8-.12,1.5-.58,2.18-1.03,1.35-.94,2.53-2.02,3.59-3.11,1.04-1.1,2-2.2,2.52-3.42.54-1.24.96-2.43,1.24-3.54.57-2.22.5-4.14-.03-5.3-.52-1.17-1.16-1.57-1.11-1.63Z"/><path class="cls-7" d="M209.73,330.61s-3.34-.82-6.57,2.29c-3.24,3.11-7.66,9.5-6.51,12.45,1.15,2.95,3.28,4.12,5.41,3.37s6.68-5.03,7.68-7.31,3.26-8.18,0-10.8Z"/><path class="cls-1" d="M209.73,330.61s.15.09.41.32c.14.11.28.27.43.48.17.19.31.45.46.75.61,1.19.74,3.2.2,5.47-.26,1.14-.67,2.36-1.2,3.62-.54,1.31-1.52,2.45-2.57,3.58-1.07,1.12-2.26,2.22-3.64,3.2-.69.46-1.46.98-2.38,1.12-.91.17-1.9-.04-2.68-.55-.8-.51-1.38-1.25-1.82-2.02-.22-.39-.4-.78-.55-1.2-.05-.22-.13-.45-.15-.67,0-.22-.03-.45-.02-.67.15-1.76.9-3.25,1.63-4.6,1.54-2.69,3.33-4.84,4.99-6.47,1.68-1.68,3.58-2.36,4.88-2.48.65-.07,1.17-.04,1.51,0,.34.05.52.11.51.13,0,.04-.72-.13-1.99.07-1.26.18-3.06.89-4.65,2.54-1.6,1.64-3.35,3.8-4.83,6.44-.71,1.32-1.42,2.8-1.54,4.39,0,.2.02.39.02.58.02.19.09.37.13.56.13.38.32.76.52,1.12.41.72.95,1.39,1.65,1.83.69.45,1.53.63,2.32.48.8-.12,1.5-.58,2.18-1.03,1.35-.94,2.53-2.02,3.59-3.11,1.04-1.1,2-2.2,2.52-3.42.54-1.24.96-2.43,1.24-3.54.57-2.22.5-4.14-.03-5.3-.52-1.17-1.16-1.57-1.11-1.63Z"/><path class="cls-7" d="M219.19,333.05s-3.34-.82-6.57,2.29c-3.24,3.11-7.66,9.5-6.51,12.45,1.15,2.95,3.28,4.12,5.41,3.37,2.13-.75,6.68-5.03,7.68-7.31,1-2.28,3.26-8.18,0-10.8Z"/><path class="cls-1" d="M219.19,333.05s.15.09.41.32c.14.11.28.27.43.48.17.19.31.45.46.75.61,1.19.74,3.2.2,5.47-.26,1.14-.67,2.36-1.2,3.62-.54,1.31-1.52,2.45-2.57,3.58-1.07,1.12-2.26,2.22-3.64,3.2-.69.46-1.46.98-2.38,1.12-.91.17-1.9-.04-2.68-.55-.8-.51-1.38-1.25-1.82-2.02-.22-.39-.4-.78-.55-1.2-.05-.23-.13-.45-.15-.67,0-.22-.03-.45-.02-.67.15-1.76.9-3.25,1.63-4.6,1.54-2.69,3.33-4.84,4.99-6.47,1.68-1.68,3.58-2.36,4.88-2.48.65-.07,1.17-.04,1.51,0,.34.05.52.11.51.13,0,.04-.72-.13-1.99.07-1.26.18-3.06.89-4.65,2.54-1.6,1.64-3.35,3.8-4.83,6.44-.71,1.32-1.42,2.8-1.54,4.39,0,.2.02.39.02.58.02.19.09.37.13.56.13.38.32.76.52,1.12.41.72.95,1.39,1.65,1.83.69.45,1.53.63,2.32.48.8-.12,1.5-.58,2.18-1.03,1.35-.94,2.53-2.02,3.59-3.11,1.04-1.1,2-2.2,2.52-3.42.54-1.24.96-2.43,1.24-3.54.57-2.22.5-4.14-.03-5.3-.52-1.17-1.16-1.57-1.11-1.63Z"/><path class="cls-7" d="M226.99,338.7s-2.68-.66-5.29,1.84c-2.6,2.5-6.16,7.64-5.24,10.01.92,2.37,2.64,3.32,4.35,2.71,1.71-.6,5.38-4.05,6.18-5.88.8-1.84,2.62-6.58,0-8.69Z"/><path class="cls-1" d="M226.99,338.7s.12.07.34.25c.12.09.23.22.35.38.14.15.25.36.37.6.5.96.61,2.58.18,4.42-.21.92-.53,1.9-.96,2.92-.44,1.07-1.23,1.98-2.07,2.89-.86.9-1.82,1.79-2.94,2.58-.56.37-1.18.79-1.93.91-.74.14-1.55-.03-2.19-.45-.65-.41-1.13-1.01-1.48-1.64-.18-.32-.33-.63-.45-.97-.12-.37-.15-.74-.14-1.1.12-1.43.73-2.63,1.32-3.72,1.24-2.17,2.69-3.89,4.03-5.21,1.36-1.35,2.9-1.9,3.95-1.99.53-.06.94-.03,1.21.01.27.04.41.09.41.11,0,.04-.58-.09-1.6.08-1.01.15-2.44.72-3.72,2.05-1.28,1.32-2.68,3.05-3.87,5.18-.57,1.06-1.14,2.25-1.23,3.51,0,.31.02.62.12.9.11.3.25.61.41.89.33.57.76,1.1,1.31,1.45.55.35,1.21.49,1.83.38.63-.09,1.19-.45,1.73-.82,1.08-.75,2.03-1.62,2.88-2.49.83-.88,1.61-1.77,2.02-2.73.43-.99.77-1.95,1-2.84.46-1.78.41-3.32,0-4.25-.41-.94-.92-1.26-.88-1.32Z"/><path class="cls-7" d="M239.76,296.27s-17.02-1.08-24.77,4.09c-7.75,5.17-20.9,4.95-21.33,6.89-.43,1.94-.43,5.6,5.39,7.11,5.82,1.51,24.42,1,30.16,0,5.13-.89,10.56-5.29,10.56-5.29"/><path class="cls-1" d="M239.76,309.08s-.06.07-.19.18c-.13.11-.33.27-.59.48-.53.41-1.33.99-2.41,1.67-1.08.68-2.44,1.45-4.11,2.15-.84.34-1.76.67-2.77.88-1.01.22-2.09.34-3.22.47-4.53.45-9.94.68-15.95.64-3-.05-6.16-.1-9.43-.54-1.63-.21-3.3-.61-4.83-1.44-.75-.44-1.46-.99-2-1.72-.54-.72-.89-1.6-.98-2.5-.06-.45-.04-.9,0-1.35.03-.22.06-.44.11-.66,0-.09.06-.25.14-.4.09-.1.19-.22.29-.28.82-.53,1.67-.67,2.49-.88,1.66-.36,3.3-.63,4.9-.94,3.2-.61,6.27-1.32,9.06-2.37,1.39-.53,2.71-1.14,3.92-1.86,1.18-.75,2.43-1.46,3.68-1.95,2.51-1,4.97-1.5,7.22-1.86,4.51-.69,8.2-.72,10.74-.71,1.27.02,2.26.05,2.92.1.31.02.56.04.76.06.17.02.26.03.26.04,0,0-.09.01-.26.01-.2,0-.45,0-.76,0-.67,0-1.65-.01-2.92,0-2.53.06-6.22.14-10.68.88-2.22.38-4.66.9-7.11,1.89-1.24.5-2.39,1.16-3.6,1.94-1.23.75-2.57,1.37-3.98,1.92-2.83,1.08-5.92,1.81-9.13,2.42-1.6.31-3.25.58-4.88.94-.8.19-1.67.38-2.29.79-.08.05-.11.11-.17.16-.01.05-.05.08-.06.21-.04.2-.07.41-.1.61-.03.41-.06.83,0,1.24.14,1.67,1.29,3.04,2.71,3.82,1.44.79,3.05,1.18,4.65,1.39,3.21.44,6.37.51,9.36.57,5.99.06,11.4-.12,15.91-.52,4.57-.21,7.88-2.04,10.04-3.31,1.09-.65,1.9-1.2,2.45-1.58.25-.18.46-.32.62-.43.14-.1.21-.15.22-.14Z"/><path class="cls-1" d="M221.96,327.44c.02-.06.96.1,2.43.57,1.47.46,3.47,1.27,5.52,2.43,2.06,1.17,3.77,2.47,4.92,3.5,1.15,1.03,1.78,1.76,1.73,1.8-.11.13-2.84-2.56-6.91-4.85-4.05-2.32-7.75-3.29-7.7-3.45Z"/><path class="cls-1" d="M228.91,320.77c.02-.06.86.17,2.14.75,1.28.57,2.98,1.53,4.67,2.86,1.69,1.33,3.02,2.76,3.87,3.87.86,1.11,1.28,1.87,1.23,1.9-.13.1-2.1-2.76-5.43-5.36-3.31-2.63-6.56-3.86-6.49-4.01Z"/><path class="cls-7" d="M419.42,151.82s-7.66,10.28-21.05,11.65c-10.96,1.12-14.91-6-14.91-6,2.76-1.04-5.78,1.48-14.32,4.04-9.56,2.87-17.71,9.19-22.86,17.74l-22.88,37.96,30.82,25.58c.01.11.03.25.04.34,1.42,9.47-20.24,95.77-18.19,97.12,2.05,1.35,132.16,6.24,132.16,6.24v-149.36s2.35-41.31-48.8-45.31Z"/><path class="cls-1" d="M419.42,151.82s.36.02,1.07.09c.73.07,1.79.17,3.2.31,2.79.4,6.96.92,12.15,2.51,1.29.4,2.65.88,4.07,1.39,1.38.6,2.88,1.14,4.35,1.92,2.98,1.45,6.1,3.34,9.09,5.86,3.01,2.49,5.83,5.64,8.23,9.39,2.41,3.75,4.3,8.14,5.51,12.97.59,2.42,1.03,4.94,1.22,7.55.11,1.3.11,2.64.09,3.97,0,1.33,0,2.68,0,4.04,0,5.45,0,11.14.01,17.05,0,11.83.02,24.55.03,38.06.01,27.02.02,57.18.04,89.56,0,.14-.11.25-.25.25h0c-28.02-1.06-58.38-2.26-89.81-3.68-12.77-.6-25.36-1.15-37.71-2.02l-2.31-.2-1.16-.12c-.41-.06-.73-.06-1.23-.23-.04,0-.19-.12-.21-.2-.04-.08-.05-.14-.07-.2-.02-.12-.03-.22-.04-.33,0-.21,0-.41,0-.6.02-.39.06-.78.1-1.17.09-.77.21-1.53.33-2.29.49-3.03,1.09-6.03,1.69-9,1.21-5.95,2.48-11.82,3.74-17.63,2.52-11.61,5.02-22.94,7.32-33.98,1.15-5.52,2.25-10.97,3.24-16.35.49-2.69.95-5.37,1.34-8.03.19-1.33.37-2.66.49-3.98.11-1.32.24-2.64.04-3.93l.08.15c-10.8-8.97-21.09-17.52-30.8-25.59-.08-.07-.1-.18-.05-.27,4.81-7.97,9.41-15.59,13.78-22.83,2.19-3.62,4.32-7.15,6.39-10.57,2.09-3.4,3.96-6.86,6.47-9.72,4.9-5.8,11.08-9.76,17.27-11.96,3.12-1.05,6.16-1.87,9.05-2.75,1.45-.42,2.87-.83,4.26-1.24.7-.19,1.38-.39,2.06-.58.34-.09.68-.18,1.02-.27l.26-.06.14-.02h.04s.02-.05.14.06c.03.23-.02.12-.03.17-.02.02-.03.02-.03.02l-.04.02c-.17.08-.33.14-.49.2l.07-.18c1.81,2.79,4.68,4.56,7.5,5.37,2.84.84,5.68.8,8.21.46,2.56-.3,4.85-.99,6.86-1.78,2.03-.77,3.76-1.73,5.24-2.65,2.97-1.87,4.95-3.7,6.21-4.97.64-.63,1.08-1.15,1.38-1.49.29-.34.44-.52.44-.52,0,0-.53.76-1.77,2.05-1.25,1.29-3.21,3.14-6.19,5.04-1.49.94-3.22,1.91-5.25,2.69-2.02.81-4.33,1.51-6.9,1.82-2.55.35-5.42.41-8.3-.44-2.87-.82-5.77-2.58-7.66-5.46-.04-.06-.02-.13.03-.17h.02s0-.02,0-.02c.16-.06.33-.12.46-.19.02-.02-.01-.02.1.08-.03.16,0,.11-.04.12l-.12.02-.25.06c-.34.09-.67.18-1.01.27-.68.19-1.36.39-2.06.58-1.39.41-2.8.82-4.25,1.25-2.88.88-5.94,1.71-9.03,2.77-6.14,2.19-12.26,6.14-17.11,11.9-2.48,2.83-4.33,6.27-6.42,9.69-2.06,3.43-4.19,6.96-6.37,10.58-4.36,7.25-8.95,14.87-13.75,22.85l-.05-.27c9.72,8.06,20.03,16.6,30.83,25.56.05.04.07.09.08.14h0c.21,1.35.08,2.71-.03,4.04-.13,1.34-.3,2.67-.49,4-.39,2.67-.85,5.35-1.34,8.04-.98,5.39-2.08,10.84-3.23,16.37-2.3,11.05-4.79,22.38-7.31,33.99-1.26,5.8-2.52,11.67-3.73,17.62-.6,2.97-1.19,5.96-1.68,8.98-.12.75-.23,1.51-.32,2.27-.04.38-.08.76-.1,1.13-.01.19-.01.37,0,.55,0,.16.06.39.05.3.23.07.69.13,1.04.18l1.14.12,2.3.19c12.34.86,24.93,1.41,37.7,2.01,31.43,1.42,61.79,2.62,89.8,3.7l-.26.25c.01-32.38.03-62.54.04-89.57,0-13.51.02-26.24.03-38.07,0-5.91.01-11.6.01-17.05,0-1.36,0-2.71,0-4.04.03-1.33.02-2.64-.08-3.93-.18-2.59-.61-5.1-1.19-7.5-1.19-4.8-3.06-9.16-5.44-12.89-2.38-3.73-5.17-6.87-8.15-9.35-2.96-2.51-6.06-4.4-9.02-5.86-1.46-.79-2.95-1.33-4.32-1.93-1.41-.51-2.76-1-4.05-1.4-5.17-1.61-9.33-2.15-12.11-2.58-1.39-.15-2.45-.27-3.17-.35-.72-.08-1.09-.13-1.09-.13Z"/><path class="cls-7" d="M419.08,201.72l.4,47.78,54.95.53s-.27-64.94-16.32-80.1"/><path class="cls-1" d="M458.11,169.93s.11.09.3.29c.21.22.49.51.86.89.73.8,1.72,2.08,2.78,3.86,2.14,3.55,4.39,9.19,6.23,16.43,3.67,14.5,6.01,35.26,6.41,58.64,0,.14-.11.26-.25.26h-.01c-3.14-.03-6.47-.06-9.84-.09-16.46-.17-31.93-.33-45.11-.47-.12,0-.22-.1-.23-.23-.08-14.29-.15-26.22-.2-34.62,0-4.17-.01-7.45-.02-9.72,0-1.1.01-1.96.01-2.56,0-.27,0-.49.01-.66,0-.15.01-.22.02-.22s.01.07.02.22c0,.17.01.38.02.66.01.6.03,1.46.06,2.56.03,2.27.08,5.55.15,9.72.09,8.39.23,20.33.39,34.61l-.22-.23c13.19.12,28.65.25,45.11.4,3.37.03,6.7.06,9.84.1l-.26.26c-.39-23.34-2.66-44.08-6.23-58.55-1.78-7.23-3.98-12.86-6.05-16.42-1.03-1.78-1.99-3.07-2.69-3.89-.35-.39-.62-.69-.82-.92-.18-.21-.27-.32-.27-.32Z"/><path d="M448.79,166.92c0,.11-2.1-.07-5.4.48-3.28.53-7.79,1.98-11.89,5.02-4.1,3.04-6.81,6.93-8.27,9.92-1.49,3-1.93,5.06-2.03,5.03-.03,0,.06-.52.3-1.44.24-.91.68-2.21,1.39-3.75,1.4-3.07,4.1-7.07,8.29-10.18,4.19-3.1,8.81-4.53,12.15-4.97,1.68-.23,3.05-.28,3.99-.24.94.03,1.46.1,1.46.13Z"/><path d="M354.24,194.66c.14,0,.26,11.98.26,26.76s-.12,26.76-.26,26.76-.26-11.98-.26-26.76.12-26.76.26-26.76Z"/><path class="cls-7" d="M419.12,158.45l.36-3.97-.84-37.51-4.06-31.22-30.96-20.14-24.05,7.16c.04-.5.1,2.19-.72,8.34,0,0-2.44,45.77,2.91,54.6,4.96,8.18,16.64,8.95,19.24,13.64,1.45,2.61,2.37,7.04,2.94,11.14.8,5.73,6.07,9.74,11.82,9.07,8.74-1.03,20.05-3.78,23.36-11.11Z"/><path class="cls-1" d="M419.12,158.45s-.09.21-.3.61c-.11.21-.24.46-.4.75-.2.28-.42.6-.68.96-.54.71-1.3,1.51-2.3,2.34-1.03.79-2.27,1.66-3.8,2.39-3.02,1.53-7.01,2.76-11.74,3.6-1.18.22-2.41.39-3.68.56-1.28.17-2.64.18-3.99-.11-2.7-.56-5.35-2.27-6.97-4.9-.83-1.3-1.33-2.84-1.54-4.42-.23-1.56-.5-3.15-.86-4.76-.36-1.6-.79-3.23-1.45-4.8-.16-.39-.35-.77-.55-1.15-.24-.34-.45-.7-.74-1.01-.59-.61-1.28-1.14-2.04-1.58-3.03-1.8-6.58-2.97-9.87-4.94-1.64-.97-3.24-2.12-4.62-3.54-1.37-1.41-2.54-3.16-3.09-5.12-1.16-3.89-1.55-8.02-1.9-12.21-.31-4.2-.47-8.5-.53-12.88-.12-8.76.07-17.84.51-27.14v-.02c.2-1.5.39-3.12.54-4.74l.14-1.85.05-.92v-.46s.01-.23.01-.23v-.1s0-.02,0-.02c0,0,0,0,0,.01v.02s0,0,0,0c0-.01-.01.03.09.12.05.06.22.07.29.01.07-.05.08-.08.1-.1.04-.11.01-.04.02-.04l-.33-.27c8.24-2.45,16.28-4.84,24.05-7.15.07-.02.15,0,.21.03,11,7.17,21.39,13.94,30.95,20.17.06.04.09.1.1.16,1.48,11.55,2.84,22.06,4.01,31.23v.02c.35,18.4.6,31.53.71,37.51h0c-.14,1.35-.23,2.34-.3,3.01-.07.65-.12.96-.12.96,0,0,0-.32.06-.98.05-.67.13-1.66.24-3h0c-.15-5.98-.49-19.1-.96-37.5v.02c-1.2-9.16-2.58-19.67-4.1-31.21l.1.16c-9.57-6.21-19.97-12.97-30.98-20.12l.21.03c-7.77,2.31-15.82,4.71-24.05,7.16h-.04c-.12.05-.25-.02-.29-.14-.01-.04-.01-.09,0-.13.01-.04-.02,0,.04-.16.01-.02.03-.06.1-.1.07-.06.24-.04.29.01.1.09.09.13.09.12v.02s.01.03.01.03v.04s0,.04,0,.04v.13s0,.24,0,.24v.47s-.06.93-.06.93l-.14,1.86c-.15,1.64-.34,3.26-.54,4.77v-.02c-.44,9.29-.63,18.36-.52,27.1.06,4.37.21,8.66.51,12.85.34,4.17.73,8.3,1.86,12.11.29.95.65,1.86,1.18,2.66l.83,1.2.96,1.09c1.34,1.39,2.89,2.51,4.51,3.48,3.24,1.95,6.76,3.12,9.86,4.96.78.46,1.5,1.01,2.12,1.66.31.32.55.72.8,1.09.21.39.4.79.56,1.19.67,1.61,1.1,3.25,1.46,4.87.36,1.62.62,3.22.85,4.79.2,1.55.68,3.02,1.47,4.28,1.56,2.54,4.12,4.21,6.73,4.77,1.31.29,2.62.29,3.89.13,1.27-.15,2.5-.33,3.67-.53,4.71-.81,8.69-2,11.7-3.49,1.52-.71,2.76-1.56,3.79-2.33,1-.81,1.77-1.6,2.32-2.29.26-.35.49-.67.69-.94.16-.29.3-.53.41-.73.22-.39.35-.59.35-.59Z"/><path class="cls-1" d="M368.92,100.48c-.13-1.01,0-2.21-.7-3.04l-.19-.12c-.72-.26-1.56-.4-2.21.02-.58.37-.86,1.11-.92,1.83-.08.97.19,1.94.45,2.88.14.5.28,1.01.55,1.45.27.44.68.81,1.17.89.81.14,1.56-.56,1.82-1.37.26-.81.14-1.69.03-2.54Z"/><path class="cls-1" d="M391.55,100.97c-.13-1.01,0-2.21-.7-3.04l-.19-.12c-.72-.26-1.56-.4-2.21.02-.58.37-.86,1.11-.92,1.83-.08.97.19,1.94.45,2.88.14.5.28,1.01.55,1.45.27.44.68.81,1.17.89.81.14,1.56-.56,1.82-1.37.26-.81.14-1.69.03-2.54Z"/><path class="cls-1" d="M374.62,144.92l4.02,1.75c1.23,1.34,3.4,3.33,3.42,5.15,8.17-1.94,14.23-6.69,19.74-13.04-9.7,3.84-16.76,5.61-27.18,6.13Z"/><path class="cls-7" d="M417.14,129.25c4.12.2,8.2-2.2,10.06-4.33,2.55-2.93,3.61-6.01,3.32-9.88-.29-3.87-2.47-7.7-5.98-9.37-3.5-1.67-8.23-.73-10.39,2.5"/><path class="cls-1" d="M417.14,129.25c5.62.02,11.03-3.91,12.66-9.28,1.59-5.23-.38-11.87-5.58-14.24-3.36-1.5-7.86-.68-10.06,2.43,3.41-5.18,11.52-4.19,14.55.9,5.86,8.84-1.09,20.66-11.57,20.19h0Z"/><path class="cls-7" d="M423.21,110.54c-3.89.78-7.25,3.78-8.47,7.55.43-.81.88-1.64,1.57-2.23.7-.59,1.72-.9,2.55-.51,1.15.54,1.4,2.04,1.38,3.31-.02.88-.1,1.79-.46,2.59-.36.81-1.04,1.52-1.9,1.72"/><path class="cls-1" d="M423.21,110.54c-3.81.94-7.04,3.9-8.24,7.62,0,0-.44-.19-.44-.19.55-1.05,1.2-2.27,2.46-2.8,4.52-1.73,4.41,7.17.9,7.8,1.21-.35,1.89-1.54,2.07-2.69.19-1.58.39-3.86-1.2-4.74-1.8-.66-3.06,1.18-3.8,2.65,0,0-.44-.19-.44-.19,1.25-3.83,4.73-6.85,8.7-7.48h0Z"/><path class="cls-1" d="M382.1,115.77s-.32,0-.86-.16c-.54-.16-1.31-.46-2.17-1.03-.85-.56-1.78-1.38-2.55-2.5-.38-.56-.73-1.19-.99-1.88-.06-.18-.13-.34-.19-.53-.05-.18-.11-.48.06-.75.18-.26.48-.33.69-.34.22-.01.43.02.62.05,1.57.23,3.07.46,4.44.66l-.27.24c-.03-1.93-.03-3.57-.02-4.72.01-1.15.05-1.83.1-1.83.05,0,.12.67.19,1.82s.14,2.79.21,4.72c0,.13-.1.24-.23.24-.01,0-.03,0-.04,0-1.37-.19-2.87-.4-4.45-.61-.36-.07-.75-.06-.81.06-.1.08.06.5.17.81.24.65.56,1.25.91,1.79.71,1.08,1.57,1.89,2.36,2.46,1.6,1.15,2.85,1.39,2.82,1.49Z"/><path class="cls-1" d="M388.38,87.36c.39-.45.96-.64,1.5-.74.56-.1,1.12-.1,1.67-.05.05,0,.1.01.15.02.28.03.56.07.84.13.33.07.65.18.96.31.03.01.07.02.1.04.34.15.67.33,1,.55.04.02.08.04.11.06h-.02c.05.03.11.05.16.09.56.41,1.09.93,1.33,1.64.24.71.1,1.65-.46,2.08-.37.28-.83.29-1.26.3-.63,0-1.26.01-1.88.02-.81,0-1.64.02-2.42-.21-.78-.23-1.54-.72-1.96-1.52-.44-.83-.42-2.02.18-2.72Z"/><path class="cls-1" d="M364.24,87.16c.39-.45.96-.64,1.5-.74.56-.1,1.12-.1,1.67-.05.05,0,.1.01.15.02.28.03.56.07.84.13.33.07.65.18.96.31.03.01.07.02.1.04.34.15.67.33,1,.55.04.02.08.04.11.06h-.02c.05.03.11.05.16.09.56.41,1.09.93,1.33,1.64.24.71.1,1.65-.46,2.08-.37.28-.83.29-1.26.3-.63,0-1.25.01-1.88.02-.81,0-1.64.02-2.42-.21-.78-.23-1.54-.72-1.96-1.52-.44-.83-.42-2.02.18-2.72Z"/><path class="cls-1" d="M392.93,114.89s.06.14.08.4c.03.26.03.64-.04,1.11-.06.47-.21,1.02-.47,1.6-.28.56-.69,1.15-1.27,1.63-1.17.93-2.56,1.16-3.49,1.11-.95-.05-1.49-.31-1.47-.36.02-.08.58.04,1.47,0,.88-.04,2.12-.31,3.16-1.14,1.03-.85,1.5-2.03,1.7-2.89.11-.43.17-.79.2-1.05.04-.25.09-.39.12-.39Z"/><path class="cls-4" d="M430.56,73.48c-1.46-8.2-11.59-7.87-11.59-7.87,1.2-5.47-4.82-8.75-4.82-8.75-3.87-2.11-8.73-.44-10.65,1.3.92-4.99-1.75-10.42-6.26-12.74-4.51-2.32-10.49-1.32-14,2.34-3.17-3.58-7.99-5.64-12.76-5.45-4.78.19-9.42,2.61-12.3,6.43-1.97,2.61-2.86,6.85-.25,8.82-3.99-.26-8.16.59-11.36,3-3.2,2.41-5.24,6.5-4.6,10.45.64,3.95,4.3,7.37,8.3,7.16-.19,4.03,3.28,7.87,7.31,8.09l1.05.06.69-9.6c8.02,3.49,11.17-5.68,11.17-5.68,0,0,6.58,4.91,10.63-2.55,0,0,4.25,8.71,11.4,6.22,0,0,1.45,9.85,10.88,7.46,0,0-2.55,8.4,3.91,8.97-.73,5.9-1.46,11.81-2.19,17.71-.16,1.31-.32,2.66-.02,3.94.3,1.29,1.17,2.52,2.45,2.88,1.61.45,3.31-.64,4.21-2.06.9-1.41,1.24-3.1,1.79-4.68,0,0,.98-2.19,3.42-3.38,2.69-1.32,5.39-.96,5.39-.96l2.37.57c2.04-3.09,5.22-14.56,5.83-19.48.44-3.57.65-8.52,0-12.21Z"/><path class="cls-5" d="M369.71,419.07h112.61c1.51,0,2.73,1.22,2.73,2.73v73.17c0,1.51-1.22,2.73-2.73,2.73h-112.61c-1.51,0-2.73-1.22-2.73-2.73v-73.17c0-1.51,1.22-2.73,2.73-2.73Z"/><rect class="cls-7" x="390.45" y="442.58" width="12.44" height="28.65"/><path class="cls-7" d="M471.55,300.73l-3.51-50.7h-39.07c0,1.59,2.27,50.17,2.27,50.17l-8.8,91.34-.21-.03s-6.83,2.81-10.24,8.04c-3.42,5.23-12.64,14.66-11.91,19.78,0,.05.01.1.02.15.36,2.39,3.07,3.61,5.14,2.38l5.89-3.5v14.4s-1.07,8.66,3.67,8.77c4.96.12,6.27-4.14,6.27-4.14,0,0,1.07,4.82,5.12,5.19,4.07.37,5.61-5.19,5.61-5.19,0,0,.98,6.32,5.12,5.48,4.15-.84,5.86-4.5,5.86-4.5,0,0,2.97,4.06,5.59,3.85,4.27-.35,4.66-6.54,4.66-6.54l4.88-39.46h0l13.64-95.5Z"/><path class="cls-1" d="M471.55,300.73s-.02.24-.08.71c-.06.48-.16,1.18-.28,2.1-.26,1.86-.64,4.61-1.13,8.18-1.01,7.16-2.48,17.62-4.34,30.85-1.88,13.25-4.15,29.27-6.74,47.56-.32,2.29-.67,4.6-.97,6.96-.29,2.36-.58,4.75-.88,7.18-.6,4.85-1.21,9.84-1.84,14.96-.63,5.11-1.27,10.35-1.93,15.7-.13,1.33-.33,2.74-.86,4.03-.52,1.28-1.38,2.56-2.75,3.15l-.51.19c-.18.05-.36.07-.54.1-.18.04-.36.06-.55.05-.19,0-.38-.01-.56-.06-.73-.14-1.38-.49-1.97-.89-1.18-.82-2.15-1.86-3.03-2.99l.41-.04c-1.2,2.28-3.44,4.19-6.21,4.66-.7.14-1.46,0-2.12-.31-.67-.32-1.17-.87-1.58-1.45-.81-1.18-1.26-2.54-1.53-3.94l.48.03c-.39,1.24-.96,2.43-1.82,3.48-.83,1.03-2.13,1.92-3.58,1.89-1.42.03-2.84-.6-3.81-1.65-.99-1.04-1.63-2.34-2-3.73l.48.02c-.53,1.46-1.57,2.72-2.96,3.5-.69.39-1.47.64-2.26.73-.39.08-.8.06-1.2.08-.2,0-.41-.05-.62-.07-.21-.02-.42-.05-.61-.15-.82-.26-1.45-.94-1.84-1.65-.42-.72-.65-1.52-.8-2.32-.3-1.61-.3-3.23-.14-4.87v.03c0-4.53,0-9.44,0-14.4l.39.22c-1.12.67-2.25,1.34-3.39,2.02-.57.34-1.14.68-1.71,1.02l-.87.51c-.31.17-.65.31-1,.39-1.4.34-2.99-.24-3.83-1.45-.42-.59-.66-1.34-.66-2.04-.06-.72.08-1.42.25-2.1.8-2.7,2.4-5.01,3.98-7.28,1.61-2.26,3.37-4.43,5.08-6.63.91-1.18,1.81-2.35,2.62-3.57.83-1.26,1.84-2.39,2.94-3.39,2.22-2,4.75-3.58,7.44-4.78.04-.02.08-.02.13-.02h0s.21.03.21.03l-.29.23c3.16-32.65,6.14-63.52,8.83-91.34v.03c-.81-18.15-1.56-34.97-2.24-50.18,0-.11.08-.19.18-.2h.02c14.6.02,27.72.03,39.07.04.08,0,.15.06.16.15,1.08,16.04,1.93,28.72,2.51,37.4.28,4.33.5,7.65.64,9.91.07,1.12.12,1.97.15,2.55.03.57.04.86.04.86,0,0-.03-.29-.08-.86-.05-.58-.11-1.43-.2-2.55-.17-2.26-.41-5.58-.73-9.91-.62-8.67-1.52-21.34-2.66-37.37l.16.15c-11.35.01-24.47.03-39.07.04l.2-.2c.7,15.21,1.47,32.02,2.31,50.16v.03c-2.67,27.82-5.64,58.69-8.78,91.35-.01.14-.14.25-.28.23h0s-.21-.03-.21-.03l.13-.02c-2.62,1.17-5.13,2.73-7.29,4.68-1.08.98-2.05,2.07-2.85,3.29-.83,1.25-1.74,2.42-2.65,3.61-1.72,2.21-3.47,4.37-5.07,6.62-1.57,2.25-3.14,4.56-3.9,7.12-.16.64-.29,1.29-.23,1.93,0,.66.21,1.26.56,1.77.71,1.03,2.09,1.54,3.29,1.24.6-.12,1.13-.5,1.72-.84.57-.34,1.14-.68,1.71-1.02,1.14-.68,2.27-1.35,3.39-2.02.12-.07.28-.03.35.09.02.04.04.09.04.13,0,4.96,0,9.87,0,14.4v.02s0,0,0,0c-.15,1.57-.15,3.18.14,4.71.14.76.36,1.51.74,2.16.36.64.89,1.21,1.58,1.42.16.09.34.11.52.13.18.02.35.07.54.06.38-.02.75,0,1.12-.07.74-.09,1.45-.32,2.09-.68,1.27-.7,2.25-1.9,2.72-3.2.05-.13.19-.2.32-.16.08.03.14.1.16.17.34,1.28.96,2.55,1.87,3.49.89.96,2.17,1.53,3.45,1.5,1.28.02,2.42-.75,3.21-1.71.8-.97,1.37-2.14,1.73-3.29.04-.13.18-.2.31-.16.09.03.15.1.17.19.25,1.32.69,2.65,1.44,3.73.38.53.83,1.02,1.4,1.29.56.27,1.2.39,1.82.26,2.57-.42,4.74-2.26,5.85-4.38.06-.12.21-.17.33-.11.03.02.06.04.08.07.84,1.09,1.81,2.11,2.91,2.88.56.38,1.16.7,1.79.82.16.04.31.05.47.05.16.02.32,0,.48-.04.16-.03.32-.05.48-.09l.45-.17c1.21-.51,2.01-1.68,2.51-2.89.51-1.24.7-2.55.83-3.9.67-5.36,1.32-10.59,1.95-15.71.64-5.11,1.26-10.1,1.86-14.96.3-2.43.6-4.82.89-7.18.31-2.36.66-4.67.98-6.96,2.63-18.27,4.94-34.29,6.85-47.53,1.92-13.23,3.44-23.68,4.47-30.84.53-3.57.93-6.31,1.21-8.17.14-.92.25-1.62.32-2.1.07-.47.12-.71.12-.71Z"/><path class="cls-1" d="M422.58,422.53c.07.01-.04.91-.24,2.36-.2,1.45-.47,3.45-.71,5.66-.24,2.22-.41,4.23-.53,5.69-.12,1.46-.2,2.36-.27,2.36-.07,0-.12-.91-.09-2.38.02-1.47.13-3.5.38-5.72.24-2.23.57-4.23.87-5.67.29-1.44.54-2.31.6-2.3Z"/><path class="cls-1" d="M433.21,427.02c.14.02-.1,2.79-.55,6.19-.45,3.4-.93,6.14-1.07,6.12-.14-.02.1-2.79.55-6.19.45-3.4.93-6.14,1.07-6.12Z"/><path class="cls-1" d="M444.3,426.24c.15.03-.27,2.89-.66,6.43-.4,3.54-.62,6.43-.77,6.42-.14,0-.14-2.92.26-6.48.39-3.56,1.04-6.4,1.17-6.38Z"/><path class="cls-3" d="M416.64,205.31l-27.35,32.54-27.35-32.54,10.16-10.07h34.36l10.16,10.07Z"/><path class="cls-5" d="M394.34,203.4c-1.27,0-2.92-.2-4.63-.2-1.53,0-3.91.38-5.26.87-.32,1.53-.41,3.15-.41,4.8,0,.69.35.72.87.72,1.97,0,6.08-1.07,9.4-1.36,1.07,0,2,.72,2,1.74,0,.87-.43,1.79-1.48,1.85-2.89.2-9.87,1.48-11.05,1.48-.14.52-.17,1.24-.17,4.14,0,1.39.95,1.59,2.34,1.59,2.03,0,6.45-1.13,8.1-1.13,1.19,0,1.94.55,2.03,1.62,0,1.07-.67,1.76-1.79,1.94-3.38.52-6.57,1.01-9.32,1.01-3.21,0-4.6-.69-4.6-4.66,0-4.69.69-9.95.69-14.55,0-1.33.64-2.4,1.97-2.66,3.5-.14,6.92-1.1,10.56-1.1,1.5,0,3.56.03,3.56,2,0,1.56-1.1,1.91-2.81,1.91Z"/><path class="cls-5" d="M283.66,42.88c.81,0,1.16.58,1.79,1.04,1.16.87,2.49,1.42,4.77,1.42.03-1.97.03-3.93.03-5.87-3.62-.4-7.52-1.33-7.52-4.71,0-3.1,3.88-5.53,7.55-6.86,0-2.23.03-4.08,1.56-4.08,1.3,0,1.42,1.94,1.45,3.24.75-.14,1.45-.23,2.03-.23,2.55,0,4.31,1.24,4.31,3.73,0,.72-.75,1.27-1.36,1.27-1.39,0-2.14-1.33-4.31-1.33-.2,0-.43.03-.67.06.03,1.91.12,4.11.14,5.9,3.88.26,8.01.93,8.01,4.86,0,3.41-4.28,6.22-8.25,7.09,0,1.22-.35,2.89-2.08,2.89-.9,0-.93-.55-.93-1.48v-1.13c-2.26-.14-7.78-1.22-7.78-4.28,0-.78.32-1.53,1.24-1.53ZM290.28,36.25v-4.89c-1.85.75-3.5,1.94-3.5,3.3,0,1.1,1.48,1.42,3.5,1.59ZM293.44,39.75c-.03,1.5-.12,3.36-.17,5.15,2.08-.58,3.93-1.76,3.93-3.3,0-1.04-1.13-1.48-2.29-1.68l-1.48-.17Z"/></g></svg>