<?xml version="1.0" encoding="UTF-8"?><svg id="Layer_2" xmlns="http://www.w3.org/2000/svg" viewBox="0 0 107.93 105"><defs><style>.cls-1{fill:#fff;}</style></defs><g id="Layer_1-2"><path class="cls-1" d="M0,18.58v-3.58c.91-3.74,4.41-6.73,8.33-6.76,3.82-.03,7.72.41,11.59.23,8.83-.43,17.65-2.68,25.87-5.74,4.72-1.75,8.28-4.65,13.21-.88,1.5,1.15,4.8,6.09,1.31,6.3-1.59.09-1.59-1.25-2.18-2.27-1.11-1.91-3.14-2.75-5.32-2.45-1.64.23-5.99,2.49-7.97,3.2-11.51,4.13-21.98,5.36-34.21,5.22-.98-.01-1.78-.33-2.92-.2-2.61.31-4.43,2.55-4.53,5.12,2.93,13.84,3.29,28.75,11.94,40.54.19.87.14,1.7-.71,2.13-1.63.84-2.35-.74-3.12-1.89-3.45-5.17-5.86-11.38-7.22-17.44L0,18.58Z"/><path class="cls-1" d="M66.21,30.78c5.71,1.65,11.62,2.93,17.57,3.4,5.29.42,9.8-.09,14.95-.22,6.05-.15,9.65,4.05,9.15,9.99-.45,5.35-1.81,12.08-2.75,17.48-.3,1.73-1.22,8.26-2.06,9.32-1,1.25-3.14.43-2.95-1.46.14-1.37.91-3.59,1.19-5.15,1.27-7.2,2.16-14.46,3.41-21.66-.76-6.82-6.51-4.86-11.24-4.71-9.02.29-18.21-1.04-26.88-3.38.22,9.71-1.99,19.38-6.74,27.82,2.25.87,4.97-.04,6.12-2.2.58-1.08.41-2.88,2.05-3.02,2.36-.21,1.76,2.74,1.15,4.11-1.99,4.4-6.82,5.63-11.18,4.1-2.84,4.44-6.31,8.56-10.54,11.71,1.73,5.96,4.89,11.82,8.83,16.6,7.69,9.34,12.19,10.6,22.74,3.99,6.52-4.09,12.3-10.04,16.2-16.68.64-1.09,2.35-4.93,2.98-5.45,1.08-.87,2.66-.2,2.75,1.08.05.75-1.54,3.68-1.99,4.52-4.57,8.55-12.33,16.27-20.83,20.9-9.01,4.89-14.65,4.22-21.75-3.19-5.55-5.8-9.69-13.02-12.12-20.66-1.05.27-2.65.64-3.7.64-5.74.01-15.31-6.16-19.58-9.92-.7-.61-3.8-3.53-4.13-4.09-.84-1.46.55-3.19,2.17-2.39.92.46,3.73,3.61,4.9,4.58,5.68,4.72,15.89,11.7,22.93,6.29,9.43-7.24,15.75-22.34,16.37-34,.46-8.79-2.24-17.24-3.29-25.82.66-1.47,2.45-1.74,3.18-.21,1.05,5.89,2.32,11.74,3.08,17.68Z"/><path class="cls-1" d="M55,46.09c-.2-2.16-.59-2.78-2.78-2.58l-30.83,5.63c-1.89.68-1.05,2.91-.59,4.38,1.55,5,6.11,9.46,11.06,11.06,12.22,3.97,24.28-5.76,23.13-18.5ZM51.64,50.09c0,1.89-2.13,5.69-3.38,7.16-.55.65-2.6,3.61-8.38,4.69-7.01,1.3-13.78-3.14-16.06-9.74l19.6-3.68,3.4-.6,4.82-.87v3.06Z"/><path class="cls-1" d="M67.61,69.86c7.85-.73,15.64,4.24,18.02,11.78.5,1.59,2.08,8.28-1.33,7.25-.47-.14-2.95-2.5-3.72-3.04-7.12-5.01-15.63-5.7-23.73-2.73-1.07.39-1.89,1.3-3.12.91-2.23-.71-.21-4.28.53-5.6,2.7-4.78,7.86-8.06,13.34-8.57ZM82.61,83.29c-3.25-11.26-18.15-13.79-24.87-4.11l6.22-1.16c6.58-.35,13.35,1.31,18.65,5.27Z"/><path class="cls-1" d="M78.77,58.67c2.13-.19,1.61,2.2,1.76,3.42.54,4.5,6.86,5.7,9.05,1.72.66-1.21.67-3.81,2.89-2.9,1.99.81.34,4.24-.58,5.42-3.94,5.07-11.99,4.01-14.22-2-.56-1.5-1.28-5.44,1.1-5.65Z"/><path class="cls-1" d="M46.53,29.39c2.93-.4,5.94.78,7.73,3.13.9,1.18,2.77,4.9.39,5.42-2.12.46-1.96-1.49-2.62-2.77-1.74-3.33-6.95-3.3-8.57,0-.82,1.68-.28,2.34-.47,3.74-.24,1.76-2.95,2.01-3.32-.03-.8-4.46,2.38-8.87,6.85-9.48Z"/><path class="cls-1" d="M23.56,33.61c2.65-.22,5.59,1.09,7.17,3.24.84,1.14,2.63,4.66.52,5.29s-2.07-1.19-2.61-2.36c-1.71-3.64-6.97-3.9-8.79-.2-.74,1.51-.25,2.33-.47,3.74-.27,1.72-2.82,1.81-3.27-.08-1.09-4.61,2.9-9.27,7.45-9.65Z"/></g></svg>