<?xml version="1.0" encoding="UTF-8"?><svg id="Layer_2" xmlns="http://www.w3.org/2000/svg" viewBox="0 0 157.4 105"><defs><style>.cls-1{fill:#fff;}</style></defs><g id="Layer_1-2"><path class="cls-1" d="M70.82,54.91h-4.86c-1.25-7.84,6.19-7.87,4.86,0Z"/><path class="cls-1" d="M91.37,54.91h-4.86c-1.32-7.88,6.11-7.83,4.86,0Z"/><path class="cls-1" d="M145.92,100.12h9.53c.39,0,1.28.84,1.48,1.13,1.26,1.75-.26,3.78-2.21,3.75H2.23c-3.5-.46-2.3-4.88-.35-4.88h9.53v-39.42c0-.1.9-.91,1.13-1.11h132.26c.23.21,1.13,1.01,1.13,1.11v39.42ZM141.07,63.87H16.26v6.73h124.8v-6.73ZM141.07,75.46H16.26v15.69h124.8v-15.69ZM141.07,96.01H16.26v4.11h124.8v-4.11Z"/><path class="cls-1" d="M86.05.04c1.57-.27,2.88,1.78,3.61,2.96,4,6.46,2.89,14.28.7,21.19-4.05,12.75-17.96,13.81-22.96,1.08-1.22-3.12-3.04-11.08-2.07-14.16,2.13-6.74,9.34-6.26,14.67-8.12,1.71-.6,4.72-2.72,6.06-2.94ZM87.63,15.3c.17-3.3-.08-6.92-2.05-9.67-4.83,3.74-16.7,1.41-15.89,9.67,6-1.3,11.96-1.66,17.93,0ZM86.51,19.79c-2.17-.87-15.18-1.25-15.66.58-.32,1.25,2.28,6.02,3.31,7.09,5.82,6.02,11.9-1.68,12.35-7.67Z"/><path class="cls-1" d="M53.91.04c2.44-.46,4.39,3.7,5.14,5.56,4.66,11.63-4.5,37.34-18.68,26.52-4.33-3.31-6.66-11.44-7.24-16.67-1.22-10.92,9.34-10.25,16.12-12.94,1.24-.49,3.91-2.33,4.66-2.47ZM54,5.58c-1.61.51-3.03,1.36-4.66,1.87-4.51,1.43-12.41,1.22-11.4,7.84,5.78-1.32,11.79-1.66,17.55,0,1.02-3.29-.4-6.67-1.49-9.72ZM54.34,19.82c-.63-.75-9.16-.9-10.6-.78-4.54.4-5.56.72-3.63,5.11,2.52,5.73,8.31,7.69,12.18,1.95.68-1.01,2.84-5.34,2.05-6.28Z"/><path class="cls-1" d="M117.81.04c3.3-.56,6.03,7.74,6.34,10.32,1.15,9.5-5.23,29.29-18.08,22.94-5.61-2.77-6.96-8.48-8.06-13.98-.56-2.81-1.61-4.57-.94-7.86,1.31-6.48,9.9-6.88,14.68-8.49,1.72-.58,5.07-2.76,6.07-2.93ZM119.39,15.3v-5.42c0-.39-1.67-4.23-2.05-4.26-3.16,2.74-13.07,2.65-15.09,5.81-.49.76-1.43,3.48-.19,3.84.46.13,5.14-1,6.31-1.08,3.71-.26,7.43.27,11.02,1.12ZM118.28,19.78c-5.1-1.09-10.2-1.01-15.3.02,1.1,12.87,13.98,12.78,15.3-.02Z"/><path class="cls-1" d="M25.23,44.26c-.09-.43-1.1-1.85-1.48-2.26-4.63-4.91-11.83-9.4-16.29-14.35-3.14-3.5-1.76-8.41,1.57-11.17,2.29-1.9,5.19-2.08,7.86-.87,1.32.6,13.42,8.58,13.9,9.27,1.42,2.05,2.02,6.29,4.53,8.18l-.55.18-19.98-13.28c-2.26-.95-4.94,1.74-3.93,3.93.2.43,2.41,2.46,2.97,3,3.04,2.92,16.26,13.04,16.26,16.62v11.4h-4.86c-.43-3.1.58-7.76,0-10.65Z"/><path class="cls-1" d="M132.1,54.91h-4.86v-11.4c0-3.53,13.23-13.7,16.26-16.62.57-.54,2.77-2.57,2.97-3,1.01-2.2-1.67-4.88-3.93-3.93l-19.98,13.28c-.6-.34.14-.84.34-1.16,1.38-2.21,2.56-5.66,3.63-7.2.48-.69,12.59-8.67,13.9-9.27,2.67-1.21,5.57-1.03,7.86.87,3.5,2.91,4.67,7.75,1.38,11.36-4.47,4.89-11.53,9.32-16.1,14.17-.32.34-1.48,2-1.48,2.26v10.65Z"/><path class="cls-1" d="M102.58,54.91h-4.86v-12.14c0-1.96-3.9-5.04-5.79-5.04h-7.66l3.91-2.63c2.01-2.57,3.09-2.43,6.12-1.61s8.28,5.2,8.28,8.54v12.89Z"/><path class="cls-1" d="M54.75,42.02c.58-3.71,4.71-7.58,8.28-8.54,3.3-.89,4.09-.84,6.33,1.78l3.71,2.46h-7.66c-1.64,0-5.79,3.06-5.79,4.67v12.52h-4.86c.44-3.94-.59-9.11,0-12.89Z"/></g></svg>