<?xml version="1.0" encoding="UTF-8"?><svg xmlns="http://www.w3.org/2000/svg" xmlns:xlink="http://www.w3.org/1999/xlink" viewBox="0 0 298.62 75"><defs><style>.cls-1{fill:url(#linear-gradient-3);}.cls-2{fill:url(#linear-gradient-2);}.cls-3{fill:url(#linear-gradient);}.cls-4{fill:#2c5b9a;}.cls-4,.cls-5{mix-blend-mode:multiply;opacity:.7;}.cls-6{isolation:isolate;}.cls-7{fill:#0c0c0c;}.cls-5{fill:#62aa59;}</style><linearGradient id="linear-gradient" x1="0" y1="37.5" x2="75.43" y2="37.5" gradientUnits="userSpaceOnUse"><stop offset="0" stop-color="#70be44"/><stop offset="1" stop-color="#294c9f"/></linearGradient><linearGradient id="linear-gradient-2" x1="12.59" y1="37.41" x2="62.93" y2="37.41" xlink:href="#linear-gradient"/><linearGradient id="linear-gradient-3" x1="7.95" y1="37.47" x2="67.64" y2="37.47" xlink:href="#linear-gradient"/></defs><g class="cls-6"><g id="Layer_2"><g id="Layer_1-2"><path class="cls-3" d="M3.65,75c-.64,0-1.25-.17-1.84-.54-4.25-2.72-1.16-13.15,10.95-45.25.7-1.86,1.39-3.7,2.06-5.48.3-.79,1.02-1.34,1.87-1.41.68-.06,1.32.21,1.77.69l11.14,11.28c.66.67,1.53,1.03,2.47,1.04h.02c.93,0,1.8-.36,2.46-1.02.22-.21,21.01-20.7,29.47-29.28,3.34-3.39,6.82-6.27,9.6-4.49,4.27,2.73,1.17,13.2-10.97,45.43-.66,1.74-1.3,3.45-1.92,5.12-.26.7-.86,1.21-1.59,1.37-.73.16-1.49-.07-2.01-.6l-11.18-11.32c-.66-.67-1.53-1.03-2.47-1.04h-.02c-.93,0-1.8.36-2.46,1.02l-29.63,29.48s-.05.05-.07.07c-2.6,2.63-5.28,4.93-7.65,4.93ZM4.47,71.09h0,0ZM17.7,28.46c-.29.76-.57,1.52-.86,2.29-3.36,8.91-6.83,18.12-9.31,25.84-2.8,8.73-3.22,12.28-3.18,13.69.69-.42,1.93-1.34,3.92-3.36.03-.03.06-.06.1-.09l29.55-29.4c1.48-1.48,3.45-2.29,5.54-2.29h.04c2.1,0,4.08.84,5.56,2.34l8.78,8.9c.24-.64.48-1.28.73-1.93,3.37-8.94,6.85-18.18,9.34-25.95,2.82-8.81,3.23-12.38,3.19-13.78-.69.41-1.94,1.34-3.96,3.39-8.48,8.59-29.3,29.11-29.51,29.31-1.48,1.47-3.44,2.28-5.53,2.28h-.03c-2.1,0-4.08-.84-5.56-2.34l-8.79-8.9Z"/><path class="cls-4" d="M57.08,51.58s-.66-.57-.55-1.61c.08-.76.83-4.08.83-4.08l.47.48-.76,5.21Z"/><path class="cls-5" d="M18.46,23.25s.66.57.55,1.61c-.08.76-.83,4.08-.83,4.08l-.47-.48.76-5.21Z"/><path class="cls-2" d="M58.67,52.51c-.24,0-.49-.04-.73-.13-1.14-.4-1.73-1.65-1.33-2.79,3.48-9.83,1.74-16.14-1.52-18.02-3.84-2.22-10.01.67-15.72,7.34-8.62,10.08-16.56,10.87-21.11,8.24-4.71-2.72-8.1-10.29-3.46-23.38.4-1.14,1.65-1.73,2.79-1.33,1.14.4,1.73,1.65,1.33,2.79-3.5,9.9-1.76,16.25,1.53,18.15,3.81,2.2,9.94-.66,15.61-7.3,8.67-10.14,16.65-10.93,21.22-8.29,4.69,2.71,8.06,10.24,3.45,23.26-.32.9-1.16,1.45-2.06,1.45Z"/><path class="cls-5" d="M18.86,25.37c-.36,1.05-.7,2.19-.97,3.23-1.74,5.13-3.13,9.69-3.82,13.83-.29-.58-.8-1.97-.96-2.74,1.25-6.32,2.62-12.19,5.75-14.32Z"/><path class="cls-5" d="M9.92,36.78l-.62,1.69s-3.53,11.28-1.33,16.78l.63-1.89,1.33-4.85v-11.73Z"/><path class="cls-4" d="M65.52,38.23l.62-1.69s3.53-11.28,1.33-16.78l-.63,1.89-1.33,4.85v11.73Z"/><path class="cls-4" d="M56.66,49.54c.36-1.05.7-2.19.97-3.23,1.74-5.13,3.13-9.69,3.82-13.83.29.58.8,1.97.96,2.74-1.25,6.32-2.62,12.19-5.75,14.32Z"/><path class="cls-1" d="M15.35,58.69c-1.27,0-2.44-.3-3.5-.91-4.48-2.61-5.07-10.15-1.93-20.99,1.15-3.97,2.8-8.39,4.95-13.18.49-1.1,1.78-1.59,2.89-1.1,1.1.49,1.59,1.79,1.1,2.89-8.2,18.26-7.37,27.11-4.8,28.61,2.5,1.46,10.4-2.08,21.91-17.79,11.49-15.67,21.59-22.61,27.71-19.05,6.19,3.61,5.1,16.02-3,34.06-.49,1.1-1.79,1.59-2.89,1.1-1.1-.49-1.59-1.79-1.1-2.89,8.17-18.2,7.34-27.01,4.79-28.5-2.51-1.46-10.44,2.09-21.99,17.86-9.47,12.93-18.01,19.9-24.13,19.9Z"/><path class="cls-7" d="M156.47,31.54v1.63c0,5.31-2.65,9.78-6.85,12.02-.46.25-.6.85-.28,1.29l6.13,8.57c.42.59,0,1.41-.73,1.41h-3.85c-.57,0-1.11-.28-1.45-.75l-8.28-11.6c-.85-1.17,0-2.81,1.45-2.81h.87c4.18,0,7.58-3.4,7.58-7.58v-1.63c0-4.48-3.64-8.12-8.12-8.12h-9.87c-.98,0-1.78.8-1.78,1.78v28.93c0,.99-.79,1.78-1.78,1.78h-1.85c-.99,0-1.78-.79-1.78-1.78V20.32c0-.98.79-1.78,1.78-1.78h15.82c7.18,0,13,5.82,13,13ZM190.7,18.55h-1.85c-.99,0-1.78.8-1.78,1.78v21.24c0,2.62-1.06,4.99-2.78,6.7-1.72,1.72-4.08,2.78-6.7,2.78-5.69,0-10.29-4.6-10.29-10.28v-20.43c0-.98-.79-1.78-1.78-1.78h-1.86c-.98,0-1.78.8-1.78,1.78v21.24c0,4.11,1.66,7.84,4.37,10.53,2.69,2.7,6.41,4.36,10.52,4.36,8.67,0,15.7-7.03,15.7-15.7v-20.43c0-.98-.79-1.78-1.78-1.78ZM228.61,18.55h-27.04c-.98,0-1.78.8-1.78,1.78v34.35c0,.99.8,1.78,1.78,1.78h27.04c.99,0,1.78-.79,1.78-1.78v-1.86c0-.98-.79-1.78-1.78-1.78h-21.62c-.98,0-1.78-.79-1.78-1.78v-7.27c0-.98.8-1.78,1.78-1.78h13.5c.99,0,1.78-.79,1.78-1.78v-1.86c0-.98-.79-1.78-1.78-1.78h-13.5c-.98,0-1.78-.79-1.78-1.78v-7.27c0-.98.8-1.78,1.78-1.78h21.62c.99,0,1.78-.79,1.78-1.78v-1.86c0-.98-.79-1.78-1.78-1.78ZM118.68,18.55h-28.93c-.99,0-1.78.8-1.78,1.78v1.86c0,.99.79,1.78,1.78,1.78h9.97c.99,0,1.78.8,1.78,1.78v28.93c0,.99.8,1.78,1.78,1.78h1.86c.99,0,1.78-.79,1.78-1.78v-28.93c0-.98.8-1.78,1.78-1.78h9.98c.98,0,1.78-.79,1.78-1.78v-1.86c0-.98-.8-1.78-1.78-1.78ZM296.84,28.03h-1.86c-.98,0-1.78.8-1.78,1.78v24.86c0,.99.8,1.78,1.78,1.78h1.86c.98,0,1.78-.79,1.78-1.78v-24.86c0-.98-.8-1.78-1.78-1.78ZM262.47,19.76l-11.77,34.34c-.4,1.16.46,2.36,1.68,2.36h2.2c.76,0,1.43-.48,1.68-1.2l12.58-36.71h-4.68c-.76,0-1.44.49-1.69,1.21ZM296.84,18.55h-1.86c-.98,0-1.78.8-1.78,1.78v1.86c0,.98.8,1.78,1.78,1.78h1.86c.98,0,1.78-.8,1.78-1.78v-1.86c0-.98-.8-1.78-1.78-1.78ZM275.21,19.76c-.25-.72-.93-1.21-1.68-1.21h-4.69l12.59,36.71c.24.72.92,1.2,1.68,1.2h2.2c1.22,0,2.07-1.2,1.68-2.36l-11.78-34.34Z"/></g></g></g></svg>