<?xml version="1.0" encoding="UTF-8"?><svg id="Layer_2" xmlns="http://www.w3.org/2000/svg" xmlns:xlink="http://www.w3.org/1999/xlink" viewBox="0 0 71.42 78"><defs><style>.cls-1{fill:url(#linear-gradient-2);}.cls-1,.cls-2,.cls-3,.cls-4{fill-rule:evenodd;}.cls-2{fill:url(#linear-gradient-3);}.cls-3{fill:url(#linear-gradient-4);}.cls-5{fill:#ef5900;}.cls-6{fill:#ff7b19;}.cls-4{fill:url(#linear-gradient);}</style><linearGradient id="linear-gradient" x1="-3.52" y1="-47.78" x2="4.91" y2="-38.64" gradientTransform="translate(66.53 46.98) rotate(-5.94)" gradientUnits="userSpaceOnUse"><stop offset="0" stop-color="#ff7b19"/><stop offset="1" stop-color="#f15a29"/></linearGradient><linearGradient id="linear-gradient-2" x1="27.55" y1="20.79" x2="36.16" y2="20.79" gradientUnits="userSpaceOnUse"><stop offset="0" stop-color="#ff7b19"/><stop offset="1" stop-color="#f15a29"/></linearGradient><linearGradient id="linear-gradient-3" x1="12.64" y1="35.08" x2="51.95" y2="1.11" gradientUnits="userSpaceOnUse"><stop offset=".1" stop-color="#ff7b19"/><stop offset="1" stop-color="#f15a29"/></linearGradient><linearGradient id="linear-gradient-4" x1="38.92" y1="25.24" x2="51.77" y2="39.18" xlink:href="#linear-gradient-2"/></defs><g id="Layer_1-2"><path class="cls-4" d="M62.54,2.25c.88-1.07,1.24-1.82,1.08-2.25-.45-.06-1.11.44-1.97,1.52l-.55-.04.17-.21s.03-.1-.01-.14l-.21-.17s-.1-.03-.14.01l-.38.47-2.08-.14c-.3-.02-.23-.05-.43.17-.09.09-.18.19-.27.28l3.1.85c-.34.49-.71,1.04-1.1,1.66h-1.03c-.24,0-.2-.04-.35.13-.06.07-.12.13-.18.2l1.12.39c-.06.09-.12.19-.17.29.11.16.09.14.27.22.08-.08.17-.15.25-.23l.61,1.02c.05-.07.11-.14.16-.22.14-.19.11-.14.06-.37l-.21-1.01c.53-.51.99-.98,1.4-1.42l1.47,2.86c.07-.11.15-.21.22-.32.17-.25.15-.17.07-.46l-.57-2.01.38-.47s.03-.1-.01-.14l-.22-.17s-.1-.03-.14.01l-.17.21-.15-.53Z"/><path class="cls-1" d="M36.16,20.79c0-2.38-1.93-4.31-4.31-4.31s-4.31,1.93-4.31,4.31,1.93,4.31,4.31,4.31,4.31-1.93,4.31-4.31"/><path class="cls-2" d="M47.76,17.38s-14.27,14.8-20.93,9.52l-13.46-10.07s5.94,10.61,9.66,15.65c1.68,2.27,4,3.99,6.82,3.76,0,0,0,0,0,0,.08,0,.15-.02.22-.04.63-.21,6.64-1.84,20.41-19.24l8.42-11.01-11.13,11.44Z"/><path class="cls-3" d="M59.4,6.36s-16.65,21.38-25.94,33.69c-3.25,4.3-4.33,9.86-2.95,15.07l.78,2.94S51,19.01,59.4,6.36Z"/><path class="cls-6" d="M5.84,62.98h-1.89v6.73h-2v-6.73H0v-1.47h6.09l-.25,1.47Z"/><path class="cls-6" d="M9.39,61.49c2.06,0,3.1.81,3.1,2.35,0,1.03-.55,1.68-1.39,2.06.96.55,1.42,1.83,2.26,3.82h-2.14c-1.04-2.26-1.31-3.48-2.14-3.48h-.21v3.48h-2v-8.2c.28,0,1.99-.02,2.52-.02ZM9.37,64.99c.57,0,1.02-.34,1.02-1.08,0-.61-.25-1.11-1.08-1.11h-.45v2.19h.51Z"/><path class="cls-6" d="M15.93,66.39c0,1.4.65,1.85,1.5,1.85s1.34-.63,1.34-1.85v-4.88h2v4.99c0,1.73-.92,3.28-3.5,3.28s-3.33-1.56-3.33-3.28v-4.99h1.99v4.88Z"/><path class="cls-6" d="M27.37,61.51v1.47h-3.22v1.76h2.68l-.23,1.44h-2.45v2.07h3.39v1.47h-5.39v-8.2h5.22Z"/><path class="cls-5" d="M33.59,66.2v3.51h-2v-8.2h2v3.21h2.83v-3.21h1.99v8.2h-1.99v-3.51h-2.83Z"/><path class="cls-5" d="M45.14,61.51v1.47h-3.22v1.76h2.68l-.23,1.44h-2.45v2.07h3.39v1.47h-5.39v-8.2h5.22Z"/><path class="cls-5" d="M50.4,61.51l3,8.2h-2.02l-.61-1.97h-2.65l-.63,1.97h-1.99l3.11-8.2h1.78ZM49.45,63.56c-.18.62-.55,1.77-.87,2.7h1.74c-.33-.94-.69-2.11-.87-2.7Z"/><path class="cls-5" d="M56.13,61.51v6.73h2.88v1.47h-4.88v-8.2h2Z"/><path class="cls-5" d="M63.57,62.98h-1.89v6.73h-2v-6.73h-1.95v-1.47h6.09l-.25,1.47Z"/><path class="cls-5" d="M66.6,66.2v3.51h-2v-8.2h2v3.21h2.83v-3.21h1.99v8.2h-1.99v-3.51h-2.83Z"/><path d="M29.64,78c-.7,0-1.27-.23-1.7-.69-.41-.45-.62-1-.62-1.66,0-.54.15-1.02.45-1.44.43-.59,1.04-.88,1.85-.88.11,0,.21,0,.32.02.47.05.85.19,1.14.41,0-.12,0-.21.02-.27.03-.08.1-.11.21-.11l.02,1.41h-.2c-.24-.82-.73-1.23-1.47-1.24-.26,0-.5.07-.71.2-.52.32-.79.96-.79,1.93,0,.36.04.69.11.97.2.78.65,1.16,1.35,1.16.76,0,1.27-.43,1.52-1.27h.2v1.44c-.06,0-.11,0-.14-.02-.07-.03-.11-.15-.11-.36-.46.27-.95.41-1.47.42Z"/><path d="M34.62,77.92v-.2h.51l-.57-1.47h-1.56l-.57,1.47h.39s.05,0,.08,0c.08.01.11.07.11.19h-1.35v-.2h.48l1.68-4.34h.34l1.74,4.34h.25s.05,0,.08,0c.08.01.12.07.12.19h-1.71ZM33.78,74.24l-.69,1.81h1.39l-.69-1.81Z"/><path d="M36.61,77.92v-.2h.6v-4.14h-.6v-.2h2.3c.39,0,.73.09,1,.27.33.23.49.53.49.91,0,.15-.03.3-.09.45-.17.38-.5.64-.98.76l1.21,1.95h.25s.06,0,.08,0c.07.01.1.07.1.19h-1.18l-1.19-2.08h-.65v1.88h.6v.2h-1.93ZM37.94,73.59v2.04h.73c.22,0,.4-.06.56-.19.25-.2.38-.48.38-.85,0-.16-.03-.31-.09-.46-.16-.36-.45-.54-.88-.54h-.69Z"/><path d="M44.65,74.77l-.12-.39s0-.02,0-.03c-.16-.51-.43-.76-.82-.76h-1.14v1.89h1.54v.22h-1.54v2.03h1.14c.08,0,.15-.01.22-.03.27-.08.47-.33.6-.76l.12-.39h.17l-.04,1.37h-3.54v-.2h.6v-4.14h-.6v-.2h3.54l.04,1.37h-.17Z"/></g></svg>