<?xml version="1.0" encoding="UTF-8"?><svg id="Layer_2" xmlns="http://www.w3.org/2000/svg" viewBox="0 0 268.86 75"><defs><style>.cls-1{fill:#231f20;}</style></defs><g id="Layer_1-2"><path class="cls-1" d="M21.56,18.85l-8.31-9.9.36-.3,8.31,9.9.36-.3,10.74,12.8c-.34.24-.66.51-.96.8l-10.74-12.79.24-.2ZM31.96,4.23l-.65-3.7-.46.08.65,3.7-.36.06,4.5,25.49c.4-.1.81-.17,1.23-.2l-4.5-25.51-.41.07ZM26.64,9.17l7.69,21.14c.38-.17.77-.3,1.18-.41l-7.7-21.15-.41.15-2.44-6.7-.44.16,2.44,6.7-.32.12ZM23.4,14.13l9.72,16.84c.34-.23.71-.43,1.09-.61l-9.73-16.85-.39.23-5.09-8.82-.41.23,5.09,8.82-.28.16ZM21.61,35.31l8.12,1.43c.04-.42.11-.83.22-1.23l-8.11-1.43-.09.49L.61,30.84l-.08.46,21.13,3.73-.05.28ZM20.25,23.74l10.91,9.15c.24-.34.51-.66.8-.96l-10.91-9.15-.31.37-11.8-9.9-.3.36,11.8,9.9-.19.23ZM20.55,31.95l9.43,3.43c.11-.41.25-.8.42-1.17l-9.42-3.43-.17.47L2.35,24.52l-.16.44,18.46,6.72-.1.27ZM20.04,28.07l10.41,6.01c.18-.38.39-.74.62-1.08l-10.41-6.01-.24.42-15.27-8.81-.23.41,15.27,8.81-.15.25ZM46.47,31.67l-2.48,1.43c.23.34.43.71.6,1.09l2.5-1.44-.16-.27,23.16-13.37-.23-.41-23.16,13.37-.23-.41ZM23.08,38.12h6.64c-.02-.22-.03-.45-.03-.68,0-.19.02-.38.03-.57h-6.63v.5H0v.47h23.08v.28ZM44.52,30.9l-1.37,1.15c.29.3.56.63.8.97l1.38-1.17-.21-.25,21.29-17.86-.3-.36-21.29,17.86-.29-.35ZM48.46,32.89l-3.82,1.39c.17.38.3.77.41,1.18l3.84-1.4-.1-.28,24.04-8.75-.16-.44-24.04,8.75-.16-.45ZM50.38,34.62l-5.31.94c.1.4.17.81.21,1.23l5.32-.93-.05-.29,23.92-4.22-.08-.46-23.92,4.22-.08-.48ZM41.75,30.89l14.76-25.56-.41-.23-14.75,25.55c.14.08.27.16.4.24ZM44.33.82l-.46-.08-5.11,29.01c.16.03.31.05.46.08L44.33.82ZM40.53,30.24L50.61,2.54l-.44-.16-10.08,27.7c.15.05.3.1.44.16ZM37.37,0h-.38v29.66c.17-.01.34-.03.51-.03.25,0,.5.01.74.04V0h-.87ZM42.65,30.53l-.53.63c.34.25.66.52.95.82l.54-.64-.26-.22,18.47-22.01-.36-.3-18.47,22.01-.34-.29ZM34.75,44.75l-10.23,28.11.44.16,10.23-28.11c-.15-.05-.29-.1-.44-.16ZM54.98,51.26l-11.1-9.31c-.24.34-.51.66-.8.96l11.09,9.31.2-.24,11.73,9.84.3-.36-11.73-9.84.3-.36ZM53.91,55.95l-10.89-12.98c-.3.29-.62.56-.96.8l10.89,12.98.24-.2,8.27,9.85.36-.3-8.27-9.85.35-.3ZM55.18,46.93l-10.63-6.14c-.18.38-.38.74-.62,1.08l10.63,6.14.15-.26,15.16,8.75.23-.41-15.16-8.75.24-.42ZM48.59,65.83l-7.76-21.33c-.37.18-.76.33-1.17.44l7.76,21.31.33-.12,2.43,6.68.44-.16-2.43-6.68.41-.15ZM51.82,60.87l-9.84-17.03c-.34.24-.7.45-1.08.63l9.83,17.03.29-.17,5.07,8.78.41-.23-5.07-8.78.39-.22ZM52.14,37.37v-.49h-6.86c.01.19.03.37.03.56,0,.23-.01.46-.03.69h6.86v-.29h22.86v-.47h-22.86ZM53.62,39.69l-8.35-1.47c-.04.42-.12.83-.23,1.23l8.36,1.48.05-.29,20.94,3.69.08-.46-20.94-3.69.08-.48ZM54.68,43.05l-9.66-3.52c-.11.4-.26.8-.43,1.17l9.66,3.52.1-.28,18.31,6.66.16-.44-18.31-6.66.17-.46ZM33.54,44.17l-14.94,25.88.41.23,14.95-25.89c-.14-.07-.28-.15-.41-.23ZM30.71,44.1l1.31-1.1c-.3-.29-.56-.61-.81-.95l-1.3,1.09.3.36-21.56,18.09.3.36,21.56-18.09.2.24ZM32.58,44.47l.5-.59c-.34-.24-.67-.5-.97-.79l-.49.58.35.29-18.71,22.3.36.3,18.71-22.3.25.21ZM28.75,43.33l2.38-1.37c-.24-.34-.45-.7-.64-1.07l-2.37,1.36.24.41-23.45,13.54.23.41,23.45-13.54.15.26ZM26.77,42.11l3.67-1.34c-.18-.38-.33-.77-.44-1.17l-3.65,1.33.17.46L2.19,50.24l.16.44,24.32-8.85.1.28ZM30.84,74.59l.46.08,5.2-29.49c-.16-.02-.31-.04-.46-.07l-5.2,29.48ZM36.99,45.23v29.77h1.25v-29.78c-.24.02-.49.04-.74.04-.17,0-.34-.01-.51-.03ZM44.09,70.63l-4.52-25.66c-.4.11-.81.19-1.23.24l4.52,25.64.36-.06.65,3.69.46-.08-.65-3.69.41-.07ZM24.84,40.38l5.12-.9c-.11-.4-.19-.8-.24-1.22l-5.1.9.09.49L.53,43.9l.08.46,24.18-4.26.05.28Z"/><path class="cls-1" d="M90.52,58.79c-2.37,0-4.13-1.95-4.13-4.56V16.23h4.74v40.37h24.56v2.19h-25.17Z"/><path class="cls-1" d="M135.09,57.27c8.09,0,13.38-7.78,13.38-19.76v-21.28h2.25v21.28c0,13.5-6.45,22.07-16.66,22.07-10.94,0-18.18-8.88-18.18-22.07v-21.28h4.74v21.28c0,11.86,5.84,19.76,14.47,19.76Z"/><path class="cls-1" d="M175.95,58.79l-18.3-38v38h-2.19V16.23h5.29l17.63,36.48,14.77-36.48h4.74v42.56h-4.74V22.25l-14.77,36.54h-2.43Z"/><path class="cls-1" d="M213.1,3.33l-2.38,8.65h1.53l4.61-8.65h-3.76ZM202.65,58.79h24.31v-2.18h-24.31v2.18ZM202.65,16.24v2.18h24.31v-2.18h-24.31ZM224.48,36.41h-21.83v2.21h21.83v-2.21Z"/><path class="cls-1" d="M247.15,16.23l21.71,42.56h-5.41l-6.44-12.71h-23.23l-5.65,12.71h-2.43l19.03-42.56h2.43ZM234.75,44.02h21.22l-11.31-22.25-9.91,22.25Z"/></g></svg>