<?xml version="1.0" encoding="UTF-8"?><svg id="Layer_2" xmlns="http://www.w3.org/2000/svg" xmlns:xlink="http://www.w3.org/1999/xlink" viewBox="0 0 183.22 57.38"><defs><style>.cls-1{fill:none;}.cls-2{fill:url(#linear-gradient-8);}.cls-3{fill:url(#linear-gradient-7);}.cls-4{fill:url(#linear-gradient-5);}.cls-5{fill:url(#linear-gradient-6);}.cls-6{fill:url(#linear-gradient-9);}.cls-7{fill:url(#linear-gradient-4);}.cls-8{fill:url(#linear-gradient-3);}.cls-9{fill:url(#linear-gradient-2);}.cls-10{fill:url(#linear-gradient);}.cls-11{clip-path:url(#clippath-1);}.cls-12{clip-path:url(#clippath-3);}.cls-13{clip-path:url(#clippath-4);}.cls-14{clip-path:url(#clippath-2);}.cls-15{clip-path:url(#clippath-7);}.cls-16{clip-path:url(#clippath-6);}.cls-17{clip-path:url(#clippath-9);}.cls-18{clip-path:url(#clippath-8);}.cls-19{clip-path:url(#clippath-5);}.cls-20{fill:url(#linear-gradient-10);}.cls-21{clip-path:url(#clippath);}</style><clipPath id="clippath"><path class="cls-1" d="M56.63,37.04c-6.07,0-9.13-8.25-9.13-13.93,0-8.22,3.62-14.88,8.1-14.88,4,0,7.48,6.16,7.48,12.32,0,0-3.46-.03-5.94.85-3.19,1.14-5.12,2.91-6.23,4.76.22.38.43.77.58,1.1.25-.49.55-.96.9-1.38,2.68-3.28,7.68-4.94,15.81-3.31,0-5.29-2.53-14.98-12.6-14.98-7.22,0-13.07,6.93-13.07,15.49s5.85,15.49,13.07,15.49c5.62,0,10.4-4.21,12.24-10.11l-.78-.13c-2.32,6.38-6.39,8.72-10.42,8.72"/></clipPath><linearGradient id="linear-gradient" x1="44.31" y1="31.46" x2="66.39" y2="14.68" gradientUnits="userSpaceOnUse"><stop offset="0" stop-color="#cbaa7a"/><stop offset=".38" stop-color="#9c825c"/><stop offset=".7" stop-color="#f3d8ae"/><stop offset="1" stop-color="#cbaa7a"/></linearGradient><clipPath id="clippath-1"><path class="cls-1" d="M140.52,34.53s-1.77,2.25-5.52,2.25-6.97-3.75-6.97-7.3c0-3.17,1.15-6.52,6.47-8.61,3.03-1.18,5.18-2.54,6.02-3.65v17.31ZM144.27,10.46c-1.39-1.66-3.66-3.17-7.33-3.17-4.42,0-7.58,2.61-9.32,4.52l.71.88s3.41-4.08,7.7-4.08c2.77,0,4.49,1.46,4.49,5.52v1.03c-.39,1.18-1.69,3.21-6.08,4.46-7.22,2.06-11.82,4.61-11.82,9.94s4.21,8.33,8.6,8.72c6.22.53,9.31-2.62,9.31-2.62v2.21h5.86v-21.14c0-2.27-.66-4.52-2.12-6.26Z"/></clipPath><linearGradient id="linear-gradient-2" x1="123.81" y1="30.55" x2="145.41" y2="15.39" xlink:href="#linear-gradient"/><clipPath id="clippath-2"><path class="cls-1" d="M166.81,34.53s-1.77,2.25-5.52,2.25-6.97-3.75-6.97-7.3c0-3.17,1.15-6.52,6.47-8.61,3.03-1.18,5.18-2.54,6.02-3.65v17.31ZM170.55,10.46c-1.39-1.66-3.66-3.17-7.33-3.17-4.42,0-7.58,2.61-9.32,4.52l.71.88s3.41-4.08,7.7-4.08c2.77,0,4.49,1.46,4.49,5.52v1.03c-.39,1.18-1.69,3.21-6.08,4.46-7.22,2.06-11.82,4.61-11.82,9.94s4.21,8.33,8.6,8.72c6.22.53,9.31-2.62,9.31-2.62v2.21h5.86v-21.14c0-2.27-.66-4.52-2.12-6.26Z"/></clipPath><linearGradient id="linear-gradient-3" x1="150.1" y1="30.55" x2="171.7" y2="15.39" xlink:href="#linear-gradient"/><clipPath id="clippath-3"><path class="cls-1" d="M148.65,52.36c0-.27-.06-.49-.18-.68-.12-.18-.32-.32-.6-.4-.09-.03-.19-.04-.3-.05-.11-.01-.26-.02-.43-.02h-.76v2.29h.88c.24,0,.45-.03.62-.09.17-.06.32-.14.43-.24.12-.1.2-.23.26-.37.05-.14.08-.29.08-.46M150.01,57.14s0,.05-.02.07c-.01.02-.03.04-.07.05-.03.01-.08.02-.15.03-.06,0-.15.01-.25.01-.09,0-.17,0-.22-.01-.06,0-.1-.02-.14-.03-.03-.02-.06-.04-.08-.07-.02-.03-.04-.06-.05-.1l-.62-1.61c-.07-.18-.15-.35-.23-.5-.08-.15-.17-.28-.28-.39-.11-.11-.24-.2-.38-.26-.15-.06-.33-.09-.53-.09h-.61v2.9s0,.05-.02.07c-.02.02-.04.04-.07.05-.03.01-.08.02-.14.03-.06,0-.13.01-.22.01s-.16,0-.22-.01c-.06,0-.1-.02-.14-.03-.04-.01-.06-.03-.07-.05-.01-.02-.02-.04-.02-.07v-6.3c0-.14.04-.23.11-.29.07-.05.15-.08.23-.08h1.45c.17,0,.31,0,.43.01.11,0,.22.02.31.03.26.05.5.12.7.22.2.1.37.22.51.37.14.15.24.32.31.52.07.19.1.41.1.64s-.03.43-.09.61c-.06.18-.15.34-.27.48-.12.14-.25.26-.42.36-.16.1-.34.19-.54.26.11.05.21.11.31.19.09.08.18.17.25.27.08.11.15.23.22.36.07.14.14.29.21.46l.61,1.5c.05.13.08.22.09.27.01.05.02.09.02.12ZM138.97,51.38h0l-1.17,3.39h2.37l-1.19-3.39ZM141.9,56.96c.03.08.04.14.04.19,0,.05-.01.08-.04.11-.03.02-.08.04-.14.05-.06,0-.15.01-.26.01s-.2,0-.26,0c-.06,0-.11-.01-.15-.03-.03-.01-.06-.03-.07-.05-.02-.02-.03-.05-.04-.08l-.58-1.66h-2.83l-.56,1.64s-.02.06-.04.08c-.02.02-.04.04-.08.06-.03.02-.08.03-.14.03-.06,0-.14.01-.24.01s-.18,0-.25-.01c-.06,0-.11-.03-.14-.05-.03-.03-.04-.06-.04-.11,0-.05.02-.11.04-.19l2.28-6.32s.03-.07.06-.1c.02-.03.06-.04.1-.06.04-.01.1-.03.17-.03.07,0,.15,0,.26,0,.11,0,.2,0,.28,0,.07,0,.13.02.18.03.05.01.08.03.11.06.03.03.04.06.06.1l2.28,6.33ZM132.56,57.14s0,.05-.02.07c-.01.02-.04.04-.07.05-.04.01-.08.02-.14.03-.06,0-.13.01-.21.01-.09,0-.17,0-.22-.01-.06,0-.1-.02-.14-.03-.04-.01-.06-.03-.07-.05-.01-.02-.02-.04-.02-.07v-3.02h-3.09v3.02s0,.05-.02.07c-.01.02-.04.04-.07.05-.03.01-.08.02-.14.03-.06,0-.13.01-.22.01s-.16,0-.22-.01c-.06,0-.11-.02-.14-.03-.04-.01-.06-.03-.07-.05-.01-.02-.02-.04-.02-.07v-6.53s0-.05.02-.07c.01-.02.04-.04.07-.05.03-.01.08-.02.14-.03.06,0,.13-.01.22-.01s.16,0,.22.01c.06,0,.1.02.14.03.04.01.06.03.07.05.01.02.02.04.02.07v2.73h3.09v-2.73s0-.05.02-.07c.01-.02.04-.04.07-.05.04-.01.08-.02.14-.03.06,0,.13-.01.22-.01.08,0,.15,0,.21.01.06,0,.1.02.14.03.04.01.06.03.07.05.01.02.02.04.02.07v6.53ZM124.07,57.13s0,.05-.02.08c-.01.02-.04.04-.07.06-.04.01-.08.02-.14.03-.06,0-.14.01-.23.01-.12,0-.22,0-.3-.02-.08-.01-.13-.03-.17-.06-.04-.03-.07-.06-.09-.1l-2.5-3.4v3.4s0,.05-.02.07c-.01.02-.04.04-.07.05-.03.01-.08.02-.14.03-.06,0-.13.01-.22.01s-.16,0-.22-.01c-.06,0-.11-.02-.14-.03-.04-.01-.06-.03-.07-.05-.01-.02-.02-.05-.02-.07v-6.53s0-.05.02-.07c.01-.02.04-.04.07-.05.03-.01.08-.02.14-.03.06,0,.13-.01.22-.01s.16,0,.22.01c.06,0,.1.02.14.03.04.01.06.03.07.05.01.02.02.04.02.07v3.03l2.41-3.03s.04-.06.07-.08c.03-.02.06-.04.1-.05.04-.01.09-.02.15-.03.06,0,.13-.01.22-.01s.16,0,.22.01c.06,0,.1.02.13.03.03.01.06.03.07.05.01.02.02.04.02.07,0,.04-.01.09-.03.14-.02.04-.07.11-.13.19l-2.26,2.7,2.43,3.23c.06.09.1.15.11.19.01.03.02.06.02.08ZM108.96,57.12s-.03.07-.06.09c-.02.03-.06.04-.1.06-.04.01-.1.03-.17.03-.07,0-.15,0-.26,0-.08,0-.14,0-.2,0-.06,0-.11,0-.15-.01-.04,0-.08-.01-.11-.02-.03,0-.06-.02-.08-.03-.02-.01-.04-.03-.05-.05-.01-.02-.02-.04-.03-.07l-2.23-6.33c-.03-.08-.04-.14-.04-.19,0-.05.01-.08.04-.11.03-.02.08-.04.15-.05.07,0,.17-.01.29-.01.1,0,.18,0,.23,0,.06,0,.1.02.13.03.03.01.05.03.07.05.02.02.03.05.04.09l1.95,5.73h.01l1.9-5.72s.02-.07.04-.1c.01-.03.04-.04.07-.06.04-.01.08-.03.15-.03.06,0,.15,0,.25,0s.19,0,.26.01c.06,0,.11.03.13.05.02.03.03.06.03.11,0,.05-.02.11-.05.19l-2.22,6.32ZM94.84,51.38h0l-1.17,3.39h2.37l-1.19-3.39ZM97.77,56.96c.03.08.04.14.04.19,0,.05-.01.08-.04.11-.03.02-.08.04-.14.05-.06,0-.15.01-.26.01s-.2,0-.26,0c-.06,0-.11-.01-.15-.03-.03-.01-.06-.03-.07-.05-.02-.02-.03-.05-.04-.08l-.58-1.66h-2.83l-.56,1.64s-.02.06-.04.08c-.02.02-.04.04-.08.06-.03.02-.08.03-.14.03-.06,0-.14.01-.24.01s-.18,0-.25-.01c-.06,0-.11-.03-.14-.05-.03-.03-.04-.06-.04-.11,0-.05.02-.11.04-.19l2.28-6.32s.03-.07.06-.1c.02-.03.06-.04.1-.06.04-.01.1-.03.17-.03.07,0,.15,0,.26,0,.11,0,.2,0,.28,0,.07,0,.13.02.18.03.05.01.08.03.11.06.03.03.04.06.06.1l2.28,6.33ZM88.43,57.14s0,.05-.02.07c-.01.02-.04.04-.07.05-.04.01-.08.02-.14.03-.06,0-.13.01-.21.01-.09,0-.17,0-.22-.01-.06,0-.1-.02-.14-.03-.04-.01-.06-.03-.07-.05-.01-.02-.02-.04-.02-.07v-3.02h-3.09v3.02s0,.05-.02.07c-.01.02-.04.04-.07.05-.03.01-.08.02-.14.03-.06,0-.13.01-.22.01s-.16,0-.22-.01c-.06,0-.11-.02-.14-.03-.04-.01-.06-.03-.07-.05-.01-.02-.02-.04-.02-.07v-6.53s0-.05.02-.07c.01-.02.04-.04.07-.05.03-.01.08-.02.14-.03.06,0,.13-.01.22-.01s.16,0,.22.01c.06,0,.1.02.14.03.04.01.06.03.07.05.01.02.02.04.02.07v2.73h3.09v-2.73s0-.05.02-.07c.01-.02.04-.04.07-.05.04-.01.08-.02.14-.03.06,0,.13-.01.22-.01.08,0,.15,0,.21.01.06,0,.1.02.14.03.04.01.06.03.07.05.01.02.02.04.02.07v6.53ZM79.81,55.37c0,.32-.06.6-.18.85-.12.25-.28.46-.49.63-.21.17-.45.3-.74.39-.28.09-.59.13-.91.13-.23,0-.44-.02-.63-.06-.2-.04-.37-.09-.52-.14-.15-.06-.28-.12-.38-.17-.1-.06-.18-.11-.22-.15-.04-.04-.07-.1-.09-.16-.02-.06-.03-.15-.03-.26,0-.08,0-.14.01-.19,0-.05.02-.09.03-.12.01-.03.03-.05.05-.07.02-.01.04-.02.07-.02.05,0,.12.03.21.09.09.06.2.12.34.19.14.07.31.13.51.2.2.06.43.09.69.09.2,0,.38-.03.54-.08.16-.05.3-.13.42-.22.12-.1.21-.21.27-.35.06-.14.1-.3.1-.48,0-.19-.04-.36-.13-.49-.09-.14-.2-.26-.35-.36-.15-.1-.31-.2-.49-.28-.19-.09-.37-.17-.57-.26-.19-.09-.38-.19-.56-.3-.18-.11-.35-.24-.49-.38-.14-.15-.26-.32-.35-.52-.09-.2-.13-.43-.13-.71s.05-.54.15-.76c.1-.22.25-.41.43-.56.19-.15.4-.27.66-.34.25-.08.53-.12.82-.12.15,0,.3.01.45.04.15.03.3.06.43.11.13.04.25.09.36.15.1.05.17.1.21.13.03.03.06.06.07.08.01.02.02.04.03.07,0,.03.01.07.02.11,0,.04,0,.1,0,.16,0,.06,0,.12,0,.17,0,.05-.01.09-.03.12,0,.03-.02.06-.04.07-.02.02-.04.02-.07.02-.04,0-.1-.03-.18-.07-.08-.05-.18-.1-.3-.17-.12-.06-.26-.12-.42-.17-.16-.05-.34-.08-.55-.08-.19,0-.35.02-.49.08-.14.05-.26.12-.35.2-.09.08-.16.18-.2.3-.04.12-.07.24-.07.37,0,.19.04.35.13.49.09.14.2.26.35.36.15.11.31.2.5.29.18.09.38.18.57.27.19.09.38.19.57.29.19.11.35.23.5.38.15.15.26.32.35.52.09.2.13.43.13.7ZM71.9,57.14s0,.05-.02.07c-.01.02-.04.04-.07.05-.03.01-.08.02-.14.03-.06,0-.13.01-.22.01s-.16,0-.22-.01c-.06,0-.11-.02-.14-.03-.04-.01-.06-.03-.07-.05-.01-.02-.02-.04-.02-.07v-6.53s0-.05.02-.07c.02-.02.04-.04.08-.05.04-.01.08-.02.14-.03.06,0,.13-.01.21-.01.09,0,.16,0,.22.01.06,0,.1.02.14.03.04.01.06.03.07.05.01.02.02.04.02.07v6.53ZM66.76,56.9c0,.07-.01.13-.04.18-.02.05-.05.09-.09.12-.04.03-.08.05-.13.07-.05.01-.09.02-.14.02h-.3c-.09,0-.18,0-.25-.03-.07-.02-.14-.05-.2-.1-.06-.05-.13-.12-.19-.2-.06-.09-.13-.2-.2-.34l-2.08-3.87c-.11-.2-.22-.41-.33-.63-.11-.22-.21-.43-.31-.64h-.01c0,.25.01.51.02.77,0,.26,0,.52,0,.78v4.11s0,.05-.02.07c-.02.02-.04.04-.08.05-.04.01-.08.02-.14.03-.06,0-.13.01-.22.01s-.16,0-.22-.01c-.06,0-.1-.02-.13-.03-.03-.01-.06-.03-.07-.05-.01-.02-.02-.05-.02-.07v-6.28c0-.14.04-.24.12-.3.08-.06.17-.09.26-.09h.45c.1,0,.19,0,.26.03.07.02.13.05.19.09.06.04.11.1.16.17.05.07.11.16.17.27l1.6,2.99c.1.18.19.36.29.54.09.17.18.34.27.51.08.17.17.33.25.5.08.16.17.33.25.49h0c0-.28-.01-.57-.01-.87,0-.3,0-.59,0-.87v-3.69s0-.05.02-.07c.02-.02.04-.04.08-.06.04-.02.08-.03.14-.03.06,0,.13-.01.23-.01.08,0,.15,0,.21.01.06,0,.11.02.14.03.03.02.06.03.07.06.01.02.02.04.02.07v6.27ZM55.11,51.38h0l-1.17,3.39h2.37l-1.19-3.39ZM58.04,56.96c.03.08.04.14.04.19,0,.05-.01.08-.04.11-.03.02-.08.04-.14.05-.06,0-.15.01-.26.01s-.2,0-.26,0c-.06,0-.11-.01-.15-.03-.03-.01-.06-.03-.07-.05-.02-.02-.03-.05-.04-.08l-.58-1.66h-2.83l-.56,1.64s-.02.06-.04.08c-.02.02-.04.04-.08.06-.03.02-.08.03-.14.03-.06,0-.14.01-.24.01s-.18,0-.25-.01c-.06,0-.11-.03-.14-.05-.03-.03-.04-.06-.04-.11,0-.05.02-.11.04-.19l2.28-6.32s.03-.07.06-.1c.02-.03.06-.04.1-.06.04-.01.1-.03.17-.03.07,0,.15,0,.26,0,.11,0,.2,0,.28,0,.07,0,.13.02.18.03.05.01.08.03.11.06.03.03.04.06.06.1l2.28,6.33ZM48.7,57.14s0,.05-.02.07c-.01.02-.04.04-.08.05-.04.01-.08.02-.14.03-.06,0-.13.01-.22.01-.08,0-.16,0-.22-.01-.06,0-.11-.02-.14-.03-.03-.01-.06-.03-.07-.05-.01-.02-.02-.04-.02-.07v-5.93h-.01l-2.4,5.96s-.03.04-.04.06c-.02.02-.05.03-.08.04-.04.01-.08.02-.13.03-.05,0-.11,0-.18,0-.07,0-.14,0-.19-.01-.05,0-.1-.02-.13-.03-.04-.01-.06-.03-.08-.04-.02-.02-.03-.04-.04-.06l-2.29-5.96h0v5.93s0,.05-.02.07c-.01.02-.04.04-.08.05-.04.01-.08.02-.14.03-.06,0-.13.01-.22.01s-.16,0-.22-.01c-.06,0-.1-.02-.14-.03-.03-.01-.06-.03-.07-.05-.01-.02-.02-.04-.02-.07v-6.26c0-.15.04-.25.12-.32.08-.06.17-.09.26-.09h.56c.11,0,.21.01.3.03.09.02.16.05.22.1.06.05.12.1.16.17.04.07.08.15.11.25l1.95,4.93h.03l2.02-4.92c.04-.1.08-.19.13-.27.05-.07.1-.13.15-.18.05-.04.12-.08.18-.09.07-.02.15-.03.24-.03h.58c.05,0,.1,0,.15.02.05.02.09.04.12.07.03.03.06.08.08.13.02.05.03.11.03.19v6.26ZM30.91,54.63v2.51s0,.05-.02.07c-.01.02-.04.04-.07.05-.04.01-.08.02-.14.03-.06,0-.13.01-.21.01-.09,0-.16,0-.22-.01-.06,0-.11-.02-.14-.03-.04-.01-.06-.03-.08-.05-.01-.02-.02-.04-.02-.07v-2.51l-1.92-3.84c-.04-.08-.06-.14-.07-.19,0-.05,0-.08.03-.11.03-.02.07-.04.14-.05.07,0,.16-.01.28-.01.1,0,.19,0,.25.01.06,0,.12.02.15.03.04.01.07.03.09.05.02.02.04.05.05.09l.94,1.96c.09.19.17.38.26.58.09.2.18.41.27.62h.01c.08-.2.16-.4.25-.6.09-.2.17-.4.26-.59l.95-1.97s.03-.07.04-.09c.02-.03.05-.04.08-.06.03-.01.08-.02.14-.03.06,0,.13-.01.23-.01.13,0,.22,0,.3.01.07,0,.12.03.15.05.03.03.04.06.03.11,0,.04-.03.11-.07.18l-1.92,3.84ZM23.99,55.38c0-.2-.03-.38-.1-.54-.06-.15-.16-.28-.28-.39-.13-.11-.28-.18-.47-.24-.19-.05-.42-.08-.71-.08h-1.08v2.4h1.31c.21,0,.39-.03.54-.07.15-.05.29-.12.41-.22.12-.1.21-.22.27-.36.07-.14.1-.31.1-.5ZM23.59,52.28c0-.17-.02-.31-.07-.45-.04-.13-.12-.25-.22-.34-.1-.09-.23-.16-.38-.21-.16-.05-.37-.07-.63-.07h-.94v2.21h1.03c.24,0,.42-.03.57-.09.14-.06.26-.15.36-.25.09-.1.16-.23.21-.36.04-.14.07-.28.07-.43ZM24.94,55.33c0,.21-.03.41-.08.59-.06.18-.13.34-.23.49-.1.14-.22.27-.36.38-.14.11-.29.2-.47.27-.17.07-.36.13-.56.17-.2.04-.43.06-.68.06h-1.78c-.08,0-.16-.03-.23-.08-.07-.06-.11-.15-.11-.29v-6.07c0-.14.04-.23.11-.29.07-.05.15-.08.23-.08h1.55c.41,0,.74.04,1,.11.26.08.48.19.65.34.17.15.31.33.39.54.09.21.13.46.13.73,0,.16-.02.32-.06.46-.04.15-.1.28-.17.41-.08.13-.17.24-.28.33-.11.1-.25.18-.39.24.19.04.36.1.52.19.16.09.3.21.42.36.12.14.22.31.29.5.07.19.11.41.11.64Z"/></clipPath><linearGradient id="linear-gradient-4" x1="84.96" y1="58.81" x2="85.53" y2="48.48" xlink:href="#linear-gradient"/><clipPath id="clippath-4"><path class="cls-1" d="M157.3,55.38c0-.2-.03-.38-.1-.54-.06-.15-.16-.28-.28-.39-.13-.11-.28-.18-.47-.24-.19-.05-.42-.08-.71-.08h-1.08v2.4h1.31c.21,0,.39-.03.54-.07.15-.05.29-.12.41-.22.12-.1.21-.22.27-.36.07-.14.1-.31.1-.5M156.89,52.28c0-.17-.02-.31-.07-.45-.04-.13-.12-.25-.22-.34-.1-.09-.23-.16-.38-.21-.16-.05-.37-.07-.63-.07h-.94v2.21h1.03c.24,0,.42-.03.57-.09.14-.06.26-.15.36-.25.09-.1.16-.23.21-.36.04-.14.07-.28.07-.43ZM158.24,55.33c0,.21-.03.41-.08.59-.06.18-.13.34-.23.49-.1.14-.22.27-.36.38-.14.11-.29.2-.47.27-.17.07-.36.13-.56.17-.2.04-.43.06-.68.06h-1.78c-.08,0-.16-.03-.23-.08-.07-.06-.11-.15-.11-.29v-6.07c0-.14.04-.23.11-.29.07-.05.15-.08.23-.08h1.55c.41,0,.74.04,1,.11.26.08.48.19.65.34.17.15.31.33.39.54.09.21.13.46.13.73,0,.16-.02.32-.06.46-.04.15-.1.28-.17.41-.08.13-.17.24-.28.33-.11.1-.25.18-.39.24.19.04.36.1.52.19.16.09.3.21.42.36.12.14.22.31.29.5.07.19.11.41.11.64Z"/></clipPath><linearGradient id="linear-gradient-5" x1="155.51" y1="62.73" x2="156.08" y2="52.4" xlink:href="#linear-gradient"/><clipPath id="clippath-5"><path class="cls-1" d="M183.22,3.76v-.58c0-1.52-1.24-2.75-2.76-2.75h-.36c-1.52,0-2.75,1.24-2.75,2.75v5.37s5.87-1.05,5.87-4.8"/></clipPath><linearGradient id="linear-gradient-6" x1="177.51" y1="6.33" x2="183.05" y2="2.66" xlink:href="#linear-gradient"/><clipPath id="clippath-6"><path class="cls-1" d="M182.95,8.56c-.36,1.34-3.06,3.22-5.4,3.33-.12.01-.21.1-.21.23v35.32c0,4.45-1.71,6.26-4.48,6.26-.48,0-1.24-.1-1.69-.18v1.04c.81.22,1.68.34,2.6.34,3.66,0,5.94-1.63,7.33-3.45,1.44-1.9,2.11-4.37,2.11-6.83V8.56h-.26Z"/></clipPath><linearGradient id="linear-gradient-7" x1="169.47" y1="33.57" x2="184.92" y2="29.89" xlink:href="#linear-gradient"/><clipPath id="clippath-7"><path class="cls-1" d="M127.41,42.04c-3.08,0-6.46-2.77-10.62-8.73-1.2-1.71-3.76-5.27-6.13-8.58,6.36-1.85,9.97-6.34,9.97-12.78C120.63,6.44,117.08.02,107.05.02h-7.52v.73h5.03c8.06,0,10.95,6.51,10.95,12.6,0,7.39-4.45,11.64-12.19,11.64l-3.78-.11v.78h3.91c.72,0,1.42-.02,2.12-.08,2.17,3.11,4.84,6.92,6.15,8.7l.18.24c4.46,5.99,6.12,8.23,10.47,8.23.63,0,3.27-.03,3.57-.03.72,0,1.38.02,1.79.11l.15-.8s-.09.02-.47.02"/></clipPath><linearGradient id="linear-gradient-8" x1="99.65" y1="29.95" x2="127.76" y2="12.88" xlink:href="#linear-gradient"/><clipPath id="clippath-8"><path class="cls-1" d="M85.09,37.04c-6.07,0-9.13-8.25-9.13-13.93,0-8.22,3.62-14.88,8.1-14.88,4,0,7.48,6.16,7.48,12.32,0,0-3.46-.03-5.94.85-3.19,1.14-5.12,2.91-6.23,4.76.22.38.43.77.58,1.1.25-.49.55-.96.9-1.38,2.68-3.28,7.68-4.94,15.81-3.31,0-5.29-2.53-14.98-12.6-14.98-7.22,0-13.07,6.93-13.07,15.49s5.85,15.49,13.07,15.49c5.62,0,10.4-4.21,12.24-10.11l-.78-.13c-2.32,6.38-6.39,8.72-10.42,8.72"/></clipPath><linearGradient id="linear-gradient-9" x1="72.77" y1="31.46" x2="94.85" y2="14.68" xlink:href="#linear-gradient"/><clipPath id="clippath-9"><path class="cls-1" d="M23.31,28.1l9.24-22.64,3.3,32.51h4.38L36.5,0h-2.68l-11.06,27.1c.14.23.32.55.54,1M.78,38.02S3.79,5.09,4,5.06l14.36,32.84h.95c.07-.17,2.45-5.93,1.89-4.56L5.92,0h-2.31C3.11,5.06,0,38.02,0,38.02h.78Z"/></clipPath><linearGradient id="linear-gradient-10" x1="6.06" y1="32.64" x2="34.18" y2="5.37" xlink:href="#linear-gradient"/></defs><g id="Layer_1-2"><g class="cls-21"><rect class="cls-10" x="42.51" y="7.59" width="25.68" height="30.97"/></g><g class="cls-11"><rect class="cls-9" x="122.62" y="7.29" width="23.77" height="31.52"/></g><g class="cls-14"><rect class="cls-8" x="148.9" y="7.29" width="23.77" height="31.52"/></g><g class="cls-12"><rect class="cls-7" x="20.45" y="50.37" width="129.56" height="7"/></g><g class="cls-13"><rect class="cls-4" x="153.75" y="50.47" width="4.49" height="6.81"/></g><g class="cls-19"><rect class="cls-5" x="177.34" y=".43" width="5.87" height="8.12"/></g><g class="cls-16"><rect class="cls-3" x="171.18" y="8.56" width="12.04" height="46.33"/></g><g class="cls-15"><rect class="cls-2" x="99.53" y=".02" width="28.35" height="42.8"/></g><g class="cls-18"><rect class="cls-6" x="70.97" y="7.59" width="25.68" height="30.97"/></g><g class="cls-17"><rect class="cls-20" width="40.23" height="38.02"/></g></g></svg>