<?xml version="1.0" encoding="UTF-8"?><svg id="Layer_2" xmlns="http://www.w3.org/2000/svg" xmlns:xlink="http://www.w3.org/1999/xlink" viewBox="0 0 1757.17 278.46"><defs><style>.cls-1{fill:url(#New_Gradient_Swatch_1-2);}.cls-2{fill:url(#New_Gradient_Swatch_1-6);}.cls-3{fill:url(#New_Gradient_Swatch_1-3);}.cls-4{fill:url(#New_Gradient_Swatch_1-5);}.cls-5{fill:url(#New_Gradient_Swatch_1-4);}.cls-6{fill:url(#New_Gradient_Swatch_1-7);}.cls-7{fill:#003c4c;}.cls-8{fill:#00a657;}.cls-9{fill:url(#New_Gradient_Swatch_1);}</style><linearGradient id="New_Gradient_Swatch_1" x1="0" y1="130.53" x2="1757.13" y2="130.53" gradientUnits="userSpaceOnUse"><stop offset="0" stop-color="#00a657"/><stop offset="1" stop-color="#00a2dc"/></linearGradient><linearGradient id="New_Gradient_Swatch_1-2" y1="131.48" y2="131.48" xlink:href="#New_Gradient_Swatch_1"/><linearGradient id="New_Gradient_Swatch_1-3" y1="132.61" y2="132.61" xlink:href="#New_Gradient_Swatch_1"/><linearGradient id="New_Gradient_Swatch_1-4" y1="131.48" y2="131.48" xlink:href="#New_Gradient_Swatch_1"/><linearGradient id="New_Gradient_Swatch_1-5" y1="131.48" y2="131.48" xlink:href="#New_Gradient_Swatch_1"/><linearGradient id="New_Gradient_Swatch_1-6" y1="131.48" y2="131.48" xlink:href="#New_Gradient_Swatch_1"/><linearGradient id="New_Gradient_Swatch_1-7" y1="131.48" y2="131.48" xlink:href="#New_Gradient_Swatch_1"/></defs><g id="Layer_3"><path class="cls-9" d="M113.56,0h55.65l89.6,235.6,23.58,3.02v22.45h-125.06v-22.45l26.22-1.89,3.02-5.09-20.37-57.53h-82.25l-19.43,57.16,3.96,4.72,24.71,2.64v22.45H0v-22.45l25.09-1.51L113.56,0ZM123.74,62.82l-30.56,85.45h61.68l-31.12-85.45Z"/><path class="cls-1" d="M269.18,1.89h237.49v77.53h-32.45l-8.11-46.59-6.98-4.72h-36.59v201.65l7.36,7.36,25.47,1.51v22.45h-135.25v-22.45l25.84-1.51,7.36-7.36V28.11h-37.35l-6.6,4.72-7.73,46.59h-32.45V1.89Z"/><path class="cls-3" d="M523.65,1.89h141.85c29.8,0,52.5,5.47,68.1,16.41,15.59,10.94,23.39,26.85,23.39,47.72,0,18.61-6.07,33.45-18.2,44.52-12.14,11.07-30.28,18.24-54.42,21.5,8.3,1.64,15.59,3.87,21.88,6.7,6.29,2.83,11.63,6.26,16.03,10.28,9.93,8.93,19.24,25.09,27.92,48.48,2.01,5.16,3.52,9.12,4.53,11.88,4.65,11.57,10.09,19.27,16.32,23.11,6.23,3.84,15.88,5.75,28.96,5.75h4.53v22.82c-10.44.75-20.03,1.32-28.77,1.7-8.74.38-16.63.57-23.67.57-12.45,0-23.39-1.7-32.82-5.09-9.43-3.4-17.17-8.36-23.2-14.9-6.16-6.66-11.82-19.62-16.98-38.86-2.26-8.17-4.09-14.27-5.47-18.3-4.78-13.83-10.82-23.61-18.11-29.33-7.29-5.72-17.23-8.58-29.8-8.58h-3.77v81.49l6.04,7.36,25.47,1.51v22.45h-129.78v-22.45l24.71-1.51,6.22-7.36V31.5l-6.22-5.66-24.71-1.51V1.89ZM621.93,28.11v94.32c1,0,2.45.06,4.34.19,1.89.13,3.4.19,4.53.19,18.49,0,32.38-4.12,41.69-12.36,9.31-8.24,13.96-20.47,13.96-36.69,0-14.08-4.21-25.21-12.64-33.39-8.43-8.17-19.81-12.26-34.14-12.26h-17.73Z"/><path class="cls-5" d="M806.79,261.07v-22.45l27.92-1.51,6.04-7.36V31.5l-6.04-5.66-27.92-1.51V1.89h137.89v22.45l-28.48,1.51-6.22,5.66v198.25l6.22,7.36,28.48,1.51v22.45h-137.89Z"/><path class="cls-4" d="M961.85,1.89h129.4v21.13l-24.33,2.07-3.21,4.9,40.18,64.89,48.29-63.38-3.4-5.66-20.56-2.83V1.89h96.58v21.13l-24.33,2.83-76.02,93.37,77.34,115.63,26.22,4.53v21.69h-130.16v-21.69l23.2-2.64,2.64-5.47-42.44-67.15-50.74,67.15,2.45,5.85,24.71,2.26v21.69h-99.41v-21.69l25.09-2.26,76.21-97.71-73.38-113.56-24.33-2.83V1.89Z"/><path class="cls-2" d="M1364.96,261.07v-22.45l27.92-1.51,6.04-7.36V31.5l-6.04-5.66-27.92-1.51V1.89h137.89v22.45l-28.48,1.51-6.23,5.66v198.25l6.23,7.36,28.48,1.51v22.45h-137.89Z"/><path class="cls-6" d="M1519.64,1.89h237.49v77.53h-32.45l-8.11-46.59-6.98-4.72h-36.59v201.65l7.36,7.36,25.47,1.51v22.45h-135.25v-22.45l25.84-1.51,7.36-7.36V28.11h-37.35l-6.6,4.72-7.73,46.59h-32.45V1.89Z"/><rect class="cls-8" x="1589.43" y="219.86" width="168.22" height="51.04" rx="25.52" ry="25.52" transform="translate(-17.67 218.03) rotate(-7.41)"/><path class="cls-7" d="M1617.07,256.94l3.31-.37c.21,1.82,1.86,3.63,5.14,3.2,3.3-.43,4.24-2.49,4.04-4.04-.2-1.55-1.31-2.19-3.51-2.11l-3.97.15c-3.74.12-5.7-1.74-6.1-4.77-.44-3.36,1.73-7.18,6.93-7.86,3.84-.5,7.98.66,8.75,5.85l-3.36.44c-.46-1.94-1.74-3.37-4.95-2.96-2.74.36-4.25,2.25-4.04,3.85.22,1.7,1.44,1.99,3.49,1.91l3.82-.13c4.12-.14,5.99,2.12,6.36,4.95.43,3.3-1.34,7.34-6.79,8.05-4.79.62-8.47-1.41-9.12-6.16Z"/><path class="cls-7" d="M1635.21,253.82c-.63-4.88,2.24-8.1,5.78-8.56,3.57-.46,7.15,1.91,7.78,6.79s-2.24,8.1-5.78,8.56-7.15-1.91-7.78-6.79ZM1645.44,252.49c-.39-3.03-2.02-4.12-4.01-3.86s-3.31,1.73-2.92,4.77,2.05,4.12,4.04,3.86,3.28-1.73,2.89-4.76Z"/><path class="cls-7" d="M1649.18,238.03l3.3-.43,2.79,21.42-3.3.43-2.79-21.42Z"/><path class="cls-7" d="M1656.83,252.64l-1.21-9.28,3.3-.43,1.2,9.25c.25,1.9,1.64,2.6,2.8,2.42,1.42-.25,2.46-1.35,2.96-3.08l-1.22-9.34,3.3-.43,2,15.35-3.3.43-.23-1.78c-.91,1.12-2.18,2.1-3.52,2.27-3.51.46-5.66-2.11-6.09-5.38Z"/><path class="cls-7" d="M1672.58,244.12l-1.88.24-.38-2.92,1.88-.24-.79-6.07,3.3-.43.79,6.07,4.17-.54.38,2.92-4.17.54,1.62,12.43-3.3.43-1.62-12.43Z"/><path class="cls-7" d="M1681.46,235.64c-.13-.98.6-1.89,1.58-2.02.95-.12,1.89.57,2.02,1.55.13.98-.6,1.89-1.55,2.02-.98.13-1.92-.57-2.05-1.55ZM1682.28,239.89l3.3-.43,2,15.35-3.3.43-2-15.35Z"/><path class="cls-7" d="M1688.79,246.85c-.63-4.88,2.24-8.1,5.78-8.56,3.57-.46,7.15,1.91,7.78,6.79s-2.24,8.1-5.78,8.56c-3.54.46-7.15-1.91-7.78-6.79ZM1699.02,245.52c-.39-3.03-2.02-4.12-4.01-3.86s-3.31,1.73-2.92,4.77,2.05,4.12,4.04,3.86,3.28-1.73,2.89-4.76Z"/><path class="cls-7" d="M1703.55,237.12l3.3-.43.23,1.78c.91-1.12,2.18-2.1,3.52-2.27,3.51-.46,5.66,2.11,6.08,5.38l1.21,9.28-3.3.43-1.2-9.25c-.25-1.93-1.64-2.6-2.8-2.42-1.42.22-2.46,1.35-2.96,3.08l1.22,9.34-3.3.43-2-15.35Z"/><path class="cls-7" d="M1719.55,245.48l3.24-.42c.14,1.04.97,1.87,2.9,1.62,1.76-.23,2.29-1.21,2.2-1.92-.09-.65-.45-1.12-1.81-1.1l-2.86.07c-2.81.03-4.28-1.26-4.58-3.58-.38-2.92,1.92-5.24,5.1-5.66,2.95-.38,5.7.59,6.18,4.25l-3.17.32c-.12-.92-.85-1.67-2.67-1.44-1.73.22-2.29,1.02-2.19,1.74.11.86.95,1.06,2.19.99l1.96-.07c3.6-.2,4.83,1.55,5.17,3.9.35,2.68-1.57,5.17-5.31,5.65-2.74.36-5.87-.69-6.34-4.35Z"/></g></svg>