<?xml version="1.0" encoding="UTF-8"?>
<svg xmlns="http://www.w3.org/2000/svg" id="Layer_1" data-name="Layer 1" viewBox="0 0 100 94.95">
  <path d="M99.82,18.3A7.87,7.87,0,0,0,93.16,12a33.71,33.71,0,0,0-3.56-.19V8a5.5,5.5,0,0,0-1-3.39,5.18,5.18,0,0,0-5.66-1.86,5.11,5.11,0,0,0-3.63,4.71c-.05,1.45,0,2.91,0,4.39H72.4c0-1.24,0-2.44,0-3.63A8.6,8.6,0,0,0,72,5.75a5.14,5.14,0,0,0-9.89,1.6c-.08,1.48,0,3,0,4.56H55.19c0-1.16,0-2.17,0-3.17A11.41,11.41,0,0,0,55,6.32a5.14,5.14,0,0,0-10.08.91c-.11,1.52,0,3,0,4.61H37.92c0-1.63.11-3.19,0-4.74a5.09,5.09,0,0,0-6.07-4.46,5.19,5.19,0,0,0-4.22,5.25c0,1.32,0,2.64,0,4H20.75c0-1.52.05-3,0-4.44A4.86,4.86,0,0,0,18,3.12a5.18,5.18,0,0,0-7.55,4.65c0,1.35,0,2.71,0,4.14H8.63C3.38,11.91,0,15.26,0,20.49Q0,38.57,0,56.63a4.45,4.45,0,0,0,0,1,1.37,1.37,0,0,0,1.37,1.17,1.37,1.37,0,0,0,1.47-1.16,3.93,3.93,0,0,0,0-1q0-11.91,0-23.83V31.67H97.07V32.9q0,21.93,0,43.86c0,.84.12,1.6,1,1.9s1.48-.2,1.93-.91v-59A4.07,4.07,0,0,1,99.82,18.3ZM82.17,7.93a2.25,2.25,0,1,1,4.49,0q0,4.5,0,9a2.26,2.26,0,1,1-4.49-.06c0-1.5,0-3,0-4.49S82.15,9.39,82.17,7.93ZM65,8a2.27,2.27,0,1,1,4.5,0q0,4.39,0,8.79a2.26,2.26,0,1,1-4.5,0c0-1.47,0-2.93,0-4.39S64.94,9.48,65,8ZM50,5.47A2.3,2.3,0,0,1,52.25,8c0,1.5,0,3,0,4.49s0,2.87,0,4.3a2.27,2.27,0,1,1-4.5,0q0-4.38,0-8.78A2.3,2.3,0,0,1,50,5.47ZM30.55,8A2.26,2.26,0,1,1,35,8c0,1.46,0,2.92,0,4.39s0,2.93,0,4.39a2.26,2.26,0,0,1-2.26,2.51,2.28,2.28,0,0,1-2.23-2.55Q30.51,12.38,30.55,8Zm-15-2.52A2.25,2.25,0,0,1,17.83,7.9c0,1.53,0,3.06,0,4.59s0,2.92,0,4.39a2.25,2.25,0,1,1-4.48,0c0-3,0-6,0-9A2.3,2.3,0,0,1,15.59,5.47ZM97.07,28.61H2.94c0-2.61,0-5.17,0-7.74A10.21,10.21,0,0,1,3,19.12a5,5,0,0,1,4.28-4.21,24.8,24.8,0,0,1,3.12,0c0,.78,0,1.52,0,2.26a5.22,5.22,0,0,0,4.63,5.09,5.13,5.13,0,0,0,5.55-3.91,23.9,23.9,0,0,0,.25-3.44h6.7c0,1,0,1.95.15,2.91a5.15,5.15,0,0,0,10.12.46,24.18,24.18,0,0,0,.23-3.36h6.83c0,.93-.08,1.86,0,2.78a5.14,5.14,0,0,0,10,1.06,9.47,9.47,0,0,0,.3-2c0-.58,0-1.17,0-1.82H62c0,.71,0,1.39,0,2.07A5.18,5.18,0,1,0,72.39,17c0-.68,0-1.36,0-2.12h6.85c0,.68,0,1.36,0,2A5.18,5.18,0,1,0,89.6,17c0-.67,0-1.35,0-2.22a22.09,22.09,0,0,1,3.84.35A4.79,4.79,0,0,1,97,19.29a8.83,8.83,0,0,1,0,1.36Z" transform="translate(0 -2.52)" fill="#666"></path>
  <path d="M98,83c-.91.35-1,1.1-1,1.93,0,.68,0,1.36,0,2,0,4.63-2.94,7.59-7.54,7.59H10.46c-4.56,0-7.52-3-7.52-7.51,0-7.1,0-14.2,0-21.29,0-.56,0-1.11,0-1.66a1.42,1.42,0,0,0-1.5-1.37A1.42,1.42,0,0,0,0,64.07a2.68,2.68,0,0,0,0,.49C0,72.18,0,79.8,0,87.42a10.53,10.53,0,0,0,.5,3.15,9.87,9.87,0,0,0,9.71,6.9q39.78,0,79.56,0h.59a10,10,0,0,0,7-3.31A11.78,11.78,0,0,0,100,88.89V83.8C99.49,83.19,99,82.62,98,83Z" transform="translate(0 -2.52)" fill="#666"></path>
  <path d="M52.41,77c-4,1.54-8.09-.84-9-5.18a2.76,2.76,0,0,0-3-2.49c-1.43,0-2.86,0-4.29,0a2.71,2.71,0,0,0-2.65,3.16A16.61,16.61,0,1,0,54.2,54.71a57.88,57.88,0,0,0-5.94-.8c.23-1.37.53-2.86.71-4.36.09-.72.36-.9,1.05-.9,3.18,0,6.37,0,9.56,0a2.83,2.83,0,0,0,3.07-3c0-1.27,0-2.54,0-3.8a2.81,2.81,0,0,0-2.94-3.07c-5,0-10-.07-14.94,0A4.74,4.74,0,0,0,40,43c-.94,5.55-1.83,11.1-2.78,16.65a4.93,4.93,0,0,0,1.83,5.12,4.75,4.75,0,0,0,5.33.46,12.07,12.07,0,0,1,5.77-1.15A6.67,6.67,0,0,1,52.41,77Zm-.55-15.63a13.66,13.66,0,0,0-8.46,1.14,2.24,2.24,0,0,1-2.57,0A2.36,2.36,0,0,1,40.15,60Q41.5,52,42.78,44.08c.3-1.87.89-2.41,2.77-2.41q6.54,0,13.08,0c.32,0,.64,0,1,0v4H58.58c-3.41,0-6.83,0-10.25,0-1.3,0-1.75.37-2,1.66-.44,2.63-.87,5.27-1.28,7.9-.22,1.36.41,2.05,1.81,1.92a18.16,18.16,0,0,1,6.77.35,13.68,13.68,0,0,1-5,26.81c-6.32-.59-11.89-6.07-12.22-12.15,1.22,0,2.36,0,3.49,0,.24,0,.59.41.67.69A9.61,9.61,0,1,0,51.86,61.34Z" transform="translate(0 -2.52)" fill="#666"></path>
  <path d="M14,63.07a1.46,1.46,0,0,0,1.63,1.43c1.27,0,2.53,0,3.8,0s2.54,0,3.81,0c1.09,0,1.69-.56,1.68-1.46a1.45,1.45,0,0,0-1.61-1.45c-2.57,0-5.14,0-7.71,0A1.47,1.47,0,0,0,14,63.07Z" transform="translate(0 -2.52)" fill="#666"></path>
  <path d="M86.05,63.07a1.48,1.48,0,0,0-1.61-1.48c-2.57,0-5.14,0-7.71,0a1.46,1.46,0,0,0-1.61,1.46c0,.89.61,1.44,1.69,1.45,1.24,0,2.47,0,3.71,0s2.6,0,3.9,0A1.46,1.46,0,0,0,86.05,63.07Z" transform="translate(0 -2.52)" fill="#666"></path>
  <path d="M22.47,68.63c-.44.38-.83.81-1.25,1.23q-2,2-3.92,3.94A1.25,1.25,0,0,0,17,75.48a5.71,5.71,0,0,0,1.17,1,4.18,4.18,0,0,0,1-.48c1.79-1.75,3.58-3.51,5.31-5.31a1.35,1.35,0,0,0-.05-2A1.38,1.38,0,0,0,22.47,68.63Z" transform="translate(0 -2.52)" fill="#666"></path>
  <path d="M76.5,68.06c-.44.35-1.1.62-1.19,1a2.24,2.24,0,0,0,.36,1.74c1.56,1.7,3.22,3.3,4.87,4.92a1.47,1.47,0,1,0,2-2.06C81,72,79.34,70.4,77.69,68.79A6.57,6.57,0,0,0,76.5,68.06Z" transform="translate(0 -2.52)" fill="#666"></path>
  <path d="M22.55,57.51a1.88,1.88,0,0,0,1.59.11c.39-.14.61-.73.88-1.1a4,4,0,0,0-.48-1c-1.75-1.79-3.51-3.57-5.3-5.31a1.3,1.3,0,0,0-1.93,0,1.27,1.27,0,0,0-.15,1.92C18.91,54,20.69,55.78,22.55,57.51Z" transform="translate(0 -2.52)" fill="#666"></path>
  <path d="M82.31,50a1.34,1.34,0,0,0-1.75.37c-1.63,1.64-3.27,3.26-4.89,4.9a1.49,1.49,0,0,0-.16,2.17,1.52,1.52,0,0,0,2.25-.13c1.62-1.6,3.23-3.2,4.82-4.83a7.88,7.88,0,0,0,.79-1.27A6.42,6.42,0,0,0,82.31,50Z" transform="translate(0 -2.52)" fill="#666"></path>
</svg>
