<?xml version="1.0" encoding="UTF-8"?>
<svg xmlns="http://www.w3.org/2000/svg" id="Layer_1" data-name="Layer 1" viewBox="0 0 100 100">
  <path d="M91.56,65.51a1.58,1.58,0,0,0-2.42,0c-.8.79-1.56,1.63-2.39,2.5-2.49-2.51-4.84-4.85-7.16-7.22a2.08,2.08,0,0,1-.41-1.05c-.44-2.63-.79-5.28-1.29-7.9a4.2,4.2,0,0,0-1-2.09c-5.9-6-11.85-11.9-17.79-17.83-.5-.51-1-1-1.54-1.5A5.2,5.2,0,0,0,49.4,32c-.07.13-.16.25-.28.43a5.29,5.29,0,0,0-9,1.16c-.31-.18-.56-.34-.81-.47a5.06,5.06,0,0,0-7.31,3,2.17,2.17,0,0,1-1.81,1.77,5.09,5.09,0,0,0-2,8.57c3.4,3.46,6.85,6.87,10.28,10.29l.65.69c-1.51.51-2.93,1-4.34,1.46-2.76.95-3.3,3.35-1.22,5.43,3.74,3.75,7.52,7.47,11.24,11.26a8,8,0,0,0,5.91,2.52c3.45.05,6.9.21,10.35.29a2.28,2.28,0,0,1,1.7.74c1.86,1.91,3.76,3.78,5.65,5.67.22.22.42.46.7.78-1.23,1.21-2.43,2.35-3.59,3.54a1.54,1.54,0,0,0-.08,2.33c2.84,2.86,5.71,5.68,8.57,8.52H75.2c1.28-1.18,1.3-1.88,0-3.14l-6.48-6.41L90.43,68.77c2.13,2.14,4.28,4.31,6.44,6.47,1.26,1.27,2,1.25,3.13,0V74C97.19,71.18,94.39,68.34,91.56,65.51ZM71.29,83.24c-.2-.2-.46-.42-.7-.66-2.14-2.14-4.26-4.31-6.45-6.39a3.08,3.08,0,0,0-1.86-.8c-3.93-.19-7.87-.29-11.81-.4a4.31,4.31,0,0,1-3.08-1.23L36,62.36a5.76,5.76,0,0,1-.36-.48,33.24,33.24,0,0,1,3.6-1.1,5.26,5.26,0,0,1,4.82,1.58L47.72,66c1,1,1.92,1.09,2.62.36s.57-1.58-.4-2.54L30.83,44.7a6,6,0,0,1-.72-.79A2,2,0,0,1,33,41.15a7.76,7.76,0,0,1,.79.73l10.7,10.7a6.06,6.06,0,0,0,.64.6A1.54,1.54,0,0,0,47.24,51a6.48,6.48,0,0,0-.66-.72Q41.3,45,36,39.73c-.23-.23-.47-.45-.68-.7a2,2,0,0,1,2.89-2.87c.49.42.94.9,1.4,1.36l9.76,9.84c.21.21.41.43.63.62a1.55,1.55,0,0,0,2.18-2.21c-.19-.22-.41-.42-.61-.63q-4-4-7.94-7.94a2.07,2.07,0,0,1-.48-2.57,1.89,1.89,0,0,1,2.22-1,3.52,3.52,0,0,1,1.36.87c2.69,2.65,5.34,5.35,8,8a2.46,2.46,0,0,0,1.57.76,2.06,2.06,0,0,0,1.29-1c.4-.63.05-1.26-.44-1.75-1.44-1.45-2.91-2.88-4.33-4.36a2.37,2.37,0,0,1-.79-1.39,3,3,0,0,1,.65-2,2.67,2.67,0,0,1,2-.35,2.8,2.8,0,0,1,1.34.9q9.09,9.06,18.14,18.17a3.19,3.19,0,0,1,.76,1.6c.47,2.62.81,5.27,1.29,7.89a3.59,3.59,0,0,0,.9,1.75c2.4,2.47,4.86,4.89,7.31,7.33Z" fill="#666"></path>
  <path d="M44.78,29a1.55,1.55,0,0,0,2.32-.24C48,27.87,48.8,27,49.57,26a2.64,2.64,0,0,1,1.8-1c2.64-.38,5.28-.77,7.9-1.25a3.42,3.42,0,0,0,1.66-.89c2.27-2.19,4.48-4.44,6.72-6.67.22-.22.46-.42.59-.54L81.35,28.78c-.16.16-.37.4-.6.63-2.16,2.17-4.35,4.31-6.47,6.51a2.84,2.84,0,0,0-.75,1.6c-.15,2.08-.18,4.16-.22,6.24a1.55,1.55,0,0,0,1.52,1.78c1,0,1.54-.57,1.59-1.69.08-1.73.09-3.45.18-5.17a1.69,1.69,0,0,1,.37-1c2.21-2.26,4.45-4.48,6.76-6.78L87,34.2c1.12,1.12,1.85,1.13,3,0l7.39-7.39a3.1,3.1,0,0,0,.45-.51,1.47,1.47,0,0,0-.21-2,1.43,1.43,0,0,0-2-.11,8.88,8.88,0,0,0-.78.73l-6.27,6.28L67,9.52,73.43,3.1c1.23-1.24,1.18-2-.19-3.1h-1c-.3.25-.61.47-.89.75L63.86,8.27c-1,1-1,1.74,0,2.75.74.76,1.49,1.5,2.27,2.28-2.43,2.42-4.75,4.75-7.1,7.05a2.18,2.18,0,0,1-1.12.48c-2.66.44-5.33.81-8,1.28a3.43,3.43,0,0,0-1.7.79c-1.2,1.19-2.29,2.49-3.41,3.76A1.61,1.61,0,0,0,44.78,29Z" fill="#666"></path>
  <path d="M43.65,76c-1.57-.1-3.24-.19-4.49,1-2.27,2.19-4.48,4.45-6.71,6.68-.25.25-.51.48-.71.67L18.58,71.23c2.26-2.25,4.54-4.56,6.88-6.82a3.33,3.33,0,0,0,1.08-2.49q.11-5.62.33-11.23a9.1,9.1,0,0,1,.4-2.18,1.62,1.62,0,0,0-.81-2.14,1.53,1.53,0,0,0-2.1,1,7.72,7.72,0,0,0-.55,2.25c-.17,3.84-.26,7.68-.4,11.51a1.81,1.81,0,0,1-.27,1.09c-2.23,2.31-4.51,4.58-6.85,6.92-1.23-1.25-2.38-2.44-3.56-3.6a1.59,1.59,0,0,0-2.49,0Q6.3,69.47,2.37,73.42a1.53,1.53,0,0,0-.09,2.27,1.53,1.53,0,0,0,2.26,0c.67-.62,1.3-1.28,1.94-1.93,1.65-1.65,3.29-3.31,4.84-4.87L33,90.51,26.49,97c-1.17,1.18-1.09,2,.27,3h1a5.87,5.87,0,0,0,.61-.48c2.68-2.66,5.36-5.32,8-8a1.49,1.49,0,0,0,0-2.33c-.79-.81-1.64-1.55-2.54-2.41,2-1.94,3.81-3.72,5.58-5.57,1.12-1.17,2.22-2.27,4-2.25a.77.77,0,0,0,.54-.18c.3-.49.78-1,.75-1.54S44,76,43.65,76Z" fill="#666"></path>
  <path d="M11.06,34.27c.72-.74,1.39-1.52,2.15-2.35,2.33,2.34,4.43,4.51,6.6,6.61a3.52,3.52,0,0,1,1.11,2.28c.13,1.13.34,2.25.55,3.37a1.51,1.51,0,0,0,1.81,1.34,1.54,1.54,0,0,0,1.25-1.88c-.24-1.61-.45-3.23-.78-4.81a3.3,3.3,0,0,0-.87-1.57c-2.17-2.25-4.4-4.44-6.6-6.65-.25-.24-.49-.5-.65-.67L28.76,16.81c.18.16.42.37.64.6,2.17,2.16,4.31,4.34,6.51,6.47a2.54,2.54,0,0,0,1.41.73c1.94.18,3.89.27,5.84.36A1.61,1.61,0,0,0,45,23.45c0-.91-.65-1.53-1.73-1.59-1.49-.09-3-.11-4.48-.27A2.6,2.6,0,0,1,37.4,21c-2-1.94-4-3.94-5.95-5.92-.17-.18-.32-.38-.55-.64,1.2-1.18,2.37-2.31,3.5-3.46a1.57,1.57,0,0,0,.15-2.42C31.71,5.66,28.84,2.84,26,0H24.8c-1.16,1.06-1.26,1.82-.38,2.79.22.24.46.46.69.69l6.11,6.09L9.55,31.23c-2.14-2.16-4.31-4.36-6.5-6.54C1.83,23.46,1,23.56,0,25v1c.26.28.5.57.77.84q3.73,3.73,7.46,7.46C9.25,35.3,10,35.3,11.06,34.27Z" fill="#666"></path>
</svg>
