<?xml version="1.0" encoding="UTF-8"?>
<svg xmlns="http://www.w3.org/2000/svg" id="Layer_1" data-name="Layer 1" viewBox="0 0 100 97.68">
  <path d="M10.11,73.64c4.69-.78,9.36-1.64,14.06-2.33,2.93-.44,4.81-1.88,5.61-4.73.68-2.41,1.44-4.79,2.24-7.41,1.6,1.69,3.12,3.16,4.44,4.78a6,6,0,0,1,1.15,2.7c.59,3.21,1,6.44,1.56,9.66.32,2,.62,3.93,1,5.89A1.54,1.54,0,0,0,42,83.46a1.59,1.59,0,0,0,1.37-1.77,8.86,8.86,0,0,0-.12-1c-.68-4.27-1.5-8.53-2-12.82a13.11,13.11,0,0,0-4.11-8.18c-3.08-3-6-6.14-9-9.2a5.1,5.1,0,0,1-1.53-3.81c0-5.12,0-10.24,0-15.36,0-1.85-.9-2.49-2.68-1.91-2.76.91-5.51,1.85-8.29,2.72a2.37,2.37,0,0,0-1.76,2c-.5,2.6-1.1,5.17-1.63,7.76-.16.77-.49,1.37-1.34,1.21s-.85-.87-.72-1.56c.64-3.27,1.23-6.55,1.94-9.8a2.46,2.46,0,0,1,1.11-1.44c3.55-1.88,7.13-3.68,10.72-5.47a4,4,0,0,1,1.58-.41c3.95-.08,7.91-.09,11.87-.18a6.53,6.53,0,0,1,3.82,1.09c2.42,1.55,4.87,3,7.28,4.61a2.15,2.15,0,0,0,2.59,0c2.07-1.32,4.18-2.58,6.26-3.88.62-.38,1.23-.61,1.72.1s0,1.21-.58,1.6c-2.64,1.64-5.27,3.31-7.95,4.89a2.13,2.13,0,0,1-1.61,0c-1-.37-1.85-.94-2.78-1.4a1.68,1.68,0,0,0-2.35.58,1.65,1.65,0,0,0,.81,2.33c.82.46,1.69.82,2.48,1.31a4.68,4.68,0,0,0,5.37-.12c2.59-1.65,5.23-3.24,7.84-4.88A4.28,4.28,0,0,0,62,24.42a4.39,4.39,0,0,0-6.2-1.21c-1.72,1-3.44,2.07-5.12,3.16a1.24,1.24,0,0,1-1.58,0C47,25,44.8,23.69,42.67,22.33A8.64,8.64,0,0,0,37.85,21c-4.17.07-8.33.09-12.5.19a5.62,5.62,0,0,0-2.3.49c-3.94,1.94-7.85,3.95-11.75,6A4.25,4.25,0,0,0,9,30.71c-.69,3.51-1.39,7-2,10.52A4.35,4.35,0,1,0,15.45,43c.54-2.34,1-4.7,1.54-7,.07-.33.28-.78.54-.88,1.88-.68,3.79-1.28,5.8-1.94v1.22c0,4.16,0,8.32,0,12.48a8,8,0,0,0,2.36,5.87c1.06,1.08,2.14,2.15,3.15,3.29a1.43,1.43,0,0,1,.31,1.13c-.86,3-1.79,6-2.69,9A2.54,2.54,0,0,1,24.23,68L15.3,69.42c-2.36.39-4.72.76-7.08,1.19a1.56,1.56,0,0,0-1.36,1.87,1.62,1.62,0,0,0,1.81,1.34A14.16,14.16,0,0,0,10.11,73.64Z" transform="translate(0 -1.16)" fill="#666"></path>
  <path d="M99.16,57.52a2,2,0,0,0,.84-2q0-12,0-24c0-2.12-1.12-2.79-3-1.79L75.51,41.11c-.71.37-1.32.79-1.34,1.67s.58,1.32,1.27,1.73c1.85,1.07,3.68,2.18,5.6,3.32-2.81,4.65-5.54,9.19-8.3,13.72A74.24,74.24,0,0,1,56.29,80.82,63.46,63.46,0,0,1,18.92,95.41c-2.9.16-5.82-.06-8.73-.14a1.77,1.77,0,0,0-2,1.48,1.68,1.68,0,0,0,1.51,1.78c.41.07.83.12,1.24.15a66.67,66.67,0,0,0,29.92-4.84A68.71,68.71,0,0,0,72.22,68.31c4.43-6.48,8.3-13.32,12.4-20a1.64,1.64,0,0,0-.69-2.6c-1.51-.92-3.05-1.82-4.71-2.81l17.35-9.17V53.15l-4.4-2.59c-1.48-.86-2.18-.69-3.06.77q-4.2,6.93-8.38,13.88a5,5,0,0,0-.39.72,1.52,1.52,0,0,0,.64,2,1.55,1.55,0,0,0,2.08-.25,5.11,5.11,0,0,0,.64-.93Q87.26,60.85,90.79,55l.64-1c1.88,1.11,3.69,2.17,5.5,3.26A2,2,0,0,0,99.16,57.52Z" transform="translate(0 -1.16)" fill="#666"></path>
  <path d="M45.22,56.43c-1.7-2.29-3.18-4.74-4.7-7.16A3.45,3.45,0,0,1,40,47.56c0-6,0-12,0-17.93,0-1.3-.62-2.06-1.65-2.06s-1.68.74-1.68,2c0,3.16,0,6.32,0,9.48s0,6.25,0,9.37a3.81,3.81,0,0,0,.58,1.91c2,3.19,4.18,6.31,6.17,9.53a8.75,8.75,0,0,1,1.25,3.33c.48,3.6.77,7.23,1.14,10.85.28,2.67.54,5.33.84,8A1.66,1.66,0,1,0,50,81.83c0-.24,0-.48-.06-.72-.54-5.19-1.16-10.37-1.58-15.57A16.73,16.73,0,0,0,45.22,56.43Z" transform="translate(0 -1.16)" fill="#666"></path>
  <path d="M33.36,17.66a8.35,8.35,0,0,0,8.3-8.32A8.34,8.34,0,0,0,25,9.43,8.32,8.32,0,0,0,33.36,17.66Zm.15-13.2a5,5,0,1,1-5.19,5A5.05,5.05,0,0,1,33.51,4.46Z" transform="translate(0 -1.16)" fill="#666"></path>
  <path d="M21,63.69a2.14,2.14,0,0,0,1.68-1.61c.55-1.91,1.15-3.81,1.71-5.72a1.68,1.68,0,0,0-1-2.33c-.94-.29-1.79.25-2.15,1.4-.44,1.41-.89,2.81-1.27,4.24a1.56,1.56,0,0,1-1.28,1.25q-6.27,1.62-12.53,3.34A8.23,8.23,0,0,0,0,71.82c0,1.21.58,2,1.59,2s1.64-.62,1.74-1.77a4.94,4.94,0,0,1,4-4.7C11.86,66.13,16.43,64.89,21,63.69Z" transform="translate(0 -1.16)" fill="#666"></path>
  <path d="M96.66,72.3a1.57,1.57,0,0,0,1.63,1.62A1.82,1.82,0,0,0,100,72.07a1.67,1.67,0,1,0-3.32.23Z" transform="translate(0 -1.16)" fill="#666"></path>
  <path d="M98.35,77.06a1.68,1.68,0,0,0-1.69,1.8,1.56,1.56,0,0,0,1.58,1.66A1.82,1.82,0,0,0,100,78.71,1.66,1.66,0,0,0,98.35,77.06Z" transform="translate(0 -1.16)" fill="#666"></path>
  <path d="M98.37,83.66a1.67,1.67,0,0,0-1.71,1.78,1.56,1.56,0,0,0,1.57,1.68,1.83,1.83,0,0,0,1.75-1.8A1.66,1.66,0,0,0,98.37,83.66Z" transform="translate(0 -1.16)" fill="#666"></path>
  <path d="M78.45,70.5a1.94,1.94,0,0,0-1.82,1.66,1.61,1.61,0,0,0,1.59,1.68,1.75,1.75,0,0,0,1.87-1.68A1.67,1.67,0,0,0,78.45,70.5Z" transform="translate(0 -1.16)" fill="#666"></path>
</svg>
