<?xml version="1.0" encoding="UTF-8"?>
<svg xmlns="http://www.w3.org/2000/svg" id="Layer_1" data-name="Layer 1" viewBox="0 0 99.72 99.8">
  <path d="M34.17,100c-1-.13-2-.23-3-.38q-18.68-3-27.26-19.82A34,34,0,0,1,.51,60.33a35.37,35.37,0,0,1,10.8-22,1.48,1.48,0,0,1,2.16-.22,1.47,1.47,0,0,1-.07,2.24,36.09,36.09,0,0,0-5.6,7.07,32.85,32.85,0,0,0,4.47,39.33,31.74,31.74,0,0,0,19,9.9A31.91,31.91,0,0,0,56.42,90,32.24,32.24,0,0,0,68,72.08a2,2,0,0,0,0-.35c-11.23.87-21.07-2.35-29.07-10.36S27.67,43.54,28.55,32.21a30.64,30.64,0,0,0-7.33,2.65c-.55.28-1.08.6-1.64.86a1.48,1.48,0,0,1-2.11-.54,1.52,1.52,0,0,1,.78-2,34.47,34.47,0,0,1,9.83-3.83,1.41,1.41,0,0,0,1.24-1.2c3.73-14.31,12.8-23.43,27.12-27,16.29-4,33.81,5,40.48,20.43a36.4,36.4,0,0,1,2.94,11.64A6.42,6.42,0,0,0,100,34v4.68a8.39,8.39,0,0,0-.18.84,34.49,34.49,0,0,1-4.91,14.93A35.4,35.4,0,0,1,72,71a1.15,1.15,0,0,0-1,1,34.57,34.57,0,0,1-7.5,15.2A34.83,34.83,0,0,1,44.85,98.85c-2.16.54-4.39.78-6.59,1.15ZM62.92,40.29,88.8,14.41l-3-3.18L59.88,37.17ZM72,64.66c.31-.29.57-.52.81-.76Q84.3,52.44,95.76,41A3.41,3.41,0,0,0,97,38.4c0-1.75,0-3.5,0-5.36a2.09,2.09,0,0,0-.39.19L71.81,58a1.1,1.1,0,0,0-.33.66C71.63,60.63,71.82,62.58,72,64.66ZM57.07,35.14l26-26L79.23,6.81,53.29,32.75ZM91,17,65,43l2.57,4,.46-.44L92.9,21.73c.09-.09.23-.17.26-.28s.19-.51.1-.67C92.52,19.49,91.75,18.23,91,17ZM35.33,28l.17.24c1.8.15,3.6.33,5.41.41a2,2,0,0,0,1.34-.48q12.11-12,24.17-24.15c.18-.18.34-.39.6-.7-2.08,0-4,0-5.89,0a2.19,2.19,0,0,0-1.69.77Q47.8,15.8,36.11,27.45A6.31,6.31,0,0,1,35.33,28Zm59.58-3.82-.46-.27a4,4,0,0,1-.55.92Q87.35,31.45,80.77,38q-5.61,5.61-11.2,11.22c-.26.26-.56.76-.47,1,.48,1.53,1.06,3,1.65,4.62.3-.28.56-.51.8-.75q7.89-7.87,15.76-15.76c2.82-2.82,5.65-5.63,8.44-8.47a1.52,1.52,0,0,0,.46-1.13C95.84,27.23,95.36,25.73,94.91,24.21ZM45.19,29.47c1.47.52,2.82.94,4.13,1.48a1.24,1.24,0,0,0,1.59-.32Q63.09,18.38,75.33,6.17c.22-.22.43-.46.76-.82-1.52-.44-2.92-.79-4.29-1.25A1.51,1.51,0,0,0,70,4.58Q58,16.66,45.93,28.69C45.71,28.91,45.49,29.15,45.19,29.47ZM42.47,60.84,60.83,42.49l-3.15-3.31L39.19,57.67Zm6.6,4.47L65.32,49.05l-2.41-3.91L45.15,62.91ZM37.41,55.25,55.28,37.41c-1.47-.87-2.73-1.65-4-2.36a1.07,1.07,0,0,0-.88.26c-.92.86-1.8,1.78-2.69,2.67Q41.56,44.1,35.42,50.22c-.42.42-.62.74-.25,1.31C35.91,52.67,36.58,53.86,37.41,55.25ZM73.24,67.58C83.45,65,92.94,55.87,95.51,45.21Zm-6.41-15.2L52.39,66.83c1.48.43,3.06.9,4.65,1.32a.94.94,0,0,0,.74-.26q5.07-5,10.11-10.12a1,1,0,0,0,.27-.74C67.74,55.44,67.26,53.86,66.83,52.38ZM48,33.46c-1.79-.51-3.34-1-4.9-1.37a1,1,0,0,0-.83.26q-5,5-10,10a.9.9,0,0,0-.25.67c.42,1.61.88,3.21,1.33,4.82l.34.14ZM54.43,4.77C44.25,7.51,35.31,16.91,32.91,26.29ZM68.82,61.51l-7.33,7.3c1.8,0,3.8,0,5.81,0a1.38,1.38,0,0,0,1.5-1.44C68.84,65.33,68.82,63.3,68.82,61.51Zm-30-30c-2.05,0-4.12,0-6.18,0-.37,0-1,.55-1,.86-.09,2.14,0,4.28,0,6.36Z" transform="translate(-0.28 -0.2)" fill="#666"></path>
</svg>
